G04 #@! TF.GenerationSoftware,KiCad,Pcbnew,5.1.7-a382d34a8~88~ubuntu18.04.1*
G04 #@! TF.CreationDate,2020-12-29T23:08:14-05:00*
G04 #@! TF.ProjectId,snowflake-right,736e6f77-666c-4616-9b65-2d7269676874,rev?*
G04 #@! TF.SameCoordinates,Original*
G04 #@! TF.FileFunction,Soldermask,Top*
G04 #@! TF.FilePolarity,Negative*
%FSLAX46Y46*%
G04 Gerber Fmt 4.6, Leading zero omitted, Abs format (unit mm)*
G04 Created by KiCad (PCBNEW 5.1.7-a382d34a8~88~ubuntu18.04.1) date 2020-12-29 23:08:14*
%MOMM*%
%LPD*%
G01*
G04 APERTURE LIST*
%ADD10R,0.355600X1.168400*%
%ADD11C,2.200000*%
%ADD12C,3.000000*%
%ADD13C,3.987800*%
%ADD14C,1.701800*%
%ADD15O,1.700000X1.700000*%
%ADD16R,1.700000X1.700000*%
%ADD17R,0.600000X1.000000*%
G04 APERTURE END LIST*
D10*
X93139999Y-83764800D03*
X93789998Y-85695200D03*
X92490000Y-85695200D03*
D11*
X140750000Y-126450000D03*
X92550000Y-126950000D03*
X224950000Y-111550000D03*
X187350000Y-55750000D03*
X86550000Y-81150000D03*
G36*
G01*
X87325000Y-85437500D02*
X87325000Y-84962500D01*
G75*
G02*
X87562500Y-84725000I237500J0D01*
G01*
X88062500Y-84725000D01*
G75*
G02*
X88300000Y-84962500I0J-237500D01*
G01*
X88300000Y-85437500D01*
G75*
G02*
X88062500Y-85675000I-237500J0D01*
G01*
X87562500Y-85675000D01*
G75*
G02*
X87325000Y-85437500I0J237500D01*
G01*
G37*
G36*
G01*
X85500000Y-85437500D02*
X85500000Y-84962500D01*
G75*
G02*
X85737500Y-84725000I237500J0D01*
G01*
X86237500Y-84725000D01*
G75*
G02*
X86475000Y-84962500I0J-237500D01*
G01*
X86475000Y-85437500D01*
G75*
G02*
X86237500Y-85675000I-237500J0D01*
G01*
X85737500Y-85675000D01*
G75*
G02*
X85500000Y-85437500I0J237500D01*
G01*
G37*
D12*
X91340000Y-134460000D03*
X84990000Y-137000000D03*
D13*
X88800000Y-139540000D03*
D14*
X93880000Y-139540000D03*
X83720000Y-139540000D03*
D12*
X108340000Y-130460000D03*
X101990000Y-133000000D03*
D13*
X105800000Y-135540000D03*
D14*
X110880000Y-135540000D03*
X100720000Y-135540000D03*
D12*
X125340000Y-130460000D03*
X118990000Y-133000000D03*
D13*
X122800000Y-135540000D03*
D14*
X127880000Y-135540000D03*
X117720000Y-135540000D03*
D12*
X142340000Y-133460000D03*
X135990000Y-136000000D03*
D13*
X139800000Y-138540000D03*
D14*
X144880000Y-138540000D03*
X134720000Y-138540000D03*
D12*
X187340000Y-128020000D03*
X180990000Y-130560000D03*
D13*
X184800000Y-133100000D03*
D14*
X189880000Y-133100000D03*
X179720000Y-133100000D03*
D12*
X99340000Y-109290000D03*
X92990000Y-111830000D03*
D13*
X96800000Y-114370000D03*
D14*
X101880000Y-114370000D03*
X91720000Y-114370000D03*
D12*
X119340000Y-112290000D03*
X112990000Y-114830000D03*
D13*
X116800000Y-117370000D03*
D14*
X121880000Y-117370000D03*
X111720000Y-117370000D03*
D12*
X136340000Y-109290000D03*
X129990000Y-111830000D03*
D13*
X133800000Y-114370000D03*
D14*
X138880000Y-114370000D03*
X128720000Y-114370000D03*
D12*
X153340000Y-104460000D03*
X146990000Y-107000000D03*
D13*
X150800000Y-109540000D03*
D14*
X155880000Y-109540000D03*
X145720000Y-109540000D03*
D12*
X170340000Y-103760000D03*
X163990000Y-106300000D03*
D13*
X167800000Y-108840000D03*
D14*
X172880000Y-108840000D03*
X162720000Y-108840000D03*
D12*
X187340000Y-112020000D03*
X180990000Y-114560000D03*
D13*
X184800000Y-117100000D03*
D14*
X189880000Y-117100000D03*
X179720000Y-117100000D03*
D12*
X204340000Y-117020000D03*
X197990000Y-119560000D03*
D13*
X201800000Y-122100000D03*
D14*
X206880000Y-122100000D03*
X196720000Y-122100000D03*
D12*
X221340000Y-119020000D03*
X214990000Y-121560000D03*
D13*
X218800000Y-124100000D03*
D14*
X223880000Y-124100000D03*
X213720000Y-124100000D03*
D12*
X99340000Y-93290000D03*
X92990000Y-95830000D03*
D13*
X96800000Y-98370000D03*
D14*
X101880000Y-98370000D03*
X91720000Y-98370000D03*
D12*
X119340000Y-96290000D03*
X112990000Y-98830000D03*
D13*
X116800000Y-101370000D03*
D14*
X121880000Y-101370000D03*
X111720000Y-101370000D03*
X128720000Y-98370000D03*
X138880000Y-98370000D03*
D13*
X133800000Y-98370000D03*
D12*
X129990000Y-95830000D03*
X136340000Y-93290000D03*
X153340000Y-88460000D03*
X146990000Y-91000000D03*
D13*
X150800000Y-93540000D03*
D14*
X155880000Y-93540000D03*
X145720000Y-93540000D03*
D12*
X170340000Y-87760000D03*
X163990000Y-90300000D03*
D13*
X167800000Y-92840000D03*
D14*
X172880000Y-92840000D03*
X162720000Y-92840000D03*
D12*
X187340000Y-96020000D03*
X180990000Y-98560000D03*
D13*
X184800000Y-101100000D03*
D14*
X189880000Y-101100000D03*
X179720000Y-101100000D03*
D12*
X204340000Y-97020000D03*
X197990000Y-99560000D03*
D13*
X201800000Y-102100000D03*
D14*
X206880000Y-102100000D03*
X196720000Y-102100000D03*
D12*
X119340000Y-80290000D03*
X112990000Y-82830000D03*
D13*
X116800000Y-85370000D03*
D14*
X121880000Y-85370000D03*
X111720000Y-85370000D03*
D12*
X136340000Y-77290000D03*
X129990000Y-79830000D03*
D13*
X133800000Y-82370000D03*
D14*
X138880000Y-82370000D03*
X128720000Y-82370000D03*
D12*
X153340000Y-72460000D03*
X146990000Y-75000000D03*
D13*
X150800000Y-77540000D03*
D14*
X155880000Y-77540000D03*
X145720000Y-77540000D03*
D12*
X170340000Y-71760000D03*
X163990000Y-74300000D03*
D13*
X167800000Y-76840000D03*
D14*
X172880000Y-76840000D03*
X162720000Y-76840000D03*
D12*
X187340000Y-80020000D03*
X180990000Y-82560000D03*
D13*
X184800000Y-85100000D03*
D14*
X189880000Y-85100000D03*
X179720000Y-85100000D03*
D12*
X204340000Y-81020000D03*
X197990000Y-83560000D03*
D13*
X201800000Y-86100000D03*
D14*
X206880000Y-86100000D03*
X196720000Y-86100000D03*
D12*
X119340000Y-64290000D03*
X112990000Y-66830000D03*
D13*
X116800000Y-69370000D03*
D14*
X121880000Y-69370000D03*
X111720000Y-69370000D03*
D12*
X136340000Y-61290000D03*
X129990000Y-63830000D03*
D13*
X133800000Y-66370000D03*
D14*
X138880000Y-66370000D03*
X128720000Y-66370000D03*
D12*
X153340000Y-56460000D03*
X146990000Y-59000000D03*
D13*
X150800000Y-61540000D03*
D14*
X155880000Y-61540000D03*
X145720000Y-61540000D03*
D12*
X170340000Y-55760000D03*
X163990000Y-58300000D03*
D13*
X167800000Y-60840000D03*
D14*
X172880000Y-60840000D03*
X162720000Y-60840000D03*
D12*
X187340000Y-64020000D03*
X180990000Y-66560000D03*
D13*
X184800000Y-69100000D03*
D14*
X189880000Y-69100000D03*
X179720000Y-69100000D03*
D12*
X204340000Y-65020000D03*
X197990000Y-67560000D03*
D13*
X201800000Y-70100000D03*
D14*
X206880000Y-70100000D03*
X196720000Y-70100000D03*
D15*
X89370000Y-88130000D03*
X91910000Y-88130000D03*
X94450000Y-88130000D03*
D16*
X96990000Y-88130000D03*
D15*
X100620000Y-88100000D03*
X103160000Y-88100000D03*
D16*
X105700000Y-88100000D03*
D15*
X216280000Y-74800000D03*
X218820000Y-74800000D03*
X221360000Y-74800000D03*
D16*
X223900000Y-74800000D03*
D17*
X81525000Y-120850000D03*
X82825000Y-120850000D03*
X81525000Y-118850000D03*
X82825000Y-118850000D03*
X81525000Y-111850000D03*
X82825000Y-111850000D03*
X81525000Y-109850000D03*
X82825000Y-109850000D03*
X81525000Y-102850000D03*
X82825000Y-102850000D03*
X81525000Y-100850000D03*
X82825000Y-100850000D03*
X81525000Y-93850000D03*
X82825000Y-93850000D03*
X81525000Y-91850000D03*
X82825000Y-91850000D03*
G36*
G01*
X82437500Y-123787500D02*
X82437500Y-123312500D01*
G75*
G02*
X82675000Y-123075000I237500J0D01*
G01*
X83275000Y-123075000D01*
G75*
G02*
X83512500Y-123312500I0J-237500D01*
G01*
X83512500Y-123787500D01*
G75*
G02*
X83275000Y-124025000I-237500J0D01*
G01*
X82675000Y-124025000D01*
G75*
G02*
X82437500Y-123787500I0J237500D01*
G01*
G37*
G36*
G01*
X80712500Y-123787500D02*
X80712500Y-123312500D01*
G75*
G02*
X80950000Y-123075000I237500J0D01*
G01*
X81550000Y-123075000D01*
G75*
G02*
X81787500Y-123312500I0J-237500D01*
G01*
X81787500Y-123787500D01*
G75*
G02*
X81550000Y-124025000I-237500J0D01*
G01*
X80950000Y-124025000D01*
G75*
G02*
X80712500Y-123787500I0J237500D01*
G01*
G37*
G36*
G01*
X82437500Y-114787500D02*
X82437500Y-114312500D01*
G75*
G02*
X82675000Y-114075000I237500J0D01*
G01*
X83275000Y-114075000D01*
G75*
G02*
X83512500Y-114312500I0J-237500D01*
G01*
X83512500Y-114787500D01*
G75*
G02*
X83275000Y-115025000I-237500J0D01*
G01*
X82675000Y-115025000D01*
G75*
G02*
X82437500Y-114787500I0J237500D01*
G01*
G37*
G36*
G01*
X80712500Y-114787500D02*
X80712500Y-114312500D01*
G75*
G02*
X80950000Y-114075000I237500J0D01*
G01*
X81550000Y-114075000D01*
G75*
G02*
X81787500Y-114312500I0J-237500D01*
G01*
X81787500Y-114787500D01*
G75*
G02*
X81550000Y-115025000I-237500J0D01*
G01*
X80950000Y-115025000D01*
G75*
G02*
X80712500Y-114787500I0J237500D01*
G01*
G37*
G36*
G01*
X82500000Y-105787500D02*
X82500000Y-105312500D01*
G75*
G02*
X82737500Y-105075000I237500J0D01*
G01*
X83337500Y-105075000D01*
G75*
G02*
X83575000Y-105312500I0J-237500D01*
G01*
X83575000Y-105787500D01*
G75*
G02*
X83337500Y-106025000I-237500J0D01*
G01*
X82737500Y-106025000D01*
G75*
G02*
X82500000Y-105787500I0J237500D01*
G01*
G37*
G36*
G01*
X80775000Y-105787500D02*
X80775000Y-105312500D01*
G75*
G02*
X81012500Y-105075000I237500J0D01*
G01*
X81612500Y-105075000D01*
G75*
G02*
X81850000Y-105312500I0J-237500D01*
G01*
X81850000Y-105787500D01*
G75*
G02*
X81612500Y-106025000I-237500J0D01*
G01*
X81012500Y-106025000D01*
G75*
G02*
X80775000Y-105787500I0J237500D01*
G01*
G37*
G36*
G01*
X82500000Y-96787500D02*
X82500000Y-96312500D01*
G75*
G02*
X82737500Y-96075000I237500J0D01*
G01*
X83337500Y-96075000D01*
G75*
G02*
X83575000Y-96312500I0J-237500D01*
G01*
X83575000Y-96787500D01*
G75*
G02*
X83337500Y-97025000I-237500J0D01*
G01*
X82737500Y-97025000D01*
G75*
G02*
X82500000Y-96787500I0J237500D01*
G01*
G37*
G36*
G01*
X80775000Y-96787500D02*
X80775000Y-96312500D01*
G75*
G02*
X81012500Y-96075000I237500J0D01*
G01*
X81612500Y-96075000D01*
G75*
G02*
X81850000Y-96312500I0J-237500D01*
G01*
X81850000Y-96787500D01*
G75*
G02*
X81612500Y-97025000I-237500J0D01*
G01*
X81012500Y-97025000D01*
G75*
G02*
X80775000Y-96787500I0J237500D01*
G01*
G37*
M02*
