G04 #@! TF.GenerationSoftware,KiCad,Pcbnew,5.1.7-a382d34a8~88~ubuntu18.04.1*
G04 #@! TF.CreationDate,2020-12-29T23:08:14-05:00*
G04 #@! TF.ProjectId,snowflake-right,736e6f77-666c-4616-9b65-2d7269676874,rev?*
G04 #@! TF.SameCoordinates,Original*
G04 #@! TF.FileFunction,Legend,Top*
G04 #@! TF.FilePolarity,Positive*
%FSLAX46Y46*%
G04 Gerber Fmt 4.6, Leading zero omitted, Abs format (unit mm)*
G04 Created by KiCad (PCBNEW 5.1.7-a382d34a8~88~ubuntu18.04.1) date 2020-12-29 23:08:14*
%MOMM*%
%LPD*%
G01*
G04 APERTURE LIST*
%ADD10C,0.150000*%
%ADD11C,0.152400*%
%ADD12C,0.120000*%
G04 APERTURE END LIST*
D10*
X186638095Y-52952380D02*
X186638095Y-51952380D01*
X186638095Y-52428571D02*
X187209523Y-52428571D01*
X187209523Y-52952380D02*
X187209523Y-51952380D01*
X187638095Y-52047619D02*
X187685714Y-52000000D01*
X187780952Y-51952380D01*
X188019047Y-51952380D01*
X188114285Y-52000000D01*
X188161904Y-52047619D01*
X188209523Y-52142857D01*
X188209523Y-52238095D01*
X188161904Y-52380952D01*
X187590476Y-52952380D01*
X188209523Y-52952380D01*
X224238095Y-108752380D02*
X224238095Y-107752380D01*
X224238095Y-108228571D02*
X224809523Y-108228571D01*
X224809523Y-108752380D02*
X224809523Y-107752380D01*
X225190476Y-107752380D02*
X225809523Y-107752380D01*
X225476190Y-108133333D01*
X225619047Y-108133333D01*
X225714285Y-108180952D01*
X225761904Y-108228571D01*
X225809523Y-108323809D01*
X225809523Y-108561904D01*
X225761904Y-108657142D01*
X225714285Y-108704761D01*
X225619047Y-108752380D01*
X225333333Y-108752380D01*
X225238095Y-108704761D01*
X225190476Y-108657142D01*
X140038095Y-123752380D02*
X140038095Y-122752380D01*
X140038095Y-123228571D02*
X140609523Y-123228571D01*
X140609523Y-123752380D02*
X140609523Y-122752380D01*
X141561904Y-122752380D02*
X141085714Y-122752380D01*
X141038095Y-123228571D01*
X141085714Y-123180952D01*
X141180952Y-123133333D01*
X141419047Y-123133333D01*
X141514285Y-123180952D01*
X141561904Y-123228571D01*
X141609523Y-123323809D01*
X141609523Y-123561904D01*
X141561904Y-123657142D01*
X141514285Y-123704761D01*
X141419047Y-123752380D01*
X141180952Y-123752380D01*
X141085714Y-123704761D01*
X141038095Y-123657142D01*
X91838095Y-124152380D02*
X91838095Y-123152380D01*
X91838095Y-123628571D02*
X92409523Y-123628571D01*
X92409523Y-124152380D02*
X92409523Y-123152380D01*
X93314285Y-123485714D02*
X93314285Y-124152380D01*
X93076190Y-123104761D02*
X92838095Y-123819047D01*
X93457142Y-123819047D01*
X85838095Y-78352380D02*
X85838095Y-77352380D01*
X85838095Y-77828571D02*
X86409523Y-77828571D01*
X86409523Y-78352380D02*
X86409523Y-77352380D01*
X87409523Y-78352380D02*
X86838095Y-78352380D01*
X87123809Y-78352380D02*
X87123809Y-77352380D01*
X87028571Y-77495238D01*
X86933333Y-77590476D01*
X86838095Y-77638095D01*
X224061904Y-76400000D02*
X223966666Y-76352380D01*
X223823809Y-76352380D01*
X223680952Y-76400000D01*
X223585714Y-76495238D01*
X223538095Y-76590476D01*
X223490476Y-76780952D01*
X223490476Y-76923809D01*
X223538095Y-77114285D01*
X223585714Y-77209523D01*
X223680952Y-77304761D01*
X223823809Y-77352380D01*
X223919047Y-77352380D01*
X224061904Y-77304761D01*
X224109523Y-77257142D01*
X224109523Y-76923809D01*
X223919047Y-76923809D01*
X220519047Y-77352380D02*
X220519047Y-76352380D01*
X220757142Y-76352380D01*
X220900000Y-76400000D01*
X220995238Y-76495238D01*
X221042857Y-76590476D01*
X221090476Y-76780952D01*
X221090476Y-76923809D01*
X221042857Y-77114285D01*
X220995238Y-77209523D01*
X220900000Y-77304761D01*
X220757142Y-77352380D01*
X220519047Y-77352380D01*
X221519047Y-76971428D02*
X222280952Y-76971428D01*
X221900000Y-77352380D02*
X221900000Y-76590476D01*
X217919047Y-77352380D02*
X217919047Y-76352380D01*
X218157142Y-76352380D01*
X218300000Y-76400000D01*
X218395238Y-76495238D01*
X218442857Y-76590476D01*
X218490476Y-76780952D01*
X218490476Y-76923809D01*
X218442857Y-77114285D01*
X218395238Y-77209523D01*
X218300000Y-77304761D01*
X218157142Y-77352380D01*
X217919047Y-77352380D01*
X218919047Y-76971428D02*
X219680952Y-76971428D01*
X215866666Y-76352380D02*
X216200000Y-77352380D01*
X216533333Y-76352380D01*
X89461904Y-89600000D02*
X89366666Y-89552380D01*
X89223809Y-89552380D01*
X89080952Y-89600000D01*
X88985714Y-89695238D01*
X88938095Y-89790476D01*
X88890476Y-89980952D01*
X88890476Y-90123809D01*
X88938095Y-90314285D01*
X88985714Y-90409523D01*
X89080952Y-90504761D01*
X89223809Y-90552380D01*
X89319047Y-90552380D01*
X89461904Y-90504761D01*
X89509523Y-90457142D01*
X89509523Y-90123809D01*
X89319047Y-90123809D01*
X92109523Y-90552380D02*
X91633333Y-90552380D01*
X91633333Y-89552380D01*
X94114285Y-90504761D02*
X94257142Y-90552380D01*
X94495238Y-90552380D01*
X94590476Y-90504761D01*
X94638095Y-90457142D01*
X94685714Y-90361904D01*
X94685714Y-90266666D01*
X94638095Y-90171428D01*
X94590476Y-90123809D01*
X94495238Y-90076190D01*
X94304761Y-90028571D01*
X94209523Y-89980952D01*
X94161904Y-89933333D01*
X94114285Y-89838095D01*
X94114285Y-89742857D01*
X94161904Y-89647619D01*
X94209523Y-89600000D01*
X94304761Y-89552380D01*
X94542857Y-89552380D01*
X94685714Y-89600000D01*
X96666666Y-89552380D02*
X97000000Y-90552380D01*
X97333333Y-89552380D01*
X105266666Y-89552380D02*
X105600000Y-90552380D01*
X105933333Y-89552380D01*
X103509523Y-90552380D02*
X103033333Y-90552380D01*
X103033333Y-89552380D01*
X100861904Y-89600000D02*
X100766666Y-89552380D01*
X100623809Y-89552380D01*
X100480952Y-89600000D01*
X100385714Y-89695238D01*
X100338095Y-89790476D01*
X100290476Y-89980952D01*
X100290476Y-90123809D01*
X100338095Y-90314285D01*
X100385714Y-90409523D01*
X100480952Y-90504761D01*
X100623809Y-90552380D01*
X100719047Y-90552380D01*
X100861904Y-90504761D01*
X100909523Y-90457142D01*
X100909523Y-90123809D01*
X100719047Y-90123809D01*
X197300000Y-111304761D02*
X197442857Y-111352380D01*
X197680952Y-111352380D01*
X197776190Y-111304761D01*
X197823809Y-111257142D01*
X197871428Y-111161904D01*
X197871428Y-111066666D01*
X197823809Y-110971428D01*
X197776190Y-110923809D01*
X197680952Y-110876190D01*
X197490476Y-110828571D01*
X197395238Y-110780952D01*
X197347619Y-110733333D01*
X197300000Y-110638095D01*
X197300000Y-110542857D01*
X197347619Y-110447619D01*
X197395238Y-110400000D01*
X197490476Y-110352380D01*
X197728571Y-110352380D01*
X197871428Y-110400000D01*
X198300000Y-110685714D02*
X198300000Y-111352380D01*
X198300000Y-110780952D02*
X198347619Y-110733333D01*
X198442857Y-110685714D01*
X198585714Y-110685714D01*
X198680952Y-110733333D01*
X198728571Y-110828571D01*
X198728571Y-111352380D01*
X199347619Y-111352380D02*
X199252380Y-111304761D01*
X199204761Y-111257142D01*
X199157142Y-111161904D01*
X199157142Y-110876190D01*
X199204761Y-110780952D01*
X199252380Y-110733333D01*
X199347619Y-110685714D01*
X199490476Y-110685714D01*
X199585714Y-110733333D01*
X199633333Y-110780952D01*
X199680952Y-110876190D01*
X199680952Y-111161904D01*
X199633333Y-111257142D01*
X199585714Y-111304761D01*
X199490476Y-111352380D01*
X199347619Y-111352380D01*
X200014285Y-110685714D02*
X200204761Y-111352380D01*
X200395238Y-110876190D01*
X200585714Y-111352380D01*
X200776190Y-110685714D01*
X201014285Y-110685714D02*
X201395238Y-110685714D01*
X201157142Y-111352380D02*
X201157142Y-110495238D01*
X201204761Y-110400000D01*
X201300000Y-110352380D01*
X201395238Y-110352380D01*
X201871428Y-111352380D02*
X201776190Y-111304761D01*
X201728571Y-111209523D01*
X201728571Y-110352380D01*
X202680952Y-111352380D02*
X202680952Y-110828571D01*
X202633333Y-110733333D01*
X202538095Y-110685714D01*
X202347619Y-110685714D01*
X202252380Y-110733333D01*
X202680952Y-111304761D02*
X202585714Y-111352380D01*
X202347619Y-111352380D01*
X202252380Y-111304761D01*
X202204761Y-111209523D01*
X202204761Y-111114285D01*
X202252380Y-111019047D01*
X202347619Y-110971428D01*
X202585714Y-110971428D01*
X202680952Y-110923809D01*
X203157142Y-111352380D02*
X203157142Y-110352380D01*
X203252380Y-110971428D02*
X203538095Y-111352380D01*
X203538095Y-110685714D02*
X203157142Y-111066666D01*
X204347619Y-111304761D02*
X204252380Y-111352380D01*
X204061904Y-111352380D01*
X203966666Y-111304761D01*
X203919047Y-111209523D01*
X203919047Y-110828571D01*
X203966666Y-110733333D01*
X204061904Y-110685714D01*
X204252380Y-110685714D01*
X204347619Y-110733333D01*
X204395238Y-110828571D01*
X204395238Y-110923809D01*
X203919047Y-111019047D01*
X205490476Y-110685714D02*
X205728571Y-111352380D01*
X205966666Y-110685714D01*
X206871428Y-111352380D02*
X206300000Y-111352380D01*
X206585714Y-111352380D02*
X206585714Y-110352380D01*
X206490476Y-110495238D01*
X206395238Y-110590476D01*
X206300000Y-110638095D01*
X207300000Y-111257142D02*
X207347619Y-111304761D01*
X207300000Y-111352380D01*
X207252380Y-111304761D01*
X207300000Y-111257142D01*
X207300000Y-111352380D01*
X207966666Y-110352380D02*
X208061904Y-110352380D01*
X208157142Y-110400000D01*
X208204761Y-110447619D01*
X208252380Y-110542857D01*
X208300000Y-110733333D01*
X208300000Y-110971428D01*
X208252380Y-111161904D01*
X208204761Y-111257142D01*
X208157142Y-111304761D01*
X208061904Y-111352380D01*
X207966666Y-111352380D01*
X207871428Y-111304761D01*
X207823809Y-111257142D01*
X207776190Y-111161904D01*
X207728571Y-110971428D01*
X207728571Y-110733333D01*
X207776190Y-110542857D01*
X207823809Y-110447619D01*
X207871428Y-110400000D01*
X207966666Y-110352380D01*
X81904761Y-126352380D02*
X81571428Y-125876190D01*
X81333333Y-126352380D02*
X81333333Y-125352380D01*
X81714285Y-125352380D01*
X81809523Y-125400000D01*
X81857142Y-125447619D01*
X81904761Y-125542857D01*
X81904761Y-125685714D01*
X81857142Y-125780952D01*
X81809523Y-125828571D01*
X81714285Y-125876190D01*
X81333333Y-125876190D01*
X82333333Y-126352380D02*
X82333333Y-125685714D01*
X82333333Y-125352380D02*
X82285714Y-125400000D01*
X82333333Y-125447619D01*
X82380952Y-125400000D01*
X82333333Y-125352380D01*
X82333333Y-125447619D01*
X83238095Y-125685714D02*
X83238095Y-126495238D01*
X83190476Y-126590476D01*
X83142857Y-126638095D01*
X83047619Y-126685714D01*
X82904761Y-126685714D01*
X82809523Y-126638095D01*
X83238095Y-126304761D02*
X83142857Y-126352380D01*
X82952380Y-126352380D01*
X82857142Y-126304761D01*
X82809523Y-126257142D01*
X82761904Y-126161904D01*
X82761904Y-125876190D01*
X82809523Y-125780952D01*
X82857142Y-125733333D01*
X82952380Y-125685714D01*
X83142857Y-125685714D01*
X83238095Y-125733333D01*
X83714285Y-126352380D02*
X83714285Y-125352380D01*
X84142857Y-126352380D02*
X84142857Y-125828571D01*
X84095238Y-125733333D01*
X84000000Y-125685714D01*
X83857142Y-125685714D01*
X83761904Y-125733333D01*
X83714285Y-125780952D01*
X84476190Y-125685714D02*
X84857142Y-125685714D01*
X84619047Y-125352380D02*
X84619047Y-126209523D01*
X84666666Y-126304761D01*
X84761904Y-126352380D01*
X84857142Y-126352380D01*
X85904761Y-126304761D02*
X86047619Y-126352380D01*
X86285714Y-126352380D01*
X86380952Y-126304761D01*
X86428571Y-126257142D01*
X86476190Y-126161904D01*
X86476190Y-126066666D01*
X86428571Y-125971428D01*
X86380952Y-125923809D01*
X86285714Y-125876190D01*
X86095238Y-125828571D01*
X86000000Y-125780952D01*
X85952380Y-125733333D01*
X85904761Y-125638095D01*
X85904761Y-125542857D01*
X85952380Y-125447619D01*
X86000000Y-125400000D01*
X86095238Y-125352380D01*
X86333333Y-125352380D01*
X86476190Y-125400000D01*
X86904761Y-126352380D02*
X86904761Y-125685714D01*
X86904761Y-125352380D02*
X86857142Y-125400000D01*
X86904761Y-125447619D01*
X86952380Y-125400000D01*
X86904761Y-125352380D01*
X86904761Y-125447619D01*
X87809523Y-126352380D02*
X87809523Y-125352380D01*
X87809523Y-126304761D02*
X87714285Y-126352380D01*
X87523809Y-126352380D01*
X87428571Y-126304761D01*
X87380952Y-126257142D01*
X87333333Y-126161904D01*
X87333333Y-125876190D01*
X87380952Y-125780952D01*
X87428571Y-125733333D01*
X87523809Y-125685714D01*
X87714285Y-125685714D01*
X87809523Y-125733333D01*
X88666666Y-126304761D02*
X88571428Y-126352380D01*
X88380952Y-126352380D01*
X88285714Y-126304761D01*
X88238095Y-126209523D01*
X88238095Y-125828571D01*
X88285714Y-125733333D01*
X88380952Y-125685714D01*
X88571428Y-125685714D01*
X88666666Y-125733333D01*
X88714285Y-125828571D01*
X88714285Y-125923809D01*
X88238095Y-126019047D01*
D11*
X93000540Y-85555500D02*
X93279458Y-85555500D01*
X94346499Y-85555500D02*
X94346499Y-83904500D01*
X94346499Y-83904500D02*
X93650539Y-83904500D01*
X91933499Y-83904500D02*
X91933499Y-85555500D01*
X92629459Y-83904500D02*
X91933499Y-83904500D01*
X90917499Y-85923800D02*
G75*
G03*
X90917499Y-85923800I-127000J0D01*
G01*
D12*
X86645276Y-85722500D02*
X87154724Y-85722500D01*
X86645276Y-84677500D02*
X87154724Y-84677500D01*
D10*
X81800000Y-133540000D02*
X81800000Y-132540000D01*
X81800000Y-146540000D02*
X82800000Y-146540000D01*
X82800000Y-132540000D02*
X81800000Y-132540000D01*
X81800000Y-146540000D02*
X81800000Y-145540000D01*
X95800000Y-145540000D02*
X95800000Y-146540000D01*
X95800000Y-132540000D02*
X94800000Y-132540000D01*
X94800000Y-146540000D02*
X95800000Y-146540000D01*
X95800000Y-132540000D02*
X95800000Y-133540000D01*
X98800000Y-129540000D02*
X98800000Y-128540000D01*
X98800000Y-142540000D02*
X99800000Y-142540000D01*
X99800000Y-128540000D02*
X98800000Y-128540000D01*
X98800000Y-142540000D02*
X98800000Y-141540000D01*
X112800000Y-141540000D02*
X112800000Y-142540000D01*
X112800000Y-128540000D02*
X111800000Y-128540000D01*
X111800000Y-142540000D02*
X112800000Y-142540000D01*
X112800000Y-128540000D02*
X112800000Y-129540000D01*
X115800000Y-129540000D02*
X115800000Y-128540000D01*
X115800000Y-142540000D02*
X116800000Y-142540000D01*
X116800000Y-128540000D02*
X115800000Y-128540000D01*
X115800000Y-142540000D02*
X115800000Y-141540000D01*
X129800000Y-141540000D02*
X129800000Y-142540000D01*
X129800000Y-128540000D02*
X128800000Y-128540000D01*
X128800000Y-142540000D02*
X129800000Y-142540000D01*
X129800000Y-128540000D02*
X129800000Y-129540000D01*
X132800000Y-132540000D02*
X132800000Y-131540000D01*
X132800000Y-145540000D02*
X133800000Y-145540000D01*
X133800000Y-131540000D02*
X132800000Y-131540000D01*
X132800000Y-145540000D02*
X132800000Y-144540000D01*
X146800000Y-144540000D02*
X146800000Y-145540000D01*
X146800000Y-131540000D02*
X145800000Y-131540000D01*
X145800000Y-145540000D02*
X146800000Y-145540000D01*
X146800000Y-131540000D02*
X146800000Y-132540000D01*
X177800000Y-127100000D02*
X177800000Y-126100000D01*
X177800000Y-140100000D02*
X178800000Y-140100000D01*
X178800000Y-126100000D02*
X177800000Y-126100000D01*
X177800000Y-140100000D02*
X177800000Y-139100000D01*
X191800000Y-139100000D02*
X191800000Y-140100000D01*
X191800000Y-126100000D02*
X190800000Y-126100000D01*
X190800000Y-140100000D02*
X191800000Y-140100000D01*
X191800000Y-126100000D02*
X191800000Y-127100000D01*
X89800000Y-108370000D02*
X89800000Y-107370000D01*
X89800000Y-121370000D02*
X90800000Y-121370000D01*
X90800000Y-107370000D02*
X89800000Y-107370000D01*
X89800000Y-121370000D02*
X89800000Y-120370000D01*
X103800000Y-120370000D02*
X103800000Y-121370000D01*
X103800000Y-107370000D02*
X102800000Y-107370000D01*
X102800000Y-121370000D02*
X103800000Y-121370000D01*
X103800000Y-107370000D02*
X103800000Y-108370000D01*
X109800000Y-111370000D02*
X109800000Y-110370000D01*
X109800000Y-124370000D02*
X110800000Y-124370000D01*
X110800000Y-110370000D02*
X109800000Y-110370000D01*
X109800000Y-124370000D02*
X109800000Y-123370000D01*
X123800000Y-123370000D02*
X123800000Y-124370000D01*
X123800000Y-110370000D02*
X122800000Y-110370000D01*
X122800000Y-124370000D02*
X123800000Y-124370000D01*
X123800000Y-110370000D02*
X123800000Y-111370000D01*
X126800000Y-108370000D02*
X126800000Y-107370000D01*
X126800000Y-121370000D02*
X127800000Y-121370000D01*
X127800000Y-107370000D02*
X126800000Y-107370000D01*
X126800000Y-121370000D02*
X126800000Y-120370000D01*
X140800000Y-120370000D02*
X140800000Y-121370000D01*
X140800000Y-107370000D02*
X139800000Y-107370000D01*
X139800000Y-121370000D02*
X140800000Y-121370000D01*
X140800000Y-107370000D02*
X140800000Y-108370000D01*
X143800000Y-103540000D02*
X143800000Y-102540000D01*
X143800000Y-116540000D02*
X144800000Y-116540000D01*
X144800000Y-102540000D02*
X143800000Y-102540000D01*
X143800000Y-116540000D02*
X143800000Y-115540000D01*
X157800000Y-115540000D02*
X157800000Y-116540000D01*
X157800000Y-102540000D02*
X156800000Y-102540000D01*
X156800000Y-116540000D02*
X157800000Y-116540000D01*
X157800000Y-102540000D02*
X157800000Y-103540000D01*
X160800000Y-102840000D02*
X160800000Y-101840000D01*
X160800000Y-115840000D02*
X161800000Y-115840000D01*
X161800000Y-101840000D02*
X160800000Y-101840000D01*
X160800000Y-115840000D02*
X160800000Y-114840000D01*
X174800000Y-114840000D02*
X174800000Y-115840000D01*
X174800000Y-101840000D02*
X173800000Y-101840000D01*
X173800000Y-115840000D02*
X174800000Y-115840000D01*
X174800000Y-101840000D02*
X174800000Y-102840000D01*
X177800000Y-111100000D02*
X177800000Y-110100000D01*
X177800000Y-124100000D02*
X178800000Y-124100000D01*
X178800000Y-110100000D02*
X177800000Y-110100000D01*
X177800000Y-124100000D02*
X177800000Y-123100000D01*
X191800000Y-123100000D02*
X191800000Y-124100000D01*
X191800000Y-110100000D02*
X190800000Y-110100000D01*
X190800000Y-124100000D02*
X191800000Y-124100000D01*
X191800000Y-110100000D02*
X191800000Y-111100000D01*
X194800000Y-116100000D02*
X194800000Y-115100000D01*
X194800000Y-129100000D02*
X195800000Y-129100000D01*
X195800000Y-115100000D02*
X194800000Y-115100000D01*
X194800000Y-129100000D02*
X194800000Y-128100000D01*
X208800000Y-128100000D02*
X208800000Y-129100000D01*
X208800000Y-115100000D02*
X207800000Y-115100000D01*
X207800000Y-129100000D02*
X208800000Y-129100000D01*
X208800000Y-115100000D02*
X208800000Y-116100000D01*
X211800000Y-118100000D02*
X211800000Y-117100000D01*
X211800000Y-131100000D02*
X212800000Y-131100000D01*
X212800000Y-117100000D02*
X211800000Y-117100000D01*
X211800000Y-131100000D02*
X211800000Y-130100000D01*
X225800000Y-130100000D02*
X225800000Y-131100000D01*
X225800000Y-117100000D02*
X224800000Y-117100000D01*
X224800000Y-131100000D02*
X225800000Y-131100000D01*
X225800000Y-117100000D02*
X225800000Y-118100000D01*
X89800000Y-92370000D02*
X89800000Y-91370000D01*
X89800000Y-105370000D02*
X90800000Y-105370000D01*
X90800000Y-91370000D02*
X89800000Y-91370000D01*
X89800000Y-105370000D02*
X89800000Y-104370000D01*
X103800000Y-104370000D02*
X103800000Y-105370000D01*
X103800000Y-91370000D02*
X102800000Y-91370000D01*
X102800000Y-105370000D02*
X103800000Y-105370000D01*
X103800000Y-91370000D02*
X103800000Y-92370000D01*
X109800000Y-95370000D02*
X109800000Y-94370000D01*
X109800000Y-108370000D02*
X110800000Y-108370000D01*
X110800000Y-94370000D02*
X109800000Y-94370000D01*
X109800000Y-108370000D02*
X109800000Y-107370000D01*
X123800000Y-107370000D02*
X123800000Y-108370000D01*
X123800000Y-94370000D02*
X122800000Y-94370000D01*
X122800000Y-108370000D02*
X123800000Y-108370000D01*
X123800000Y-94370000D02*
X123800000Y-95370000D01*
X140800000Y-91370000D02*
X140800000Y-92370000D01*
X139800000Y-105370000D02*
X140800000Y-105370000D01*
X140800000Y-91370000D02*
X139800000Y-91370000D01*
X140800000Y-104370000D02*
X140800000Y-105370000D01*
X126800000Y-105370000D02*
X126800000Y-104370000D01*
X127800000Y-91370000D02*
X126800000Y-91370000D01*
X126800000Y-105370000D02*
X127800000Y-105370000D01*
X126800000Y-92370000D02*
X126800000Y-91370000D01*
X143800000Y-87540000D02*
X143800000Y-86540000D01*
X143800000Y-100540000D02*
X144800000Y-100540000D01*
X144800000Y-86540000D02*
X143800000Y-86540000D01*
X143800000Y-100540000D02*
X143800000Y-99540000D01*
X157800000Y-99540000D02*
X157800000Y-100540000D01*
X157800000Y-86540000D02*
X156800000Y-86540000D01*
X156800000Y-100540000D02*
X157800000Y-100540000D01*
X157800000Y-86540000D02*
X157800000Y-87540000D01*
X160800000Y-86840000D02*
X160800000Y-85840000D01*
X160800000Y-99840000D02*
X161800000Y-99840000D01*
X161800000Y-85840000D02*
X160800000Y-85840000D01*
X160800000Y-99840000D02*
X160800000Y-98840000D01*
X174800000Y-98840000D02*
X174800000Y-99840000D01*
X174800000Y-85840000D02*
X173800000Y-85840000D01*
X173800000Y-99840000D02*
X174800000Y-99840000D01*
X174800000Y-85840000D02*
X174800000Y-86840000D01*
X177800000Y-95100000D02*
X177800000Y-94100000D01*
X177800000Y-108100000D02*
X178800000Y-108100000D01*
X178800000Y-94100000D02*
X177800000Y-94100000D01*
X177800000Y-108100000D02*
X177800000Y-107100000D01*
X191800000Y-107100000D02*
X191800000Y-108100000D01*
X191800000Y-94100000D02*
X190800000Y-94100000D01*
X190800000Y-108100000D02*
X191800000Y-108100000D01*
X191800000Y-94100000D02*
X191800000Y-95100000D01*
X194800000Y-96100000D02*
X194800000Y-95100000D01*
X194800000Y-109100000D02*
X195800000Y-109100000D01*
X195800000Y-95100000D02*
X194800000Y-95100000D01*
X194800000Y-109100000D02*
X194800000Y-108100000D01*
X208800000Y-108100000D02*
X208800000Y-109100000D01*
X208800000Y-95100000D02*
X207800000Y-95100000D01*
X207800000Y-109100000D02*
X208800000Y-109100000D01*
X208800000Y-95100000D02*
X208800000Y-96100000D01*
X109800000Y-79370000D02*
X109800000Y-78370000D01*
X109800000Y-92370000D02*
X110800000Y-92370000D01*
X110800000Y-78370000D02*
X109800000Y-78370000D01*
X109800000Y-92370000D02*
X109800000Y-91370000D01*
X123800000Y-91370000D02*
X123800000Y-92370000D01*
X123800000Y-78370000D02*
X122800000Y-78370000D01*
X122800000Y-92370000D02*
X123800000Y-92370000D01*
X123800000Y-78370000D02*
X123800000Y-79370000D01*
X126800000Y-76370000D02*
X126800000Y-75370000D01*
X126800000Y-89370000D02*
X127800000Y-89370000D01*
X127800000Y-75370000D02*
X126800000Y-75370000D01*
X126800000Y-89370000D02*
X126800000Y-88370000D01*
X140800000Y-88370000D02*
X140800000Y-89370000D01*
X140800000Y-75370000D02*
X139800000Y-75370000D01*
X139800000Y-89370000D02*
X140800000Y-89370000D01*
X140800000Y-75370000D02*
X140800000Y-76370000D01*
X143800000Y-71540000D02*
X143800000Y-70540000D01*
X143800000Y-84540000D02*
X144800000Y-84540000D01*
X144800000Y-70540000D02*
X143800000Y-70540000D01*
X143800000Y-84540000D02*
X143800000Y-83540000D01*
X157800000Y-83540000D02*
X157800000Y-84540000D01*
X157800000Y-70540000D02*
X156800000Y-70540000D01*
X156800000Y-84540000D02*
X157800000Y-84540000D01*
X157800000Y-70540000D02*
X157800000Y-71540000D01*
X160800000Y-70840000D02*
X160800000Y-69840000D01*
X160800000Y-83840000D02*
X161800000Y-83840000D01*
X161800000Y-69840000D02*
X160800000Y-69840000D01*
X160800000Y-83840000D02*
X160800000Y-82840000D01*
X174800000Y-82840000D02*
X174800000Y-83840000D01*
X174800000Y-69840000D02*
X173800000Y-69840000D01*
X173800000Y-83840000D02*
X174800000Y-83840000D01*
X174800000Y-69840000D02*
X174800000Y-70840000D01*
X177800000Y-79100000D02*
X177800000Y-78100000D01*
X177800000Y-92100000D02*
X178800000Y-92100000D01*
X178800000Y-78100000D02*
X177800000Y-78100000D01*
X177800000Y-92100000D02*
X177800000Y-91100000D01*
X191800000Y-91100000D02*
X191800000Y-92100000D01*
X191800000Y-78100000D02*
X190800000Y-78100000D01*
X190800000Y-92100000D02*
X191800000Y-92100000D01*
X191800000Y-78100000D02*
X191800000Y-79100000D01*
X194800000Y-80100000D02*
X194800000Y-79100000D01*
X194800000Y-93100000D02*
X195800000Y-93100000D01*
X195800000Y-79100000D02*
X194800000Y-79100000D01*
X194800000Y-93100000D02*
X194800000Y-92100000D01*
X208800000Y-92100000D02*
X208800000Y-93100000D01*
X208800000Y-79100000D02*
X207800000Y-79100000D01*
X207800000Y-93100000D02*
X208800000Y-93100000D01*
X208800000Y-79100000D02*
X208800000Y-80100000D01*
X109800000Y-63370000D02*
X109800000Y-62370000D01*
X109800000Y-76370000D02*
X110800000Y-76370000D01*
X110800000Y-62370000D02*
X109800000Y-62370000D01*
X109800000Y-76370000D02*
X109800000Y-75370000D01*
X123800000Y-75370000D02*
X123800000Y-76370000D01*
X123800000Y-62370000D02*
X122800000Y-62370000D01*
X122800000Y-76370000D02*
X123800000Y-76370000D01*
X123800000Y-62370000D02*
X123800000Y-63370000D01*
X126800000Y-60370000D02*
X126800000Y-59370000D01*
X126800000Y-73370000D02*
X127800000Y-73370000D01*
X127800000Y-59370000D02*
X126800000Y-59370000D01*
X126800000Y-73370000D02*
X126800000Y-72370000D01*
X140800000Y-72370000D02*
X140800000Y-73370000D01*
X140800000Y-59370000D02*
X139800000Y-59370000D01*
X139800000Y-73370000D02*
X140800000Y-73370000D01*
X140800000Y-59370000D02*
X140800000Y-60370000D01*
X143800000Y-55540000D02*
X143800000Y-54540000D01*
X143800000Y-68540000D02*
X144800000Y-68540000D01*
X144800000Y-54540000D02*
X143800000Y-54540000D01*
X143800000Y-68540000D02*
X143800000Y-67540000D01*
X157800000Y-67540000D02*
X157800000Y-68540000D01*
X157800000Y-54540000D02*
X156800000Y-54540000D01*
X156800000Y-68540000D02*
X157800000Y-68540000D01*
X157800000Y-54540000D02*
X157800000Y-55540000D01*
X160800000Y-54840000D02*
X160800000Y-53840000D01*
X160800000Y-67840000D02*
X161800000Y-67840000D01*
X161800000Y-53840000D02*
X160800000Y-53840000D01*
X160800000Y-67840000D02*
X160800000Y-66840000D01*
X174800000Y-66840000D02*
X174800000Y-67840000D01*
X174800000Y-53840000D02*
X173800000Y-53840000D01*
X173800000Y-67840000D02*
X174800000Y-67840000D01*
X174800000Y-53840000D02*
X174800000Y-54840000D01*
X177800000Y-63100000D02*
X177800000Y-62100000D01*
X177800000Y-76100000D02*
X178800000Y-76100000D01*
X178800000Y-62100000D02*
X177800000Y-62100000D01*
X177800000Y-76100000D02*
X177800000Y-75100000D01*
X191800000Y-75100000D02*
X191800000Y-76100000D01*
X191800000Y-62100000D02*
X190800000Y-62100000D01*
X190800000Y-76100000D02*
X191800000Y-76100000D01*
X191800000Y-62100000D02*
X191800000Y-63100000D01*
X194800000Y-64100000D02*
X194800000Y-63100000D01*
X194800000Y-77100000D02*
X195800000Y-77100000D01*
X195800000Y-63100000D02*
X194800000Y-63100000D01*
X194800000Y-77100000D02*
X194800000Y-76100000D01*
X208800000Y-76100000D02*
X208800000Y-77100000D01*
X208800000Y-63100000D02*
X207800000Y-63100000D01*
X207800000Y-77100000D02*
X208800000Y-77100000D01*
X208800000Y-63100000D02*
X208800000Y-64100000D01*
D12*
X83575000Y-121750000D02*
X82825000Y-121750000D01*
X83575000Y-121750000D02*
X83575000Y-117950000D01*
X80775000Y-121750000D02*
X80775000Y-117950000D01*
X83575000Y-112750000D02*
X82825000Y-112750000D01*
X83575000Y-112750000D02*
X83575000Y-108950000D01*
X80775000Y-112750000D02*
X80775000Y-108950000D01*
X83575000Y-103750000D02*
X82825000Y-103750000D01*
X83575000Y-103750000D02*
X83575000Y-99950000D01*
X80775000Y-103750000D02*
X80775000Y-99950000D01*
X83575000Y-94750000D02*
X82825000Y-94750000D01*
X83575000Y-94750000D02*
X83575000Y-90950000D01*
X80775000Y-94750000D02*
X80775000Y-90950000D01*
X81966233Y-124060000D02*
X82258767Y-124060000D01*
X81966233Y-123040000D02*
X82258767Y-123040000D01*
X81966233Y-115060000D02*
X82258767Y-115060000D01*
X81966233Y-114040000D02*
X82258767Y-114040000D01*
X82028733Y-106060000D02*
X82321267Y-106060000D01*
X82028733Y-105040000D02*
X82321267Y-105040000D01*
X82028733Y-97060000D02*
X82321267Y-97060000D01*
X82028733Y-96040000D02*
X82321267Y-96040000D01*
D10*
X218261904Y-71552380D02*
X218261904Y-72361904D01*
X218309523Y-72457142D01*
X218357142Y-72504761D01*
X218452380Y-72552380D01*
X218642857Y-72552380D01*
X218738095Y-72504761D01*
X218785714Y-72457142D01*
X218833333Y-72361904D01*
X218833333Y-71552380D01*
X219261904Y-72504761D02*
X219404761Y-72552380D01*
X219642857Y-72552380D01*
X219738095Y-72504761D01*
X219785714Y-72457142D01*
X219833333Y-72361904D01*
X219833333Y-72266666D01*
X219785714Y-72171428D01*
X219738095Y-72123809D01*
X219642857Y-72076190D01*
X219452380Y-72028571D01*
X219357142Y-71980952D01*
X219309523Y-71933333D01*
X219261904Y-71838095D01*
X219261904Y-71742857D01*
X219309523Y-71647619D01*
X219357142Y-71600000D01*
X219452380Y-71552380D01*
X219690476Y-71552380D01*
X219833333Y-71600000D01*
X220595238Y-72028571D02*
X220738095Y-72076190D01*
X220785714Y-72123809D01*
X220833333Y-72219047D01*
X220833333Y-72361904D01*
X220785714Y-72457142D01*
X220738095Y-72504761D01*
X220642857Y-72552380D01*
X220261904Y-72552380D01*
X220261904Y-71552380D01*
X220595238Y-71552380D01*
X220690476Y-71600000D01*
X220738095Y-71647619D01*
X220785714Y-71742857D01*
X220785714Y-71838095D01*
X220738095Y-71933333D01*
X220690476Y-71980952D01*
X220595238Y-72028571D01*
X220261904Y-72028571D01*
X221785714Y-72552380D02*
X221214285Y-72552380D01*
X221500000Y-72552380D02*
X221500000Y-71552380D01*
X221404761Y-71695238D01*
X221309523Y-71790476D01*
X221214285Y-71838095D01*
X100095238Y-86052380D02*
X99619047Y-86052380D01*
X99619047Y-85052380D01*
X100428571Y-85528571D02*
X100761904Y-85528571D01*
X100904761Y-86052380D02*
X100428571Y-86052380D01*
X100428571Y-85052380D01*
X100904761Y-85052380D01*
X101333333Y-86052380D02*
X101333333Y-85052380D01*
X101571428Y-85052380D01*
X101714285Y-85100000D01*
X101809523Y-85195238D01*
X101857142Y-85290476D01*
X101904761Y-85480952D01*
X101904761Y-85623809D01*
X101857142Y-85814285D01*
X101809523Y-85909523D01*
X101714285Y-86004761D01*
X101571428Y-86052380D01*
X101333333Y-86052380D01*
X102095238Y-86147619D02*
X102857142Y-86147619D01*
X103285714Y-85052380D02*
X103476190Y-85052380D01*
X103571428Y-85100000D01*
X103666666Y-85195238D01*
X103714285Y-85385714D01*
X103714285Y-85719047D01*
X103666666Y-85909523D01*
X103571428Y-86004761D01*
X103476190Y-86052380D01*
X103285714Y-86052380D01*
X103190476Y-86004761D01*
X103095238Y-85909523D01*
X103047619Y-85719047D01*
X103047619Y-85385714D01*
X103095238Y-85195238D01*
X103190476Y-85100000D01*
X103285714Y-85052380D01*
X104142857Y-86052380D02*
X104142857Y-85052380D01*
X104523809Y-85052380D01*
X104619047Y-85100000D01*
X104666666Y-85147619D01*
X104714285Y-85242857D01*
X104714285Y-85385714D01*
X104666666Y-85480952D01*
X104619047Y-85528571D01*
X104523809Y-85576190D01*
X104142857Y-85576190D01*
X105000000Y-85052380D02*
X105571428Y-85052380D01*
X105285714Y-86052380D02*
X105285714Y-85052380D01*
X106428571Y-86052380D02*
X105857142Y-86052380D01*
X106142857Y-86052380D02*
X106142857Y-85052380D01*
X106047619Y-85195238D01*
X105952380Y-85290476D01*
X105857142Y-85338095D01*
X91514285Y-92304761D02*
X91657142Y-92352380D01*
X91895238Y-92352380D01*
X91990476Y-92304761D01*
X92038095Y-92257142D01*
X92085714Y-92161904D01*
X92085714Y-92066666D01*
X92038095Y-91971428D01*
X91990476Y-91923809D01*
X91895238Y-91876190D01*
X91704761Y-91828571D01*
X91609523Y-91780952D01*
X91561904Y-91733333D01*
X91514285Y-91638095D01*
X91514285Y-91542857D01*
X91561904Y-91447619D01*
X91609523Y-91400000D01*
X91704761Y-91352380D01*
X91942857Y-91352380D01*
X92085714Y-91400000D01*
X92514285Y-92352380D02*
X92514285Y-91352380D01*
X92895238Y-91352380D01*
X92990476Y-91400000D01*
X93038095Y-91447619D01*
X93085714Y-91542857D01*
X93085714Y-91685714D01*
X93038095Y-91780952D01*
X92990476Y-91828571D01*
X92895238Y-91876190D01*
X92514285Y-91876190D01*
X93990476Y-92352380D02*
X93514285Y-92352380D01*
X93514285Y-91352380D01*
X94323809Y-92352380D02*
X94323809Y-91352380D01*
X94657142Y-91352380D02*
X95228571Y-91352380D01*
X94942857Y-92352380D02*
X94942857Y-91352380D01*
X96085714Y-92352380D02*
X95514285Y-92352380D01*
X95800000Y-92352380D02*
X95800000Y-91352380D01*
X95704761Y-91495238D01*
X95609523Y-91590476D01*
X95514285Y-91638095D01*
X94828095Y-84182380D02*
X94828095Y-84991904D01*
X94875714Y-85087142D01*
X94923333Y-85134761D01*
X95018571Y-85182380D01*
X95209047Y-85182380D01*
X95304285Y-85134761D01*
X95351904Y-85087142D01*
X95399523Y-84991904D01*
X95399523Y-84182380D01*
X95780476Y-84182380D02*
X96399523Y-84182380D01*
X96066190Y-84563333D01*
X96209047Y-84563333D01*
X96304285Y-84610952D01*
X96351904Y-84658571D01*
X96399523Y-84753809D01*
X96399523Y-84991904D01*
X96351904Y-85087142D01*
X96304285Y-85134761D01*
X96209047Y-85182380D01*
X95923333Y-85182380D01*
X95828095Y-85134761D01*
X95780476Y-85087142D01*
X93139999Y-84182380D02*
X93139999Y-84420476D01*
X92901903Y-84325238D02*
X93139999Y-84420476D01*
X93378094Y-84325238D01*
X92997141Y-84610952D02*
X93139999Y-84420476D01*
X93282856Y-84610952D01*
X89614880Y-85866666D02*
X89138690Y-86200000D01*
X89614880Y-86438095D02*
X88614880Y-86438095D01*
X88614880Y-86057142D01*
X88662500Y-85961904D01*
X88710119Y-85914285D01*
X88805357Y-85866666D01*
X88948214Y-85866666D01*
X89043452Y-85914285D01*
X89091071Y-85961904D01*
X89138690Y-86057142D01*
X89138690Y-86438095D01*
X88614880Y-84961904D02*
X88614880Y-85438095D01*
X89091071Y-85485714D01*
X89043452Y-85438095D01*
X88995833Y-85342857D01*
X88995833Y-85104761D01*
X89043452Y-85009523D01*
X89091071Y-84961904D01*
X89186309Y-84914285D01*
X89424404Y-84914285D01*
X89519642Y-84961904D01*
X89567261Y-85009523D01*
X89614880Y-85104761D01*
X89614880Y-85342857D01*
X89567261Y-85438095D01*
X89519642Y-85485714D01*
X85352380Y-121064285D02*
X84352380Y-121064285D01*
X84352380Y-120826190D01*
X84400000Y-120683333D01*
X84495238Y-120588095D01*
X84590476Y-120540476D01*
X84780952Y-120492857D01*
X84923809Y-120492857D01*
X85114285Y-120540476D01*
X85209523Y-120588095D01*
X85304761Y-120683333D01*
X85352380Y-120826190D01*
X85352380Y-121064285D01*
X84352380Y-120159523D02*
X84352380Y-119540476D01*
X84733333Y-119873809D01*
X84733333Y-119730952D01*
X84780952Y-119635714D01*
X84828571Y-119588095D01*
X84923809Y-119540476D01*
X85161904Y-119540476D01*
X85257142Y-119588095D01*
X85304761Y-119635714D01*
X85352380Y-119730952D01*
X85352380Y-120016666D01*
X85304761Y-120111904D01*
X85257142Y-120159523D01*
X84352380Y-118683333D02*
X84352380Y-118873809D01*
X84400000Y-118969047D01*
X84447619Y-119016666D01*
X84590476Y-119111904D01*
X84780952Y-119159523D01*
X85161904Y-119159523D01*
X85257142Y-119111904D01*
X85304761Y-119064285D01*
X85352380Y-118969047D01*
X85352380Y-118778571D01*
X85304761Y-118683333D01*
X85257142Y-118635714D01*
X85161904Y-118588095D01*
X84923809Y-118588095D01*
X84828571Y-118635714D01*
X84780952Y-118683333D01*
X84733333Y-118778571D01*
X84733333Y-118969047D01*
X84780952Y-119064285D01*
X84828571Y-119111904D01*
X84923809Y-119159523D01*
D12*
X81864285Y-121785714D02*
X81864285Y-122214285D01*
X81864285Y-122000000D02*
X81114285Y-122000000D01*
X81221428Y-122071428D01*
X81292857Y-122142857D01*
X81328571Y-122214285D01*
D10*
X85352380Y-112064285D02*
X84352380Y-112064285D01*
X84352380Y-111826190D01*
X84400000Y-111683333D01*
X84495238Y-111588095D01*
X84590476Y-111540476D01*
X84780952Y-111492857D01*
X84923809Y-111492857D01*
X85114285Y-111540476D01*
X85209523Y-111588095D01*
X85304761Y-111683333D01*
X85352380Y-111826190D01*
X85352380Y-112064285D01*
X84352380Y-111159523D02*
X84352380Y-110540476D01*
X84733333Y-110873809D01*
X84733333Y-110730952D01*
X84780952Y-110635714D01*
X84828571Y-110588095D01*
X84923809Y-110540476D01*
X85161904Y-110540476D01*
X85257142Y-110588095D01*
X85304761Y-110635714D01*
X85352380Y-110730952D01*
X85352380Y-111016666D01*
X85304761Y-111111904D01*
X85257142Y-111159523D01*
X84352380Y-109635714D02*
X84352380Y-110111904D01*
X84828571Y-110159523D01*
X84780952Y-110111904D01*
X84733333Y-110016666D01*
X84733333Y-109778571D01*
X84780952Y-109683333D01*
X84828571Y-109635714D01*
X84923809Y-109588095D01*
X85161904Y-109588095D01*
X85257142Y-109635714D01*
X85304761Y-109683333D01*
X85352380Y-109778571D01*
X85352380Y-110016666D01*
X85304761Y-110111904D01*
X85257142Y-110159523D01*
D12*
X81864285Y-112785714D02*
X81864285Y-113214285D01*
X81864285Y-113000000D02*
X81114285Y-113000000D01*
X81221428Y-113071428D01*
X81292857Y-113142857D01*
X81328571Y-113214285D01*
D10*
X85352380Y-103064285D02*
X84352380Y-103064285D01*
X84352380Y-102826190D01*
X84400000Y-102683333D01*
X84495238Y-102588095D01*
X84590476Y-102540476D01*
X84780952Y-102492857D01*
X84923809Y-102492857D01*
X85114285Y-102540476D01*
X85209523Y-102588095D01*
X85304761Y-102683333D01*
X85352380Y-102826190D01*
X85352380Y-103064285D01*
X84352380Y-102159523D02*
X84352380Y-101540476D01*
X84733333Y-101873809D01*
X84733333Y-101730952D01*
X84780952Y-101635714D01*
X84828571Y-101588095D01*
X84923809Y-101540476D01*
X85161904Y-101540476D01*
X85257142Y-101588095D01*
X85304761Y-101635714D01*
X85352380Y-101730952D01*
X85352380Y-102016666D01*
X85304761Y-102111904D01*
X85257142Y-102159523D01*
X84685714Y-100683333D02*
X85352380Y-100683333D01*
X84304761Y-100921428D02*
X85019047Y-101159523D01*
X85019047Y-100540476D01*
D12*
X81864285Y-103785714D02*
X81864285Y-104214285D01*
X81864285Y-104000000D02*
X81114285Y-104000000D01*
X81221428Y-104071428D01*
X81292857Y-104142857D01*
X81328571Y-104214285D01*
D10*
X85252380Y-94214285D02*
X84252380Y-94214285D01*
X84252380Y-93976190D01*
X84300000Y-93833333D01*
X84395238Y-93738095D01*
X84490476Y-93690476D01*
X84680952Y-93642857D01*
X84823809Y-93642857D01*
X85014285Y-93690476D01*
X85109523Y-93738095D01*
X85204761Y-93833333D01*
X85252380Y-93976190D01*
X85252380Y-94214285D01*
X84252380Y-93309523D02*
X84252380Y-92690476D01*
X84633333Y-93023809D01*
X84633333Y-92880952D01*
X84680952Y-92785714D01*
X84728571Y-92738095D01*
X84823809Y-92690476D01*
X85061904Y-92690476D01*
X85157142Y-92738095D01*
X85204761Y-92785714D01*
X85252380Y-92880952D01*
X85252380Y-93166666D01*
X85204761Y-93261904D01*
X85157142Y-93309523D01*
X84252380Y-92357142D02*
X84252380Y-91738095D01*
X84633333Y-92071428D01*
X84633333Y-91928571D01*
X84680952Y-91833333D01*
X84728571Y-91785714D01*
X84823809Y-91738095D01*
X85061904Y-91738095D01*
X85157142Y-91785714D01*
X85204761Y-91833333D01*
X85252380Y-91928571D01*
X85252380Y-92214285D01*
X85204761Y-92309523D01*
X85157142Y-92357142D01*
D12*
X81864285Y-94785714D02*
X81864285Y-95214285D01*
X81864285Y-95000000D02*
X81114285Y-95000000D01*
X81221428Y-95071428D01*
X81292857Y-95142857D01*
X81328571Y-95214285D01*
D10*
X84657142Y-123857142D02*
X84609523Y-123904761D01*
X84466666Y-123952380D01*
X84371428Y-123952380D01*
X84228571Y-123904761D01*
X84133333Y-123809523D01*
X84085714Y-123714285D01*
X84038095Y-123523809D01*
X84038095Y-123380952D01*
X84085714Y-123190476D01*
X84133333Y-123095238D01*
X84228571Y-123000000D01*
X84371428Y-122952380D01*
X84466666Y-122952380D01*
X84609523Y-123000000D01*
X84657142Y-123047619D01*
X85609523Y-123952380D02*
X85038095Y-123952380D01*
X85323809Y-123952380D02*
X85323809Y-122952380D01*
X85228571Y-123095238D01*
X85133333Y-123190476D01*
X85038095Y-123238095D01*
X85990476Y-123047619D02*
X86038095Y-123000000D01*
X86133333Y-122952380D01*
X86371428Y-122952380D01*
X86466666Y-123000000D01*
X86514285Y-123047619D01*
X86561904Y-123142857D01*
X86561904Y-123238095D01*
X86514285Y-123380952D01*
X85942857Y-123952380D01*
X86561904Y-123952380D01*
X84657142Y-114907142D02*
X84609523Y-114954761D01*
X84466666Y-115002380D01*
X84371428Y-115002380D01*
X84228571Y-114954761D01*
X84133333Y-114859523D01*
X84085714Y-114764285D01*
X84038095Y-114573809D01*
X84038095Y-114430952D01*
X84085714Y-114240476D01*
X84133333Y-114145238D01*
X84228571Y-114050000D01*
X84371428Y-114002380D01*
X84466666Y-114002380D01*
X84609523Y-114050000D01*
X84657142Y-114097619D01*
X85609523Y-115002380D02*
X85038095Y-115002380D01*
X85323809Y-115002380D02*
X85323809Y-114002380D01*
X85228571Y-114145238D01*
X85133333Y-114240476D01*
X85038095Y-114288095D01*
X86228571Y-114002380D02*
X86323809Y-114002380D01*
X86419047Y-114050000D01*
X86466666Y-114097619D01*
X86514285Y-114192857D01*
X86561904Y-114383333D01*
X86561904Y-114621428D01*
X86514285Y-114811904D01*
X86466666Y-114907142D01*
X86419047Y-114954761D01*
X86323809Y-115002380D01*
X86228571Y-115002380D01*
X86133333Y-114954761D01*
X86085714Y-114907142D01*
X86038095Y-114811904D01*
X85990476Y-114621428D01*
X85990476Y-114383333D01*
X86038095Y-114192857D01*
X86085714Y-114097619D01*
X86133333Y-114050000D01*
X86228571Y-114002380D01*
X84733333Y-105907142D02*
X84685714Y-105954761D01*
X84542857Y-106002380D01*
X84447619Y-106002380D01*
X84304761Y-105954761D01*
X84209523Y-105859523D01*
X84161904Y-105764285D01*
X84114285Y-105573809D01*
X84114285Y-105430952D01*
X84161904Y-105240476D01*
X84209523Y-105145238D01*
X84304761Y-105050000D01*
X84447619Y-105002380D01*
X84542857Y-105002380D01*
X84685714Y-105050000D01*
X84733333Y-105097619D01*
X85590476Y-105002380D02*
X85400000Y-105002380D01*
X85304761Y-105050000D01*
X85257142Y-105097619D01*
X85161904Y-105240476D01*
X85114285Y-105430952D01*
X85114285Y-105811904D01*
X85161904Y-105907142D01*
X85209523Y-105954761D01*
X85304761Y-106002380D01*
X85495238Y-106002380D01*
X85590476Y-105954761D01*
X85638095Y-105907142D01*
X85685714Y-105811904D01*
X85685714Y-105573809D01*
X85638095Y-105478571D01*
X85590476Y-105430952D01*
X85495238Y-105383333D01*
X85304761Y-105383333D01*
X85209523Y-105430952D01*
X85161904Y-105478571D01*
X85114285Y-105573809D01*
X84733333Y-96957142D02*
X84685714Y-97004761D01*
X84542857Y-97052380D01*
X84447619Y-97052380D01*
X84304761Y-97004761D01*
X84209523Y-96909523D01*
X84161904Y-96814285D01*
X84114285Y-96623809D01*
X84114285Y-96480952D01*
X84161904Y-96290476D01*
X84209523Y-96195238D01*
X84304761Y-96100000D01*
X84447619Y-96052380D01*
X84542857Y-96052380D01*
X84685714Y-96100000D01*
X84733333Y-96147619D01*
X85638095Y-96052380D02*
X85161904Y-96052380D01*
X85114285Y-96528571D01*
X85161904Y-96480952D01*
X85257142Y-96433333D01*
X85495238Y-96433333D01*
X85590476Y-96480952D01*
X85638095Y-96528571D01*
X85685714Y-96623809D01*
X85685714Y-96861904D01*
X85638095Y-96957142D01*
X85590476Y-97004761D01*
X85495238Y-97052380D01*
X85257142Y-97052380D01*
X85161904Y-97004761D01*
X85114285Y-96957142D01*
M02*
