M48
; DRILL file {KiCad 5.1.7-a382d34a8~88~ubuntu18.04.1} date Tue Dec 29 23:08:16 2020
; FORMAT={-:-/ absolute / inch / decimal}
; #@! TF.CreationDate,2020-12-29T23:08:16-05:00
; #@! TF.GenerationSoftware,Kicad,Pcbnew,5.1.7-a382d34a8~88~ubuntu18.04.1
; #@! TF.FileFunction,NonPlated,1,2,NPTH
FMAT,2
INCH
T1C0.0670
T2C0.0866
T3C0.1181
T4C0.1570
%
G90
G05
T1
X5.0677Y-2.613
X5.4677Y-2.613
X6.4063Y-2.3953
X6.8063Y-2.3953
X7.0756Y-5.2402
X7.4756Y-5.2402
X4.3984Y-2.7311
X4.7984Y-2.7311
X7.0756Y-4.6102
X7.4756Y-4.6102
X4.3984Y-3.361
X4.7984Y-3.361
X7.7449Y-4.0197
X8.1449Y-4.0197
X7.0756Y-3.9803
X7.4756Y-3.9803
X6.4063Y-3.6551
X6.8063Y-3.6551
X5.737Y-3.6827
X6.137Y-3.6827
X4.3984Y-3.9909
X4.7984Y-3.9909
X8.4142Y-4.8858
X8.8142Y-4.8858
X5.0677Y-3.8728
X5.4677Y-3.8728
X5.3039Y-5.4543
X5.7039Y-5.4543
X5.0677Y-4.5028
X5.4677Y-4.5028
X3.9654Y-5.3362
X4.3654Y-5.3362
X3.611Y-4.5028
X4.011Y-4.5028
X5.0677Y-3.2429
X5.4677Y-3.2429
X3.611Y-3.8728
X4.011Y-3.8728
X7.7449Y-2.7598
X8.1449Y-2.7598
X4.6346Y-5.3362
X5.0346Y-5.3362
X3.2961Y-5.4937
X3.6961Y-5.4937
X5.737Y-4.3126
X6.137Y-4.3126
X4.3984Y-4.6209
X4.7984Y-4.6209
X6.4063Y-4.285
X6.8063Y-4.285
X5.737Y-3.0528
X6.137Y-3.0528
X7.7449Y-3.3898
X8.1449Y-3.3898
X7.0756Y-3.3504
X7.4756Y-3.3504
X5.737Y-2.4228
X6.137Y-2.4228
X7.7449Y-4.8071
X8.1449Y-4.8071
X7.0756Y-2.7205
X7.4756Y-2.7205
X6.4063Y-3.0252
X6.8063Y-3.0252
T2
X3.4075Y-3.1949
X3.6437Y-4.998
X5.5413Y-4.9783
X8.8563Y-4.3917
X7.376Y-2.1949
T3
X5.787Y-3.5827
X6.037Y-3.4827
X4.4484Y-3.8909
X4.6984Y-3.7909
X8.4642Y-4.7858
X8.7142Y-4.6858
X5.1177Y-3.7728
X5.3677Y-3.6728
X5.3539Y-5.3543
X5.6039Y-5.2543
X5.1177Y-4.4028
X5.3677Y-4.3028
X4.0154Y-5.2362
X4.2654Y-5.1362
X3.661Y-4.4028
X3.911Y-4.3028
X5.1177Y-3.1429
X5.3677Y-3.0429
X3.661Y-3.7728
X3.911Y-3.6728
X7.7949Y-2.6598
X8.0449Y-2.5598
X4.6846Y-5.2362
X4.9346Y-5.1362
X3.3461Y-5.3937
X3.5961Y-5.2937
X5.787Y-4.2126
X6.037Y-4.1126
X4.4484Y-4.5209
X4.6984Y-4.4209
X6.4563Y-4.185
X6.7063Y-4.085
X5.787Y-2.9528
X6.037Y-2.8528
X7.7949Y-3.2898
X8.0449Y-3.1898
X7.1256Y-3.2504
X7.3756Y-3.1504
X5.787Y-2.3228
X6.037Y-2.2228
X7.7949Y-4.7071
X8.0449Y-4.6071
X7.1256Y-2.6205
X7.3756Y-2.5205
X6.4563Y-2.9252
X6.7063Y-2.8252
X5.1177Y-2.513
X5.3677Y-2.413
X6.4563Y-2.2953
X6.7063Y-2.1953
X7.1256Y-5.1402
X7.3756Y-5.0402
X4.4484Y-2.6311
X4.6984Y-2.5311
X7.1256Y-4.5102
X7.3756Y-4.4102
X4.4484Y-3.261
X4.6984Y-3.161
X7.7949Y-3.9197
X8.0449Y-3.8197
X7.1256Y-3.8803
X7.3756Y-3.7803
X6.4563Y-3.5551
X6.7063Y-3.4551
T4
X7.2756Y-3.3504
X5.937Y-2.4228
X7.9449Y-4.8071
X7.2756Y-2.7205
X6.6063Y-3.0252
X5.2677Y-2.613
X6.6063Y-2.3953
X7.2756Y-5.2402
X4.5984Y-2.7311
X7.2756Y-4.6102
X4.5984Y-3.361
X7.9449Y-4.0197
X7.2756Y-3.9803
X6.6063Y-3.6551
X5.937Y-3.6827
X4.5984Y-3.9909
X8.6142Y-4.8858
X5.2677Y-3.8728
X5.5039Y-5.4543
X5.2677Y-4.5028
X4.1654Y-5.3362
X3.811Y-4.5028
X5.2677Y-3.2429
X3.811Y-3.8728
X7.9449Y-2.7598
X4.8346Y-5.3362
X3.4961Y-5.4937
X5.937Y-4.3126
X4.5984Y-4.6209
X6.6063Y-4.285
X5.937Y-3.0528
X7.9449Y-3.3898
T0
M30
