M48
; DRILL file {KiCad 5.1.7-a382d34a8~88~ubuntu18.04.1} date Tue Dec 29 23:08:16 2020
; FORMAT={-:-/ absolute / inch / decimal}
; #@! TF.CreationDate,2020-12-29T23:08:16-05:00
; #@! TF.GenerationSoftware,Kicad,Pcbnew,5.1.7-a382d34a8~88~ubuntu18.04.1
; #@! TF.FileFunction,Plated,1,2,PTH
FMAT,2
INCH
T1C0.0157
T2C0.0394
%
G90
G05
T1
X3.2116Y-3.7461
X3.2116Y-4.1004
X3.2116Y-4.4547
X3.2205Y-4.811
X3.2431Y-3.8957
X3.2431Y-4.2579
X3.2589Y-4.6122
X3.2598Y-3.5433
X3.3307Y-3.4016
X3.4409Y-3.4173
X3.5906Y-3.3819
X3.9134Y-4.9094
X4.0551Y-3.5866
X4.063Y-4.1693
X4.1102Y-3.9331
X4.1102Y-4.6102
X4.126Y-3.3189
X4.3071Y-3.5157
X4.3622Y-3.6575
X4.5591Y-3.6575
X4.8189Y-4.8701
X4.8425Y-4.2795
X4.8583Y-3.0276
X4.8898Y-3.6339
X4.8898Y-4.0433
X4.9055Y-3.4843
X4.9055Y-4.6496
X4.9134Y-2.7598
X5.5197Y-2.8701
X5.5197Y-3.4685
X5.5197Y-4.1063
X5.5354Y-4.8386
X5.5984Y-4.5079
X5.6063Y-3.9094
X5.6142Y-2.6417
X5.622Y-3.2402
X5.748Y-4.7362
X5.7795Y-4.8701
X5.9055Y-3.4606
X6.063Y-3.9567
X6.126Y-4.5157
X6.189Y-2.7126
X6.189Y-3.3425
X6.1969Y-3.9882
X6.2205Y-4.5945
X6.2283Y-2.5315
X6.2362Y-3.1063
X6.2362Y-4.3583
X6.2598Y-3.7992
X6.6772Y-3.9252
X6.7323Y-4.5157
X6.8189Y-3.3268
X6.8268Y-3.9803
X6.8425Y-2.7205
X6.8583Y-3.1929
X6.8661Y-3.7992
X6.9213Y-2.4843
X6.9685Y-3.0984
X7.063Y-2.9567
X7.1732Y-3.7441
X7.4094Y-3.626
X7.4488Y-4.2165
X7.5197Y-4.7362
X7.5197Y-4.9331
X7.5276Y-4.2874
X7.5354Y-2.9961
X7.5354Y-3.6575
X7.5512Y-3.5472
X7.5591Y-2.8465
X7.5591Y-4.1378
X7.7165Y-4.248
X7.7165Y-4.4528
X7.7638Y-3.6496
X7.8898Y-2.5236
X7.8976Y-3.1535
X8.063Y-3.5079
X8.0787Y-3.0197
X8.0866Y-2.9409
X8.1339Y-4.4213
X8.189Y-4.2244
X8.2126Y-4.2638
X8.2913Y-3.815
X8.3583Y-3.685
X8.3701Y-4.0827
X8.378Y-4.185
X8.3937Y-3.8622
X8.4075Y-3.9508
X8.4567Y-3.0276
X8.4646Y-3.815
X8.5354Y-3.9724
X8.5433Y-3.5236
X8.5827Y-3.7283
X8.5906Y-3.4606
X8.5984Y-3.7756
X8.6063Y-3.3268
X8.6299Y-3.9646
X8.6457Y-3.3346
X8.6614Y-3.4528
X8.6693Y-3.6654
X8.685Y-3.4921
X8.7008Y-3.7677
X8.7165Y-3.5315
X8.7323Y-3.6969
X8.748Y-3.5709
X8.7598Y-3.2795
X8.7992Y-3.9016
X8.8504Y-3.7283
X8.8504Y-3.7835
X8.8661Y-3.6811
X8.8937Y-3.9094
X8.9213Y-3.4134
X8.9409Y-4.1142
T2
X3.5185Y-3.4697
X3.6185Y-3.4697
X3.7185Y-3.4697
X3.8185Y-3.4697
X3.9614Y-3.4685
X4.0614Y-3.4685
X4.1614Y-3.4685
X8.515Y-2.9449
X8.615Y-2.9449
X8.715Y-2.9449
X8.815Y-2.9449
T0
M30
