G04 #@! TF.GenerationSoftware,KiCad,Pcbnew,5.1.7-a382d34a8~88~ubuntu18.04.1*
G04 #@! TF.CreationDate,2020-12-29T23:08:14-05:00*
G04 #@! TF.ProjectId,snowflake-right,736e6f77-666c-4616-9b65-2d7269676874,rev?*
G04 #@! TF.SameCoordinates,Original*
G04 #@! TF.FileFunction,Legend,Bot*
G04 #@! TF.FilePolarity,Positive*
%FSLAX46Y46*%
G04 Gerber Fmt 4.6, Leading zero omitted, Abs format (unit mm)*
G04 Created by KiCad (PCBNEW 5.1.7-a382d34a8~88~ubuntu18.04.1) date 2020-12-29 23:08:14*
%MOMM*%
%LPD*%
G01*
G04 APERTURE LIST*
%ADD10C,0.150000*%
%ADD11C,0.120000*%
%ADD12C,0.152400*%
G04 APERTURE END LIST*
D10*
X223938095Y-76400000D02*
X224033333Y-76352380D01*
X224176190Y-76352380D01*
X224319047Y-76400000D01*
X224414285Y-76495238D01*
X224461904Y-76590476D01*
X224509523Y-76780952D01*
X224509523Y-76923809D01*
X224461904Y-77114285D01*
X224414285Y-77209523D01*
X224319047Y-77304761D01*
X224176190Y-77352380D01*
X224080952Y-77352380D01*
X223938095Y-77304761D01*
X223890476Y-77257142D01*
X223890476Y-76923809D01*
X224080952Y-76923809D01*
X222480952Y-76752380D02*
X222480952Y-75752380D01*
X222242857Y-75752380D01*
X222100000Y-75800000D01*
X222004761Y-75895238D01*
X221957142Y-75990476D01*
X221909523Y-76180952D01*
X221909523Y-76323809D01*
X221957142Y-76514285D01*
X222004761Y-76609523D01*
X222100000Y-76704761D01*
X222242857Y-76752380D01*
X222480952Y-76752380D01*
X221480952Y-76371428D02*
X220719047Y-76371428D01*
X221100000Y-76752380D02*
X221100000Y-75990476D01*
X219480952Y-77352380D02*
X219480952Y-76352380D01*
X219242857Y-76352380D01*
X219100000Y-76400000D01*
X219004761Y-76495238D01*
X218957142Y-76590476D01*
X218909523Y-76780952D01*
X218909523Y-76923809D01*
X218957142Y-77114285D01*
X219004761Y-77209523D01*
X219100000Y-77304761D01*
X219242857Y-77352380D01*
X219480952Y-77352380D01*
X218480952Y-76971428D02*
X217719047Y-76971428D01*
X216533333Y-76352380D02*
X216200000Y-77352380D01*
X215866666Y-76352380D01*
X87938095Y-89000000D02*
X88033333Y-88952380D01*
X88176190Y-88952380D01*
X88319047Y-89000000D01*
X88414285Y-89095238D01*
X88461904Y-89190476D01*
X88509523Y-89380952D01*
X88509523Y-89523809D01*
X88461904Y-89714285D01*
X88414285Y-89809523D01*
X88319047Y-89904761D01*
X88176190Y-89952380D01*
X88080952Y-89952380D01*
X87938095Y-89904761D01*
X87890476Y-89857142D01*
X87890476Y-89523809D01*
X88080952Y-89523809D01*
X91690476Y-90552380D02*
X92166666Y-90552380D01*
X92166666Y-89552380D01*
X94685714Y-90504761D02*
X94542857Y-90552380D01*
X94304761Y-90552380D01*
X94209523Y-90504761D01*
X94161904Y-90457142D01*
X94114285Y-90361904D01*
X94114285Y-90266666D01*
X94161904Y-90171428D01*
X94209523Y-90123809D01*
X94304761Y-90076190D01*
X94495238Y-90028571D01*
X94590476Y-89980952D01*
X94638095Y-89933333D01*
X94685714Y-89838095D01*
X94685714Y-89742857D01*
X94638095Y-89647619D01*
X94590476Y-89600000D01*
X94495238Y-89552380D01*
X94257142Y-89552380D01*
X94114285Y-89600000D01*
X97333333Y-89552380D02*
X97000000Y-90552380D01*
X96666666Y-89552380D01*
X105933333Y-89552380D02*
X105600000Y-90552380D01*
X105266666Y-89552380D01*
X102890476Y-90552380D02*
X103366666Y-90552380D01*
X103366666Y-89552380D01*
X100338095Y-89600000D02*
X100433333Y-89552380D01*
X100576190Y-89552380D01*
X100719047Y-89600000D01*
X100814285Y-89695238D01*
X100861904Y-89790476D01*
X100909523Y-89980952D01*
X100909523Y-90123809D01*
X100861904Y-90314285D01*
X100814285Y-90409523D01*
X100719047Y-90504761D01*
X100576190Y-90552380D01*
X100480952Y-90552380D01*
X100338095Y-90504761D01*
X100290476Y-90457142D01*
X100290476Y-90123809D01*
X100480952Y-90123809D01*
X208300000Y-111304761D02*
X208157142Y-111352380D01*
X207919047Y-111352380D01*
X207823809Y-111304761D01*
X207776190Y-111257142D01*
X207728571Y-111161904D01*
X207728571Y-111066666D01*
X207776190Y-110971428D01*
X207823809Y-110923809D01*
X207919047Y-110876190D01*
X208109523Y-110828571D01*
X208204761Y-110780952D01*
X208252380Y-110733333D01*
X208300000Y-110638095D01*
X208300000Y-110542857D01*
X208252380Y-110447619D01*
X208204761Y-110400000D01*
X208109523Y-110352380D01*
X207871428Y-110352380D01*
X207728571Y-110400000D01*
X207300000Y-110685714D02*
X207300000Y-111352380D01*
X207300000Y-110780952D02*
X207252380Y-110733333D01*
X207157142Y-110685714D01*
X207014285Y-110685714D01*
X206919047Y-110733333D01*
X206871428Y-110828571D01*
X206871428Y-111352380D01*
X206252380Y-111352380D02*
X206347619Y-111304761D01*
X206395238Y-111257142D01*
X206442857Y-111161904D01*
X206442857Y-110876190D01*
X206395238Y-110780952D01*
X206347619Y-110733333D01*
X206252380Y-110685714D01*
X206109523Y-110685714D01*
X206014285Y-110733333D01*
X205966666Y-110780952D01*
X205919047Y-110876190D01*
X205919047Y-111161904D01*
X205966666Y-111257142D01*
X206014285Y-111304761D01*
X206109523Y-111352380D01*
X206252380Y-111352380D01*
X205585714Y-110685714D02*
X205395238Y-111352380D01*
X205204761Y-110876190D01*
X205014285Y-111352380D01*
X204823809Y-110685714D01*
X204585714Y-110685714D02*
X204204761Y-110685714D01*
X204442857Y-111352380D02*
X204442857Y-110495238D01*
X204395238Y-110400000D01*
X204300000Y-110352380D01*
X204204761Y-110352380D01*
X203728571Y-111352380D02*
X203823809Y-111304761D01*
X203871428Y-111209523D01*
X203871428Y-110352380D01*
X202919047Y-111352380D02*
X202919047Y-110828571D01*
X202966666Y-110733333D01*
X203061904Y-110685714D01*
X203252380Y-110685714D01*
X203347619Y-110733333D01*
X202919047Y-111304761D02*
X203014285Y-111352380D01*
X203252380Y-111352380D01*
X203347619Y-111304761D01*
X203395238Y-111209523D01*
X203395238Y-111114285D01*
X203347619Y-111019047D01*
X203252380Y-110971428D01*
X203014285Y-110971428D01*
X202919047Y-110923809D01*
X202442857Y-111352380D02*
X202442857Y-110352380D01*
X202347619Y-110971428D02*
X202061904Y-111352380D01*
X202061904Y-110685714D02*
X202442857Y-111066666D01*
X201252380Y-111304761D02*
X201347619Y-111352380D01*
X201538095Y-111352380D01*
X201633333Y-111304761D01*
X201680952Y-111209523D01*
X201680952Y-110828571D01*
X201633333Y-110733333D01*
X201538095Y-110685714D01*
X201347619Y-110685714D01*
X201252380Y-110733333D01*
X201204761Y-110828571D01*
X201204761Y-110923809D01*
X201680952Y-111019047D01*
X200109523Y-110685714D02*
X199871428Y-111352380D01*
X199633333Y-110685714D01*
X198728571Y-111352380D02*
X199300000Y-111352380D01*
X199014285Y-111352380D02*
X199014285Y-110352380D01*
X199109523Y-110495238D01*
X199204761Y-110590476D01*
X199300000Y-110638095D01*
X198300000Y-111257142D02*
X198252380Y-111304761D01*
X198300000Y-111352380D01*
X198347619Y-111304761D01*
X198300000Y-111257142D01*
X198300000Y-111352380D01*
X197633333Y-110352380D02*
X197538095Y-110352380D01*
X197442857Y-110400000D01*
X197395238Y-110447619D01*
X197347619Y-110542857D01*
X197300000Y-110733333D01*
X197300000Y-110971428D01*
X197347619Y-111161904D01*
X197395238Y-111257142D01*
X197442857Y-111304761D01*
X197538095Y-111352380D01*
X197633333Y-111352380D01*
X197728571Y-111304761D01*
X197776190Y-111257142D01*
X197823809Y-111161904D01*
X197871428Y-110971428D01*
X197871428Y-110733333D01*
X197823809Y-110542857D01*
X197776190Y-110447619D01*
X197728571Y-110400000D01*
X197633333Y-110352380D01*
X88095238Y-126352380D02*
X88428571Y-125876190D01*
X88666666Y-126352380D02*
X88666666Y-125352380D01*
X88285714Y-125352380D01*
X88190476Y-125400000D01*
X88142857Y-125447619D01*
X88095238Y-125542857D01*
X88095238Y-125685714D01*
X88142857Y-125780952D01*
X88190476Y-125828571D01*
X88285714Y-125876190D01*
X88666666Y-125876190D01*
X87666666Y-126352380D02*
X87666666Y-125685714D01*
X87666666Y-125352380D02*
X87714285Y-125400000D01*
X87666666Y-125447619D01*
X87619047Y-125400000D01*
X87666666Y-125352380D01*
X87666666Y-125447619D01*
X86761904Y-125685714D02*
X86761904Y-126495238D01*
X86809523Y-126590476D01*
X86857142Y-126638095D01*
X86952380Y-126685714D01*
X87095238Y-126685714D01*
X87190476Y-126638095D01*
X86761904Y-126304761D02*
X86857142Y-126352380D01*
X87047619Y-126352380D01*
X87142857Y-126304761D01*
X87190476Y-126257142D01*
X87238095Y-126161904D01*
X87238095Y-125876190D01*
X87190476Y-125780952D01*
X87142857Y-125733333D01*
X87047619Y-125685714D01*
X86857142Y-125685714D01*
X86761904Y-125733333D01*
X86285714Y-126352380D02*
X86285714Y-125352380D01*
X85857142Y-126352380D02*
X85857142Y-125828571D01*
X85904761Y-125733333D01*
X86000000Y-125685714D01*
X86142857Y-125685714D01*
X86238095Y-125733333D01*
X86285714Y-125780952D01*
X85523809Y-125685714D02*
X85142857Y-125685714D01*
X85380952Y-125352380D02*
X85380952Y-126209523D01*
X85333333Y-126304761D01*
X85238095Y-126352380D01*
X85142857Y-126352380D01*
X84095238Y-126304761D02*
X83952380Y-126352380D01*
X83714285Y-126352380D01*
X83619047Y-126304761D01*
X83571428Y-126257142D01*
X83523809Y-126161904D01*
X83523809Y-126066666D01*
X83571428Y-125971428D01*
X83619047Y-125923809D01*
X83714285Y-125876190D01*
X83904761Y-125828571D01*
X84000000Y-125780952D01*
X84047619Y-125733333D01*
X84095238Y-125638095D01*
X84095238Y-125542857D01*
X84047619Y-125447619D01*
X84000000Y-125400000D01*
X83904761Y-125352380D01*
X83666666Y-125352380D01*
X83523809Y-125400000D01*
X83095238Y-126352380D02*
X83095238Y-125685714D01*
X83095238Y-125352380D02*
X83142857Y-125400000D01*
X83095238Y-125447619D01*
X83047619Y-125400000D01*
X83095238Y-125352380D01*
X83095238Y-125447619D01*
X82190476Y-126352380D02*
X82190476Y-125352380D01*
X82190476Y-126304761D02*
X82285714Y-126352380D01*
X82476190Y-126352380D01*
X82571428Y-126304761D01*
X82619047Y-126257142D01*
X82666666Y-126161904D01*
X82666666Y-125876190D01*
X82619047Y-125780952D01*
X82571428Y-125733333D01*
X82476190Y-125685714D01*
X82285714Y-125685714D01*
X82190476Y-125733333D01*
X81333333Y-126304761D02*
X81428571Y-126352380D01*
X81619047Y-126352380D01*
X81714285Y-126304761D01*
X81761904Y-126209523D01*
X81761904Y-125828571D01*
X81714285Y-125733333D01*
X81619047Y-125685714D01*
X81428571Y-125685714D01*
X81333333Y-125733333D01*
X81285714Y-125828571D01*
X81285714Y-125923809D01*
X81761904Y-126019047D01*
X81929761Y-114187976D02*
X81977380Y-114330833D01*
X81977380Y-114568928D01*
X81929761Y-114664166D01*
X81882142Y-114711785D01*
X81786904Y-114759404D01*
X81691666Y-114759404D01*
X81596428Y-114711785D01*
X81548809Y-114664166D01*
X81501190Y-114568928D01*
X81453571Y-114378452D01*
X81405952Y-114283214D01*
X81358333Y-114235595D01*
X81263095Y-114187976D01*
X81167857Y-114187976D01*
X81072619Y-114235595D01*
X81025000Y-114283214D01*
X80977380Y-114378452D01*
X80977380Y-114616547D01*
X81025000Y-114759404D01*
X80977380Y-115473690D02*
X81691666Y-115473690D01*
X81834523Y-115426071D01*
X81929761Y-115330833D01*
X81977380Y-115187976D01*
X81977380Y-115092738D01*
X81977380Y-116473690D02*
X81977380Y-115902261D01*
X81977380Y-116187976D02*
X80977380Y-116187976D01*
X81120238Y-116092738D01*
X81215476Y-115997500D01*
X81263095Y-115902261D01*
X81929761Y-116949880D02*
X81977380Y-116949880D01*
X82072619Y-116902261D01*
X82120238Y-116854642D01*
X81929761Y-118092738D02*
X81977380Y-118235595D01*
X81977380Y-118473690D01*
X81929761Y-118568928D01*
X81882142Y-118616547D01*
X81786904Y-118664166D01*
X81691666Y-118664166D01*
X81596428Y-118616547D01*
X81548809Y-118568928D01*
X81501190Y-118473690D01*
X81453571Y-118283214D01*
X81405952Y-118187976D01*
X81358333Y-118140357D01*
X81263095Y-118092738D01*
X81167857Y-118092738D01*
X81072619Y-118140357D01*
X81025000Y-118187976D01*
X80977380Y-118283214D01*
X80977380Y-118521309D01*
X81025000Y-118664166D01*
X80977380Y-119378452D02*
X81691666Y-119378452D01*
X81834523Y-119330833D01*
X81929761Y-119235595D01*
X81977380Y-119092738D01*
X81977380Y-118997500D01*
X80977380Y-119759404D02*
X80977380Y-120378452D01*
X81358333Y-120045119D01*
X81358333Y-120187976D01*
X81405952Y-120283214D01*
X81453571Y-120330833D01*
X81548809Y-120378452D01*
X81786904Y-120378452D01*
X81882142Y-120330833D01*
X81929761Y-120283214D01*
X81977380Y-120187976D01*
X81977380Y-119902261D01*
X81929761Y-119807023D01*
X81882142Y-119759404D01*
X83579761Y-114187976D02*
X83627380Y-114330833D01*
X83627380Y-114568928D01*
X83579761Y-114664166D01*
X83532142Y-114711785D01*
X83436904Y-114759404D01*
X83341666Y-114759404D01*
X83246428Y-114711785D01*
X83198809Y-114664166D01*
X83151190Y-114568928D01*
X83103571Y-114378452D01*
X83055952Y-114283214D01*
X83008333Y-114235595D01*
X82913095Y-114187976D01*
X82817857Y-114187976D01*
X82722619Y-114235595D01*
X82675000Y-114283214D01*
X82627380Y-114378452D01*
X82627380Y-114616547D01*
X82675000Y-114759404D01*
X82627380Y-115473690D02*
X83341666Y-115473690D01*
X83484523Y-115426071D01*
X83579761Y-115330833D01*
X83627380Y-115187976D01*
X83627380Y-115092738D01*
X83627380Y-116473690D02*
X83627380Y-115902261D01*
X83627380Y-116187976D02*
X82627380Y-116187976D01*
X82770238Y-116092738D01*
X82865476Y-115997500D01*
X82913095Y-115902261D01*
X83579761Y-116949880D02*
X83627380Y-116949880D01*
X83722619Y-116902261D01*
X83770238Y-116854642D01*
X83579761Y-118092738D02*
X83627380Y-118235595D01*
X83627380Y-118473690D01*
X83579761Y-118568928D01*
X83532142Y-118616547D01*
X83436904Y-118664166D01*
X83341666Y-118664166D01*
X83246428Y-118616547D01*
X83198809Y-118568928D01*
X83151190Y-118473690D01*
X83103571Y-118283214D01*
X83055952Y-118187976D01*
X83008333Y-118140357D01*
X82913095Y-118092738D01*
X82817857Y-118092738D01*
X82722619Y-118140357D01*
X82675000Y-118187976D01*
X82627380Y-118283214D01*
X82627380Y-118521309D01*
X82675000Y-118664166D01*
X82627380Y-119378452D02*
X83341666Y-119378452D01*
X83484523Y-119330833D01*
X83579761Y-119235595D01*
X83627380Y-119092738D01*
X83627380Y-118997500D01*
X82960714Y-120283214D02*
X83627380Y-120283214D01*
X82579761Y-120045119D02*
X83294047Y-119807023D01*
X83294047Y-120426071D01*
X85229761Y-114187976D02*
X85277380Y-114330833D01*
X85277380Y-114568928D01*
X85229761Y-114664166D01*
X85182142Y-114711785D01*
X85086904Y-114759404D01*
X84991666Y-114759404D01*
X84896428Y-114711785D01*
X84848809Y-114664166D01*
X84801190Y-114568928D01*
X84753571Y-114378452D01*
X84705952Y-114283214D01*
X84658333Y-114235595D01*
X84563095Y-114187976D01*
X84467857Y-114187976D01*
X84372619Y-114235595D01*
X84325000Y-114283214D01*
X84277380Y-114378452D01*
X84277380Y-114616547D01*
X84325000Y-114759404D01*
X84277380Y-115473690D02*
X84991666Y-115473690D01*
X85134523Y-115426071D01*
X85229761Y-115330833D01*
X85277380Y-115187976D01*
X85277380Y-115092738D01*
X84372619Y-115902261D02*
X84325000Y-115949880D01*
X84277380Y-116045119D01*
X84277380Y-116283214D01*
X84325000Y-116378452D01*
X84372619Y-116426071D01*
X84467857Y-116473690D01*
X84563095Y-116473690D01*
X84705952Y-116426071D01*
X85277380Y-115854642D01*
X85277380Y-116473690D01*
X86879761Y-114187976D02*
X86927380Y-114330833D01*
X86927380Y-114568928D01*
X86879761Y-114664166D01*
X86832142Y-114711785D01*
X86736904Y-114759404D01*
X86641666Y-114759404D01*
X86546428Y-114711785D01*
X86498809Y-114664166D01*
X86451190Y-114568928D01*
X86403571Y-114378452D01*
X86355952Y-114283214D01*
X86308333Y-114235595D01*
X86213095Y-114187976D01*
X86117857Y-114187976D01*
X86022619Y-114235595D01*
X85975000Y-114283214D01*
X85927380Y-114378452D01*
X85927380Y-114616547D01*
X85975000Y-114759404D01*
X85927380Y-115473690D02*
X86641666Y-115473690D01*
X86784523Y-115426071D01*
X86879761Y-115330833D01*
X86927380Y-115187976D01*
X86927380Y-115092738D01*
X86022619Y-115902261D02*
X85975000Y-115949880D01*
X85927380Y-116045119D01*
X85927380Y-116283214D01*
X85975000Y-116378452D01*
X86022619Y-116426071D01*
X86117857Y-116473690D01*
X86213095Y-116473690D01*
X86355952Y-116426071D01*
X86927380Y-115854642D01*
X86927380Y-116473690D01*
X86879761Y-116949880D02*
X86927380Y-116949880D01*
X87022619Y-116902261D01*
X87070238Y-116854642D01*
X86879761Y-118092738D02*
X86927380Y-118235595D01*
X86927380Y-118473690D01*
X86879761Y-118568928D01*
X86832142Y-118616547D01*
X86736904Y-118664166D01*
X86641666Y-118664166D01*
X86546428Y-118616547D01*
X86498809Y-118568928D01*
X86451190Y-118473690D01*
X86403571Y-118283214D01*
X86355952Y-118187976D01*
X86308333Y-118140357D01*
X86213095Y-118092738D01*
X86117857Y-118092738D01*
X86022619Y-118140357D01*
X85975000Y-118187976D01*
X85927380Y-118283214D01*
X85927380Y-118521309D01*
X85975000Y-118664166D01*
X85927380Y-119378452D02*
X86641666Y-119378452D01*
X86784523Y-119330833D01*
X86879761Y-119235595D01*
X86927380Y-119092738D01*
X86927380Y-118997500D01*
X86260714Y-120283214D02*
X86927380Y-120283214D01*
X85879761Y-120045119D02*
X86594047Y-119807023D01*
X86594047Y-120426071D01*
X81977380Y-110031071D02*
X80977380Y-110031071D01*
X81453571Y-110031071D02*
X81453571Y-110602500D01*
X81977380Y-110602500D02*
X80977380Y-110602500D01*
X81977380Y-111221547D02*
X81929761Y-111126309D01*
X81882142Y-111078690D01*
X81786904Y-111031071D01*
X81501190Y-111031071D01*
X81405952Y-111078690D01*
X81358333Y-111126309D01*
X81310714Y-111221547D01*
X81310714Y-111364404D01*
X81358333Y-111459642D01*
X81405952Y-111507261D01*
X81501190Y-111554880D01*
X81786904Y-111554880D01*
X81882142Y-111507261D01*
X81929761Y-111459642D01*
X81977380Y-111364404D01*
X81977380Y-111221547D01*
X81929761Y-111935833D02*
X81977380Y-112031071D01*
X81977380Y-112221547D01*
X81929761Y-112316785D01*
X81834523Y-112364404D01*
X81786904Y-112364404D01*
X81691666Y-112316785D01*
X81644047Y-112221547D01*
X81644047Y-112078690D01*
X81596428Y-111983452D01*
X81501190Y-111935833D01*
X81453571Y-111935833D01*
X81358333Y-111983452D01*
X81310714Y-112078690D01*
X81310714Y-112221547D01*
X81358333Y-112316785D01*
X81310714Y-112650119D02*
X81310714Y-113031071D01*
X80977380Y-112792976D02*
X81834523Y-112792976D01*
X81929761Y-112840595D01*
X81977380Y-112935833D01*
X81977380Y-113031071D01*
X81882142Y-113364404D02*
X81929761Y-113412023D01*
X81977380Y-113364404D01*
X81929761Y-113316785D01*
X81882142Y-113364404D01*
X81977380Y-113364404D01*
X81358333Y-113364404D02*
X81405952Y-113412023D01*
X81453571Y-113364404D01*
X81405952Y-113316785D01*
X81358333Y-113364404D01*
X81453571Y-113364404D01*
X83627380Y-103745357D02*
X82627380Y-103745357D01*
X83103571Y-103745357D02*
X83103571Y-104316785D01*
X83627380Y-104316785D02*
X82627380Y-104316785D01*
X83627380Y-104935833D02*
X83579761Y-104840595D01*
X83532142Y-104792976D01*
X83436904Y-104745357D01*
X83151190Y-104745357D01*
X83055952Y-104792976D01*
X83008333Y-104840595D01*
X82960714Y-104935833D01*
X82960714Y-105078690D01*
X83008333Y-105173928D01*
X83055952Y-105221547D01*
X83151190Y-105269166D01*
X83436904Y-105269166D01*
X83532142Y-105221547D01*
X83579761Y-105173928D01*
X83627380Y-105078690D01*
X83627380Y-104935833D01*
X83579761Y-105650119D02*
X83627380Y-105745357D01*
X83627380Y-105935833D01*
X83579761Y-106031071D01*
X83484523Y-106078690D01*
X83436904Y-106078690D01*
X83341666Y-106031071D01*
X83294047Y-105935833D01*
X83294047Y-105792976D01*
X83246428Y-105697738D01*
X83151190Y-105650119D01*
X83103571Y-105650119D01*
X83008333Y-105697738D01*
X82960714Y-105792976D01*
X82960714Y-105935833D01*
X83008333Y-106031071D01*
X82960714Y-106364404D02*
X82960714Y-106745357D01*
X82627380Y-106507261D02*
X83484523Y-106507261D01*
X83579761Y-106554880D01*
X83627380Y-106650119D01*
X83627380Y-106745357D01*
X83246428Y-107840595D02*
X83246428Y-108602500D01*
X83627380Y-108221547D02*
X82865476Y-108221547D01*
X83627380Y-110316785D02*
X83627380Y-109840595D01*
X82627380Y-109840595D01*
X83103571Y-110650119D02*
X83103571Y-110983452D01*
X83627380Y-111126309D02*
X83627380Y-110650119D01*
X82627380Y-110650119D01*
X82627380Y-111126309D01*
X83627380Y-111554880D02*
X82627380Y-111554880D01*
X82627380Y-111792976D01*
X82675000Y-111935833D01*
X82770238Y-112031071D01*
X82865476Y-112078690D01*
X83055952Y-112126309D01*
X83198809Y-112126309D01*
X83389285Y-112078690D01*
X83484523Y-112031071D01*
X83579761Y-111935833D01*
X83627380Y-111792976D01*
X83627380Y-111554880D01*
X83579761Y-112507261D02*
X83627380Y-112602500D01*
X83627380Y-112792976D01*
X83579761Y-112888214D01*
X83484523Y-112935833D01*
X83436904Y-112935833D01*
X83341666Y-112888214D01*
X83294047Y-112792976D01*
X83294047Y-112650119D01*
X83246428Y-112554880D01*
X83151190Y-112507261D01*
X83103571Y-112507261D01*
X83008333Y-112554880D01*
X82960714Y-112650119D01*
X82960714Y-112792976D01*
X83008333Y-112888214D01*
X83532142Y-113364404D02*
X83579761Y-113412023D01*
X83627380Y-113364404D01*
X83579761Y-113316785D01*
X83532142Y-113364404D01*
X83627380Y-113364404D01*
X83008333Y-113364404D02*
X83055952Y-113412023D01*
X83103571Y-113364404D01*
X83055952Y-113316785D01*
X83008333Y-113364404D01*
X83103571Y-113364404D01*
X85182142Y-109602500D02*
X85229761Y-109554880D01*
X85277380Y-109412023D01*
X85277380Y-109316785D01*
X85229761Y-109173928D01*
X85134523Y-109078690D01*
X85039285Y-109031071D01*
X84848809Y-108983452D01*
X84705952Y-108983452D01*
X84515476Y-109031071D01*
X84420238Y-109078690D01*
X84325000Y-109173928D01*
X84277380Y-109316785D01*
X84277380Y-109412023D01*
X84325000Y-109554880D01*
X84372619Y-109602500D01*
X85277380Y-110173928D02*
X85229761Y-110078690D01*
X85134523Y-110031071D01*
X84277380Y-110031071D01*
X85277380Y-110554880D02*
X84610714Y-110554880D01*
X84277380Y-110554880D02*
X84325000Y-110507261D01*
X84372619Y-110554880D01*
X84325000Y-110602500D01*
X84277380Y-110554880D01*
X84372619Y-110554880D01*
X85229761Y-111412023D02*
X85277380Y-111316785D01*
X85277380Y-111126309D01*
X85229761Y-111031071D01*
X85134523Y-110983452D01*
X84753571Y-110983452D01*
X84658333Y-111031071D01*
X84610714Y-111126309D01*
X84610714Y-111316785D01*
X84658333Y-111412023D01*
X84753571Y-111459642D01*
X84848809Y-111459642D01*
X84944047Y-110983452D01*
X84610714Y-111888214D02*
X85277380Y-111888214D01*
X84705952Y-111888214D02*
X84658333Y-111935833D01*
X84610714Y-112031071D01*
X84610714Y-112173928D01*
X84658333Y-112269166D01*
X84753571Y-112316785D01*
X85277380Y-112316785D01*
X84610714Y-112650119D02*
X84610714Y-113031071D01*
X84277380Y-112792976D02*
X85134523Y-112792976D01*
X85229761Y-112840595D01*
X85277380Y-112935833D01*
X85277380Y-113031071D01*
X85182142Y-113364404D02*
X85229761Y-113412023D01*
X85277380Y-113364404D01*
X85229761Y-113316785D01*
X85182142Y-113364404D01*
X85277380Y-113364404D01*
X84658333Y-113364404D02*
X84705952Y-113412023D01*
X84753571Y-113364404D01*
X84705952Y-113316785D01*
X84658333Y-113364404D01*
X84753571Y-113364404D01*
X86832142Y-103316785D02*
X86879761Y-103269166D01*
X86927380Y-103126309D01*
X86927380Y-103031071D01*
X86879761Y-102888214D01*
X86784523Y-102792976D01*
X86689285Y-102745357D01*
X86498809Y-102697738D01*
X86355952Y-102697738D01*
X86165476Y-102745357D01*
X86070238Y-102792976D01*
X85975000Y-102888214D01*
X85927380Y-103031071D01*
X85927380Y-103126309D01*
X85975000Y-103269166D01*
X86022619Y-103316785D01*
X86927380Y-103888214D02*
X86879761Y-103792976D01*
X86784523Y-103745357D01*
X85927380Y-103745357D01*
X86927380Y-104269166D02*
X86260714Y-104269166D01*
X85927380Y-104269166D02*
X85975000Y-104221547D01*
X86022619Y-104269166D01*
X85975000Y-104316785D01*
X85927380Y-104269166D01*
X86022619Y-104269166D01*
X86879761Y-105126309D02*
X86927380Y-105031071D01*
X86927380Y-104840595D01*
X86879761Y-104745357D01*
X86784523Y-104697738D01*
X86403571Y-104697738D01*
X86308333Y-104745357D01*
X86260714Y-104840595D01*
X86260714Y-105031071D01*
X86308333Y-105126309D01*
X86403571Y-105173928D01*
X86498809Y-105173928D01*
X86594047Y-104697738D01*
X86260714Y-105602500D02*
X86927380Y-105602500D01*
X86355952Y-105602500D02*
X86308333Y-105650119D01*
X86260714Y-105745357D01*
X86260714Y-105888214D01*
X86308333Y-105983452D01*
X86403571Y-106031071D01*
X86927380Y-106031071D01*
X86260714Y-106364404D02*
X86260714Y-106745357D01*
X85927380Y-106507261D02*
X86784523Y-106507261D01*
X86879761Y-106554880D01*
X86927380Y-106650119D01*
X86927380Y-106745357D01*
X86546428Y-107840595D02*
X86546428Y-108602500D01*
X86927380Y-108221547D02*
X86165476Y-108221547D01*
X86927380Y-110316785D02*
X86927380Y-109840595D01*
X85927380Y-109840595D01*
X86403571Y-110650119D02*
X86403571Y-110983452D01*
X86927380Y-111126309D02*
X86927380Y-110650119D01*
X85927380Y-110650119D01*
X85927380Y-111126309D01*
X86927380Y-111554880D02*
X85927380Y-111554880D01*
X85927380Y-111792976D01*
X85975000Y-111935833D01*
X86070238Y-112031071D01*
X86165476Y-112078690D01*
X86355952Y-112126309D01*
X86498809Y-112126309D01*
X86689285Y-112078690D01*
X86784523Y-112031071D01*
X86879761Y-111935833D01*
X86927380Y-111792976D01*
X86927380Y-111554880D01*
X86879761Y-112507261D02*
X86927380Y-112602500D01*
X86927380Y-112792976D01*
X86879761Y-112888214D01*
X86784523Y-112935833D01*
X86736904Y-112935833D01*
X86641666Y-112888214D01*
X86594047Y-112792976D01*
X86594047Y-112650119D01*
X86546428Y-112554880D01*
X86451190Y-112507261D01*
X86403571Y-112507261D01*
X86308333Y-112554880D01*
X86260714Y-112650119D01*
X86260714Y-112792976D01*
X86308333Y-112888214D01*
X86832142Y-113364404D02*
X86879761Y-113412023D01*
X86927380Y-113364404D01*
X86879761Y-113316785D01*
X86832142Y-113364404D01*
X86927380Y-113364404D01*
X86308333Y-113364404D02*
X86355952Y-113412023D01*
X86403571Y-113364404D01*
X86355952Y-113316785D01*
X86308333Y-113364404D01*
X86403571Y-113364404D01*
D11*
X86550000Y-100600000D02*
X86550000Y-100000000D01*
X84450000Y-101300000D02*
X85850000Y-101300000D01*
X83750000Y-100000000D02*
X83750000Y-100600000D01*
X85850000Y-99300000D02*
X84450000Y-99300000D01*
X86550000Y-100000000D02*
G75*
G03*
X85850000Y-99300000I-700000J0D01*
G01*
X85850000Y-101300000D02*
G75*
G03*
X86550000Y-100600000I0J700000D01*
G01*
X83750000Y-100600000D02*
G75*
G03*
X84450000Y-101300000I700000J0D01*
G01*
X84450000Y-99300000D02*
G75*
G03*
X83750000Y-100000000I0J-700000D01*
G01*
X83750000Y-96400000D02*
X83750000Y-97000000D01*
X85850000Y-95700000D02*
X84450000Y-95700000D01*
X86550000Y-97000000D02*
X86550000Y-96400000D01*
X84450000Y-97700000D02*
X85850000Y-97700000D01*
X83750000Y-97000000D02*
G75*
G03*
X84450000Y-97700000I700000J0D01*
G01*
X84450000Y-95700000D02*
G75*
G03*
X83750000Y-96400000I0J-700000D01*
G01*
X86550000Y-96400000D02*
G75*
G03*
X85850000Y-95700000I-700000J0D01*
G01*
X85850000Y-97700000D02*
G75*
G03*
X86550000Y-97000000I0J700000D01*
G01*
X83750000Y-92800000D02*
X83750000Y-93400000D01*
X85850000Y-92100000D02*
X84450000Y-92100000D01*
X86550000Y-93400000D02*
X86550000Y-92800000D01*
X84450000Y-94100000D02*
X85850000Y-94100000D01*
X83750000Y-93400000D02*
G75*
G03*
X84450000Y-94100000I700000J0D01*
G01*
X84450000Y-92100000D02*
G75*
G03*
X83750000Y-92800000I0J-700000D01*
G01*
X86550000Y-92800000D02*
G75*
G03*
X85850000Y-92100000I-700000J0D01*
G01*
X85850000Y-94100000D02*
G75*
G03*
X86550000Y-93400000I0J700000D01*
G01*
X86550000Y-89800000D02*
X86550000Y-89200000D01*
X84450000Y-90500000D02*
X85850000Y-90500000D01*
X83750000Y-89200000D02*
X83750000Y-89800000D01*
X85850000Y-88500000D02*
X84450000Y-88500000D01*
X86550000Y-89200000D02*
G75*
G03*
X85850000Y-88500000I-700000J0D01*
G01*
X85850000Y-90500000D02*
G75*
G03*
X86550000Y-89800000I0J700000D01*
G01*
X83750000Y-89800000D02*
G75*
G03*
X84450000Y-90500000I700000J0D01*
G01*
X84450000Y-88500000D02*
G75*
G03*
X83750000Y-89200000I0J-700000D01*
G01*
X90046267Y-90190000D02*
X89753733Y-90190000D01*
X90046267Y-91210000D02*
X89753733Y-91210000D01*
X214080000Y-113720000D02*
X218220000Y-113720000D01*
X218220000Y-110880000D02*
X218220000Y-110580000D01*
X218220000Y-110580000D02*
X214080000Y-110580000D01*
X214080000Y-113420000D02*
X214080000Y-113720000D01*
X214080000Y-110580000D02*
X214080000Y-110880000D01*
X218220000Y-113720000D02*
X218220000Y-113420000D01*
D12*
X220374500Y-78339459D02*
X220374500Y-78060541D01*
X220374500Y-76993500D02*
X222025500Y-76993500D01*
X222025500Y-76993500D02*
X222025500Y-77689460D01*
X222025500Y-79406500D02*
X220374500Y-79406500D01*
X222025500Y-78710540D02*
X222025500Y-79406500D01*
X220133200Y-80549500D02*
G75*
G03*
X220133200Y-80549500I-127000J0D01*
G01*
D11*
X218180000Y-102170000D02*
X223580000Y-102170000D01*
X218180000Y-106670000D02*
X218180000Y-102170000D01*
D10*
X226055000Y-87190000D02*
X227330000Y-87190000D01*
X215705000Y-86615000D02*
X216380000Y-86615000D01*
X215705000Y-96965000D02*
X216380000Y-96965000D01*
X226055000Y-96965000D02*
X225380000Y-96965000D01*
X226055000Y-86615000D02*
X225380000Y-86615000D01*
X226055000Y-96965000D02*
X226055000Y-96290000D01*
X215705000Y-96965000D02*
X215705000Y-96290000D01*
X215705000Y-86615000D02*
X215705000Y-87290000D01*
X226055000Y-86615000D02*
X226055000Y-87190000D01*
D11*
X213722500Y-82445276D02*
X213722500Y-82954724D01*
X212677500Y-82445276D02*
X212677500Y-82954724D01*
X226677500Y-100045276D02*
X226677500Y-100554724D01*
X227722500Y-100045276D02*
X227722500Y-100554724D01*
X217645276Y-80177500D02*
X218154724Y-80177500D01*
X217645276Y-81222500D02*
X218154724Y-81222500D01*
X222554724Y-81222500D02*
X222045276Y-81222500D01*
X222554724Y-80177500D02*
X222045276Y-80177500D01*
D10*
X82450000Y-138524000D02*
X82450000Y-138905000D01*
X93880000Y-135984000D02*
X93880000Y-137000000D01*
X93880000Y-137000000D02*
X88800000Y-137000000D01*
X86335838Y-138905000D02*
X84609000Y-138905000D01*
X82831000Y-138905000D02*
X82450000Y-138905000D01*
X82450000Y-135095000D02*
X82450000Y-135476000D01*
X84990000Y-132555000D02*
X93880000Y-132555000D01*
X93880000Y-132555000D02*
X93880000Y-132936000D01*
X82450000Y-135095000D02*
G75*
G02*
X84990000Y-132555000I2540000J0D01*
G01*
X86335838Y-138923960D02*
G75*
G02*
X88800000Y-137000000I2464162J-616040D01*
G01*
X99450000Y-134524000D02*
X99450000Y-134905000D01*
X110880000Y-131984000D02*
X110880000Y-133000000D01*
X110880000Y-133000000D02*
X105800000Y-133000000D01*
X103335838Y-134905000D02*
X101609000Y-134905000D01*
X99831000Y-134905000D02*
X99450000Y-134905000D01*
X99450000Y-131095000D02*
X99450000Y-131476000D01*
X101990000Y-128555000D02*
X110880000Y-128555000D01*
X110880000Y-128555000D02*
X110880000Y-128936000D01*
X99450000Y-131095000D02*
G75*
G02*
X101990000Y-128555000I2540000J0D01*
G01*
X103335838Y-134923960D02*
G75*
G02*
X105800000Y-133000000I2464162J-616040D01*
G01*
X116450000Y-134524000D02*
X116450000Y-134905000D01*
X127880000Y-131984000D02*
X127880000Y-133000000D01*
X127880000Y-133000000D02*
X122800000Y-133000000D01*
X120335838Y-134905000D02*
X118609000Y-134905000D01*
X116831000Y-134905000D02*
X116450000Y-134905000D01*
X116450000Y-131095000D02*
X116450000Y-131476000D01*
X118990000Y-128555000D02*
X127880000Y-128555000D01*
X127880000Y-128555000D02*
X127880000Y-128936000D01*
X116450000Y-131095000D02*
G75*
G02*
X118990000Y-128555000I2540000J0D01*
G01*
X120335838Y-134923960D02*
G75*
G02*
X122800000Y-133000000I2464162J-616040D01*
G01*
X133450000Y-137524000D02*
X133450000Y-137905000D01*
X144880000Y-134984000D02*
X144880000Y-136000000D01*
X144880000Y-136000000D02*
X139800000Y-136000000D01*
X137335838Y-137905000D02*
X135609000Y-137905000D01*
X133831000Y-137905000D02*
X133450000Y-137905000D01*
X133450000Y-134095000D02*
X133450000Y-134476000D01*
X135990000Y-131555000D02*
X144880000Y-131555000D01*
X144880000Y-131555000D02*
X144880000Y-131936000D01*
X133450000Y-134095000D02*
G75*
G02*
X135990000Y-131555000I2540000J0D01*
G01*
X137335838Y-137923960D02*
G75*
G02*
X139800000Y-136000000I2464162J-616040D01*
G01*
X178450000Y-132084000D02*
X178450000Y-132465000D01*
X189880000Y-129544000D02*
X189880000Y-130560000D01*
X189880000Y-130560000D02*
X184800000Y-130560000D01*
X182335838Y-132465000D02*
X180609000Y-132465000D01*
X178831000Y-132465000D02*
X178450000Y-132465000D01*
X178450000Y-128655000D02*
X178450000Y-129036000D01*
X180990000Y-126115000D02*
X189880000Y-126115000D01*
X189880000Y-126115000D02*
X189880000Y-126496000D01*
X178450000Y-128655000D02*
G75*
G02*
X180990000Y-126115000I2540000J0D01*
G01*
X182335838Y-132483960D02*
G75*
G02*
X184800000Y-130560000I2464162J-616040D01*
G01*
X90450000Y-113354000D02*
X90450000Y-113735000D01*
X101880000Y-110814000D02*
X101880000Y-111830000D01*
X101880000Y-111830000D02*
X96800000Y-111830000D01*
X94335838Y-113735000D02*
X92609000Y-113735000D01*
X90831000Y-113735000D02*
X90450000Y-113735000D01*
X90450000Y-109925000D02*
X90450000Y-110306000D01*
X92990000Y-107385000D02*
X101880000Y-107385000D01*
X101880000Y-107385000D02*
X101880000Y-107766000D01*
X90450000Y-109925000D02*
G75*
G02*
X92990000Y-107385000I2540000J0D01*
G01*
X94335838Y-113753960D02*
G75*
G02*
X96800000Y-111830000I2464162J-616040D01*
G01*
X110450000Y-116354000D02*
X110450000Y-116735000D01*
X121880000Y-113814000D02*
X121880000Y-114830000D01*
X121880000Y-114830000D02*
X116800000Y-114830000D01*
X114335838Y-116735000D02*
X112609000Y-116735000D01*
X110831000Y-116735000D02*
X110450000Y-116735000D01*
X110450000Y-112925000D02*
X110450000Y-113306000D01*
X112990000Y-110385000D02*
X121880000Y-110385000D01*
X121880000Y-110385000D02*
X121880000Y-110766000D01*
X110450000Y-112925000D02*
G75*
G02*
X112990000Y-110385000I2540000J0D01*
G01*
X114335838Y-116753960D02*
G75*
G02*
X116800000Y-114830000I2464162J-616040D01*
G01*
X127450000Y-113354000D02*
X127450000Y-113735000D01*
X138880000Y-110814000D02*
X138880000Y-111830000D01*
X138880000Y-111830000D02*
X133800000Y-111830000D01*
X131335838Y-113735000D02*
X129609000Y-113735000D01*
X127831000Y-113735000D02*
X127450000Y-113735000D01*
X127450000Y-109925000D02*
X127450000Y-110306000D01*
X129990000Y-107385000D02*
X138880000Y-107385000D01*
X138880000Y-107385000D02*
X138880000Y-107766000D01*
X127450000Y-109925000D02*
G75*
G02*
X129990000Y-107385000I2540000J0D01*
G01*
X131335838Y-113753960D02*
G75*
G02*
X133800000Y-111830000I2464162J-616040D01*
G01*
X144450000Y-108524000D02*
X144450000Y-108905000D01*
X155880000Y-105984000D02*
X155880000Y-107000000D01*
X155880000Y-107000000D02*
X150800000Y-107000000D01*
X148335838Y-108905000D02*
X146609000Y-108905000D01*
X144831000Y-108905000D02*
X144450000Y-108905000D01*
X144450000Y-105095000D02*
X144450000Y-105476000D01*
X146990000Y-102555000D02*
X155880000Y-102555000D01*
X155880000Y-102555000D02*
X155880000Y-102936000D01*
X144450000Y-105095000D02*
G75*
G02*
X146990000Y-102555000I2540000J0D01*
G01*
X148335838Y-108923960D02*
G75*
G02*
X150800000Y-107000000I2464162J-616040D01*
G01*
X161450000Y-107824000D02*
X161450000Y-108205000D01*
X172880000Y-105284000D02*
X172880000Y-106300000D01*
X172880000Y-106300000D02*
X167800000Y-106300000D01*
X165335838Y-108205000D02*
X163609000Y-108205000D01*
X161831000Y-108205000D02*
X161450000Y-108205000D01*
X161450000Y-104395000D02*
X161450000Y-104776000D01*
X163990000Y-101855000D02*
X172880000Y-101855000D01*
X172880000Y-101855000D02*
X172880000Y-102236000D01*
X161450000Y-104395000D02*
G75*
G02*
X163990000Y-101855000I2540000J0D01*
G01*
X165335838Y-108223960D02*
G75*
G02*
X167800000Y-106300000I2464162J-616040D01*
G01*
X178450000Y-116084000D02*
X178450000Y-116465000D01*
X189880000Y-113544000D02*
X189880000Y-114560000D01*
X189880000Y-114560000D02*
X184800000Y-114560000D01*
X182335838Y-116465000D02*
X180609000Y-116465000D01*
X178831000Y-116465000D02*
X178450000Y-116465000D01*
X178450000Y-112655000D02*
X178450000Y-113036000D01*
X180990000Y-110115000D02*
X189880000Y-110115000D01*
X189880000Y-110115000D02*
X189880000Y-110496000D01*
X178450000Y-112655000D02*
G75*
G02*
X180990000Y-110115000I2540000J0D01*
G01*
X182335838Y-116483960D02*
G75*
G02*
X184800000Y-114560000I2464162J-616040D01*
G01*
X195450000Y-121084000D02*
X195450000Y-121465000D01*
X206880000Y-118544000D02*
X206880000Y-119560000D01*
X206880000Y-119560000D02*
X201800000Y-119560000D01*
X199335838Y-121465000D02*
X197609000Y-121465000D01*
X195831000Y-121465000D02*
X195450000Y-121465000D01*
X195450000Y-117655000D02*
X195450000Y-118036000D01*
X197990000Y-115115000D02*
X206880000Y-115115000D01*
X206880000Y-115115000D02*
X206880000Y-115496000D01*
X195450000Y-117655000D02*
G75*
G02*
X197990000Y-115115000I2540000J0D01*
G01*
X199335838Y-121483960D02*
G75*
G02*
X201800000Y-119560000I2464162J-616040D01*
G01*
X212450000Y-123084000D02*
X212450000Y-123465000D01*
X223880000Y-120544000D02*
X223880000Y-121560000D01*
X223880000Y-121560000D02*
X218800000Y-121560000D01*
X216335838Y-123465000D02*
X214609000Y-123465000D01*
X212831000Y-123465000D02*
X212450000Y-123465000D01*
X212450000Y-119655000D02*
X212450000Y-120036000D01*
X214990000Y-117115000D02*
X223880000Y-117115000D01*
X223880000Y-117115000D02*
X223880000Y-117496000D01*
X212450000Y-119655000D02*
G75*
G02*
X214990000Y-117115000I2540000J0D01*
G01*
X216335838Y-123483960D02*
G75*
G02*
X218800000Y-121560000I2464162J-616040D01*
G01*
X90450000Y-97354000D02*
X90450000Y-97735000D01*
X101880000Y-94814000D02*
X101880000Y-95830000D01*
X101880000Y-95830000D02*
X96800000Y-95830000D01*
X94335838Y-97735000D02*
X92609000Y-97735000D01*
X90831000Y-97735000D02*
X90450000Y-97735000D01*
X90450000Y-93925000D02*
X90450000Y-94306000D01*
X92990000Y-91385000D02*
X101880000Y-91385000D01*
X101880000Y-91385000D02*
X101880000Y-91766000D01*
X90450000Y-93925000D02*
G75*
G02*
X92990000Y-91385000I2540000J0D01*
G01*
X94335838Y-97753960D02*
G75*
G02*
X96800000Y-95830000I2464162J-616040D01*
G01*
X110450000Y-100354000D02*
X110450000Y-100735000D01*
X121880000Y-97814000D02*
X121880000Y-98830000D01*
X121880000Y-98830000D02*
X116800000Y-98830000D01*
X114335838Y-100735000D02*
X112609000Y-100735000D01*
X110831000Y-100735000D02*
X110450000Y-100735000D01*
X110450000Y-96925000D02*
X110450000Y-97306000D01*
X112990000Y-94385000D02*
X121880000Y-94385000D01*
X121880000Y-94385000D02*
X121880000Y-94766000D01*
X110450000Y-96925000D02*
G75*
G02*
X112990000Y-94385000I2540000J0D01*
G01*
X114335838Y-100753960D02*
G75*
G02*
X116800000Y-98830000I2464162J-616040D01*
G01*
X138880000Y-91385000D02*
X138880000Y-91766000D01*
X129990000Y-91385000D02*
X138880000Y-91385000D01*
X127450000Y-93925000D02*
X127450000Y-94306000D01*
X127831000Y-97735000D02*
X127450000Y-97735000D01*
X131335838Y-97735000D02*
X129609000Y-97735000D01*
X138880000Y-95830000D02*
X133800000Y-95830000D01*
X138880000Y-94814000D02*
X138880000Y-95830000D01*
X127450000Y-97354000D02*
X127450000Y-97735000D01*
X131335838Y-97753960D02*
G75*
G02*
X133800000Y-95830000I2464162J-616040D01*
G01*
X127450000Y-93925000D02*
G75*
G02*
X129990000Y-91385000I2540000J0D01*
G01*
X144450000Y-92524000D02*
X144450000Y-92905000D01*
X155880000Y-89984000D02*
X155880000Y-91000000D01*
X155880000Y-91000000D02*
X150800000Y-91000000D01*
X148335838Y-92905000D02*
X146609000Y-92905000D01*
X144831000Y-92905000D02*
X144450000Y-92905000D01*
X144450000Y-89095000D02*
X144450000Y-89476000D01*
X146990000Y-86555000D02*
X155880000Y-86555000D01*
X155880000Y-86555000D02*
X155880000Y-86936000D01*
X144450000Y-89095000D02*
G75*
G02*
X146990000Y-86555000I2540000J0D01*
G01*
X148335838Y-92923960D02*
G75*
G02*
X150800000Y-91000000I2464162J-616040D01*
G01*
X161450000Y-91824000D02*
X161450000Y-92205000D01*
X172880000Y-89284000D02*
X172880000Y-90300000D01*
X172880000Y-90300000D02*
X167800000Y-90300000D01*
X165335838Y-92205000D02*
X163609000Y-92205000D01*
X161831000Y-92205000D02*
X161450000Y-92205000D01*
X161450000Y-88395000D02*
X161450000Y-88776000D01*
X163990000Y-85855000D02*
X172880000Y-85855000D01*
X172880000Y-85855000D02*
X172880000Y-86236000D01*
X161450000Y-88395000D02*
G75*
G02*
X163990000Y-85855000I2540000J0D01*
G01*
X165335838Y-92223960D02*
G75*
G02*
X167800000Y-90300000I2464162J-616040D01*
G01*
X178450000Y-100084000D02*
X178450000Y-100465000D01*
X189880000Y-97544000D02*
X189880000Y-98560000D01*
X189880000Y-98560000D02*
X184800000Y-98560000D01*
X182335838Y-100465000D02*
X180609000Y-100465000D01*
X178831000Y-100465000D02*
X178450000Y-100465000D01*
X178450000Y-96655000D02*
X178450000Y-97036000D01*
X180990000Y-94115000D02*
X189880000Y-94115000D01*
X189880000Y-94115000D02*
X189880000Y-94496000D01*
X178450000Y-96655000D02*
G75*
G02*
X180990000Y-94115000I2540000J0D01*
G01*
X182335838Y-100483960D02*
G75*
G02*
X184800000Y-98560000I2464162J-616040D01*
G01*
X195450000Y-101084000D02*
X195450000Y-101465000D01*
X206880000Y-98544000D02*
X206880000Y-99560000D01*
X206880000Y-99560000D02*
X201800000Y-99560000D01*
X199335838Y-101465000D02*
X197609000Y-101465000D01*
X195831000Y-101465000D02*
X195450000Y-101465000D01*
X195450000Y-97655000D02*
X195450000Y-98036000D01*
X197990000Y-95115000D02*
X206880000Y-95115000D01*
X206880000Y-95115000D02*
X206880000Y-95496000D01*
X195450000Y-97655000D02*
G75*
G02*
X197990000Y-95115000I2540000J0D01*
G01*
X199335838Y-101483960D02*
G75*
G02*
X201800000Y-99560000I2464162J-616040D01*
G01*
X110450000Y-84354000D02*
X110450000Y-84735000D01*
X121880000Y-81814000D02*
X121880000Y-82830000D01*
X121880000Y-82830000D02*
X116800000Y-82830000D01*
X114335838Y-84735000D02*
X112609000Y-84735000D01*
X110831000Y-84735000D02*
X110450000Y-84735000D01*
X110450000Y-80925000D02*
X110450000Y-81306000D01*
X112990000Y-78385000D02*
X121880000Y-78385000D01*
X121880000Y-78385000D02*
X121880000Y-78766000D01*
X110450000Y-80925000D02*
G75*
G02*
X112990000Y-78385000I2540000J0D01*
G01*
X114335838Y-84753960D02*
G75*
G02*
X116800000Y-82830000I2464162J-616040D01*
G01*
X127450000Y-81354000D02*
X127450000Y-81735000D01*
X138880000Y-78814000D02*
X138880000Y-79830000D01*
X138880000Y-79830000D02*
X133800000Y-79830000D01*
X131335838Y-81735000D02*
X129609000Y-81735000D01*
X127831000Y-81735000D02*
X127450000Y-81735000D01*
X127450000Y-77925000D02*
X127450000Y-78306000D01*
X129990000Y-75385000D02*
X138880000Y-75385000D01*
X138880000Y-75385000D02*
X138880000Y-75766000D01*
X127450000Y-77925000D02*
G75*
G02*
X129990000Y-75385000I2540000J0D01*
G01*
X131335838Y-81753960D02*
G75*
G02*
X133800000Y-79830000I2464162J-616040D01*
G01*
X144450000Y-76524000D02*
X144450000Y-76905000D01*
X155880000Y-73984000D02*
X155880000Y-75000000D01*
X155880000Y-75000000D02*
X150800000Y-75000000D01*
X148335838Y-76905000D02*
X146609000Y-76905000D01*
X144831000Y-76905000D02*
X144450000Y-76905000D01*
X144450000Y-73095000D02*
X144450000Y-73476000D01*
X146990000Y-70555000D02*
X155880000Y-70555000D01*
X155880000Y-70555000D02*
X155880000Y-70936000D01*
X144450000Y-73095000D02*
G75*
G02*
X146990000Y-70555000I2540000J0D01*
G01*
X148335838Y-76923960D02*
G75*
G02*
X150800000Y-75000000I2464162J-616040D01*
G01*
X161450000Y-75824000D02*
X161450000Y-76205000D01*
X172880000Y-73284000D02*
X172880000Y-74300000D01*
X172880000Y-74300000D02*
X167800000Y-74300000D01*
X165335838Y-76205000D02*
X163609000Y-76205000D01*
X161831000Y-76205000D02*
X161450000Y-76205000D01*
X161450000Y-72395000D02*
X161450000Y-72776000D01*
X163990000Y-69855000D02*
X172880000Y-69855000D01*
X172880000Y-69855000D02*
X172880000Y-70236000D01*
X161450000Y-72395000D02*
G75*
G02*
X163990000Y-69855000I2540000J0D01*
G01*
X165335838Y-76223960D02*
G75*
G02*
X167800000Y-74300000I2464162J-616040D01*
G01*
X178450000Y-84084000D02*
X178450000Y-84465000D01*
X189880000Y-81544000D02*
X189880000Y-82560000D01*
X189880000Y-82560000D02*
X184800000Y-82560000D01*
X182335838Y-84465000D02*
X180609000Y-84465000D01*
X178831000Y-84465000D02*
X178450000Y-84465000D01*
X178450000Y-80655000D02*
X178450000Y-81036000D01*
X180990000Y-78115000D02*
X189880000Y-78115000D01*
X189880000Y-78115000D02*
X189880000Y-78496000D01*
X178450000Y-80655000D02*
G75*
G02*
X180990000Y-78115000I2540000J0D01*
G01*
X182335838Y-84483960D02*
G75*
G02*
X184800000Y-82560000I2464162J-616040D01*
G01*
X195450000Y-85084000D02*
X195450000Y-85465000D01*
X206880000Y-82544000D02*
X206880000Y-83560000D01*
X206880000Y-83560000D02*
X201800000Y-83560000D01*
X199335838Y-85465000D02*
X197609000Y-85465000D01*
X195831000Y-85465000D02*
X195450000Y-85465000D01*
X195450000Y-81655000D02*
X195450000Y-82036000D01*
X197990000Y-79115000D02*
X206880000Y-79115000D01*
X206880000Y-79115000D02*
X206880000Y-79496000D01*
X195450000Y-81655000D02*
G75*
G02*
X197990000Y-79115000I2540000J0D01*
G01*
X199335838Y-85483960D02*
G75*
G02*
X201800000Y-83560000I2464162J-616040D01*
G01*
X110450000Y-68354000D02*
X110450000Y-68735000D01*
X121880000Y-65814000D02*
X121880000Y-66830000D01*
X121880000Y-66830000D02*
X116800000Y-66830000D01*
X114335838Y-68735000D02*
X112609000Y-68735000D01*
X110831000Y-68735000D02*
X110450000Y-68735000D01*
X110450000Y-64925000D02*
X110450000Y-65306000D01*
X112990000Y-62385000D02*
X121880000Y-62385000D01*
X121880000Y-62385000D02*
X121880000Y-62766000D01*
X110450000Y-64925000D02*
G75*
G02*
X112990000Y-62385000I2540000J0D01*
G01*
X114335838Y-68753960D02*
G75*
G02*
X116800000Y-66830000I2464162J-616040D01*
G01*
X127450000Y-65354000D02*
X127450000Y-65735000D01*
X138880000Y-62814000D02*
X138880000Y-63830000D01*
X138880000Y-63830000D02*
X133800000Y-63830000D01*
X131335838Y-65735000D02*
X129609000Y-65735000D01*
X127831000Y-65735000D02*
X127450000Y-65735000D01*
X127450000Y-61925000D02*
X127450000Y-62306000D01*
X129990000Y-59385000D02*
X138880000Y-59385000D01*
X138880000Y-59385000D02*
X138880000Y-59766000D01*
X127450000Y-61925000D02*
G75*
G02*
X129990000Y-59385000I2540000J0D01*
G01*
X131335838Y-65753960D02*
G75*
G02*
X133800000Y-63830000I2464162J-616040D01*
G01*
X144450000Y-60524000D02*
X144450000Y-60905000D01*
X155880000Y-57984000D02*
X155880000Y-59000000D01*
X155880000Y-59000000D02*
X150800000Y-59000000D01*
X148335838Y-60905000D02*
X146609000Y-60905000D01*
X144831000Y-60905000D02*
X144450000Y-60905000D01*
X144450000Y-57095000D02*
X144450000Y-57476000D01*
X146990000Y-54555000D02*
X155880000Y-54555000D01*
X155880000Y-54555000D02*
X155880000Y-54936000D01*
X144450000Y-57095000D02*
G75*
G02*
X146990000Y-54555000I2540000J0D01*
G01*
X148335838Y-60923960D02*
G75*
G02*
X150800000Y-59000000I2464162J-616040D01*
G01*
X161450000Y-59824000D02*
X161450000Y-60205000D01*
X172880000Y-57284000D02*
X172880000Y-58300000D01*
X172880000Y-58300000D02*
X167800000Y-58300000D01*
X165335838Y-60205000D02*
X163609000Y-60205000D01*
X161831000Y-60205000D02*
X161450000Y-60205000D01*
X161450000Y-56395000D02*
X161450000Y-56776000D01*
X163990000Y-53855000D02*
X172880000Y-53855000D01*
X172880000Y-53855000D02*
X172880000Y-54236000D01*
X161450000Y-56395000D02*
G75*
G02*
X163990000Y-53855000I2540000J0D01*
G01*
X165335838Y-60223960D02*
G75*
G02*
X167800000Y-58300000I2464162J-616040D01*
G01*
X178450000Y-68084000D02*
X178450000Y-68465000D01*
X189880000Y-65544000D02*
X189880000Y-66560000D01*
X189880000Y-66560000D02*
X184800000Y-66560000D01*
X182335838Y-68465000D02*
X180609000Y-68465000D01*
X178831000Y-68465000D02*
X178450000Y-68465000D01*
X178450000Y-64655000D02*
X178450000Y-65036000D01*
X180990000Y-62115000D02*
X189880000Y-62115000D01*
X189880000Y-62115000D02*
X189880000Y-62496000D01*
X178450000Y-64655000D02*
G75*
G02*
X180990000Y-62115000I2540000J0D01*
G01*
X182335838Y-68483960D02*
G75*
G02*
X184800000Y-66560000I2464162J-616040D01*
G01*
X195450000Y-69084000D02*
X195450000Y-69465000D01*
X206880000Y-66544000D02*
X206880000Y-67560000D01*
X206880000Y-67560000D02*
X201800000Y-67560000D01*
X199335838Y-69465000D02*
X197609000Y-69465000D01*
X195831000Y-69465000D02*
X195450000Y-69465000D01*
X195450000Y-65655000D02*
X195450000Y-66036000D01*
X197990000Y-63115000D02*
X206880000Y-63115000D01*
X206880000Y-63115000D02*
X206880000Y-63496000D01*
X195450000Y-65655000D02*
G75*
G02*
X197990000Y-63115000I2540000J0D01*
G01*
X199335838Y-69483960D02*
G75*
G02*
X201800000Y-67560000I2464162J-616040D01*
G01*
D11*
X98260000Y-89400000D02*
X98260000Y-88130000D01*
X96990000Y-89400000D02*
X98260000Y-89400000D01*
X88990000Y-87087071D02*
X88990000Y-86690000D01*
X89750000Y-87087071D02*
X89750000Y-86690000D01*
X88990000Y-78030000D02*
X88990000Y-84030000D01*
X89750000Y-78030000D02*
X88990000Y-78030000D01*
X89750000Y-84030000D02*
X89750000Y-78030000D01*
X90640000Y-86690000D02*
X90640000Y-84030000D01*
X91530000Y-87087071D02*
X91530000Y-86690000D01*
X92290000Y-87087071D02*
X92290000Y-86690000D01*
X91530000Y-78030000D02*
X91530000Y-84030000D01*
X92290000Y-78030000D02*
X91530000Y-78030000D01*
X92290000Y-84030000D02*
X92290000Y-78030000D01*
X93180000Y-86690000D02*
X93180000Y-84030000D01*
X94070000Y-87087071D02*
X94070000Y-86690000D01*
X94830000Y-87087071D02*
X94830000Y-86690000D01*
X94070000Y-78030000D02*
X94070000Y-84030000D01*
X94830000Y-78030000D02*
X94070000Y-78030000D01*
X94830000Y-84030000D02*
X94830000Y-78030000D01*
X95720000Y-86690000D02*
X95720000Y-84030000D01*
X96610000Y-87020000D02*
X96610000Y-86690000D01*
X97370000Y-87020000D02*
X97370000Y-86690000D01*
X96710000Y-84030000D02*
X96710000Y-78030000D01*
X96830000Y-84030000D02*
X96830000Y-78030000D01*
X96950000Y-84030000D02*
X96950000Y-78030000D01*
X97070000Y-84030000D02*
X97070000Y-78030000D01*
X97190000Y-84030000D02*
X97190000Y-78030000D01*
X97310000Y-84030000D02*
X97310000Y-78030000D01*
X96610000Y-78030000D02*
X96610000Y-84030000D01*
X97370000Y-78030000D02*
X96610000Y-78030000D01*
X97370000Y-84030000D02*
X97370000Y-78030000D01*
X98320000Y-84030000D02*
X98320000Y-86690000D01*
X88040000Y-84030000D02*
X98320000Y-84030000D01*
X88040000Y-86690000D02*
X88040000Y-84030000D01*
X98320000Y-86690000D02*
X88040000Y-86690000D01*
X106970000Y-89370000D02*
X106970000Y-88100000D01*
X105700000Y-89370000D02*
X106970000Y-89370000D01*
X100240000Y-87057071D02*
X100240000Y-86660000D01*
X101000000Y-87057071D02*
X101000000Y-86660000D01*
X100240000Y-78000000D02*
X100240000Y-84000000D01*
X101000000Y-78000000D02*
X100240000Y-78000000D01*
X101000000Y-84000000D02*
X101000000Y-78000000D01*
X101890000Y-86660000D02*
X101890000Y-84000000D01*
X102780000Y-87057071D02*
X102780000Y-86660000D01*
X103540000Y-87057071D02*
X103540000Y-86660000D01*
X102780000Y-78000000D02*
X102780000Y-84000000D01*
X103540000Y-78000000D02*
X102780000Y-78000000D01*
X103540000Y-84000000D02*
X103540000Y-78000000D01*
X104430000Y-86660000D02*
X104430000Y-84000000D01*
X105320000Y-86990000D02*
X105320000Y-86660000D01*
X106080000Y-86990000D02*
X106080000Y-86660000D01*
X105420000Y-84000000D02*
X105420000Y-78000000D01*
X105540000Y-84000000D02*
X105540000Y-78000000D01*
X105660000Y-84000000D02*
X105660000Y-78000000D01*
X105780000Y-84000000D02*
X105780000Y-78000000D01*
X105900000Y-84000000D02*
X105900000Y-78000000D01*
X106020000Y-84000000D02*
X106020000Y-78000000D01*
X105320000Y-78000000D02*
X105320000Y-84000000D01*
X106080000Y-78000000D02*
X105320000Y-78000000D01*
X106080000Y-84000000D02*
X106080000Y-78000000D01*
X107030000Y-84000000D02*
X107030000Y-86660000D01*
X99290000Y-84000000D02*
X107030000Y-84000000D01*
X99290000Y-86660000D02*
X99290000Y-84000000D01*
X107030000Y-86660000D02*
X99290000Y-86660000D01*
X225170000Y-76070000D02*
X225170000Y-74800000D01*
X223900000Y-76070000D02*
X225170000Y-76070000D01*
X215900000Y-73757071D02*
X215900000Y-73360000D01*
X216660000Y-73757071D02*
X216660000Y-73360000D01*
X215900000Y-64700000D02*
X215900000Y-70700000D01*
X216660000Y-64700000D02*
X215900000Y-64700000D01*
X216660000Y-70700000D02*
X216660000Y-64700000D01*
X217550000Y-73360000D02*
X217550000Y-70700000D01*
X218440000Y-73757071D02*
X218440000Y-73360000D01*
X219200000Y-73757071D02*
X219200000Y-73360000D01*
X218440000Y-64700000D02*
X218440000Y-70700000D01*
X219200000Y-64700000D02*
X218440000Y-64700000D01*
X219200000Y-70700000D02*
X219200000Y-64700000D01*
X220090000Y-73360000D02*
X220090000Y-70700000D01*
X220980000Y-73757071D02*
X220980000Y-73360000D01*
X221740000Y-73757071D02*
X221740000Y-73360000D01*
X220980000Y-64700000D02*
X220980000Y-70700000D01*
X221740000Y-64700000D02*
X220980000Y-64700000D01*
X221740000Y-70700000D02*
X221740000Y-64700000D01*
X222630000Y-73360000D02*
X222630000Y-70700000D01*
X223520000Y-73690000D02*
X223520000Y-73360000D01*
X224280000Y-73690000D02*
X224280000Y-73360000D01*
X223620000Y-70700000D02*
X223620000Y-64700000D01*
X223740000Y-70700000D02*
X223740000Y-64700000D01*
X223860000Y-70700000D02*
X223860000Y-64700000D01*
X223980000Y-70700000D02*
X223980000Y-64700000D01*
X224100000Y-70700000D02*
X224100000Y-64700000D01*
X224220000Y-70700000D02*
X224220000Y-64700000D01*
X223520000Y-64700000D02*
X223520000Y-70700000D01*
X224280000Y-64700000D02*
X223520000Y-64700000D01*
X224280000Y-70700000D02*
X224280000Y-64700000D01*
X225230000Y-70700000D02*
X225230000Y-73360000D01*
X214950000Y-70700000D02*
X225230000Y-70700000D01*
X214950000Y-73360000D02*
X214950000Y-70700000D01*
X225230000Y-73360000D02*
X214950000Y-73360000D01*
X213710000Y-75617469D02*
X213710000Y-75907531D01*
X212290000Y-75617469D02*
X212290000Y-75907531D01*
X91100000Y-142750000D02*
X91100000Y-144750000D01*
X91100000Y-144750000D02*
X87200000Y-144750000D01*
X91100000Y-142750000D02*
X87200000Y-142750000D01*
X99000000Y-117650000D02*
X99000000Y-119650000D01*
X99000000Y-119650000D02*
X95100000Y-119650000D01*
X99000000Y-117650000D02*
X95100000Y-117650000D01*
X99000000Y-101650000D02*
X99000000Y-103650000D01*
X99000000Y-103650000D02*
X95100000Y-103650000D01*
X99000000Y-101650000D02*
X95100000Y-101650000D01*
X108000000Y-138850000D02*
X108000000Y-140850000D01*
X108000000Y-140850000D02*
X104100000Y-140850000D01*
X108000000Y-138850000D02*
X104100000Y-138850000D01*
X119000000Y-120650000D02*
X119000000Y-122650000D01*
X119000000Y-122650000D02*
X115100000Y-122650000D01*
X119000000Y-120650000D02*
X115100000Y-120650000D01*
X119000000Y-104650000D02*
X119000000Y-106650000D01*
X119000000Y-106650000D02*
X115100000Y-106650000D01*
X119000000Y-104650000D02*
X115100000Y-104650000D01*
X119000000Y-88650000D02*
X119000000Y-90650000D01*
X119000000Y-90650000D02*
X115100000Y-90650000D01*
X119000000Y-88650000D02*
X115100000Y-88650000D01*
X119000000Y-72650000D02*
X119000000Y-74650000D01*
X119000000Y-74650000D02*
X115100000Y-74650000D01*
X119000000Y-72650000D02*
X115100000Y-72650000D01*
X125100000Y-138820000D02*
X125100000Y-140820000D01*
X125100000Y-140820000D02*
X121200000Y-140820000D01*
X125100000Y-138820000D02*
X121200000Y-138820000D01*
X136000000Y-117650000D02*
X136000000Y-119650000D01*
X136000000Y-119650000D02*
X132100000Y-119650000D01*
X136000000Y-117650000D02*
X132100000Y-117650000D01*
X136000000Y-101650000D02*
X136000000Y-103650000D01*
X136000000Y-103650000D02*
X132100000Y-103650000D01*
X136000000Y-101650000D02*
X132100000Y-101650000D01*
X136000000Y-85450000D02*
X136000000Y-87450000D01*
X136000000Y-87450000D02*
X132100000Y-87450000D01*
X136000000Y-85450000D02*
X132100000Y-85450000D01*
X136000000Y-69550000D02*
X136000000Y-71550000D01*
X136000000Y-71550000D02*
X132100000Y-71550000D01*
X136000000Y-69550000D02*
X132100000Y-69550000D01*
X142000000Y-141650000D02*
X142000000Y-143650000D01*
X142000000Y-143650000D02*
X138100000Y-143650000D01*
X142000000Y-141650000D02*
X138100000Y-141650000D01*
X153000000Y-112650000D02*
X153000000Y-114650000D01*
X153000000Y-114650000D02*
X149100000Y-114650000D01*
X153000000Y-112650000D02*
X149100000Y-112650000D01*
X153000000Y-96750000D02*
X153000000Y-98750000D01*
X153000000Y-98750000D02*
X149100000Y-98750000D01*
X153000000Y-96750000D02*
X149100000Y-96750000D01*
X153000000Y-80650000D02*
X153000000Y-82650000D01*
X153000000Y-82650000D02*
X149100000Y-82650000D01*
X153000000Y-80650000D02*
X149100000Y-80650000D01*
X153000000Y-64650000D02*
X153000000Y-66650000D01*
X153000000Y-66650000D02*
X149100000Y-66650000D01*
X153000000Y-64650000D02*
X149100000Y-64650000D01*
X170000000Y-112050000D02*
X170000000Y-114050000D01*
X170000000Y-114050000D02*
X166100000Y-114050000D01*
X170000000Y-112050000D02*
X166100000Y-112050000D01*
X170000000Y-95950000D02*
X170000000Y-97950000D01*
X170000000Y-97950000D02*
X166100000Y-97950000D01*
X170000000Y-95950000D02*
X166100000Y-95950000D01*
X170000000Y-79950000D02*
X170000000Y-81950000D01*
X170000000Y-81950000D02*
X166100000Y-81950000D01*
X170000000Y-79950000D02*
X166100000Y-79950000D01*
X170000000Y-63950000D02*
X170000000Y-65950000D01*
X170000000Y-65950000D02*
X166100000Y-65950000D01*
X170000000Y-63950000D02*
X166100000Y-63950000D01*
X187000000Y-136350000D02*
X187000000Y-138350000D01*
X187000000Y-138350000D02*
X183100000Y-138350000D01*
X187000000Y-136350000D02*
X183100000Y-136350000D01*
X187000000Y-120250000D02*
X187000000Y-122250000D01*
X187000000Y-122250000D02*
X183100000Y-122250000D01*
X187000000Y-120250000D02*
X183100000Y-120250000D01*
X187000000Y-104350000D02*
X187000000Y-106350000D01*
X187000000Y-106350000D02*
X183100000Y-106350000D01*
X187000000Y-104350000D02*
X183100000Y-104350000D01*
X187000000Y-88250000D02*
X187000000Y-90250000D01*
X187000000Y-90250000D02*
X183100000Y-90250000D01*
X187000000Y-88250000D02*
X183100000Y-88250000D01*
X187000000Y-72250000D02*
X187000000Y-74250000D01*
X187000000Y-74250000D02*
X183100000Y-74250000D01*
X187000000Y-72250000D02*
X183100000Y-72250000D01*
X204000000Y-125150000D02*
X204000000Y-127150000D01*
X204000000Y-127150000D02*
X200100000Y-127150000D01*
X204000000Y-125150000D02*
X200100000Y-125150000D01*
X204000000Y-105250000D02*
X204000000Y-107250000D01*
X204000000Y-107250000D02*
X200100000Y-107250000D01*
X204000000Y-105250000D02*
X200100000Y-105250000D01*
X204000000Y-89250000D02*
X204000000Y-91250000D01*
X204000000Y-91250000D02*
X200100000Y-91250000D01*
X204000000Y-89250000D02*
X200100000Y-89250000D01*
X204000000Y-73250000D02*
X204000000Y-75250000D01*
X204000000Y-75250000D02*
X200100000Y-75250000D01*
X204000000Y-73250000D02*
X200100000Y-73250000D01*
X220900000Y-127350000D02*
X220900000Y-129350000D01*
X220900000Y-129350000D02*
X217000000Y-129350000D01*
X220900000Y-127350000D02*
X217000000Y-127350000D01*
X223708767Y-100810000D02*
X223416233Y-100810000D01*
X223708767Y-99790000D02*
X223416233Y-99790000D01*
X212810000Y-95691233D02*
X212810000Y-95983767D01*
X211790000Y-95691233D02*
X211790000Y-95983767D01*
X228190000Y-91646267D02*
X228190000Y-91353733D01*
X229210000Y-91646267D02*
X229210000Y-91353733D01*
X224590000Y-104646267D02*
X224590000Y-104353733D01*
X225610000Y-104646267D02*
X225610000Y-104353733D01*
X217210000Y-104216233D02*
X217210000Y-104508767D01*
X216190000Y-104216233D02*
X216190000Y-104508767D01*
X224583767Y-83810000D02*
X224291233Y-83810000D01*
X224583767Y-82790000D02*
X224291233Y-82790000D01*
X216691233Y-82790000D02*
X216983767Y-82790000D01*
X216691233Y-83810000D02*
X216983767Y-83810000D01*
X229210000Y-94753733D02*
X229210000Y-95046267D01*
X228190000Y-94753733D02*
X228190000Y-95046267D01*
X210290000Y-75883767D02*
X210290000Y-75591233D01*
X211310000Y-75883767D02*
X211310000Y-75591233D01*
D10*
X83542857Y-100704761D02*
X83400000Y-100752380D01*
X83161904Y-100752380D01*
X83066666Y-100704761D01*
X83019047Y-100657142D01*
X82971428Y-100561904D01*
X82971428Y-100466666D01*
X83019047Y-100371428D01*
X83066666Y-100323809D01*
X83161904Y-100276190D01*
X83352380Y-100228571D01*
X83447619Y-100180952D01*
X83495238Y-100133333D01*
X83542857Y-100038095D01*
X83542857Y-99942857D01*
X83495238Y-99847619D01*
X83447619Y-99800000D01*
X83352380Y-99752380D01*
X83114285Y-99752380D01*
X82971428Y-99800000D01*
X82257142Y-99752380D02*
X82257142Y-100466666D01*
X82304761Y-100609523D01*
X82400000Y-100704761D01*
X82542857Y-100752380D01*
X82638095Y-100752380D01*
X81352380Y-100085714D02*
X81352380Y-100752380D01*
X81590476Y-99704761D02*
X81828571Y-100419047D01*
X81209523Y-100419047D01*
X83542857Y-97104761D02*
X83400000Y-97152380D01*
X83161904Y-97152380D01*
X83066666Y-97104761D01*
X83019047Y-97057142D01*
X82971428Y-96961904D01*
X82971428Y-96866666D01*
X83019047Y-96771428D01*
X83066666Y-96723809D01*
X83161904Y-96676190D01*
X83352380Y-96628571D01*
X83447619Y-96580952D01*
X83495238Y-96533333D01*
X83542857Y-96438095D01*
X83542857Y-96342857D01*
X83495238Y-96247619D01*
X83447619Y-96200000D01*
X83352380Y-96152380D01*
X83114285Y-96152380D01*
X82971428Y-96200000D01*
X82257142Y-96152380D02*
X82257142Y-96866666D01*
X82304761Y-97009523D01*
X82400000Y-97104761D01*
X82542857Y-97152380D01*
X82638095Y-97152380D01*
X81876190Y-96152380D02*
X81257142Y-96152380D01*
X81590476Y-96533333D01*
X81447619Y-96533333D01*
X81352380Y-96580952D01*
X81304761Y-96628571D01*
X81257142Y-96723809D01*
X81257142Y-96961904D01*
X81304761Y-97057142D01*
X81352380Y-97104761D01*
X81447619Y-97152380D01*
X81733333Y-97152380D01*
X81828571Y-97104761D01*
X81876190Y-97057142D01*
X83542857Y-93504761D02*
X83400000Y-93552380D01*
X83161904Y-93552380D01*
X83066666Y-93504761D01*
X83019047Y-93457142D01*
X82971428Y-93361904D01*
X82971428Y-93266666D01*
X83019047Y-93171428D01*
X83066666Y-93123809D01*
X83161904Y-93076190D01*
X83352380Y-93028571D01*
X83447619Y-92980952D01*
X83495238Y-92933333D01*
X83542857Y-92838095D01*
X83542857Y-92742857D01*
X83495238Y-92647619D01*
X83447619Y-92600000D01*
X83352380Y-92552380D01*
X83114285Y-92552380D01*
X82971428Y-92600000D01*
X82257142Y-92552380D02*
X82257142Y-93266666D01*
X82304761Y-93409523D01*
X82400000Y-93504761D01*
X82542857Y-93552380D01*
X82638095Y-93552380D01*
X81828571Y-92647619D02*
X81780952Y-92600000D01*
X81685714Y-92552380D01*
X81447619Y-92552380D01*
X81352380Y-92600000D01*
X81304761Y-92647619D01*
X81257142Y-92742857D01*
X81257142Y-92838095D01*
X81304761Y-92980952D01*
X81876190Y-93552380D01*
X81257142Y-93552380D01*
X83542857Y-89304761D02*
X83400000Y-89352380D01*
X83161904Y-89352380D01*
X83066666Y-89304761D01*
X83019047Y-89257142D01*
X82971428Y-89161904D01*
X82971428Y-89066666D01*
X83019047Y-88971428D01*
X83066666Y-88923809D01*
X83161904Y-88876190D01*
X83352380Y-88828571D01*
X83447619Y-88780952D01*
X83495238Y-88733333D01*
X83542857Y-88638095D01*
X83542857Y-88542857D01*
X83495238Y-88447619D01*
X83447619Y-88400000D01*
X83352380Y-88352380D01*
X83114285Y-88352380D01*
X82971428Y-88400000D01*
X82257142Y-88352380D02*
X82257142Y-89066666D01*
X82304761Y-89209523D01*
X82400000Y-89304761D01*
X82542857Y-89352380D01*
X82638095Y-89352380D01*
X81257142Y-89352380D02*
X81828571Y-89352380D01*
X81542857Y-89352380D02*
X81542857Y-88352380D01*
X81638095Y-88495238D01*
X81733333Y-88590476D01*
X81828571Y-88638095D01*
X90442857Y-92457142D02*
X90490476Y-92504761D01*
X90633333Y-92552380D01*
X90728571Y-92552380D01*
X90871428Y-92504761D01*
X90966666Y-92409523D01*
X91014285Y-92314285D01*
X91061904Y-92123809D01*
X91061904Y-91980952D01*
X91014285Y-91790476D01*
X90966666Y-91695238D01*
X90871428Y-91600000D01*
X90728571Y-91552380D01*
X90633333Y-91552380D01*
X90490476Y-91600000D01*
X90442857Y-91647619D01*
X89490476Y-92552380D02*
X90061904Y-92552380D01*
X89776190Y-92552380D02*
X89776190Y-91552380D01*
X89871428Y-91695238D01*
X89966666Y-91790476D01*
X90061904Y-91838095D01*
X88633333Y-91885714D02*
X88633333Y-92552380D01*
X88871428Y-91504761D02*
X89109523Y-92219047D01*
X88490476Y-92219047D01*
X217483333Y-114804761D02*
X217340476Y-114852380D01*
X217102380Y-114852380D01*
X217007142Y-114804761D01*
X216959523Y-114757142D01*
X216911904Y-114661904D01*
X216911904Y-114566666D01*
X216959523Y-114471428D01*
X217007142Y-114423809D01*
X217102380Y-114376190D01*
X217292857Y-114328571D01*
X217388095Y-114280952D01*
X217435714Y-114233333D01*
X217483333Y-114138095D01*
X217483333Y-114042857D01*
X217435714Y-113947619D01*
X217388095Y-113900000D01*
X217292857Y-113852380D01*
X217054761Y-113852380D01*
X216911904Y-113900000D01*
X216578571Y-113852380D02*
X216340476Y-114852380D01*
X216150000Y-114138095D01*
X215959523Y-114852380D01*
X215721428Y-113852380D01*
X214816666Y-114852380D02*
X215388095Y-114852380D01*
X215102380Y-114852380D02*
X215102380Y-113852380D01*
X215197619Y-113995238D01*
X215292857Y-114090476D01*
X215388095Y-114138095D01*
X222352380Y-77438095D02*
X223161904Y-77438095D01*
X223257142Y-77485714D01*
X223304761Y-77533333D01*
X223352380Y-77628571D01*
X223352380Y-77819047D01*
X223304761Y-77914285D01*
X223257142Y-77961904D01*
X223161904Y-78009523D01*
X222352380Y-78009523D01*
X222447619Y-78438095D02*
X222400000Y-78485714D01*
X222352380Y-78580952D01*
X222352380Y-78819047D01*
X222400000Y-78914285D01*
X222447619Y-78961904D01*
X222542857Y-79009523D01*
X222638095Y-79009523D01*
X222780952Y-78961904D01*
X223352380Y-78390476D01*
X223352380Y-79009523D01*
X220652380Y-78200000D02*
X220890476Y-78200000D01*
X220795238Y-77961904D02*
X220890476Y-78200000D01*
X220795238Y-78438095D01*
X221080952Y-78057142D02*
X220890476Y-78200000D01*
X221080952Y-78342857D01*
X141511904Y-123702380D02*
X141511904Y-122702380D01*
X141511904Y-123178571D02*
X140940476Y-123178571D01*
X140940476Y-123702380D02*
X140940476Y-122702380D01*
X139988095Y-122702380D02*
X140464285Y-122702380D01*
X140511904Y-123178571D01*
X140464285Y-123130952D01*
X140369047Y-123083333D01*
X140130952Y-123083333D01*
X140035714Y-123130952D01*
X139988095Y-123178571D01*
X139940476Y-123273809D01*
X139940476Y-123511904D01*
X139988095Y-123607142D01*
X140035714Y-123654761D01*
X140130952Y-123702380D01*
X140369047Y-123702380D01*
X140464285Y-123654761D01*
X140511904Y-123607142D01*
X93311904Y-124202380D02*
X93311904Y-123202380D01*
X93311904Y-123678571D02*
X92740476Y-123678571D01*
X92740476Y-124202380D02*
X92740476Y-123202380D01*
X91835714Y-123535714D02*
X91835714Y-124202380D01*
X92073809Y-123154761D02*
X92311904Y-123869047D01*
X91692857Y-123869047D01*
X225711904Y-108802380D02*
X225711904Y-107802380D01*
X225711904Y-108278571D02*
X225140476Y-108278571D01*
X225140476Y-108802380D02*
X225140476Y-107802380D01*
X224759523Y-107802380D02*
X224140476Y-107802380D01*
X224473809Y-108183333D01*
X224330952Y-108183333D01*
X224235714Y-108230952D01*
X224188095Y-108278571D01*
X224140476Y-108373809D01*
X224140476Y-108611904D01*
X224188095Y-108707142D01*
X224235714Y-108754761D01*
X224330952Y-108802380D01*
X224616666Y-108802380D01*
X224711904Y-108754761D01*
X224759523Y-108707142D01*
X188111904Y-53002380D02*
X188111904Y-52002380D01*
X188111904Y-52478571D02*
X187540476Y-52478571D01*
X187540476Y-53002380D02*
X187540476Y-52002380D01*
X187111904Y-52097619D02*
X187064285Y-52050000D01*
X186969047Y-52002380D01*
X186730952Y-52002380D01*
X186635714Y-52050000D01*
X186588095Y-52097619D01*
X186540476Y-52192857D01*
X186540476Y-52288095D01*
X186588095Y-52430952D01*
X187159523Y-53002380D01*
X186540476Y-53002380D01*
X87311904Y-78402380D02*
X87311904Y-77402380D01*
X87311904Y-77878571D02*
X86740476Y-77878571D01*
X86740476Y-78402380D02*
X86740476Y-77402380D01*
X85740476Y-78402380D02*
X86311904Y-78402380D01*
X86026190Y-78402380D02*
X86026190Y-77402380D01*
X86121428Y-77545238D01*
X86216666Y-77640476D01*
X86311904Y-77688095D01*
X221376190Y-107476190D02*
X221376190Y-107952380D01*
X221709523Y-106952380D02*
X221376190Y-107476190D01*
X221042857Y-106952380D01*
X220185714Y-107952380D02*
X220757142Y-107952380D01*
X220471428Y-107952380D02*
X220471428Y-106952380D01*
X220566666Y-107095238D01*
X220661904Y-107190476D01*
X220757142Y-107238095D01*
X221641904Y-83792380D02*
X221641904Y-84601904D01*
X221594285Y-84697142D01*
X221546666Y-84744761D01*
X221451428Y-84792380D01*
X221260952Y-84792380D01*
X221165714Y-84744761D01*
X221118095Y-84697142D01*
X221070476Y-84601904D01*
X221070476Y-83792380D01*
X220070476Y-84792380D02*
X220641904Y-84792380D01*
X220356190Y-84792380D02*
X220356190Y-83792380D01*
X220451428Y-83935238D01*
X220546666Y-84030476D01*
X220641904Y-84078095D01*
X213652380Y-85233333D02*
X213176190Y-84900000D01*
X213652380Y-84661904D02*
X212652380Y-84661904D01*
X212652380Y-85042857D01*
X212700000Y-85138095D01*
X212747619Y-85185714D01*
X212842857Y-85233333D01*
X212985714Y-85233333D01*
X213080952Y-85185714D01*
X213128571Y-85138095D01*
X213176190Y-85042857D01*
X213176190Y-84661904D01*
X212985714Y-86090476D02*
X213652380Y-86090476D01*
X212604761Y-85852380D02*
X213319047Y-85614285D01*
X213319047Y-86233333D01*
X229252380Y-100133333D02*
X228776190Y-99800000D01*
X229252380Y-99561904D02*
X228252380Y-99561904D01*
X228252380Y-99942857D01*
X228300000Y-100038095D01*
X228347619Y-100085714D01*
X228442857Y-100133333D01*
X228585714Y-100133333D01*
X228680952Y-100085714D01*
X228728571Y-100038095D01*
X228776190Y-99942857D01*
X228776190Y-99561904D01*
X228252380Y-100466666D02*
X228252380Y-101085714D01*
X228633333Y-100752380D01*
X228633333Y-100895238D01*
X228680952Y-100990476D01*
X228728571Y-101038095D01*
X228823809Y-101085714D01*
X229061904Y-101085714D01*
X229157142Y-101038095D01*
X229204761Y-100990476D01*
X229252380Y-100895238D01*
X229252380Y-100609523D01*
X229204761Y-100514285D01*
X229157142Y-100466666D01*
X215466666Y-81139880D02*
X215800000Y-80663690D01*
X216038095Y-81139880D02*
X216038095Y-80139880D01*
X215657142Y-80139880D01*
X215561904Y-80187500D01*
X215514285Y-80235119D01*
X215466666Y-80330357D01*
X215466666Y-80473214D01*
X215514285Y-80568452D01*
X215561904Y-80616071D01*
X215657142Y-80663690D01*
X216038095Y-80663690D01*
X215085714Y-80235119D02*
X215038095Y-80187500D01*
X214942857Y-80139880D01*
X214704761Y-80139880D01*
X214609523Y-80187500D01*
X214561904Y-80235119D01*
X214514285Y-80330357D01*
X214514285Y-80425595D01*
X214561904Y-80568452D01*
X215133333Y-81139880D01*
X214514285Y-81139880D01*
X225066666Y-81152380D02*
X225400000Y-80676190D01*
X225638095Y-81152380D02*
X225638095Y-80152380D01*
X225257142Y-80152380D01*
X225161904Y-80200000D01*
X225114285Y-80247619D01*
X225066666Y-80342857D01*
X225066666Y-80485714D01*
X225114285Y-80580952D01*
X225161904Y-80628571D01*
X225257142Y-80676190D01*
X225638095Y-80676190D01*
X224114285Y-81152380D02*
X224685714Y-81152380D01*
X224400000Y-81152380D02*
X224400000Y-80152380D01*
X224495238Y-80295238D01*
X224590476Y-80390476D01*
X224685714Y-80438095D01*
X90561904Y-131737380D02*
X90561904Y-130737380D01*
X90228571Y-131451666D01*
X89895238Y-130737380D01*
X89895238Y-131737380D01*
X89514285Y-130737380D02*
X88847619Y-131737380D01*
X88847619Y-130737380D02*
X89514285Y-131737380D01*
X88561904Y-130737380D02*
X87942857Y-130737380D01*
X88276190Y-131118333D01*
X88133333Y-131118333D01*
X88038095Y-131165952D01*
X87990476Y-131213571D01*
X87942857Y-131308809D01*
X87942857Y-131546904D01*
X87990476Y-131642142D01*
X88038095Y-131689761D01*
X88133333Y-131737380D01*
X88419047Y-131737380D01*
X88514285Y-131689761D01*
X88561904Y-131642142D01*
X87561904Y-130832619D02*
X87514285Y-130785000D01*
X87419047Y-130737380D01*
X87180952Y-130737380D01*
X87085714Y-130785000D01*
X87038095Y-130832619D01*
X86990476Y-130927857D01*
X86990476Y-131023095D01*
X87038095Y-131165952D01*
X87609523Y-131737380D01*
X86990476Y-131737380D01*
X107561904Y-127737380D02*
X107561904Y-126737380D01*
X107228571Y-127451666D01*
X106895238Y-126737380D01*
X106895238Y-127737380D01*
X106514285Y-126737380D02*
X105847619Y-127737380D01*
X105847619Y-126737380D02*
X106514285Y-127737380D01*
X105561904Y-126737380D02*
X104942857Y-126737380D01*
X105276190Y-127118333D01*
X105133333Y-127118333D01*
X105038095Y-127165952D01*
X104990476Y-127213571D01*
X104942857Y-127308809D01*
X104942857Y-127546904D01*
X104990476Y-127642142D01*
X105038095Y-127689761D01*
X105133333Y-127737380D01*
X105419047Y-127737380D01*
X105514285Y-127689761D01*
X105561904Y-127642142D01*
X103990476Y-127737380D02*
X104561904Y-127737380D01*
X104276190Y-127737380D02*
X104276190Y-126737380D01*
X104371428Y-126880238D01*
X104466666Y-126975476D01*
X104561904Y-127023095D01*
X124561904Y-127737380D02*
X124561904Y-126737380D01*
X124228571Y-127451666D01*
X123895238Y-126737380D01*
X123895238Y-127737380D01*
X123514285Y-126737380D02*
X122847619Y-127737380D01*
X122847619Y-126737380D02*
X123514285Y-127737380D01*
X122561904Y-126737380D02*
X121942857Y-126737380D01*
X122276190Y-127118333D01*
X122133333Y-127118333D01*
X122038095Y-127165952D01*
X121990476Y-127213571D01*
X121942857Y-127308809D01*
X121942857Y-127546904D01*
X121990476Y-127642142D01*
X122038095Y-127689761D01*
X122133333Y-127737380D01*
X122419047Y-127737380D01*
X122514285Y-127689761D01*
X122561904Y-127642142D01*
X121323809Y-126737380D02*
X121228571Y-126737380D01*
X121133333Y-126785000D01*
X121085714Y-126832619D01*
X121038095Y-126927857D01*
X120990476Y-127118333D01*
X120990476Y-127356428D01*
X121038095Y-127546904D01*
X121085714Y-127642142D01*
X121133333Y-127689761D01*
X121228571Y-127737380D01*
X121323809Y-127737380D01*
X121419047Y-127689761D01*
X121466666Y-127642142D01*
X121514285Y-127546904D01*
X121561904Y-127356428D01*
X121561904Y-127118333D01*
X121514285Y-126927857D01*
X121466666Y-126832619D01*
X121419047Y-126785000D01*
X121323809Y-126737380D01*
X141561904Y-130737380D02*
X141561904Y-129737380D01*
X141228571Y-130451666D01*
X140895238Y-129737380D01*
X140895238Y-130737380D01*
X140514285Y-129737380D02*
X139847619Y-130737380D01*
X139847619Y-129737380D02*
X140514285Y-130737380D01*
X139514285Y-129832619D02*
X139466666Y-129785000D01*
X139371428Y-129737380D01*
X139133333Y-129737380D01*
X139038095Y-129785000D01*
X138990476Y-129832619D01*
X138942857Y-129927857D01*
X138942857Y-130023095D01*
X138990476Y-130165952D01*
X139561904Y-130737380D01*
X138942857Y-130737380D01*
X138466666Y-130737380D02*
X138276190Y-130737380D01*
X138180952Y-130689761D01*
X138133333Y-130642142D01*
X138038095Y-130499285D01*
X137990476Y-130308809D01*
X137990476Y-129927857D01*
X138038095Y-129832619D01*
X138085714Y-129785000D01*
X138180952Y-129737380D01*
X138371428Y-129737380D01*
X138466666Y-129785000D01*
X138514285Y-129832619D01*
X138561904Y-129927857D01*
X138561904Y-130165952D01*
X138514285Y-130261190D01*
X138466666Y-130308809D01*
X138371428Y-130356428D01*
X138180952Y-130356428D01*
X138085714Y-130308809D01*
X138038095Y-130261190D01*
X137990476Y-130165952D01*
X186561904Y-125297380D02*
X186561904Y-124297380D01*
X186228571Y-125011666D01*
X185895238Y-124297380D01*
X185895238Y-125297380D01*
X185514285Y-124297380D02*
X184847619Y-125297380D01*
X184847619Y-124297380D02*
X185514285Y-125297380D01*
X184514285Y-124392619D02*
X184466666Y-124345000D01*
X184371428Y-124297380D01*
X184133333Y-124297380D01*
X184038095Y-124345000D01*
X183990476Y-124392619D01*
X183942857Y-124487857D01*
X183942857Y-124583095D01*
X183990476Y-124725952D01*
X184561904Y-125297380D01*
X183942857Y-125297380D01*
X183371428Y-124725952D02*
X183466666Y-124678333D01*
X183514285Y-124630714D01*
X183561904Y-124535476D01*
X183561904Y-124487857D01*
X183514285Y-124392619D01*
X183466666Y-124345000D01*
X183371428Y-124297380D01*
X183180952Y-124297380D01*
X183085714Y-124345000D01*
X183038095Y-124392619D01*
X182990476Y-124487857D01*
X182990476Y-124535476D01*
X183038095Y-124630714D01*
X183085714Y-124678333D01*
X183180952Y-124725952D01*
X183371428Y-124725952D01*
X183466666Y-124773571D01*
X183514285Y-124821190D01*
X183561904Y-124916428D01*
X183561904Y-125106904D01*
X183514285Y-125202142D01*
X183466666Y-125249761D01*
X183371428Y-125297380D01*
X183180952Y-125297380D01*
X183085714Y-125249761D01*
X183038095Y-125202142D01*
X182990476Y-125106904D01*
X182990476Y-124916428D01*
X183038095Y-124821190D01*
X183085714Y-124773571D01*
X183180952Y-124725952D01*
X98561904Y-106567380D02*
X98561904Y-105567380D01*
X98228571Y-106281666D01*
X97895238Y-105567380D01*
X97895238Y-106567380D01*
X97514285Y-105567380D02*
X96847619Y-106567380D01*
X96847619Y-105567380D02*
X97514285Y-106567380D01*
X96514285Y-105662619D02*
X96466666Y-105615000D01*
X96371428Y-105567380D01*
X96133333Y-105567380D01*
X96038095Y-105615000D01*
X95990476Y-105662619D01*
X95942857Y-105757857D01*
X95942857Y-105853095D01*
X95990476Y-105995952D01*
X96561904Y-106567380D01*
X95942857Y-106567380D01*
X95609523Y-105567380D02*
X94942857Y-105567380D01*
X95371428Y-106567380D01*
X118561904Y-109567380D02*
X118561904Y-108567380D01*
X118228571Y-109281666D01*
X117895238Y-108567380D01*
X117895238Y-109567380D01*
X117514285Y-108567380D02*
X116847619Y-109567380D01*
X116847619Y-108567380D02*
X117514285Y-109567380D01*
X116514285Y-108662619D02*
X116466666Y-108615000D01*
X116371428Y-108567380D01*
X116133333Y-108567380D01*
X116038095Y-108615000D01*
X115990476Y-108662619D01*
X115942857Y-108757857D01*
X115942857Y-108853095D01*
X115990476Y-108995952D01*
X116561904Y-109567380D01*
X115942857Y-109567380D01*
X115085714Y-108567380D02*
X115276190Y-108567380D01*
X115371428Y-108615000D01*
X115419047Y-108662619D01*
X115514285Y-108805476D01*
X115561904Y-108995952D01*
X115561904Y-109376904D01*
X115514285Y-109472142D01*
X115466666Y-109519761D01*
X115371428Y-109567380D01*
X115180952Y-109567380D01*
X115085714Y-109519761D01*
X115038095Y-109472142D01*
X114990476Y-109376904D01*
X114990476Y-109138809D01*
X115038095Y-109043571D01*
X115085714Y-108995952D01*
X115180952Y-108948333D01*
X115371428Y-108948333D01*
X115466666Y-108995952D01*
X115514285Y-109043571D01*
X115561904Y-109138809D01*
X135561904Y-106567380D02*
X135561904Y-105567380D01*
X135228571Y-106281666D01*
X134895238Y-105567380D01*
X134895238Y-106567380D01*
X134514285Y-105567380D02*
X133847619Y-106567380D01*
X133847619Y-105567380D02*
X134514285Y-106567380D01*
X133514285Y-105662619D02*
X133466666Y-105615000D01*
X133371428Y-105567380D01*
X133133333Y-105567380D01*
X133038095Y-105615000D01*
X132990476Y-105662619D01*
X132942857Y-105757857D01*
X132942857Y-105853095D01*
X132990476Y-105995952D01*
X133561904Y-106567380D01*
X132942857Y-106567380D01*
X132038095Y-105567380D02*
X132514285Y-105567380D01*
X132561904Y-106043571D01*
X132514285Y-105995952D01*
X132419047Y-105948333D01*
X132180952Y-105948333D01*
X132085714Y-105995952D01*
X132038095Y-106043571D01*
X131990476Y-106138809D01*
X131990476Y-106376904D01*
X132038095Y-106472142D01*
X132085714Y-106519761D01*
X132180952Y-106567380D01*
X132419047Y-106567380D01*
X132514285Y-106519761D01*
X132561904Y-106472142D01*
X152561904Y-101737380D02*
X152561904Y-100737380D01*
X152228571Y-101451666D01*
X151895238Y-100737380D01*
X151895238Y-101737380D01*
X151514285Y-100737380D02*
X150847619Y-101737380D01*
X150847619Y-100737380D02*
X151514285Y-101737380D01*
X150514285Y-100832619D02*
X150466666Y-100785000D01*
X150371428Y-100737380D01*
X150133333Y-100737380D01*
X150038095Y-100785000D01*
X149990476Y-100832619D01*
X149942857Y-100927857D01*
X149942857Y-101023095D01*
X149990476Y-101165952D01*
X150561904Y-101737380D01*
X149942857Y-101737380D01*
X149085714Y-101070714D02*
X149085714Y-101737380D01*
X149323809Y-100689761D02*
X149561904Y-101404047D01*
X148942857Y-101404047D01*
X169561904Y-101037380D02*
X169561904Y-100037380D01*
X169228571Y-100751666D01*
X168895238Y-100037380D01*
X168895238Y-101037380D01*
X168514285Y-100037380D02*
X167847619Y-101037380D01*
X167847619Y-100037380D02*
X168514285Y-101037380D01*
X167514285Y-100132619D02*
X167466666Y-100085000D01*
X167371428Y-100037380D01*
X167133333Y-100037380D01*
X167038095Y-100085000D01*
X166990476Y-100132619D01*
X166942857Y-100227857D01*
X166942857Y-100323095D01*
X166990476Y-100465952D01*
X167561904Y-101037380D01*
X166942857Y-101037380D01*
X166609523Y-100037380D02*
X165990476Y-100037380D01*
X166323809Y-100418333D01*
X166180952Y-100418333D01*
X166085714Y-100465952D01*
X166038095Y-100513571D01*
X165990476Y-100608809D01*
X165990476Y-100846904D01*
X166038095Y-100942142D01*
X166085714Y-100989761D01*
X166180952Y-101037380D01*
X166466666Y-101037380D01*
X166561904Y-100989761D01*
X166609523Y-100942142D01*
X186561904Y-109297380D02*
X186561904Y-108297380D01*
X186228571Y-109011666D01*
X185895238Y-108297380D01*
X185895238Y-109297380D01*
X185514285Y-108297380D02*
X184847619Y-109297380D01*
X184847619Y-108297380D02*
X185514285Y-109297380D01*
X184514285Y-108392619D02*
X184466666Y-108345000D01*
X184371428Y-108297380D01*
X184133333Y-108297380D01*
X184038095Y-108345000D01*
X183990476Y-108392619D01*
X183942857Y-108487857D01*
X183942857Y-108583095D01*
X183990476Y-108725952D01*
X184561904Y-109297380D01*
X183942857Y-109297380D01*
X183561904Y-108392619D02*
X183514285Y-108345000D01*
X183419047Y-108297380D01*
X183180952Y-108297380D01*
X183085714Y-108345000D01*
X183038095Y-108392619D01*
X182990476Y-108487857D01*
X182990476Y-108583095D01*
X183038095Y-108725952D01*
X183609523Y-109297380D01*
X182990476Y-109297380D01*
X203561904Y-114297380D02*
X203561904Y-113297380D01*
X203228571Y-114011666D01*
X202895238Y-113297380D01*
X202895238Y-114297380D01*
X202514285Y-113297380D02*
X201847619Y-114297380D01*
X201847619Y-113297380D02*
X202514285Y-114297380D01*
X201514285Y-113392619D02*
X201466666Y-113345000D01*
X201371428Y-113297380D01*
X201133333Y-113297380D01*
X201038095Y-113345000D01*
X200990476Y-113392619D01*
X200942857Y-113487857D01*
X200942857Y-113583095D01*
X200990476Y-113725952D01*
X201561904Y-114297380D01*
X200942857Y-114297380D01*
X199990476Y-114297380D02*
X200561904Y-114297380D01*
X200276190Y-114297380D02*
X200276190Y-113297380D01*
X200371428Y-113440238D01*
X200466666Y-113535476D01*
X200561904Y-113583095D01*
X220561904Y-116297380D02*
X220561904Y-115297380D01*
X220228571Y-116011666D01*
X219895238Y-115297380D01*
X219895238Y-116297380D01*
X219514285Y-115297380D02*
X218847619Y-116297380D01*
X218847619Y-115297380D02*
X219514285Y-116297380D01*
X218514285Y-115392619D02*
X218466666Y-115345000D01*
X218371428Y-115297380D01*
X218133333Y-115297380D01*
X218038095Y-115345000D01*
X217990476Y-115392619D01*
X217942857Y-115487857D01*
X217942857Y-115583095D01*
X217990476Y-115725952D01*
X218561904Y-116297380D01*
X217942857Y-116297380D01*
X217323809Y-115297380D02*
X217228571Y-115297380D01*
X217133333Y-115345000D01*
X217085714Y-115392619D01*
X217038095Y-115487857D01*
X216990476Y-115678333D01*
X216990476Y-115916428D01*
X217038095Y-116106904D01*
X217085714Y-116202142D01*
X217133333Y-116249761D01*
X217228571Y-116297380D01*
X217323809Y-116297380D01*
X217419047Y-116249761D01*
X217466666Y-116202142D01*
X217514285Y-116106904D01*
X217561904Y-115916428D01*
X217561904Y-115678333D01*
X217514285Y-115487857D01*
X217466666Y-115392619D01*
X217419047Y-115345000D01*
X217323809Y-115297380D01*
X105961904Y-96952380D02*
X105961904Y-95952380D01*
X105628571Y-96666666D01*
X105295238Y-95952380D01*
X105295238Y-96952380D01*
X104914285Y-95952380D02*
X104247619Y-96952380D01*
X104247619Y-95952380D02*
X104914285Y-96952380D01*
X103342857Y-96952380D02*
X103914285Y-96952380D01*
X103628571Y-96952380D02*
X103628571Y-95952380D01*
X103723809Y-96095238D01*
X103819047Y-96190476D01*
X103914285Y-96238095D01*
X102866666Y-96952380D02*
X102676190Y-96952380D01*
X102580952Y-96904761D01*
X102533333Y-96857142D01*
X102438095Y-96714285D01*
X102390476Y-96523809D01*
X102390476Y-96142857D01*
X102438095Y-96047619D01*
X102485714Y-96000000D01*
X102580952Y-95952380D01*
X102771428Y-95952380D01*
X102866666Y-96000000D01*
X102914285Y-96047619D01*
X102961904Y-96142857D01*
X102961904Y-96380952D01*
X102914285Y-96476190D01*
X102866666Y-96523809D01*
X102771428Y-96571428D01*
X102580952Y-96571428D01*
X102485714Y-96523809D01*
X102438095Y-96476190D01*
X102390476Y-96380952D01*
X118561904Y-93567380D02*
X118561904Y-92567380D01*
X118228571Y-93281666D01*
X117895238Y-92567380D01*
X117895238Y-93567380D01*
X117514285Y-92567380D02*
X116847619Y-93567380D01*
X116847619Y-92567380D02*
X117514285Y-93567380D01*
X115942857Y-93567380D02*
X116514285Y-93567380D01*
X116228571Y-93567380D02*
X116228571Y-92567380D01*
X116323809Y-92710238D01*
X116419047Y-92805476D01*
X116514285Y-92853095D01*
X115371428Y-92995952D02*
X115466666Y-92948333D01*
X115514285Y-92900714D01*
X115561904Y-92805476D01*
X115561904Y-92757857D01*
X115514285Y-92662619D01*
X115466666Y-92615000D01*
X115371428Y-92567380D01*
X115180952Y-92567380D01*
X115085714Y-92615000D01*
X115038095Y-92662619D01*
X114990476Y-92757857D01*
X114990476Y-92805476D01*
X115038095Y-92900714D01*
X115085714Y-92948333D01*
X115180952Y-92995952D01*
X115371428Y-92995952D01*
X115466666Y-93043571D01*
X115514285Y-93091190D01*
X115561904Y-93186428D01*
X115561904Y-93376904D01*
X115514285Y-93472142D01*
X115466666Y-93519761D01*
X115371428Y-93567380D01*
X115180952Y-93567380D01*
X115085714Y-93519761D01*
X115038095Y-93472142D01*
X114990476Y-93376904D01*
X114990476Y-93186428D01*
X115038095Y-93091190D01*
X115085714Y-93043571D01*
X115180952Y-92995952D01*
X135561904Y-90567380D02*
X135561904Y-89567380D01*
X135228571Y-90281666D01*
X134895238Y-89567380D01*
X134895238Y-90567380D01*
X134514285Y-89567380D02*
X133847619Y-90567380D01*
X133847619Y-89567380D02*
X134514285Y-90567380D01*
X132942857Y-90567380D02*
X133514285Y-90567380D01*
X133228571Y-90567380D02*
X133228571Y-89567380D01*
X133323809Y-89710238D01*
X133419047Y-89805476D01*
X133514285Y-89853095D01*
X132609523Y-89567380D02*
X131942857Y-89567380D01*
X132371428Y-90567380D01*
X152561904Y-85737380D02*
X152561904Y-84737380D01*
X152228571Y-85451666D01*
X151895238Y-84737380D01*
X151895238Y-85737380D01*
X151514285Y-84737380D02*
X150847619Y-85737380D01*
X150847619Y-84737380D02*
X151514285Y-85737380D01*
X149942857Y-85737380D02*
X150514285Y-85737380D01*
X150228571Y-85737380D02*
X150228571Y-84737380D01*
X150323809Y-84880238D01*
X150419047Y-84975476D01*
X150514285Y-85023095D01*
X149085714Y-84737380D02*
X149276190Y-84737380D01*
X149371428Y-84785000D01*
X149419047Y-84832619D01*
X149514285Y-84975476D01*
X149561904Y-85165952D01*
X149561904Y-85546904D01*
X149514285Y-85642142D01*
X149466666Y-85689761D01*
X149371428Y-85737380D01*
X149180952Y-85737380D01*
X149085714Y-85689761D01*
X149038095Y-85642142D01*
X148990476Y-85546904D01*
X148990476Y-85308809D01*
X149038095Y-85213571D01*
X149085714Y-85165952D01*
X149180952Y-85118333D01*
X149371428Y-85118333D01*
X149466666Y-85165952D01*
X149514285Y-85213571D01*
X149561904Y-85308809D01*
X169561904Y-85037380D02*
X169561904Y-84037380D01*
X169228571Y-84751666D01*
X168895238Y-84037380D01*
X168895238Y-85037380D01*
X168514285Y-84037380D02*
X167847619Y-85037380D01*
X167847619Y-84037380D02*
X168514285Y-85037380D01*
X166942857Y-85037380D02*
X167514285Y-85037380D01*
X167228571Y-85037380D02*
X167228571Y-84037380D01*
X167323809Y-84180238D01*
X167419047Y-84275476D01*
X167514285Y-84323095D01*
X166038095Y-84037380D02*
X166514285Y-84037380D01*
X166561904Y-84513571D01*
X166514285Y-84465952D01*
X166419047Y-84418333D01*
X166180952Y-84418333D01*
X166085714Y-84465952D01*
X166038095Y-84513571D01*
X165990476Y-84608809D01*
X165990476Y-84846904D01*
X166038095Y-84942142D01*
X166085714Y-84989761D01*
X166180952Y-85037380D01*
X166419047Y-85037380D01*
X166514285Y-84989761D01*
X166561904Y-84942142D01*
X186561904Y-93297380D02*
X186561904Y-92297380D01*
X186228571Y-93011666D01*
X185895238Y-92297380D01*
X185895238Y-93297380D01*
X185514285Y-92297380D02*
X184847619Y-93297380D01*
X184847619Y-92297380D02*
X185514285Y-93297380D01*
X183942857Y-93297380D02*
X184514285Y-93297380D01*
X184228571Y-93297380D02*
X184228571Y-92297380D01*
X184323809Y-92440238D01*
X184419047Y-92535476D01*
X184514285Y-92583095D01*
X183085714Y-92630714D02*
X183085714Y-93297380D01*
X183323809Y-92249761D02*
X183561904Y-92964047D01*
X182942857Y-92964047D01*
X203561904Y-94297380D02*
X203561904Y-93297380D01*
X203228571Y-94011666D01*
X202895238Y-93297380D01*
X202895238Y-94297380D01*
X202514285Y-93297380D02*
X201847619Y-94297380D01*
X201847619Y-93297380D02*
X202514285Y-94297380D01*
X200942857Y-94297380D02*
X201514285Y-94297380D01*
X201228571Y-94297380D02*
X201228571Y-93297380D01*
X201323809Y-93440238D01*
X201419047Y-93535476D01*
X201514285Y-93583095D01*
X200609523Y-93297380D02*
X199990476Y-93297380D01*
X200323809Y-93678333D01*
X200180952Y-93678333D01*
X200085714Y-93725952D01*
X200038095Y-93773571D01*
X199990476Y-93868809D01*
X199990476Y-94106904D01*
X200038095Y-94202142D01*
X200085714Y-94249761D01*
X200180952Y-94297380D01*
X200466666Y-94297380D01*
X200561904Y-94249761D01*
X200609523Y-94202142D01*
X118561904Y-77567380D02*
X118561904Y-76567380D01*
X118228571Y-77281666D01*
X117895238Y-76567380D01*
X117895238Y-77567380D01*
X117514285Y-76567380D02*
X116847619Y-77567380D01*
X116847619Y-76567380D02*
X117514285Y-77567380D01*
X115942857Y-77567380D02*
X116514285Y-77567380D01*
X116228571Y-77567380D02*
X116228571Y-76567380D01*
X116323809Y-76710238D01*
X116419047Y-76805476D01*
X116514285Y-76853095D01*
X115561904Y-76662619D02*
X115514285Y-76615000D01*
X115419047Y-76567380D01*
X115180952Y-76567380D01*
X115085714Y-76615000D01*
X115038095Y-76662619D01*
X114990476Y-76757857D01*
X114990476Y-76853095D01*
X115038095Y-76995952D01*
X115609523Y-77567380D01*
X114990476Y-77567380D01*
X135561904Y-74567380D02*
X135561904Y-73567380D01*
X135228571Y-74281666D01*
X134895238Y-73567380D01*
X134895238Y-74567380D01*
X134514285Y-73567380D02*
X133847619Y-74567380D01*
X133847619Y-73567380D02*
X134514285Y-74567380D01*
X132942857Y-74567380D02*
X133514285Y-74567380D01*
X133228571Y-74567380D02*
X133228571Y-73567380D01*
X133323809Y-73710238D01*
X133419047Y-73805476D01*
X133514285Y-73853095D01*
X131990476Y-74567380D02*
X132561904Y-74567380D01*
X132276190Y-74567380D02*
X132276190Y-73567380D01*
X132371428Y-73710238D01*
X132466666Y-73805476D01*
X132561904Y-73853095D01*
X152561904Y-69737380D02*
X152561904Y-68737380D01*
X152228571Y-69451666D01*
X151895238Y-68737380D01*
X151895238Y-69737380D01*
X151514285Y-68737380D02*
X150847619Y-69737380D01*
X150847619Y-68737380D02*
X151514285Y-69737380D01*
X149942857Y-69737380D02*
X150514285Y-69737380D01*
X150228571Y-69737380D02*
X150228571Y-68737380D01*
X150323809Y-68880238D01*
X150419047Y-68975476D01*
X150514285Y-69023095D01*
X149323809Y-68737380D02*
X149228571Y-68737380D01*
X149133333Y-68785000D01*
X149085714Y-68832619D01*
X149038095Y-68927857D01*
X148990476Y-69118333D01*
X148990476Y-69356428D01*
X149038095Y-69546904D01*
X149085714Y-69642142D01*
X149133333Y-69689761D01*
X149228571Y-69737380D01*
X149323809Y-69737380D01*
X149419047Y-69689761D01*
X149466666Y-69642142D01*
X149514285Y-69546904D01*
X149561904Y-69356428D01*
X149561904Y-69118333D01*
X149514285Y-68927857D01*
X149466666Y-68832619D01*
X149419047Y-68785000D01*
X149323809Y-68737380D01*
X169085714Y-69037380D02*
X169085714Y-68037380D01*
X168752380Y-68751666D01*
X168419047Y-68037380D01*
X168419047Y-69037380D01*
X168038095Y-68037380D02*
X167371428Y-69037380D01*
X167371428Y-68037380D02*
X168038095Y-69037380D01*
X166942857Y-69037380D02*
X166752380Y-69037380D01*
X166657142Y-68989761D01*
X166609523Y-68942142D01*
X166514285Y-68799285D01*
X166466666Y-68608809D01*
X166466666Y-68227857D01*
X166514285Y-68132619D01*
X166561904Y-68085000D01*
X166657142Y-68037380D01*
X166847619Y-68037380D01*
X166942857Y-68085000D01*
X166990476Y-68132619D01*
X167038095Y-68227857D01*
X167038095Y-68465952D01*
X166990476Y-68561190D01*
X166942857Y-68608809D01*
X166847619Y-68656428D01*
X166657142Y-68656428D01*
X166561904Y-68608809D01*
X166514285Y-68561190D01*
X166466666Y-68465952D01*
X186085714Y-77297380D02*
X186085714Y-76297380D01*
X185752380Y-77011666D01*
X185419047Y-76297380D01*
X185419047Y-77297380D01*
X185038095Y-76297380D02*
X184371428Y-77297380D01*
X184371428Y-76297380D02*
X185038095Y-77297380D01*
X183847619Y-76725952D02*
X183942857Y-76678333D01*
X183990476Y-76630714D01*
X184038095Y-76535476D01*
X184038095Y-76487857D01*
X183990476Y-76392619D01*
X183942857Y-76345000D01*
X183847619Y-76297380D01*
X183657142Y-76297380D01*
X183561904Y-76345000D01*
X183514285Y-76392619D01*
X183466666Y-76487857D01*
X183466666Y-76535476D01*
X183514285Y-76630714D01*
X183561904Y-76678333D01*
X183657142Y-76725952D01*
X183847619Y-76725952D01*
X183942857Y-76773571D01*
X183990476Y-76821190D01*
X184038095Y-76916428D01*
X184038095Y-77106904D01*
X183990476Y-77202142D01*
X183942857Y-77249761D01*
X183847619Y-77297380D01*
X183657142Y-77297380D01*
X183561904Y-77249761D01*
X183514285Y-77202142D01*
X183466666Y-77106904D01*
X183466666Y-76916428D01*
X183514285Y-76821190D01*
X183561904Y-76773571D01*
X183657142Y-76725952D01*
X203085714Y-78297380D02*
X203085714Y-77297380D01*
X202752380Y-78011666D01*
X202419047Y-77297380D01*
X202419047Y-78297380D01*
X202038095Y-77297380D02*
X201371428Y-78297380D01*
X201371428Y-77297380D02*
X202038095Y-78297380D01*
X201085714Y-77297380D02*
X200419047Y-77297380D01*
X200847619Y-78297380D01*
X118085714Y-61567380D02*
X118085714Y-60567380D01*
X117752380Y-61281666D01*
X117419047Y-60567380D01*
X117419047Y-61567380D01*
X117038095Y-60567380D02*
X116371428Y-61567380D01*
X116371428Y-60567380D02*
X117038095Y-61567380D01*
X115561904Y-60567380D02*
X115752380Y-60567380D01*
X115847619Y-60615000D01*
X115895238Y-60662619D01*
X115990476Y-60805476D01*
X116038095Y-60995952D01*
X116038095Y-61376904D01*
X115990476Y-61472142D01*
X115942857Y-61519761D01*
X115847619Y-61567380D01*
X115657142Y-61567380D01*
X115561904Y-61519761D01*
X115514285Y-61472142D01*
X115466666Y-61376904D01*
X115466666Y-61138809D01*
X115514285Y-61043571D01*
X115561904Y-60995952D01*
X115657142Y-60948333D01*
X115847619Y-60948333D01*
X115942857Y-60995952D01*
X115990476Y-61043571D01*
X116038095Y-61138809D01*
X135085714Y-58567380D02*
X135085714Y-57567380D01*
X134752380Y-58281666D01*
X134419047Y-57567380D01*
X134419047Y-58567380D01*
X134038095Y-57567380D02*
X133371428Y-58567380D01*
X133371428Y-57567380D02*
X134038095Y-58567380D01*
X132514285Y-57567380D02*
X132990476Y-57567380D01*
X133038095Y-58043571D01*
X132990476Y-57995952D01*
X132895238Y-57948333D01*
X132657142Y-57948333D01*
X132561904Y-57995952D01*
X132514285Y-58043571D01*
X132466666Y-58138809D01*
X132466666Y-58376904D01*
X132514285Y-58472142D01*
X132561904Y-58519761D01*
X132657142Y-58567380D01*
X132895238Y-58567380D01*
X132990476Y-58519761D01*
X133038095Y-58472142D01*
X152085714Y-53737380D02*
X152085714Y-52737380D01*
X151752380Y-53451666D01*
X151419047Y-52737380D01*
X151419047Y-53737380D01*
X151038095Y-52737380D02*
X150371428Y-53737380D01*
X150371428Y-52737380D02*
X151038095Y-53737380D01*
X149561904Y-53070714D02*
X149561904Y-53737380D01*
X149800000Y-52689761D02*
X150038095Y-53404047D01*
X149419047Y-53404047D01*
X169085714Y-53037380D02*
X169085714Y-52037380D01*
X168752380Y-52751666D01*
X168419047Y-52037380D01*
X168419047Y-53037380D01*
X168038095Y-52037380D02*
X167371428Y-53037380D01*
X167371428Y-52037380D02*
X168038095Y-53037380D01*
X167085714Y-52037380D02*
X166466666Y-52037380D01*
X166800000Y-52418333D01*
X166657142Y-52418333D01*
X166561904Y-52465952D01*
X166514285Y-52513571D01*
X166466666Y-52608809D01*
X166466666Y-52846904D01*
X166514285Y-52942142D01*
X166561904Y-52989761D01*
X166657142Y-53037380D01*
X166942857Y-53037380D01*
X167038095Y-52989761D01*
X167085714Y-52942142D01*
X186085714Y-61297380D02*
X186085714Y-60297380D01*
X185752380Y-61011666D01*
X185419047Y-60297380D01*
X185419047Y-61297380D01*
X185038095Y-60297380D02*
X184371428Y-61297380D01*
X184371428Y-60297380D02*
X185038095Y-61297380D01*
X184038095Y-60392619D02*
X183990476Y-60345000D01*
X183895238Y-60297380D01*
X183657142Y-60297380D01*
X183561904Y-60345000D01*
X183514285Y-60392619D01*
X183466666Y-60487857D01*
X183466666Y-60583095D01*
X183514285Y-60725952D01*
X184085714Y-61297380D01*
X183466666Y-61297380D01*
X203085714Y-62297380D02*
X203085714Y-61297380D01*
X202752380Y-62011666D01*
X202419047Y-61297380D01*
X202419047Y-62297380D01*
X202038095Y-61297380D02*
X201371428Y-62297380D01*
X201371428Y-61297380D02*
X202038095Y-62297380D01*
X200466666Y-62297380D02*
X201038095Y-62297380D01*
X200752380Y-62297380D02*
X200752380Y-61297380D01*
X200847619Y-61440238D01*
X200942857Y-61535476D01*
X201038095Y-61583095D01*
X87604761Y-83414285D02*
X87652380Y-83557142D01*
X87652380Y-83795238D01*
X87604761Y-83890476D01*
X87557142Y-83938095D01*
X87461904Y-83985714D01*
X87366666Y-83985714D01*
X87271428Y-83938095D01*
X87223809Y-83890476D01*
X87176190Y-83795238D01*
X87128571Y-83604761D01*
X87080952Y-83509523D01*
X87033333Y-83461904D01*
X86938095Y-83414285D01*
X86842857Y-83414285D01*
X86747619Y-83461904D01*
X86700000Y-83509523D01*
X86652380Y-83604761D01*
X86652380Y-83842857D01*
X86700000Y-83985714D01*
X87652380Y-84414285D02*
X86652380Y-84414285D01*
X86652380Y-84795238D01*
X86700000Y-84890476D01*
X86747619Y-84938095D01*
X86842857Y-84985714D01*
X86985714Y-84985714D01*
X87080952Y-84938095D01*
X87128571Y-84890476D01*
X87176190Y-84795238D01*
X87176190Y-84414285D01*
X87652380Y-85890476D02*
X87652380Y-85414285D01*
X86652380Y-85414285D01*
X87652380Y-86223809D02*
X86652380Y-86223809D01*
X86652380Y-86557142D02*
X86652380Y-87128571D01*
X87652380Y-86842857D02*
X86652380Y-86842857D01*
X87652380Y-87985714D02*
X87652380Y-87414285D01*
X87652380Y-87700000D02*
X86652380Y-87700000D01*
X86795238Y-87604761D01*
X86890476Y-87509523D01*
X86938095Y-87414285D01*
X108452380Y-85195238D02*
X108452380Y-84719047D01*
X107452380Y-84719047D01*
X107928571Y-85528571D02*
X107928571Y-85861904D01*
X108452380Y-86004761D02*
X108452380Y-85528571D01*
X107452380Y-85528571D01*
X107452380Y-86004761D01*
X108452380Y-86433333D02*
X107452380Y-86433333D01*
X107452380Y-86671428D01*
X107500000Y-86814285D01*
X107595238Y-86909523D01*
X107690476Y-86957142D01*
X107880952Y-87004761D01*
X108023809Y-87004761D01*
X108214285Y-86957142D01*
X108309523Y-86909523D01*
X108404761Y-86814285D01*
X108452380Y-86671428D01*
X108452380Y-86433333D01*
X108547619Y-87195238D02*
X108547619Y-87957142D01*
X107452380Y-88385714D02*
X107452380Y-88576190D01*
X107500000Y-88671428D01*
X107595238Y-88766666D01*
X107785714Y-88814285D01*
X108119047Y-88814285D01*
X108309523Y-88766666D01*
X108404761Y-88671428D01*
X108452380Y-88576190D01*
X108452380Y-88385714D01*
X108404761Y-88290476D01*
X108309523Y-88195238D01*
X108119047Y-88147619D01*
X107785714Y-88147619D01*
X107595238Y-88195238D01*
X107500000Y-88290476D01*
X107452380Y-88385714D01*
X108452380Y-89242857D02*
X107452380Y-89242857D01*
X107452380Y-89623809D01*
X107500000Y-89719047D01*
X107547619Y-89766666D01*
X107642857Y-89814285D01*
X107785714Y-89814285D01*
X107880952Y-89766666D01*
X107928571Y-89719047D01*
X107976190Y-89623809D01*
X107976190Y-89242857D01*
X107452380Y-90100000D02*
X107452380Y-90671428D01*
X108452380Y-90385714D02*
X107452380Y-90385714D01*
X108452380Y-91528571D02*
X108452380Y-90957142D01*
X108452380Y-91242857D02*
X107452380Y-91242857D01*
X107595238Y-91147619D01*
X107690476Y-91052380D01*
X107738095Y-90957142D01*
X225622380Y-68676904D02*
X226431904Y-68676904D01*
X226527142Y-68724523D01*
X226574761Y-68772142D01*
X226622380Y-68867380D01*
X226622380Y-69057857D01*
X226574761Y-69153095D01*
X226527142Y-69200714D01*
X226431904Y-69248333D01*
X225622380Y-69248333D01*
X226574761Y-69676904D02*
X226622380Y-69819761D01*
X226622380Y-70057857D01*
X226574761Y-70153095D01*
X226527142Y-70200714D01*
X226431904Y-70248333D01*
X226336666Y-70248333D01*
X226241428Y-70200714D01*
X226193809Y-70153095D01*
X226146190Y-70057857D01*
X226098571Y-69867380D01*
X226050952Y-69772142D01*
X226003333Y-69724523D01*
X225908095Y-69676904D01*
X225812857Y-69676904D01*
X225717619Y-69724523D01*
X225670000Y-69772142D01*
X225622380Y-69867380D01*
X225622380Y-70105476D01*
X225670000Y-70248333D01*
X226098571Y-71010238D02*
X226146190Y-71153095D01*
X226193809Y-71200714D01*
X226289047Y-71248333D01*
X226431904Y-71248333D01*
X226527142Y-71200714D01*
X226574761Y-71153095D01*
X226622380Y-71057857D01*
X226622380Y-70676904D01*
X225622380Y-70676904D01*
X225622380Y-71010238D01*
X225670000Y-71105476D01*
X225717619Y-71153095D01*
X225812857Y-71200714D01*
X225908095Y-71200714D01*
X226003333Y-71153095D01*
X226050952Y-71105476D01*
X226098571Y-71010238D01*
X226098571Y-70676904D01*
X226622380Y-72200714D02*
X226622380Y-71629285D01*
X226622380Y-71915000D02*
X225622380Y-71915000D01*
X225765238Y-71819761D01*
X225860476Y-71724523D01*
X225908095Y-71629285D01*
X212928571Y-72666666D02*
X212928571Y-72333333D01*
X213452380Y-72333333D02*
X212452380Y-72333333D01*
X212452380Y-72809523D01*
X213452380Y-73714285D02*
X213452380Y-73142857D01*
X213452380Y-73428571D02*
X212452380Y-73428571D01*
X212595238Y-73333333D01*
X212690476Y-73238095D01*
X212738095Y-73142857D01*
X90064285Y-146202380D02*
X90064285Y-145202380D01*
X89826190Y-145202380D01*
X89683333Y-145250000D01*
X89588095Y-145345238D01*
X89540476Y-145440476D01*
X89492857Y-145630952D01*
X89492857Y-145773809D01*
X89540476Y-145964285D01*
X89588095Y-146059523D01*
X89683333Y-146154761D01*
X89826190Y-146202380D01*
X90064285Y-146202380D01*
X89159523Y-145202380D02*
X88540476Y-145202380D01*
X88873809Y-145583333D01*
X88730952Y-145583333D01*
X88635714Y-145630952D01*
X88588095Y-145678571D01*
X88540476Y-145773809D01*
X88540476Y-146011904D01*
X88588095Y-146107142D01*
X88635714Y-146154761D01*
X88730952Y-146202380D01*
X89016666Y-146202380D01*
X89111904Y-146154761D01*
X89159523Y-146107142D01*
X88159523Y-145297619D02*
X88111904Y-145250000D01*
X88016666Y-145202380D01*
X87778571Y-145202380D01*
X87683333Y-145250000D01*
X87635714Y-145297619D01*
X87588095Y-145392857D01*
X87588095Y-145488095D01*
X87635714Y-145630952D01*
X88207142Y-146202380D01*
X87588095Y-146202380D01*
X97964285Y-121002380D02*
X97964285Y-120002380D01*
X97726190Y-120002380D01*
X97583333Y-120050000D01*
X97488095Y-120145238D01*
X97440476Y-120240476D01*
X97392857Y-120430952D01*
X97392857Y-120573809D01*
X97440476Y-120764285D01*
X97488095Y-120859523D01*
X97583333Y-120954761D01*
X97726190Y-121002380D01*
X97964285Y-121002380D01*
X97011904Y-120097619D02*
X96964285Y-120050000D01*
X96869047Y-120002380D01*
X96630952Y-120002380D01*
X96535714Y-120050000D01*
X96488095Y-120097619D01*
X96440476Y-120192857D01*
X96440476Y-120288095D01*
X96488095Y-120430952D01*
X97059523Y-121002380D01*
X96440476Y-121002380D01*
X96107142Y-120002380D02*
X95440476Y-120002380D01*
X95869047Y-121002380D01*
X97964285Y-105102380D02*
X97964285Y-104102380D01*
X97726190Y-104102380D01*
X97583333Y-104150000D01*
X97488095Y-104245238D01*
X97440476Y-104340476D01*
X97392857Y-104530952D01*
X97392857Y-104673809D01*
X97440476Y-104864285D01*
X97488095Y-104959523D01*
X97583333Y-105054761D01*
X97726190Y-105102380D01*
X97964285Y-105102380D01*
X96440476Y-105102380D02*
X97011904Y-105102380D01*
X96726190Y-105102380D02*
X96726190Y-104102380D01*
X96821428Y-104245238D01*
X96916666Y-104340476D01*
X97011904Y-104388095D01*
X95964285Y-105102380D02*
X95773809Y-105102380D01*
X95678571Y-105054761D01*
X95630952Y-105007142D01*
X95535714Y-104864285D01*
X95488095Y-104673809D01*
X95488095Y-104292857D01*
X95535714Y-104197619D01*
X95583333Y-104150000D01*
X95678571Y-104102380D01*
X95869047Y-104102380D01*
X95964285Y-104150000D01*
X96011904Y-104197619D01*
X96059523Y-104292857D01*
X96059523Y-104530952D01*
X96011904Y-104626190D01*
X95964285Y-104673809D01*
X95869047Y-104721428D01*
X95678571Y-104721428D01*
X95583333Y-104673809D01*
X95535714Y-104626190D01*
X95488095Y-104530952D01*
X106964285Y-142202380D02*
X106964285Y-141202380D01*
X106726190Y-141202380D01*
X106583333Y-141250000D01*
X106488095Y-141345238D01*
X106440476Y-141440476D01*
X106392857Y-141630952D01*
X106392857Y-141773809D01*
X106440476Y-141964285D01*
X106488095Y-142059523D01*
X106583333Y-142154761D01*
X106726190Y-142202380D01*
X106964285Y-142202380D01*
X106059523Y-141202380D02*
X105440476Y-141202380D01*
X105773809Y-141583333D01*
X105630952Y-141583333D01*
X105535714Y-141630952D01*
X105488095Y-141678571D01*
X105440476Y-141773809D01*
X105440476Y-142011904D01*
X105488095Y-142107142D01*
X105535714Y-142154761D01*
X105630952Y-142202380D01*
X105916666Y-142202380D01*
X106011904Y-142154761D01*
X106059523Y-142107142D01*
X104488095Y-142202380D02*
X105059523Y-142202380D01*
X104773809Y-142202380D02*
X104773809Y-141202380D01*
X104869047Y-141345238D01*
X104964285Y-141440476D01*
X105059523Y-141488095D01*
X117964285Y-124002380D02*
X117964285Y-123002380D01*
X117726190Y-123002380D01*
X117583333Y-123050000D01*
X117488095Y-123145238D01*
X117440476Y-123240476D01*
X117392857Y-123430952D01*
X117392857Y-123573809D01*
X117440476Y-123764285D01*
X117488095Y-123859523D01*
X117583333Y-123954761D01*
X117726190Y-124002380D01*
X117964285Y-124002380D01*
X117011904Y-123097619D02*
X116964285Y-123050000D01*
X116869047Y-123002380D01*
X116630952Y-123002380D01*
X116535714Y-123050000D01*
X116488095Y-123097619D01*
X116440476Y-123192857D01*
X116440476Y-123288095D01*
X116488095Y-123430952D01*
X117059523Y-124002380D01*
X116440476Y-124002380D01*
X115583333Y-123002380D02*
X115773809Y-123002380D01*
X115869047Y-123050000D01*
X115916666Y-123097619D01*
X116011904Y-123240476D01*
X116059523Y-123430952D01*
X116059523Y-123811904D01*
X116011904Y-123907142D01*
X115964285Y-123954761D01*
X115869047Y-124002380D01*
X115678571Y-124002380D01*
X115583333Y-123954761D01*
X115535714Y-123907142D01*
X115488095Y-123811904D01*
X115488095Y-123573809D01*
X115535714Y-123478571D01*
X115583333Y-123430952D01*
X115678571Y-123383333D01*
X115869047Y-123383333D01*
X115964285Y-123430952D01*
X116011904Y-123478571D01*
X116059523Y-123573809D01*
X117964285Y-108002380D02*
X117964285Y-107002380D01*
X117726190Y-107002380D01*
X117583333Y-107050000D01*
X117488095Y-107145238D01*
X117440476Y-107240476D01*
X117392857Y-107430952D01*
X117392857Y-107573809D01*
X117440476Y-107764285D01*
X117488095Y-107859523D01*
X117583333Y-107954761D01*
X117726190Y-108002380D01*
X117964285Y-108002380D01*
X116440476Y-108002380D02*
X117011904Y-108002380D01*
X116726190Y-108002380D02*
X116726190Y-107002380D01*
X116821428Y-107145238D01*
X116916666Y-107240476D01*
X117011904Y-107288095D01*
X115869047Y-107430952D02*
X115964285Y-107383333D01*
X116011904Y-107335714D01*
X116059523Y-107240476D01*
X116059523Y-107192857D01*
X116011904Y-107097619D01*
X115964285Y-107050000D01*
X115869047Y-107002380D01*
X115678571Y-107002380D01*
X115583333Y-107050000D01*
X115535714Y-107097619D01*
X115488095Y-107192857D01*
X115488095Y-107240476D01*
X115535714Y-107335714D01*
X115583333Y-107383333D01*
X115678571Y-107430952D01*
X115869047Y-107430952D01*
X115964285Y-107478571D01*
X116011904Y-107526190D01*
X116059523Y-107621428D01*
X116059523Y-107811904D01*
X116011904Y-107907142D01*
X115964285Y-107954761D01*
X115869047Y-108002380D01*
X115678571Y-108002380D01*
X115583333Y-107954761D01*
X115535714Y-107907142D01*
X115488095Y-107811904D01*
X115488095Y-107621428D01*
X115535714Y-107526190D01*
X115583333Y-107478571D01*
X115678571Y-107430952D01*
X117964285Y-92002380D02*
X117964285Y-91002380D01*
X117726190Y-91002380D01*
X117583333Y-91050000D01*
X117488095Y-91145238D01*
X117440476Y-91240476D01*
X117392857Y-91430952D01*
X117392857Y-91573809D01*
X117440476Y-91764285D01*
X117488095Y-91859523D01*
X117583333Y-91954761D01*
X117726190Y-92002380D01*
X117964285Y-92002380D01*
X116440476Y-92002380D02*
X117011904Y-92002380D01*
X116726190Y-92002380D02*
X116726190Y-91002380D01*
X116821428Y-91145238D01*
X116916666Y-91240476D01*
X117011904Y-91288095D01*
X116059523Y-91097619D02*
X116011904Y-91050000D01*
X115916666Y-91002380D01*
X115678571Y-91002380D01*
X115583333Y-91050000D01*
X115535714Y-91097619D01*
X115488095Y-91192857D01*
X115488095Y-91288095D01*
X115535714Y-91430952D01*
X116107142Y-92002380D01*
X115488095Y-92002380D01*
X117488095Y-76002380D02*
X117488095Y-75002380D01*
X117250000Y-75002380D01*
X117107142Y-75050000D01*
X117011904Y-75145238D01*
X116964285Y-75240476D01*
X116916666Y-75430952D01*
X116916666Y-75573809D01*
X116964285Y-75764285D01*
X117011904Y-75859523D01*
X117107142Y-75954761D01*
X117250000Y-76002380D01*
X117488095Y-76002380D01*
X116059523Y-75002380D02*
X116250000Y-75002380D01*
X116345238Y-75050000D01*
X116392857Y-75097619D01*
X116488095Y-75240476D01*
X116535714Y-75430952D01*
X116535714Y-75811904D01*
X116488095Y-75907142D01*
X116440476Y-75954761D01*
X116345238Y-76002380D01*
X116154761Y-76002380D01*
X116059523Y-75954761D01*
X116011904Y-75907142D01*
X115964285Y-75811904D01*
X115964285Y-75573809D01*
X116011904Y-75478571D01*
X116059523Y-75430952D01*
X116154761Y-75383333D01*
X116345238Y-75383333D01*
X116440476Y-75430952D01*
X116488095Y-75478571D01*
X116535714Y-75573809D01*
X124064285Y-142202380D02*
X124064285Y-141202380D01*
X123826190Y-141202380D01*
X123683333Y-141250000D01*
X123588095Y-141345238D01*
X123540476Y-141440476D01*
X123492857Y-141630952D01*
X123492857Y-141773809D01*
X123540476Y-141964285D01*
X123588095Y-142059523D01*
X123683333Y-142154761D01*
X123826190Y-142202380D01*
X124064285Y-142202380D01*
X123159523Y-141202380D02*
X122540476Y-141202380D01*
X122873809Y-141583333D01*
X122730952Y-141583333D01*
X122635714Y-141630952D01*
X122588095Y-141678571D01*
X122540476Y-141773809D01*
X122540476Y-142011904D01*
X122588095Y-142107142D01*
X122635714Y-142154761D01*
X122730952Y-142202380D01*
X123016666Y-142202380D01*
X123111904Y-142154761D01*
X123159523Y-142107142D01*
X121921428Y-141202380D02*
X121826190Y-141202380D01*
X121730952Y-141250000D01*
X121683333Y-141297619D01*
X121635714Y-141392857D01*
X121588095Y-141583333D01*
X121588095Y-141821428D01*
X121635714Y-142011904D01*
X121683333Y-142107142D01*
X121730952Y-142154761D01*
X121826190Y-142202380D01*
X121921428Y-142202380D01*
X122016666Y-142154761D01*
X122064285Y-142107142D01*
X122111904Y-142011904D01*
X122159523Y-141821428D01*
X122159523Y-141583333D01*
X122111904Y-141392857D01*
X122064285Y-141297619D01*
X122016666Y-141250000D01*
X121921428Y-141202380D01*
X134964285Y-121002380D02*
X134964285Y-120002380D01*
X134726190Y-120002380D01*
X134583333Y-120050000D01*
X134488095Y-120145238D01*
X134440476Y-120240476D01*
X134392857Y-120430952D01*
X134392857Y-120573809D01*
X134440476Y-120764285D01*
X134488095Y-120859523D01*
X134583333Y-120954761D01*
X134726190Y-121002380D01*
X134964285Y-121002380D01*
X134011904Y-120097619D02*
X133964285Y-120050000D01*
X133869047Y-120002380D01*
X133630952Y-120002380D01*
X133535714Y-120050000D01*
X133488095Y-120097619D01*
X133440476Y-120192857D01*
X133440476Y-120288095D01*
X133488095Y-120430952D01*
X134059523Y-121002380D01*
X133440476Y-121002380D01*
X132535714Y-120002380D02*
X133011904Y-120002380D01*
X133059523Y-120478571D01*
X133011904Y-120430952D01*
X132916666Y-120383333D01*
X132678571Y-120383333D01*
X132583333Y-120430952D01*
X132535714Y-120478571D01*
X132488095Y-120573809D01*
X132488095Y-120811904D01*
X132535714Y-120907142D01*
X132583333Y-120954761D01*
X132678571Y-121002380D01*
X132916666Y-121002380D01*
X133011904Y-120954761D01*
X133059523Y-120907142D01*
X134964285Y-105002380D02*
X134964285Y-104002380D01*
X134726190Y-104002380D01*
X134583333Y-104050000D01*
X134488095Y-104145238D01*
X134440476Y-104240476D01*
X134392857Y-104430952D01*
X134392857Y-104573809D01*
X134440476Y-104764285D01*
X134488095Y-104859523D01*
X134583333Y-104954761D01*
X134726190Y-105002380D01*
X134964285Y-105002380D01*
X133440476Y-105002380D02*
X134011904Y-105002380D01*
X133726190Y-105002380D02*
X133726190Y-104002380D01*
X133821428Y-104145238D01*
X133916666Y-104240476D01*
X134011904Y-104288095D01*
X133107142Y-104002380D02*
X132440476Y-104002380D01*
X132869047Y-105002380D01*
X134964285Y-88902380D02*
X134964285Y-87902380D01*
X134726190Y-87902380D01*
X134583333Y-87950000D01*
X134488095Y-88045238D01*
X134440476Y-88140476D01*
X134392857Y-88330952D01*
X134392857Y-88473809D01*
X134440476Y-88664285D01*
X134488095Y-88759523D01*
X134583333Y-88854761D01*
X134726190Y-88902380D01*
X134964285Y-88902380D01*
X133440476Y-88902380D02*
X134011904Y-88902380D01*
X133726190Y-88902380D02*
X133726190Y-87902380D01*
X133821428Y-88045238D01*
X133916666Y-88140476D01*
X134011904Y-88188095D01*
X132488095Y-88902380D02*
X133059523Y-88902380D01*
X132773809Y-88902380D02*
X132773809Y-87902380D01*
X132869047Y-88045238D01*
X132964285Y-88140476D01*
X133059523Y-88188095D01*
X134488095Y-73002380D02*
X134488095Y-72002380D01*
X134250000Y-72002380D01*
X134107142Y-72050000D01*
X134011904Y-72145238D01*
X133964285Y-72240476D01*
X133916666Y-72430952D01*
X133916666Y-72573809D01*
X133964285Y-72764285D01*
X134011904Y-72859523D01*
X134107142Y-72954761D01*
X134250000Y-73002380D01*
X134488095Y-73002380D01*
X133011904Y-72002380D02*
X133488095Y-72002380D01*
X133535714Y-72478571D01*
X133488095Y-72430952D01*
X133392857Y-72383333D01*
X133154761Y-72383333D01*
X133059523Y-72430952D01*
X133011904Y-72478571D01*
X132964285Y-72573809D01*
X132964285Y-72811904D01*
X133011904Y-72907142D01*
X133059523Y-72954761D01*
X133154761Y-73002380D01*
X133392857Y-73002380D01*
X133488095Y-72954761D01*
X133535714Y-72907142D01*
X140964285Y-145102380D02*
X140964285Y-144102380D01*
X140726190Y-144102380D01*
X140583333Y-144150000D01*
X140488095Y-144245238D01*
X140440476Y-144340476D01*
X140392857Y-144530952D01*
X140392857Y-144673809D01*
X140440476Y-144864285D01*
X140488095Y-144959523D01*
X140583333Y-145054761D01*
X140726190Y-145102380D01*
X140964285Y-145102380D01*
X140011904Y-144197619D02*
X139964285Y-144150000D01*
X139869047Y-144102380D01*
X139630952Y-144102380D01*
X139535714Y-144150000D01*
X139488095Y-144197619D01*
X139440476Y-144292857D01*
X139440476Y-144388095D01*
X139488095Y-144530952D01*
X140059523Y-145102380D01*
X139440476Y-145102380D01*
X138964285Y-145102380D02*
X138773809Y-145102380D01*
X138678571Y-145054761D01*
X138630952Y-145007142D01*
X138535714Y-144864285D01*
X138488095Y-144673809D01*
X138488095Y-144292857D01*
X138535714Y-144197619D01*
X138583333Y-144150000D01*
X138678571Y-144102380D01*
X138869047Y-144102380D01*
X138964285Y-144150000D01*
X139011904Y-144197619D01*
X139059523Y-144292857D01*
X139059523Y-144530952D01*
X139011904Y-144626190D01*
X138964285Y-144673809D01*
X138869047Y-144721428D01*
X138678571Y-144721428D01*
X138583333Y-144673809D01*
X138535714Y-144626190D01*
X138488095Y-144530952D01*
X151964285Y-116102380D02*
X151964285Y-115102380D01*
X151726190Y-115102380D01*
X151583333Y-115150000D01*
X151488095Y-115245238D01*
X151440476Y-115340476D01*
X151392857Y-115530952D01*
X151392857Y-115673809D01*
X151440476Y-115864285D01*
X151488095Y-115959523D01*
X151583333Y-116054761D01*
X151726190Y-116102380D01*
X151964285Y-116102380D01*
X151011904Y-115197619D02*
X150964285Y-115150000D01*
X150869047Y-115102380D01*
X150630952Y-115102380D01*
X150535714Y-115150000D01*
X150488095Y-115197619D01*
X150440476Y-115292857D01*
X150440476Y-115388095D01*
X150488095Y-115530952D01*
X151059523Y-116102380D01*
X150440476Y-116102380D01*
X149583333Y-115435714D02*
X149583333Y-116102380D01*
X149821428Y-115054761D02*
X150059523Y-115769047D01*
X149440476Y-115769047D01*
X151964285Y-100202380D02*
X151964285Y-99202380D01*
X151726190Y-99202380D01*
X151583333Y-99250000D01*
X151488095Y-99345238D01*
X151440476Y-99440476D01*
X151392857Y-99630952D01*
X151392857Y-99773809D01*
X151440476Y-99964285D01*
X151488095Y-100059523D01*
X151583333Y-100154761D01*
X151726190Y-100202380D01*
X151964285Y-100202380D01*
X150440476Y-100202380D02*
X151011904Y-100202380D01*
X150726190Y-100202380D02*
X150726190Y-99202380D01*
X150821428Y-99345238D01*
X150916666Y-99440476D01*
X151011904Y-99488095D01*
X149583333Y-99202380D02*
X149773809Y-99202380D01*
X149869047Y-99250000D01*
X149916666Y-99297619D01*
X150011904Y-99440476D01*
X150059523Y-99630952D01*
X150059523Y-100011904D01*
X150011904Y-100107142D01*
X149964285Y-100154761D01*
X149869047Y-100202380D01*
X149678571Y-100202380D01*
X149583333Y-100154761D01*
X149535714Y-100107142D01*
X149488095Y-100011904D01*
X149488095Y-99773809D01*
X149535714Y-99678571D01*
X149583333Y-99630952D01*
X149678571Y-99583333D01*
X149869047Y-99583333D01*
X149964285Y-99630952D01*
X150011904Y-99678571D01*
X150059523Y-99773809D01*
X151964285Y-84102380D02*
X151964285Y-83102380D01*
X151726190Y-83102380D01*
X151583333Y-83150000D01*
X151488095Y-83245238D01*
X151440476Y-83340476D01*
X151392857Y-83530952D01*
X151392857Y-83673809D01*
X151440476Y-83864285D01*
X151488095Y-83959523D01*
X151583333Y-84054761D01*
X151726190Y-84102380D01*
X151964285Y-84102380D01*
X150440476Y-84102380D02*
X151011904Y-84102380D01*
X150726190Y-84102380D02*
X150726190Y-83102380D01*
X150821428Y-83245238D01*
X150916666Y-83340476D01*
X151011904Y-83388095D01*
X149821428Y-83102380D02*
X149726190Y-83102380D01*
X149630952Y-83150000D01*
X149583333Y-83197619D01*
X149535714Y-83292857D01*
X149488095Y-83483333D01*
X149488095Y-83721428D01*
X149535714Y-83911904D01*
X149583333Y-84007142D01*
X149630952Y-84054761D01*
X149726190Y-84102380D01*
X149821428Y-84102380D01*
X149916666Y-84054761D01*
X149964285Y-84007142D01*
X150011904Y-83911904D01*
X150059523Y-83721428D01*
X150059523Y-83483333D01*
X150011904Y-83292857D01*
X149964285Y-83197619D01*
X149916666Y-83150000D01*
X149821428Y-83102380D01*
X151488095Y-68102380D02*
X151488095Y-67102380D01*
X151250000Y-67102380D01*
X151107142Y-67150000D01*
X151011904Y-67245238D01*
X150964285Y-67340476D01*
X150916666Y-67530952D01*
X150916666Y-67673809D01*
X150964285Y-67864285D01*
X151011904Y-67959523D01*
X151107142Y-68054761D01*
X151250000Y-68102380D01*
X151488095Y-68102380D01*
X150059523Y-67435714D02*
X150059523Y-68102380D01*
X150297619Y-67054761D02*
X150535714Y-67769047D01*
X149916666Y-67769047D01*
X168964285Y-115502380D02*
X168964285Y-114502380D01*
X168726190Y-114502380D01*
X168583333Y-114550000D01*
X168488095Y-114645238D01*
X168440476Y-114740476D01*
X168392857Y-114930952D01*
X168392857Y-115073809D01*
X168440476Y-115264285D01*
X168488095Y-115359523D01*
X168583333Y-115454761D01*
X168726190Y-115502380D01*
X168964285Y-115502380D01*
X168011904Y-114597619D02*
X167964285Y-114550000D01*
X167869047Y-114502380D01*
X167630952Y-114502380D01*
X167535714Y-114550000D01*
X167488095Y-114597619D01*
X167440476Y-114692857D01*
X167440476Y-114788095D01*
X167488095Y-114930952D01*
X168059523Y-115502380D01*
X167440476Y-115502380D01*
X167107142Y-114502380D02*
X166488095Y-114502380D01*
X166821428Y-114883333D01*
X166678571Y-114883333D01*
X166583333Y-114930952D01*
X166535714Y-114978571D01*
X166488095Y-115073809D01*
X166488095Y-115311904D01*
X166535714Y-115407142D01*
X166583333Y-115454761D01*
X166678571Y-115502380D01*
X166964285Y-115502380D01*
X167059523Y-115454761D01*
X167107142Y-115407142D01*
X168964285Y-99402380D02*
X168964285Y-98402380D01*
X168726190Y-98402380D01*
X168583333Y-98450000D01*
X168488095Y-98545238D01*
X168440476Y-98640476D01*
X168392857Y-98830952D01*
X168392857Y-98973809D01*
X168440476Y-99164285D01*
X168488095Y-99259523D01*
X168583333Y-99354761D01*
X168726190Y-99402380D01*
X168964285Y-99402380D01*
X167440476Y-99402380D02*
X168011904Y-99402380D01*
X167726190Y-99402380D02*
X167726190Y-98402380D01*
X167821428Y-98545238D01*
X167916666Y-98640476D01*
X168011904Y-98688095D01*
X166535714Y-98402380D02*
X167011904Y-98402380D01*
X167059523Y-98878571D01*
X167011904Y-98830952D01*
X166916666Y-98783333D01*
X166678571Y-98783333D01*
X166583333Y-98830952D01*
X166535714Y-98878571D01*
X166488095Y-98973809D01*
X166488095Y-99211904D01*
X166535714Y-99307142D01*
X166583333Y-99354761D01*
X166678571Y-99402380D01*
X166916666Y-99402380D01*
X167011904Y-99354761D01*
X167059523Y-99307142D01*
X168488095Y-83402380D02*
X168488095Y-82402380D01*
X168250000Y-82402380D01*
X168107142Y-82450000D01*
X168011904Y-82545238D01*
X167964285Y-82640476D01*
X167916666Y-82830952D01*
X167916666Y-82973809D01*
X167964285Y-83164285D01*
X168011904Y-83259523D01*
X168107142Y-83354761D01*
X168250000Y-83402380D01*
X168488095Y-83402380D01*
X167440476Y-83402380D02*
X167250000Y-83402380D01*
X167154761Y-83354761D01*
X167107142Y-83307142D01*
X167011904Y-83164285D01*
X166964285Y-82973809D01*
X166964285Y-82592857D01*
X167011904Y-82497619D01*
X167059523Y-82450000D01*
X167154761Y-82402380D01*
X167345238Y-82402380D01*
X167440476Y-82450000D01*
X167488095Y-82497619D01*
X167535714Y-82592857D01*
X167535714Y-82830952D01*
X167488095Y-82926190D01*
X167440476Y-82973809D01*
X167345238Y-83021428D01*
X167154761Y-83021428D01*
X167059523Y-82973809D01*
X167011904Y-82926190D01*
X166964285Y-82830952D01*
X168488095Y-67402380D02*
X168488095Y-66402380D01*
X168250000Y-66402380D01*
X168107142Y-66450000D01*
X168011904Y-66545238D01*
X167964285Y-66640476D01*
X167916666Y-66830952D01*
X167916666Y-66973809D01*
X167964285Y-67164285D01*
X168011904Y-67259523D01*
X168107142Y-67354761D01*
X168250000Y-67402380D01*
X168488095Y-67402380D01*
X167583333Y-66402380D02*
X166964285Y-66402380D01*
X167297619Y-66783333D01*
X167154761Y-66783333D01*
X167059523Y-66830952D01*
X167011904Y-66878571D01*
X166964285Y-66973809D01*
X166964285Y-67211904D01*
X167011904Y-67307142D01*
X167059523Y-67354761D01*
X167154761Y-67402380D01*
X167440476Y-67402380D01*
X167535714Y-67354761D01*
X167583333Y-67307142D01*
X185964285Y-139702380D02*
X185964285Y-138702380D01*
X185726190Y-138702380D01*
X185583333Y-138750000D01*
X185488095Y-138845238D01*
X185440476Y-138940476D01*
X185392857Y-139130952D01*
X185392857Y-139273809D01*
X185440476Y-139464285D01*
X185488095Y-139559523D01*
X185583333Y-139654761D01*
X185726190Y-139702380D01*
X185964285Y-139702380D01*
X185011904Y-138797619D02*
X184964285Y-138750000D01*
X184869047Y-138702380D01*
X184630952Y-138702380D01*
X184535714Y-138750000D01*
X184488095Y-138797619D01*
X184440476Y-138892857D01*
X184440476Y-138988095D01*
X184488095Y-139130952D01*
X185059523Y-139702380D01*
X184440476Y-139702380D01*
X183869047Y-139130952D02*
X183964285Y-139083333D01*
X184011904Y-139035714D01*
X184059523Y-138940476D01*
X184059523Y-138892857D01*
X184011904Y-138797619D01*
X183964285Y-138750000D01*
X183869047Y-138702380D01*
X183678571Y-138702380D01*
X183583333Y-138750000D01*
X183535714Y-138797619D01*
X183488095Y-138892857D01*
X183488095Y-138940476D01*
X183535714Y-139035714D01*
X183583333Y-139083333D01*
X183678571Y-139130952D01*
X183869047Y-139130952D01*
X183964285Y-139178571D01*
X184011904Y-139226190D01*
X184059523Y-139321428D01*
X184059523Y-139511904D01*
X184011904Y-139607142D01*
X183964285Y-139654761D01*
X183869047Y-139702380D01*
X183678571Y-139702380D01*
X183583333Y-139654761D01*
X183535714Y-139607142D01*
X183488095Y-139511904D01*
X183488095Y-139321428D01*
X183535714Y-139226190D01*
X183583333Y-139178571D01*
X183678571Y-139130952D01*
X185964285Y-123702380D02*
X185964285Y-122702380D01*
X185726190Y-122702380D01*
X185583333Y-122750000D01*
X185488095Y-122845238D01*
X185440476Y-122940476D01*
X185392857Y-123130952D01*
X185392857Y-123273809D01*
X185440476Y-123464285D01*
X185488095Y-123559523D01*
X185583333Y-123654761D01*
X185726190Y-123702380D01*
X185964285Y-123702380D01*
X185011904Y-122797619D02*
X184964285Y-122750000D01*
X184869047Y-122702380D01*
X184630952Y-122702380D01*
X184535714Y-122750000D01*
X184488095Y-122797619D01*
X184440476Y-122892857D01*
X184440476Y-122988095D01*
X184488095Y-123130952D01*
X185059523Y-123702380D01*
X184440476Y-123702380D01*
X184059523Y-122797619D02*
X184011904Y-122750000D01*
X183916666Y-122702380D01*
X183678571Y-122702380D01*
X183583333Y-122750000D01*
X183535714Y-122797619D01*
X183488095Y-122892857D01*
X183488095Y-122988095D01*
X183535714Y-123130952D01*
X184107142Y-123702380D01*
X183488095Y-123702380D01*
X185964285Y-107702380D02*
X185964285Y-106702380D01*
X185726190Y-106702380D01*
X185583333Y-106750000D01*
X185488095Y-106845238D01*
X185440476Y-106940476D01*
X185392857Y-107130952D01*
X185392857Y-107273809D01*
X185440476Y-107464285D01*
X185488095Y-107559523D01*
X185583333Y-107654761D01*
X185726190Y-107702380D01*
X185964285Y-107702380D01*
X184440476Y-107702380D02*
X185011904Y-107702380D01*
X184726190Y-107702380D02*
X184726190Y-106702380D01*
X184821428Y-106845238D01*
X184916666Y-106940476D01*
X185011904Y-106988095D01*
X183583333Y-107035714D02*
X183583333Y-107702380D01*
X183821428Y-106654761D02*
X184059523Y-107369047D01*
X183440476Y-107369047D01*
X185488095Y-91702380D02*
X185488095Y-90702380D01*
X185250000Y-90702380D01*
X185107142Y-90750000D01*
X185011904Y-90845238D01*
X184964285Y-90940476D01*
X184916666Y-91130952D01*
X184916666Y-91273809D01*
X184964285Y-91464285D01*
X185011904Y-91559523D01*
X185107142Y-91654761D01*
X185250000Y-91702380D01*
X185488095Y-91702380D01*
X184345238Y-91130952D02*
X184440476Y-91083333D01*
X184488095Y-91035714D01*
X184535714Y-90940476D01*
X184535714Y-90892857D01*
X184488095Y-90797619D01*
X184440476Y-90750000D01*
X184345238Y-90702380D01*
X184154761Y-90702380D01*
X184059523Y-90750000D01*
X184011904Y-90797619D01*
X183964285Y-90892857D01*
X183964285Y-90940476D01*
X184011904Y-91035714D01*
X184059523Y-91083333D01*
X184154761Y-91130952D01*
X184345238Y-91130952D01*
X184440476Y-91178571D01*
X184488095Y-91226190D01*
X184535714Y-91321428D01*
X184535714Y-91511904D01*
X184488095Y-91607142D01*
X184440476Y-91654761D01*
X184345238Y-91702380D01*
X184154761Y-91702380D01*
X184059523Y-91654761D01*
X184011904Y-91607142D01*
X183964285Y-91511904D01*
X183964285Y-91321428D01*
X184011904Y-91226190D01*
X184059523Y-91178571D01*
X184154761Y-91130952D01*
X185488095Y-75702380D02*
X185488095Y-74702380D01*
X185250000Y-74702380D01*
X185107142Y-74750000D01*
X185011904Y-74845238D01*
X184964285Y-74940476D01*
X184916666Y-75130952D01*
X184916666Y-75273809D01*
X184964285Y-75464285D01*
X185011904Y-75559523D01*
X185107142Y-75654761D01*
X185250000Y-75702380D01*
X185488095Y-75702380D01*
X184535714Y-74797619D02*
X184488095Y-74750000D01*
X184392857Y-74702380D01*
X184154761Y-74702380D01*
X184059523Y-74750000D01*
X184011904Y-74797619D01*
X183964285Y-74892857D01*
X183964285Y-74988095D01*
X184011904Y-75130952D01*
X184583333Y-75702380D01*
X183964285Y-75702380D01*
X202964285Y-128602380D02*
X202964285Y-127602380D01*
X202726190Y-127602380D01*
X202583333Y-127650000D01*
X202488095Y-127745238D01*
X202440476Y-127840476D01*
X202392857Y-128030952D01*
X202392857Y-128173809D01*
X202440476Y-128364285D01*
X202488095Y-128459523D01*
X202583333Y-128554761D01*
X202726190Y-128602380D01*
X202964285Y-128602380D01*
X202011904Y-127697619D02*
X201964285Y-127650000D01*
X201869047Y-127602380D01*
X201630952Y-127602380D01*
X201535714Y-127650000D01*
X201488095Y-127697619D01*
X201440476Y-127792857D01*
X201440476Y-127888095D01*
X201488095Y-128030952D01*
X202059523Y-128602380D01*
X201440476Y-128602380D01*
X200488095Y-128602380D02*
X201059523Y-128602380D01*
X200773809Y-128602380D02*
X200773809Y-127602380D01*
X200869047Y-127745238D01*
X200964285Y-127840476D01*
X201059523Y-127888095D01*
X202864285Y-108702380D02*
X202864285Y-107702380D01*
X202626190Y-107702380D01*
X202483333Y-107750000D01*
X202388095Y-107845238D01*
X202340476Y-107940476D01*
X202292857Y-108130952D01*
X202292857Y-108273809D01*
X202340476Y-108464285D01*
X202388095Y-108559523D01*
X202483333Y-108654761D01*
X202626190Y-108702380D01*
X202864285Y-108702380D01*
X201340476Y-108702380D02*
X201911904Y-108702380D01*
X201626190Y-108702380D02*
X201626190Y-107702380D01*
X201721428Y-107845238D01*
X201816666Y-107940476D01*
X201911904Y-107988095D01*
X201007142Y-107702380D02*
X200388095Y-107702380D01*
X200721428Y-108083333D01*
X200578571Y-108083333D01*
X200483333Y-108130952D01*
X200435714Y-108178571D01*
X200388095Y-108273809D01*
X200388095Y-108511904D01*
X200435714Y-108607142D01*
X200483333Y-108654761D01*
X200578571Y-108702380D01*
X200864285Y-108702380D01*
X200959523Y-108654761D01*
X201007142Y-108607142D01*
X202488095Y-92702380D02*
X202488095Y-91702380D01*
X202250000Y-91702380D01*
X202107142Y-91750000D01*
X202011904Y-91845238D01*
X201964285Y-91940476D01*
X201916666Y-92130952D01*
X201916666Y-92273809D01*
X201964285Y-92464285D01*
X202011904Y-92559523D01*
X202107142Y-92654761D01*
X202250000Y-92702380D01*
X202488095Y-92702380D01*
X201583333Y-91702380D02*
X200916666Y-91702380D01*
X201345238Y-92702380D01*
X202488095Y-76702380D02*
X202488095Y-75702380D01*
X202250000Y-75702380D01*
X202107142Y-75750000D01*
X202011904Y-75845238D01*
X201964285Y-75940476D01*
X201916666Y-76130952D01*
X201916666Y-76273809D01*
X201964285Y-76464285D01*
X202011904Y-76559523D01*
X202107142Y-76654761D01*
X202250000Y-76702380D01*
X202488095Y-76702380D01*
X200964285Y-76702380D02*
X201535714Y-76702380D01*
X201250000Y-76702380D02*
X201250000Y-75702380D01*
X201345238Y-75845238D01*
X201440476Y-75940476D01*
X201535714Y-75988095D01*
X219864285Y-130702380D02*
X219864285Y-129702380D01*
X219626190Y-129702380D01*
X219483333Y-129750000D01*
X219388095Y-129845238D01*
X219340476Y-129940476D01*
X219292857Y-130130952D01*
X219292857Y-130273809D01*
X219340476Y-130464285D01*
X219388095Y-130559523D01*
X219483333Y-130654761D01*
X219626190Y-130702380D01*
X219864285Y-130702380D01*
X218911904Y-129797619D02*
X218864285Y-129750000D01*
X218769047Y-129702380D01*
X218530952Y-129702380D01*
X218435714Y-129750000D01*
X218388095Y-129797619D01*
X218340476Y-129892857D01*
X218340476Y-129988095D01*
X218388095Y-130130952D01*
X218959523Y-130702380D01*
X218340476Y-130702380D01*
X217721428Y-129702380D02*
X217626190Y-129702380D01*
X217530952Y-129750000D01*
X217483333Y-129797619D01*
X217435714Y-129892857D01*
X217388095Y-130083333D01*
X217388095Y-130321428D01*
X217435714Y-130511904D01*
X217483333Y-130607142D01*
X217530952Y-130654761D01*
X217626190Y-130702380D01*
X217721428Y-130702380D01*
X217816666Y-130654761D01*
X217864285Y-130607142D01*
X217911904Y-130511904D01*
X217959523Y-130321428D01*
X217959523Y-130083333D01*
X217911904Y-129892857D01*
X217864285Y-129797619D01*
X217816666Y-129750000D01*
X217721428Y-129702380D01*
X221242857Y-100657142D02*
X221290476Y-100704761D01*
X221433333Y-100752380D01*
X221528571Y-100752380D01*
X221671428Y-100704761D01*
X221766666Y-100609523D01*
X221814285Y-100514285D01*
X221861904Y-100323809D01*
X221861904Y-100180952D01*
X221814285Y-99990476D01*
X221766666Y-99895238D01*
X221671428Y-99800000D01*
X221528571Y-99752380D01*
X221433333Y-99752380D01*
X221290476Y-99800000D01*
X221242857Y-99847619D01*
X220290476Y-100752380D02*
X220861904Y-100752380D01*
X220576190Y-100752380D02*
X220576190Y-99752380D01*
X220671428Y-99895238D01*
X220766666Y-99990476D01*
X220861904Y-100038095D01*
X219957142Y-99752380D02*
X219338095Y-99752380D01*
X219671428Y-100133333D01*
X219528571Y-100133333D01*
X219433333Y-100180952D01*
X219385714Y-100228571D01*
X219338095Y-100323809D01*
X219338095Y-100561904D01*
X219385714Y-100657142D01*
X219433333Y-100704761D01*
X219528571Y-100752380D01*
X219814285Y-100752380D01*
X219909523Y-100704761D01*
X219957142Y-100657142D01*
X212657142Y-98257142D02*
X212704761Y-98209523D01*
X212752380Y-98066666D01*
X212752380Y-97971428D01*
X212704761Y-97828571D01*
X212609523Y-97733333D01*
X212514285Y-97685714D01*
X212323809Y-97638095D01*
X212180952Y-97638095D01*
X211990476Y-97685714D01*
X211895238Y-97733333D01*
X211800000Y-97828571D01*
X211752380Y-97971428D01*
X211752380Y-98066666D01*
X211800000Y-98209523D01*
X211847619Y-98257142D01*
X212752380Y-99209523D02*
X212752380Y-98638095D01*
X212752380Y-98923809D02*
X211752380Y-98923809D01*
X211895238Y-98828571D01*
X211990476Y-98733333D01*
X212038095Y-98638095D01*
X212752380Y-100161904D02*
X212752380Y-99590476D01*
X212752380Y-99876190D02*
X211752380Y-99876190D01*
X211895238Y-99780952D01*
X211990476Y-99685714D01*
X212038095Y-99590476D01*
X229057142Y-88733333D02*
X229104761Y-88685714D01*
X229152380Y-88542857D01*
X229152380Y-88447619D01*
X229104761Y-88304761D01*
X229009523Y-88209523D01*
X228914285Y-88161904D01*
X228723809Y-88114285D01*
X228580952Y-88114285D01*
X228390476Y-88161904D01*
X228295238Y-88209523D01*
X228200000Y-88304761D01*
X228152380Y-88447619D01*
X228152380Y-88542857D01*
X228200000Y-88685714D01*
X228247619Y-88733333D01*
X229152380Y-89209523D02*
X229152380Y-89400000D01*
X229104761Y-89495238D01*
X229057142Y-89542857D01*
X228914285Y-89638095D01*
X228723809Y-89685714D01*
X228342857Y-89685714D01*
X228247619Y-89638095D01*
X228200000Y-89590476D01*
X228152380Y-89495238D01*
X228152380Y-89304761D01*
X228200000Y-89209523D01*
X228247619Y-89161904D01*
X228342857Y-89114285D01*
X228580952Y-89114285D01*
X228676190Y-89161904D01*
X228723809Y-89209523D01*
X228771428Y-89304761D01*
X228771428Y-89495238D01*
X228723809Y-89590476D01*
X228676190Y-89638095D01*
X228580952Y-89685714D01*
X226857142Y-104333333D02*
X226904761Y-104285714D01*
X226952380Y-104142857D01*
X226952380Y-104047619D01*
X226904761Y-103904761D01*
X226809523Y-103809523D01*
X226714285Y-103761904D01*
X226523809Y-103714285D01*
X226380952Y-103714285D01*
X226190476Y-103761904D01*
X226095238Y-103809523D01*
X226000000Y-103904761D01*
X225952380Y-104047619D01*
X225952380Y-104142857D01*
X226000000Y-104285714D01*
X226047619Y-104333333D01*
X226380952Y-104904761D02*
X226333333Y-104809523D01*
X226285714Y-104761904D01*
X226190476Y-104714285D01*
X226142857Y-104714285D01*
X226047619Y-104761904D01*
X226000000Y-104809523D01*
X225952380Y-104904761D01*
X225952380Y-105095238D01*
X226000000Y-105190476D01*
X226047619Y-105238095D01*
X226142857Y-105285714D01*
X226190476Y-105285714D01*
X226285714Y-105238095D01*
X226333333Y-105190476D01*
X226380952Y-105095238D01*
X226380952Y-104904761D01*
X226428571Y-104809523D01*
X226476190Y-104761904D01*
X226571428Y-104714285D01*
X226761904Y-104714285D01*
X226857142Y-104761904D01*
X226904761Y-104809523D01*
X226952380Y-104904761D01*
X226952380Y-105095238D01*
X226904761Y-105190476D01*
X226857142Y-105238095D01*
X226761904Y-105285714D01*
X226571428Y-105285714D01*
X226476190Y-105238095D01*
X226428571Y-105190476D01*
X226380952Y-105095238D01*
X215757142Y-104033333D02*
X215804761Y-103985714D01*
X215852380Y-103842857D01*
X215852380Y-103747619D01*
X215804761Y-103604761D01*
X215709523Y-103509523D01*
X215614285Y-103461904D01*
X215423809Y-103414285D01*
X215280952Y-103414285D01*
X215090476Y-103461904D01*
X214995238Y-103509523D01*
X214900000Y-103604761D01*
X214852380Y-103747619D01*
X214852380Y-103842857D01*
X214900000Y-103985714D01*
X214947619Y-104033333D01*
X214852380Y-104366666D02*
X214852380Y-105033333D01*
X215852380Y-104604761D01*
X227341666Y-83657142D02*
X227389285Y-83704761D01*
X227532142Y-83752380D01*
X227627380Y-83752380D01*
X227770238Y-83704761D01*
X227865476Y-83609523D01*
X227913095Y-83514285D01*
X227960714Y-83323809D01*
X227960714Y-83180952D01*
X227913095Y-82990476D01*
X227865476Y-82895238D01*
X227770238Y-82800000D01*
X227627380Y-82752380D01*
X227532142Y-82752380D01*
X227389285Y-82800000D01*
X227341666Y-82847619D01*
X226484523Y-83085714D02*
X226484523Y-83752380D01*
X226722619Y-82704761D02*
X226960714Y-83419047D01*
X226341666Y-83419047D01*
X214266666Y-83657142D02*
X214314285Y-83704761D01*
X214457142Y-83752380D01*
X214552380Y-83752380D01*
X214695238Y-83704761D01*
X214790476Y-83609523D01*
X214838095Y-83514285D01*
X214885714Y-83323809D01*
X214885714Y-83180952D01*
X214838095Y-82990476D01*
X214790476Y-82895238D01*
X214695238Y-82800000D01*
X214552380Y-82752380D01*
X214457142Y-82752380D01*
X214314285Y-82800000D01*
X214266666Y-82847619D01*
X213933333Y-82752380D02*
X213314285Y-82752380D01*
X213647619Y-83133333D01*
X213504761Y-83133333D01*
X213409523Y-83180952D01*
X213361904Y-83228571D01*
X213314285Y-83323809D01*
X213314285Y-83561904D01*
X213361904Y-83657142D01*
X213409523Y-83704761D01*
X213504761Y-83752380D01*
X213790476Y-83752380D01*
X213885714Y-83704761D01*
X213933333Y-83657142D01*
X229057142Y-97533333D02*
X229104761Y-97485714D01*
X229152380Y-97342857D01*
X229152380Y-97247619D01*
X229104761Y-97104761D01*
X229009523Y-97009523D01*
X228914285Y-96961904D01*
X228723809Y-96914285D01*
X228580952Y-96914285D01*
X228390476Y-96961904D01*
X228295238Y-97009523D01*
X228200000Y-97104761D01*
X228152380Y-97247619D01*
X228152380Y-97342857D01*
X228200000Y-97485714D01*
X228247619Y-97533333D01*
X228247619Y-97914285D02*
X228200000Y-97961904D01*
X228152380Y-98057142D01*
X228152380Y-98295238D01*
X228200000Y-98390476D01*
X228247619Y-98438095D01*
X228342857Y-98485714D01*
X228438095Y-98485714D01*
X228580952Y-98438095D01*
X229152380Y-97866666D01*
X229152380Y-98485714D01*
X209757142Y-75633333D02*
X209804761Y-75585714D01*
X209852380Y-75442857D01*
X209852380Y-75347619D01*
X209804761Y-75204761D01*
X209709523Y-75109523D01*
X209614285Y-75061904D01*
X209423809Y-75014285D01*
X209280952Y-75014285D01*
X209090476Y-75061904D01*
X208995238Y-75109523D01*
X208900000Y-75204761D01*
X208852380Y-75347619D01*
X208852380Y-75442857D01*
X208900000Y-75585714D01*
X208947619Y-75633333D01*
X209852380Y-76585714D02*
X209852380Y-76014285D01*
X209852380Y-76300000D02*
X208852380Y-76300000D01*
X208995238Y-76204761D01*
X209090476Y-76109523D01*
X209138095Y-76014285D01*
M02*
