G04 #@! TF.GenerationSoftware,KiCad,Pcbnew,5.1.7-a382d34a8~88~ubuntu18.04.1*
G04 #@! TF.CreationDate,2020-12-29T23:08:14-05:00*
G04 #@! TF.ProjectId,snowflake-right,736e6f77-666c-4616-9b65-2d7269676874,rev?*
G04 #@! TF.SameCoordinates,Original*
G04 #@! TF.FileFunction,Soldermask,Bot*
G04 #@! TF.FilePolarity,Negative*
%FSLAX46Y46*%
G04 Gerber Fmt 4.6, Leading zero omitted, Abs format (unit mm)*
G04 Created by KiCad (PCBNEW 5.1.7-a382d34a8~88~ubuntu18.04.1) date 2020-12-29 23:08:14*
%MOMM*%
%LPD*%
G01*
G04 APERTURE LIST*
%ADD10C,0.100000*%
%ADD11R,1.168400X0.355600*%
%ADD12C,2.200000*%
%ADD13R,2.100000X1.800000*%
%ADD14R,0.550000X1.500000*%
%ADD15R,1.500000X0.550000*%
%ADD16R,2.550000X2.500000*%
%ADD17C,3.000000*%
%ADD18C,3.987800*%
%ADD19C,1.701800*%
%ADD20O,1.700000X1.700000*%
%ADD21R,1.700000X1.700000*%
%ADD22R,0.900000X1.200000*%
G04 APERTURE END LIST*
D10*
G36*
X84500000Y-101049398D02*
G01*
X84475466Y-101049398D01*
X84426635Y-101044588D01*
X84378510Y-101035016D01*
X84331555Y-101020772D01*
X84286222Y-101001995D01*
X84242949Y-100978864D01*
X84202150Y-100951604D01*
X84164221Y-100920476D01*
X84129524Y-100885779D01*
X84098396Y-100847850D01*
X84071136Y-100807051D01*
X84048005Y-100763778D01*
X84029228Y-100718445D01*
X84014984Y-100671490D01*
X84005412Y-100623365D01*
X84000602Y-100574534D01*
X84000602Y-100550000D01*
X84000000Y-100550000D01*
X84000000Y-100050000D01*
X84000602Y-100050000D01*
X84000602Y-100025466D01*
X84005412Y-99976635D01*
X84014984Y-99928510D01*
X84029228Y-99881555D01*
X84048005Y-99836222D01*
X84071136Y-99792949D01*
X84098396Y-99752150D01*
X84129524Y-99714221D01*
X84164221Y-99679524D01*
X84202150Y-99648396D01*
X84242949Y-99621136D01*
X84286222Y-99598005D01*
X84331555Y-99579228D01*
X84378510Y-99564984D01*
X84426635Y-99555412D01*
X84475466Y-99550602D01*
X84500000Y-99550602D01*
X84500000Y-99550000D01*
X85000000Y-99550000D01*
X85000000Y-101050000D01*
X84500000Y-101050000D01*
X84500000Y-101049398D01*
G37*
G36*
X85300000Y-99550000D02*
G01*
X85800000Y-99550000D01*
X85800000Y-99550602D01*
X85824534Y-99550602D01*
X85873365Y-99555412D01*
X85921490Y-99564984D01*
X85968445Y-99579228D01*
X86013778Y-99598005D01*
X86057051Y-99621136D01*
X86097850Y-99648396D01*
X86135779Y-99679524D01*
X86170476Y-99714221D01*
X86201604Y-99752150D01*
X86228864Y-99792949D01*
X86251995Y-99836222D01*
X86270772Y-99881555D01*
X86285016Y-99928510D01*
X86294588Y-99976635D01*
X86299398Y-100025466D01*
X86299398Y-100050000D01*
X86300000Y-100050000D01*
X86300000Y-100550000D01*
X86299398Y-100550000D01*
X86299398Y-100574534D01*
X86294588Y-100623365D01*
X86285016Y-100671490D01*
X86270772Y-100718445D01*
X86251995Y-100763778D01*
X86228864Y-100807051D01*
X86201604Y-100847850D01*
X86170476Y-100885779D01*
X86135779Y-100920476D01*
X86097850Y-100951604D01*
X86057051Y-100978864D01*
X86013778Y-101001995D01*
X85968445Y-101020772D01*
X85921490Y-101035016D01*
X85873365Y-101044588D01*
X85824534Y-101049398D01*
X85800000Y-101049398D01*
X85800000Y-101050000D01*
X85300000Y-101050000D01*
X85300000Y-99550000D01*
G37*
G36*
X85800000Y-95950602D02*
G01*
X85824534Y-95950602D01*
X85873365Y-95955412D01*
X85921490Y-95964984D01*
X85968445Y-95979228D01*
X86013778Y-95998005D01*
X86057051Y-96021136D01*
X86097850Y-96048396D01*
X86135779Y-96079524D01*
X86170476Y-96114221D01*
X86201604Y-96152150D01*
X86228864Y-96192949D01*
X86251995Y-96236222D01*
X86270772Y-96281555D01*
X86285016Y-96328510D01*
X86294588Y-96376635D01*
X86299398Y-96425466D01*
X86299398Y-96450000D01*
X86300000Y-96450000D01*
X86300000Y-96950000D01*
X86299398Y-96950000D01*
X86299398Y-96974534D01*
X86294588Y-97023365D01*
X86285016Y-97071490D01*
X86270772Y-97118445D01*
X86251995Y-97163778D01*
X86228864Y-97207051D01*
X86201604Y-97247850D01*
X86170476Y-97285779D01*
X86135779Y-97320476D01*
X86097850Y-97351604D01*
X86057051Y-97378864D01*
X86013778Y-97401995D01*
X85968445Y-97420772D01*
X85921490Y-97435016D01*
X85873365Y-97444588D01*
X85824534Y-97449398D01*
X85800000Y-97449398D01*
X85800000Y-97450000D01*
X85300000Y-97450000D01*
X85300000Y-95950000D01*
X85800000Y-95950000D01*
X85800000Y-95950602D01*
G37*
G36*
X85000000Y-97450000D02*
G01*
X84500000Y-97450000D01*
X84500000Y-97449398D01*
X84475466Y-97449398D01*
X84426635Y-97444588D01*
X84378510Y-97435016D01*
X84331555Y-97420772D01*
X84286222Y-97401995D01*
X84242949Y-97378864D01*
X84202150Y-97351604D01*
X84164221Y-97320476D01*
X84129524Y-97285779D01*
X84098396Y-97247850D01*
X84071136Y-97207051D01*
X84048005Y-97163778D01*
X84029228Y-97118445D01*
X84014984Y-97071490D01*
X84005412Y-97023365D01*
X84000602Y-96974534D01*
X84000602Y-96950000D01*
X84000000Y-96950000D01*
X84000000Y-96450000D01*
X84000602Y-96450000D01*
X84000602Y-96425466D01*
X84005412Y-96376635D01*
X84014984Y-96328510D01*
X84029228Y-96281555D01*
X84048005Y-96236222D01*
X84071136Y-96192949D01*
X84098396Y-96152150D01*
X84129524Y-96114221D01*
X84164221Y-96079524D01*
X84202150Y-96048396D01*
X84242949Y-96021136D01*
X84286222Y-95998005D01*
X84331555Y-95979228D01*
X84378510Y-95964984D01*
X84426635Y-95955412D01*
X84475466Y-95950602D01*
X84500000Y-95950602D01*
X84500000Y-95950000D01*
X85000000Y-95950000D01*
X85000000Y-97450000D01*
G37*
G36*
X85800000Y-92350602D02*
G01*
X85824534Y-92350602D01*
X85873365Y-92355412D01*
X85921490Y-92364984D01*
X85968445Y-92379228D01*
X86013778Y-92398005D01*
X86057051Y-92421136D01*
X86097850Y-92448396D01*
X86135779Y-92479524D01*
X86170476Y-92514221D01*
X86201604Y-92552150D01*
X86228864Y-92592949D01*
X86251995Y-92636222D01*
X86270772Y-92681555D01*
X86285016Y-92728510D01*
X86294588Y-92776635D01*
X86299398Y-92825466D01*
X86299398Y-92850000D01*
X86300000Y-92850000D01*
X86300000Y-93350000D01*
X86299398Y-93350000D01*
X86299398Y-93374534D01*
X86294588Y-93423365D01*
X86285016Y-93471490D01*
X86270772Y-93518445D01*
X86251995Y-93563778D01*
X86228864Y-93607051D01*
X86201604Y-93647850D01*
X86170476Y-93685779D01*
X86135779Y-93720476D01*
X86097850Y-93751604D01*
X86057051Y-93778864D01*
X86013778Y-93801995D01*
X85968445Y-93820772D01*
X85921490Y-93835016D01*
X85873365Y-93844588D01*
X85824534Y-93849398D01*
X85800000Y-93849398D01*
X85800000Y-93850000D01*
X85300000Y-93850000D01*
X85300000Y-92350000D01*
X85800000Y-92350000D01*
X85800000Y-92350602D01*
G37*
G36*
X85000000Y-93850000D02*
G01*
X84500000Y-93850000D01*
X84500000Y-93849398D01*
X84475466Y-93849398D01*
X84426635Y-93844588D01*
X84378510Y-93835016D01*
X84331555Y-93820772D01*
X84286222Y-93801995D01*
X84242949Y-93778864D01*
X84202150Y-93751604D01*
X84164221Y-93720476D01*
X84129524Y-93685779D01*
X84098396Y-93647850D01*
X84071136Y-93607051D01*
X84048005Y-93563778D01*
X84029228Y-93518445D01*
X84014984Y-93471490D01*
X84005412Y-93423365D01*
X84000602Y-93374534D01*
X84000602Y-93350000D01*
X84000000Y-93350000D01*
X84000000Y-92850000D01*
X84000602Y-92850000D01*
X84000602Y-92825466D01*
X84005412Y-92776635D01*
X84014984Y-92728510D01*
X84029228Y-92681555D01*
X84048005Y-92636222D01*
X84071136Y-92592949D01*
X84098396Y-92552150D01*
X84129524Y-92514221D01*
X84164221Y-92479524D01*
X84202150Y-92448396D01*
X84242949Y-92421136D01*
X84286222Y-92398005D01*
X84331555Y-92379228D01*
X84378510Y-92364984D01*
X84426635Y-92355412D01*
X84475466Y-92350602D01*
X84500000Y-92350602D01*
X84500000Y-92350000D01*
X85000000Y-92350000D01*
X85000000Y-93850000D01*
G37*
G36*
X84500000Y-90249398D02*
G01*
X84475466Y-90249398D01*
X84426635Y-90244588D01*
X84378510Y-90235016D01*
X84331555Y-90220772D01*
X84286222Y-90201995D01*
X84242949Y-90178864D01*
X84202150Y-90151604D01*
X84164221Y-90120476D01*
X84129524Y-90085779D01*
X84098396Y-90047850D01*
X84071136Y-90007051D01*
X84048005Y-89963778D01*
X84029228Y-89918445D01*
X84014984Y-89871490D01*
X84005412Y-89823365D01*
X84000602Y-89774534D01*
X84000602Y-89750000D01*
X84000000Y-89750000D01*
X84000000Y-89250000D01*
X84000602Y-89250000D01*
X84000602Y-89225466D01*
X84005412Y-89176635D01*
X84014984Y-89128510D01*
X84029228Y-89081555D01*
X84048005Y-89036222D01*
X84071136Y-88992949D01*
X84098396Y-88952150D01*
X84129524Y-88914221D01*
X84164221Y-88879524D01*
X84202150Y-88848396D01*
X84242949Y-88821136D01*
X84286222Y-88798005D01*
X84331555Y-88779228D01*
X84378510Y-88764984D01*
X84426635Y-88755412D01*
X84475466Y-88750602D01*
X84500000Y-88750602D01*
X84500000Y-88750000D01*
X85000000Y-88750000D01*
X85000000Y-90250000D01*
X84500000Y-90250000D01*
X84500000Y-90249398D01*
G37*
G36*
X85300000Y-88750000D02*
G01*
X85800000Y-88750000D01*
X85800000Y-88750602D01*
X85824534Y-88750602D01*
X85873365Y-88755412D01*
X85921490Y-88764984D01*
X85968445Y-88779228D01*
X86013778Y-88798005D01*
X86057051Y-88821136D01*
X86097850Y-88848396D01*
X86135779Y-88879524D01*
X86170476Y-88914221D01*
X86201604Y-88952150D01*
X86228864Y-88992949D01*
X86251995Y-89036222D01*
X86270772Y-89081555D01*
X86285016Y-89128510D01*
X86294588Y-89176635D01*
X86299398Y-89225466D01*
X86299398Y-89250000D01*
X86300000Y-89250000D01*
X86300000Y-89750000D01*
X86299398Y-89750000D01*
X86299398Y-89774534D01*
X86294588Y-89823365D01*
X86285016Y-89871490D01*
X86270772Y-89918445D01*
X86251995Y-89963778D01*
X86228864Y-90007051D01*
X86201604Y-90047850D01*
X86170476Y-90085779D01*
X86135779Y-90120476D01*
X86097850Y-90151604D01*
X86057051Y-90178864D01*
X86013778Y-90201995D01*
X85968445Y-90220772D01*
X85921490Y-90235016D01*
X85873365Y-90244588D01*
X85824534Y-90249398D01*
X85800000Y-90249398D01*
X85800000Y-90250000D01*
X85300000Y-90250000D01*
X85300000Y-88750000D01*
G37*
G36*
G01*
X89575000Y-90462500D02*
X89575000Y-90937500D01*
G75*
G02*
X89337500Y-91175000I-237500J0D01*
G01*
X88737500Y-91175000D01*
G75*
G02*
X88500000Y-90937500I0J237500D01*
G01*
X88500000Y-90462500D01*
G75*
G02*
X88737500Y-90225000I237500J0D01*
G01*
X89337500Y-90225000D01*
G75*
G02*
X89575000Y-90462500I0J-237500D01*
G01*
G37*
G36*
G01*
X91300000Y-90462500D02*
X91300000Y-90937500D01*
G75*
G02*
X91062500Y-91175000I-237500J0D01*
G01*
X90462500Y-91175000D01*
G75*
G02*
X90225000Y-90937500I0J237500D01*
G01*
X90225000Y-90462500D01*
G75*
G02*
X90462500Y-90225000I237500J0D01*
G01*
X91062500Y-90225000D01*
G75*
G02*
X91300000Y-90462500I0J-237500D01*
G01*
G37*
G36*
G01*
X213650000Y-112950000D02*
X213650000Y-111350000D01*
G75*
G02*
X213850000Y-111150000I200000J0D01*
G01*
X214250000Y-111150000D01*
G75*
G02*
X214450000Y-111350000I0J-200000D01*
G01*
X214450000Y-112950000D01*
G75*
G02*
X214250000Y-113150000I-200000J0D01*
G01*
X213850000Y-113150000D01*
G75*
G02*
X213650000Y-112950000I0J200000D01*
G01*
G37*
G36*
G01*
X217850000Y-112950000D02*
X217850000Y-111350000D01*
G75*
G02*
X218050000Y-111150000I200000J0D01*
G01*
X218450000Y-111150000D01*
G75*
G02*
X218650000Y-111350000I0J-200000D01*
G01*
X218650000Y-112950000D01*
G75*
G02*
X218450000Y-113150000I-200000J0D01*
G01*
X218050000Y-113150000D01*
G75*
G02*
X217850000Y-112950000I0J200000D01*
G01*
G37*
D11*
X222165200Y-78200000D03*
X220234800Y-77550001D03*
X220234800Y-78849999D03*
D12*
X140750000Y-126450000D03*
X92550000Y-126950000D03*
X224950000Y-111550000D03*
X187350000Y-55750000D03*
X86550000Y-81150000D03*
D13*
X219430000Y-105570000D03*
X222330000Y-105570000D03*
X222330000Y-103270000D03*
X219430000Y-103270000D03*
D14*
X224880000Y-86090000D03*
X224080000Y-86090000D03*
X223280000Y-86090000D03*
X222480000Y-86090000D03*
X221680000Y-86090000D03*
X220880000Y-86090000D03*
X220080000Y-86090000D03*
X219280000Y-86090000D03*
X218480000Y-86090000D03*
X217680000Y-86090000D03*
X216880000Y-86090000D03*
D15*
X215180000Y-87790000D03*
X215180000Y-88590000D03*
X215180000Y-89390000D03*
X215180000Y-90190000D03*
X215180000Y-90990000D03*
X215180000Y-91790000D03*
X215180000Y-92590000D03*
X215180000Y-93390000D03*
X215180000Y-94190000D03*
X215180000Y-94990000D03*
X215180000Y-95790000D03*
D14*
X216880000Y-97490000D03*
X217680000Y-97490000D03*
X218480000Y-97490000D03*
X219280000Y-97490000D03*
X220080000Y-97490000D03*
X220880000Y-97490000D03*
X221680000Y-97490000D03*
X222480000Y-97490000D03*
X223280000Y-97490000D03*
X224080000Y-97490000D03*
X224880000Y-97490000D03*
D15*
X226580000Y-95790000D03*
X226580000Y-94990000D03*
X226580000Y-94190000D03*
X226580000Y-93390000D03*
X226580000Y-92590000D03*
X226580000Y-91790000D03*
X226580000Y-90990000D03*
X226580000Y-90190000D03*
X226580000Y-89390000D03*
X226580000Y-88590000D03*
X226580000Y-87790000D03*
G36*
G01*
X212962500Y-83125000D02*
X213437500Y-83125000D01*
G75*
G02*
X213675000Y-83362500I0J-237500D01*
G01*
X213675000Y-83862500D01*
G75*
G02*
X213437500Y-84100000I-237500J0D01*
G01*
X212962500Y-84100000D01*
G75*
G02*
X212725000Y-83862500I0J237500D01*
G01*
X212725000Y-83362500D01*
G75*
G02*
X212962500Y-83125000I237500J0D01*
G01*
G37*
G36*
G01*
X212962500Y-81300000D02*
X213437500Y-81300000D01*
G75*
G02*
X213675000Y-81537500I0J-237500D01*
G01*
X213675000Y-82037500D01*
G75*
G02*
X213437500Y-82275000I-237500J0D01*
G01*
X212962500Y-82275000D01*
G75*
G02*
X212725000Y-82037500I0J237500D01*
G01*
X212725000Y-81537500D01*
G75*
G02*
X212962500Y-81300000I237500J0D01*
G01*
G37*
G36*
G01*
X226962500Y-98900000D02*
X227437500Y-98900000D01*
G75*
G02*
X227675000Y-99137500I0J-237500D01*
G01*
X227675000Y-99637500D01*
G75*
G02*
X227437500Y-99875000I-237500J0D01*
G01*
X226962500Y-99875000D01*
G75*
G02*
X226725000Y-99637500I0J237500D01*
G01*
X226725000Y-99137500D01*
G75*
G02*
X226962500Y-98900000I237500J0D01*
G01*
G37*
G36*
G01*
X226962500Y-100725000D02*
X227437500Y-100725000D01*
G75*
G02*
X227675000Y-100962500I0J-237500D01*
G01*
X227675000Y-101462500D01*
G75*
G02*
X227437500Y-101700000I-237500J0D01*
G01*
X226962500Y-101700000D01*
G75*
G02*
X226725000Y-101462500I0J237500D01*
G01*
X226725000Y-100962500D01*
G75*
G02*
X226962500Y-100725000I237500J0D01*
G01*
G37*
G36*
G01*
X218325000Y-80937500D02*
X218325000Y-80462500D01*
G75*
G02*
X218562500Y-80225000I237500J0D01*
G01*
X219062500Y-80225000D01*
G75*
G02*
X219300000Y-80462500I0J-237500D01*
G01*
X219300000Y-80937500D01*
G75*
G02*
X219062500Y-81175000I-237500J0D01*
G01*
X218562500Y-81175000D01*
G75*
G02*
X218325000Y-80937500I0J237500D01*
G01*
G37*
G36*
G01*
X216500000Y-80937500D02*
X216500000Y-80462500D01*
G75*
G02*
X216737500Y-80225000I237500J0D01*
G01*
X217237500Y-80225000D01*
G75*
G02*
X217475000Y-80462500I0J-237500D01*
G01*
X217475000Y-80937500D01*
G75*
G02*
X217237500Y-81175000I-237500J0D01*
G01*
X216737500Y-81175000D01*
G75*
G02*
X216500000Y-80937500I0J237500D01*
G01*
G37*
G36*
G01*
X221875000Y-80462500D02*
X221875000Y-80937500D01*
G75*
G02*
X221637500Y-81175000I-237500J0D01*
G01*
X221137500Y-81175000D01*
G75*
G02*
X220900000Y-80937500I0J237500D01*
G01*
X220900000Y-80462500D01*
G75*
G02*
X221137500Y-80225000I237500J0D01*
G01*
X221637500Y-80225000D01*
G75*
G02*
X221875000Y-80462500I0J-237500D01*
G01*
G37*
G36*
G01*
X223700000Y-80462500D02*
X223700000Y-80937500D01*
G75*
G02*
X223462500Y-81175000I-237500J0D01*
G01*
X222962500Y-81175000D01*
G75*
G02*
X222725000Y-80937500I0J237500D01*
G01*
X222725000Y-80462500D01*
G75*
G02*
X222962500Y-80225000I237500J0D01*
G01*
X223462500Y-80225000D01*
G75*
G02*
X223700000Y-80462500I0J-237500D01*
G01*
G37*
D16*
X95090000Y-134460000D03*
D17*
X91340000Y-134460000D03*
X84990000Y-137000000D03*
D18*
X88800000Y-139540000D03*
D19*
X93880000Y-139540000D03*
X83720000Y-139540000D03*
D16*
X81240000Y-137000000D03*
X112090000Y-130460000D03*
D17*
X108340000Y-130460000D03*
X101990000Y-133000000D03*
D18*
X105800000Y-135540000D03*
D19*
X110880000Y-135540000D03*
X100720000Y-135540000D03*
D16*
X98240000Y-133000000D03*
X129090000Y-130460000D03*
D17*
X125340000Y-130460000D03*
X118990000Y-133000000D03*
D18*
X122800000Y-135540000D03*
D19*
X127880000Y-135540000D03*
X117720000Y-135540000D03*
D16*
X115240000Y-133000000D03*
X146090000Y-133460000D03*
D17*
X142340000Y-133460000D03*
X135990000Y-136000000D03*
D18*
X139800000Y-138540000D03*
D19*
X144880000Y-138540000D03*
X134720000Y-138540000D03*
D16*
X132240000Y-136000000D03*
X191090000Y-128020000D03*
D17*
X187340000Y-128020000D03*
X180990000Y-130560000D03*
D18*
X184800000Y-133100000D03*
D19*
X189880000Y-133100000D03*
X179720000Y-133100000D03*
D16*
X177240000Y-130560000D03*
X103090000Y-109290000D03*
D17*
X99340000Y-109290000D03*
X92990000Y-111830000D03*
D18*
X96800000Y-114370000D03*
D19*
X101880000Y-114370000D03*
X91720000Y-114370000D03*
D16*
X89240000Y-111830000D03*
X123090000Y-112290000D03*
D17*
X119340000Y-112290000D03*
X112990000Y-114830000D03*
D18*
X116800000Y-117370000D03*
D19*
X121880000Y-117370000D03*
X111720000Y-117370000D03*
D16*
X109240000Y-114830000D03*
X140090000Y-109290000D03*
D17*
X136340000Y-109290000D03*
X129990000Y-111830000D03*
D18*
X133800000Y-114370000D03*
D19*
X138880000Y-114370000D03*
X128720000Y-114370000D03*
D16*
X126240000Y-111830000D03*
X157090000Y-104460000D03*
D17*
X153340000Y-104460000D03*
X146990000Y-107000000D03*
D18*
X150800000Y-109540000D03*
D19*
X155880000Y-109540000D03*
X145720000Y-109540000D03*
D16*
X143240000Y-107000000D03*
X174090000Y-103760000D03*
D17*
X170340000Y-103760000D03*
X163990000Y-106300000D03*
D18*
X167800000Y-108840000D03*
D19*
X172880000Y-108840000D03*
X162720000Y-108840000D03*
D16*
X160240000Y-106300000D03*
X191090000Y-112020000D03*
D17*
X187340000Y-112020000D03*
X180990000Y-114560000D03*
D18*
X184800000Y-117100000D03*
D19*
X189880000Y-117100000D03*
X179720000Y-117100000D03*
D16*
X177240000Y-114560000D03*
X208090000Y-117020000D03*
D17*
X204340000Y-117020000D03*
X197990000Y-119560000D03*
D18*
X201800000Y-122100000D03*
D19*
X206880000Y-122100000D03*
X196720000Y-122100000D03*
D16*
X194240000Y-119560000D03*
X225090000Y-119020000D03*
D17*
X221340000Y-119020000D03*
X214990000Y-121560000D03*
D18*
X218800000Y-124100000D03*
D19*
X223880000Y-124100000D03*
X213720000Y-124100000D03*
D16*
X211240000Y-121560000D03*
X103090000Y-93290000D03*
D17*
X99340000Y-93290000D03*
X92990000Y-95830000D03*
D18*
X96800000Y-98370000D03*
D19*
X101880000Y-98370000D03*
X91720000Y-98370000D03*
D16*
X89240000Y-95830000D03*
X123090000Y-96290000D03*
D17*
X119340000Y-96290000D03*
X112990000Y-98830000D03*
D18*
X116800000Y-101370000D03*
D19*
X121880000Y-101370000D03*
X111720000Y-101370000D03*
D16*
X109240000Y-98830000D03*
X126240000Y-95830000D03*
D19*
X128720000Y-98370000D03*
X138880000Y-98370000D03*
D18*
X133800000Y-98370000D03*
D17*
X129990000Y-95830000D03*
X136340000Y-93290000D03*
D16*
X140090000Y-93290000D03*
X157090000Y-88460000D03*
D17*
X153340000Y-88460000D03*
X146990000Y-91000000D03*
D18*
X150800000Y-93540000D03*
D19*
X155880000Y-93540000D03*
X145720000Y-93540000D03*
D16*
X143240000Y-91000000D03*
X174090000Y-87760000D03*
D17*
X170340000Y-87760000D03*
X163990000Y-90300000D03*
D18*
X167800000Y-92840000D03*
D19*
X172880000Y-92840000D03*
X162720000Y-92840000D03*
D16*
X160240000Y-90300000D03*
X191090000Y-96020000D03*
D17*
X187340000Y-96020000D03*
X180990000Y-98560000D03*
D18*
X184800000Y-101100000D03*
D19*
X189880000Y-101100000D03*
X179720000Y-101100000D03*
D16*
X177240000Y-98560000D03*
X208090000Y-97020000D03*
D17*
X204340000Y-97020000D03*
X197990000Y-99560000D03*
D18*
X201800000Y-102100000D03*
D19*
X206880000Y-102100000D03*
X196720000Y-102100000D03*
D16*
X194240000Y-99560000D03*
X123090000Y-80290000D03*
D17*
X119340000Y-80290000D03*
X112990000Y-82830000D03*
D18*
X116800000Y-85370000D03*
D19*
X121880000Y-85370000D03*
X111720000Y-85370000D03*
D16*
X109240000Y-82830000D03*
X140090000Y-77290000D03*
D17*
X136340000Y-77290000D03*
X129990000Y-79830000D03*
D18*
X133800000Y-82370000D03*
D19*
X138880000Y-82370000D03*
X128720000Y-82370000D03*
D16*
X126240000Y-79830000D03*
X157090000Y-72460000D03*
D17*
X153340000Y-72460000D03*
X146990000Y-75000000D03*
D18*
X150800000Y-77540000D03*
D19*
X155880000Y-77540000D03*
X145720000Y-77540000D03*
D16*
X143240000Y-75000000D03*
X174090000Y-71760000D03*
D17*
X170340000Y-71760000D03*
X163990000Y-74300000D03*
D18*
X167800000Y-76840000D03*
D19*
X172880000Y-76840000D03*
X162720000Y-76840000D03*
D16*
X160240000Y-74300000D03*
X191090000Y-80020000D03*
D17*
X187340000Y-80020000D03*
X180990000Y-82560000D03*
D18*
X184800000Y-85100000D03*
D19*
X189880000Y-85100000D03*
X179720000Y-85100000D03*
D16*
X177240000Y-82560000D03*
X208090000Y-81020000D03*
D17*
X204340000Y-81020000D03*
X197990000Y-83560000D03*
D18*
X201800000Y-86100000D03*
D19*
X206880000Y-86100000D03*
X196720000Y-86100000D03*
D16*
X194240000Y-83560000D03*
X123090000Y-64290000D03*
D17*
X119340000Y-64290000D03*
X112990000Y-66830000D03*
D18*
X116800000Y-69370000D03*
D19*
X121880000Y-69370000D03*
X111720000Y-69370000D03*
D16*
X109240000Y-66830000D03*
X140090000Y-61290000D03*
D17*
X136340000Y-61290000D03*
X129990000Y-63830000D03*
D18*
X133800000Y-66370000D03*
D19*
X138880000Y-66370000D03*
X128720000Y-66370000D03*
D16*
X126240000Y-63830000D03*
X157090000Y-56460000D03*
D17*
X153340000Y-56460000D03*
X146990000Y-59000000D03*
D18*
X150800000Y-61540000D03*
D19*
X155880000Y-61540000D03*
X145720000Y-61540000D03*
D16*
X143240000Y-59000000D03*
X174090000Y-55760000D03*
D17*
X170340000Y-55760000D03*
X163990000Y-58300000D03*
D18*
X167800000Y-60840000D03*
D19*
X172880000Y-60840000D03*
X162720000Y-60840000D03*
D16*
X160240000Y-58300000D03*
X191090000Y-64020000D03*
D17*
X187340000Y-64020000D03*
X180990000Y-66560000D03*
D18*
X184800000Y-69100000D03*
D19*
X189880000Y-69100000D03*
X179720000Y-69100000D03*
D16*
X177240000Y-66560000D03*
X208090000Y-65020000D03*
D17*
X204340000Y-65020000D03*
X197990000Y-67560000D03*
D18*
X201800000Y-70100000D03*
D19*
X206880000Y-70100000D03*
X196720000Y-70100000D03*
D16*
X194240000Y-67560000D03*
D20*
X89370000Y-88130000D03*
X91910000Y-88130000D03*
X94450000Y-88130000D03*
D21*
X96990000Y-88130000D03*
D20*
X100620000Y-88100000D03*
X103160000Y-88100000D03*
D21*
X105700000Y-88100000D03*
D20*
X216280000Y-74800000D03*
X218820000Y-74800000D03*
X221360000Y-74800000D03*
D21*
X223900000Y-74800000D03*
G36*
G01*
X212600000Y-76062500D02*
X213400000Y-76062500D01*
G75*
G02*
X213650000Y-76312500I0J-250000D01*
G01*
X213650000Y-77137500D01*
G75*
G02*
X213400000Y-77387500I-250000J0D01*
G01*
X212600000Y-77387500D01*
G75*
G02*
X212350000Y-77137500I0J250000D01*
G01*
X212350000Y-76312500D01*
G75*
G02*
X212600000Y-76062500I250000J0D01*
G01*
G37*
G36*
G01*
X212600000Y-74137500D02*
X213400000Y-74137500D01*
G75*
G02*
X213650000Y-74387500I0J-250000D01*
G01*
X213650000Y-75212500D01*
G75*
G02*
X213400000Y-75462500I-250000J0D01*
G01*
X212600000Y-75462500D01*
G75*
G02*
X212350000Y-75212500I0J250000D01*
G01*
X212350000Y-74387500D01*
G75*
G02*
X212600000Y-74137500I250000J0D01*
G01*
G37*
D22*
X90500000Y-143750000D03*
X87200000Y-143750000D03*
X98400000Y-118650000D03*
X95100000Y-118650000D03*
X98400000Y-102650000D03*
X95100000Y-102650000D03*
X107400000Y-139850000D03*
X104100000Y-139850000D03*
X118400000Y-121650000D03*
X115100000Y-121650000D03*
X118400000Y-105650000D03*
X115100000Y-105650000D03*
X118400000Y-89650000D03*
X115100000Y-89650000D03*
X118400000Y-73650000D03*
X115100000Y-73650000D03*
X124500000Y-139820000D03*
X121200000Y-139820000D03*
X135400000Y-118650000D03*
X132100000Y-118650000D03*
X135400000Y-102650000D03*
X132100000Y-102650000D03*
X135400000Y-86450000D03*
X132100000Y-86450000D03*
X135400000Y-70550000D03*
X132100000Y-70550000D03*
X141400000Y-142650000D03*
X138100000Y-142650000D03*
X152400000Y-113650000D03*
X149100000Y-113650000D03*
X152400000Y-97750000D03*
X149100000Y-97750000D03*
X152400000Y-81650000D03*
X149100000Y-81650000D03*
X152400000Y-65650000D03*
X149100000Y-65650000D03*
X169400000Y-113050000D03*
X166100000Y-113050000D03*
X169400000Y-96950000D03*
X166100000Y-96950000D03*
X169400000Y-80950000D03*
X166100000Y-80950000D03*
X169400000Y-64950000D03*
X166100000Y-64950000D03*
X186400000Y-137350000D03*
X183100000Y-137350000D03*
X186400000Y-121250000D03*
X183100000Y-121250000D03*
X186400000Y-105350000D03*
X183100000Y-105350000D03*
X186400000Y-89250000D03*
X183100000Y-89250000D03*
X186400000Y-73250000D03*
X183100000Y-73250000D03*
X203400000Y-126150000D03*
X200100000Y-126150000D03*
X203400000Y-106250000D03*
X200100000Y-106250000D03*
X203400000Y-90250000D03*
X200100000Y-90250000D03*
X203400000Y-74250000D03*
X200100000Y-74250000D03*
X220300000Y-128350000D03*
X217000000Y-128350000D03*
G36*
G01*
X223237500Y-100062500D02*
X223237500Y-100537500D01*
G75*
G02*
X223000000Y-100775000I-237500J0D01*
G01*
X222400000Y-100775000D01*
G75*
G02*
X222162500Y-100537500I0J237500D01*
G01*
X222162500Y-100062500D01*
G75*
G02*
X222400000Y-99825000I237500J0D01*
G01*
X223000000Y-99825000D01*
G75*
G02*
X223237500Y-100062500I0J-237500D01*
G01*
G37*
G36*
G01*
X224962500Y-100062500D02*
X224962500Y-100537500D01*
G75*
G02*
X224725000Y-100775000I-237500J0D01*
G01*
X224125000Y-100775000D01*
G75*
G02*
X223887500Y-100537500I0J237500D01*
G01*
X223887500Y-100062500D01*
G75*
G02*
X224125000Y-99825000I237500J0D01*
G01*
X224725000Y-99825000D01*
G75*
G02*
X224962500Y-100062500I0J-237500D01*
G01*
G37*
G36*
G01*
X212062500Y-96162500D02*
X212537500Y-96162500D01*
G75*
G02*
X212775000Y-96400000I0J-237500D01*
G01*
X212775000Y-97000000D01*
G75*
G02*
X212537500Y-97237500I-237500J0D01*
G01*
X212062500Y-97237500D01*
G75*
G02*
X211825000Y-97000000I0J237500D01*
G01*
X211825000Y-96400000D01*
G75*
G02*
X212062500Y-96162500I237500J0D01*
G01*
G37*
G36*
G01*
X212062500Y-94437500D02*
X212537500Y-94437500D01*
G75*
G02*
X212775000Y-94675000I0J-237500D01*
G01*
X212775000Y-95275000D01*
G75*
G02*
X212537500Y-95512500I-237500J0D01*
G01*
X212062500Y-95512500D01*
G75*
G02*
X211825000Y-95275000I0J237500D01*
G01*
X211825000Y-94675000D01*
G75*
G02*
X212062500Y-94437500I237500J0D01*
G01*
G37*
G36*
G01*
X228937500Y-91175000D02*
X228462500Y-91175000D01*
G75*
G02*
X228225000Y-90937500I0J237500D01*
G01*
X228225000Y-90337500D01*
G75*
G02*
X228462500Y-90100000I237500J0D01*
G01*
X228937500Y-90100000D01*
G75*
G02*
X229175000Y-90337500I0J-237500D01*
G01*
X229175000Y-90937500D01*
G75*
G02*
X228937500Y-91175000I-237500J0D01*
G01*
G37*
G36*
G01*
X228937500Y-92900000D02*
X228462500Y-92900000D01*
G75*
G02*
X228225000Y-92662500I0J237500D01*
G01*
X228225000Y-92062500D01*
G75*
G02*
X228462500Y-91825000I237500J0D01*
G01*
X228937500Y-91825000D01*
G75*
G02*
X229175000Y-92062500I0J-237500D01*
G01*
X229175000Y-92662500D01*
G75*
G02*
X228937500Y-92900000I-237500J0D01*
G01*
G37*
G36*
G01*
X225337500Y-104175000D02*
X224862500Y-104175000D01*
G75*
G02*
X224625000Y-103937500I0J237500D01*
G01*
X224625000Y-103337500D01*
G75*
G02*
X224862500Y-103100000I237500J0D01*
G01*
X225337500Y-103100000D01*
G75*
G02*
X225575000Y-103337500I0J-237500D01*
G01*
X225575000Y-103937500D01*
G75*
G02*
X225337500Y-104175000I-237500J0D01*
G01*
G37*
G36*
G01*
X225337500Y-105900000D02*
X224862500Y-105900000D01*
G75*
G02*
X224625000Y-105662500I0J237500D01*
G01*
X224625000Y-105062500D01*
G75*
G02*
X224862500Y-104825000I237500J0D01*
G01*
X225337500Y-104825000D01*
G75*
G02*
X225575000Y-105062500I0J-237500D01*
G01*
X225575000Y-105662500D01*
G75*
G02*
X225337500Y-105900000I-237500J0D01*
G01*
G37*
G36*
G01*
X216462500Y-104687500D02*
X216937500Y-104687500D01*
G75*
G02*
X217175000Y-104925000I0J-237500D01*
G01*
X217175000Y-105525000D01*
G75*
G02*
X216937500Y-105762500I-237500J0D01*
G01*
X216462500Y-105762500D01*
G75*
G02*
X216225000Y-105525000I0J237500D01*
G01*
X216225000Y-104925000D01*
G75*
G02*
X216462500Y-104687500I237500J0D01*
G01*
G37*
G36*
G01*
X216462500Y-102962500D02*
X216937500Y-102962500D01*
G75*
G02*
X217175000Y-103200000I0J-237500D01*
G01*
X217175000Y-103800000D01*
G75*
G02*
X216937500Y-104037500I-237500J0D01*
G01*
X216462500Y-104037500D01*
G75*
G02*
X216225000Y-103800000I0J237500D01*
G01*
X216225000Y-103200000D01*
G75*
G02*
X216462500Y-102962500I237500J0D01*
G01*
G37*
G36*
G01*
X224112500Y-83062500D02*
X224112500Y-83537500D01*
G75*
G02*
X223875000Y-83775000I-237500J0D01*
G01*
X223275000Y-83775000D01*
G75*
G02*
X223037500Y-83537500I0J237500D01*
G01*
X223037500Y-83062500D01*
G75*
G02*
X223275000Y-82825000I237500J0D01*
G01*
X223875000Y-82825000D01*
G75*
G02*
X224112500Y-83062500I0J-237500D01*
G01*
G37*
G36*
G01*
X225837500Y-83062500D02*
X225837500Y-83537500D01*
G75*
G02*
X225600000Y-83775000I-237500J0D01*
G01*
X225000000Y-83775000D01*
G75*
G02*
X224762500Y-83537500I0J237500D01*
G01*
X224762500Y-83062500D01*
G75*
G02*
X225000000Y-82825000I237500J0D01*
G01*
X225600000Y-82825000D01*
G75*
G02*
X225837500Y-83062500I0J-237500D01*
G01*
G37*
G36*
G01*
X217162500Y-83537500D02*
X217162500Y-83062500D01*
G75*
G02*
X217400000Y-82825000I237500J0D01*
G01*
X218000000Y-82825000D01*
G75*
G02*
X218237500Y-83062500I0J-237500D01*
G01*
X218237500Y-83537500D01*
G75*
G02*
X218000000Y-83775000I-237500J0D01*
G01*
X217400000Y-83775000D01*
G75*
G02*
X217162500Y-83537500I0J237500D01*
G01*
G37*
G36*
G01*
X215437500Y-83537500D02*
X215437500Y-83062500D01*
G75*
G02*
X215675000Y-82825000I237500J0D01*
G01*
X216275000Y-82825000D01*
G75*
G02*
X216512500Y-83062500I0J-237500D01*
G01*
X216512500Y-83537500D01*
G75*
G02*
X216275000Y-83775000I-237500J0D01*
G01*
X215675000Y-83775000D01*
G75*
G02*
X215437500Y-83537500I0J237500D01*
G01*
G37*
G36*
G01*
X228462500Y-95225000D02*
X228937500Y-95225000D01*
G75*
G02*
X229175000Y-95462500I0J-237500D01*
G01*
X229175000Y-96062500D01*
G75*
G02*
X228937500Y-96300000I-237500J0D01*
G01*
X228462500Y-96300000D01*
G75*
G02*
X228225000Y-96062500I0J237500D01*
G01*
X228225000Y-95462500D01*
G75*
G02*
X228462500Y-95225000I237500J0D01*
G01*
G37*
G36*
G01*
X228462500Y-93500000D02*
X228937500Y-93500000D01*
G75*
G02*
X229175000Y-93737500I0J-237500D01*
G01*
X229175000Y-94337500D01*
G75*
G02*
X228937500Y-94575000I-237500J0D01*
G01*
X228462500Y-94575000D01*
G75*
G02*
X228225000Y-94337500I0J237500D01*
G01*
X228225000Y-93737500D01*
G75*
G02*
X228462500Y-93500000I237500J0D01*
G01*
G37*
G36*
G01*
X211037500Y-75412500D02*
X210562500Y-75412500D01*
G75*
G02*
X210325000Y-75175000I0J237500D01*
G01*
X210325000Y-74575000D01*
G75*
G02*
X210562500Y-74337500I237500J0D01*
G01*
X211037500Y-74337500D01*
G75*
G02*
X211275000Y-74575000I0J-237500D01*
G01*
X211275000Y-75175000D01*
G75*
G02*
X211037500Y-75412500I-237500J0D01*
G01*
G37*
G36*
G01*
X211037500Y-77137500D02*
X210562500Y-77137500D01*
G75*
G02*
X210325000Y-76900000I0J237500D01*
G01*
X210325000Y-76300000D01*
G75*
G02*
X210562500Y-76062500I237500J0D01*
G01*
X211037500Y-76062500D01*
G75*
G02*
X211275000Y-76300000I0J-237500D01*
G01*
X211275000Y-76900000D01*
G75*
G02*
X211037500Y-77137500I-237500J0D01*
G01*
G37*
M02*
