G04 #@! TF.GenerationSoftware,KiCad,Pcbnew,(5.1.7)-1*
G04 #@! TF.CreationDate,2020-12-30T19:43:11-05:00*
G04 #@! TF.ProjectId,snowflake,736e6f77-666c-4616-9b65-2e6b69636164,rev?*
G04 #@! TF.SameCoordinates,Original*
G04 #@! TF.FileFunction,Profile,NP*
%FSLAX46Y46*%
G04 Gerber Fmt 4.6, Leading zero omitted, Abs format (unit mm)*
G04 Created by KiCad (PCBNEW (5.1.7)-1) date 2020-12-30 19:43:11*
%MOMM*%
%LPD*%
G01*
G04 APERTURE LIST*
G04 #@! TA.AperFunction,Profile*
%ADD10C,0.050000*%
G04 #@! TD*
G04 APERTURE END LIST*
D10*
X163500000Y-147700000D02*
G75*
G02*
X161500000Y-145700000I0J2000000D01*
G01*
X229100000Y-77100000D02*
G75*
G02*
X231100000Y-79100000I0J-2000000D01*
G01*
X208000000Y-77100000D02*
G75*
G02*
X206000000Y-75100000I0J2000000D01*
G01*
X204000000Y-59500000D02*
G75*
G02*
X206000000Y-61500000I0J-2000000D01*
G01*
X187900000Y-59500000D02*
G75*
G02*
X187150000Y-58750000I0J750000D01*
G01*
X186400000Y-58000000D02*
G75*
G02*
X187150000Y-58750000I0J-750000D01*
G01*
X172250000Y-54400000D02*
X172250000Y-56000000D01*
X170250000Y-52400000D02*
G75*
G02*
X172250000Y-54400000I0J-2000000D01*
G01*
X174250000Y-58000000D02*
G75*
G02*
X172250000Y-56000000I0J2000000D01*
G01*
X119200000Y-54400000D02*
X119200000Y-56800000D01*
X119200000Y-54400000D02*
G75*
G02*
X121200000Y-52400000I2000000J0D01*
G01*
X119200000Y-56800000D02*
G75*
G02*
X117200000Y-58800000I-2000000J0D01*
G01*
X98450000Y-60800000D02*
X98450000Y-62500000D01*
X98450000Y-60800000D02*
G75*
G02*
X100450000Y-58800000I2000000J0D01*
G01*
X98450000Y-62500000D02*
G75*
G02*
X96450000Y-64500000I-2000000J0D01*
G01*
X81300000Y-66500000D02*
G75*
G02*
X83300000Y-64500000I2000000J0D01*
G01*
X83300000Y-133300000D02*
G75*
G02*
X81300000Y-131300000I0J2000000D01*
G01*
X100350000Y-132300000D02*
G75*
G02*
X99350000Y-133300000I-1000000J0D01*
G01*
X100350000Y-132300000D02*
G75*
G02*
X101350000Y-131300000I1000000J0D01*
G01*
X114500000Y-131300000D02*
G75*
G02*
X116500000Y-133300000I0J-2000000D01*
G01*
X118500000Y-142300000D02*
G75*
G02*
X116500000Y-140300000I0J2000000D01*
G01*
X135700000Y-140300000D02*
G75*
G02*
X133700000Y-142300000I-2000000J0D01*
G01*
X135700000Y-121200000D02*
G75*
G02*
X137700000Y-119200000I2000000J0D01*
G01*
X159500000Y-119200000D02*
G75*
G02*
X161500000Y-121200000I0J-2000000D01*
G01*
X179350000Y-146200000D02*
G75*
G02*
X177850000Y-147700000I-1500000J0D01*
G01*
X179350000Y-146200000D02*
G75*
G02*
X180850000Y-144700000I1500000J0D01*
G01*
X216350000Y-148700000D02*
G75*
G02*
X214350000Y-146700000I0J2000000D01*
G01*
X212350000Y-144700000D02*
G75*
G02*
X214350000Y-146700000I0J-2000000D01*
G01*
X231100000Y-146700000D02*
G75*
G02*
X229100000Y-148700000I-2000000J0D01*
G01*
X216350000Y-148700000D02*
X229100000Y-148700000D01*
X180850000Y-144700000D02*
X212350000Y-144700000D01*
X163500000Y-147700000D02*
X177850000Y-147700000D01*
X161500000Y-121200000D02*
X161500000Y-145700000D01*
X137700000Y-119200000D02*
X159500000Y-119200000D01*
X135700000Y-140300000D02*
X135700000Y-121200000D01*
X118500000Y-142300000D02*
X133700000Y-142300000D01*
X116500000Y-133300000D02*
X116500000Y-140300000D01*
X101350000Y-131300000D02*
X114500000Y-131300000D01*
X83300000Y-133300000D02*
X99350000Y-133300000D01*
X81300000Y-66500000D02*
X81300000Y-131300000D01*
X96450000Y-64500000D02*
X83300000Y-64500000D01*
X117200000Y-58800000D02*
X100450000Y-58800000D01*
X170250000Y-52400000D02*
X121200000Y-52400000D01*
X186400000Y-58000000D02*
X174250000Y-58000000D01*
X204000000Y-59500000D02*
X187900000Y-59500000D01*
X206000000Y-75100000D02*
X206000000Y-61500000D01*
X229100000Y-77100000D02*
X208000000Y-77100000D01*
X231100000Y-146700000D02*
X231100000Y-79100000D01*
M02*
