G04 #@! TF.GenerationSoftware,KiCad,Pcbnew,(5.1.7)-1*
G04 #@! TF.CreationDate,2020-12-30T19:43:10-05:00*
G04 #@! TF.ProjectId,snowflake,736e6f77-666c-4616-9b65-2e6b69636164,rev?*
G04 #@! TF.SameCoordinates,Original*
G04 #@! TF.FileFunction,Paste,Bot*
G04 #@! TF.FilePolarity,Positive*
%FSLAX46Y46*%
G04 Gerber Fmt 4.6, Leading zero omitted, Abs format (unit mm)*
G04 Created by KiCad (PCBNEW (5.1.7)-1) date 2020-12-30 19:43:10*
%MOMM*%
%LPD*%
G01*
G04 APERTURE LIST*
%ADD10R,1.168400X0.355600*%
%ADD11R,2.100000X1.800000*%
%ADD12R,0.550000X1.500000*%
%ADD13R,1.500000X0.550000*%
%ADD14R,2.550000X2.500000*%
%ADD15R,0.900000X1.200000*%
G04 APERTURE END LIST*
G36*
G01*
X92500000Y-114100000D02*
X92500000Y-112500000D01*
G75*
G02*
X92700000Y-112300000I200000J0D01*
G01*
X93100000Y-112300000D01*
G75*
G02*
X93300000Y-112500000I0J-200000D01*
G01*
X93300000Y-114100000D01*
G75*
G02*
X93100000Y-114300000I-200000J0D01*
G01*
X92700000Y-114300000D01*
G75*
G02*
X92500000Y-114100000I0J200000D01*
G01*
G37*
G36*
G01*
X96700000Y-114100000D02*
X96700000Y-112500000D01*
G75*
G02*
X96900000Y-112300000I200000J0D01*
G01*
X97300000Y-112300000D01*
G75*
G02*
X97500000Y-112500000I0J-200000D01*
G01*
X97500000Y-114100000D01*
G75*
G02*
X97300000Y-114300000I-200000J0D01*
G01*
X96900000Y-114300000D01*
G75*
G02*
X96700000Y-114100000I0J200000D01*
G01*
G37*
D10*
X95065200Y-80400000D03*
X93134800Y-79750001D03*
X93134800Y-81049999D03*
D11*
X92330000Y-107770000D03*
X95230000Y-107770000D03*
X95230000Y-105470000D03*
X92330000Y-105470000D03*
D12*
X97780000Y-88290000D03*
X96980000Y-88290000D03*
X96180000Y-88290000D03*
X95380000Y-88290000D03*
X94580000Y-88290000D03*
X93780000Y-88290000D03*
X92980000Y-88290000D03*
X92180000Y-88290000D03*
X91380000Y-88290000D03*
X90580000Y-88290000D03*
X89780000Y-88290000D03*
D13*
X88080000Y-89990000D03*
X88080000Y-90790000D03*
X88080000Y-91590000D03*
X88080000Y-92390000D03*
X88080000Y-93190000D03*
X88080000Y-93990000D03*
X88080000Y-94790000D03*
X88080000Y-95590000D03*
X88080000Y-96390000D03*
X88080000Y-97190000D03*
X88080000Y-97990000D03*
D12*
X89780000Y-99690000D03*
X90580000Y-99690000D03*
X91380000Y-99690000D03*
X92180000Y-99690000D03*
X92980000Y-99690000D03*
X93780000Y-99690000D03*
X94580000Y-99690000D03*
X95380000Y-99690000D03*
X96180000Y-99690000D03*
X96980000Y-99690000D03*
X97780000Y-99690000D03*
D13*
X99480000Y-97990000D03*
X99480000Y-97190000D03*
X99480000Y-96390000D03*
X99480000Y-95590000D03*
X99480000Y-94790000D03*
X99480000Y-93990000D03*
X99480000Y-93190000D03*
X99480000Y-92390000D03*
X99480000Y-91590000D03*
X99480000Y-90790000D03*
X99480000Y-89990000D03*
G36*
G01*
X84962500Y-89412500D02*
X85437500Y-89412500D01*
G75*
G02*
X85675000Y-89650000I0J-237500D01*
G01*
X85675000Y-90150000D01*
G75*
G02*
X85437500Y-90387500I-237500J0D01*
G01*
X84962500Y-90387500D01*
G75*
G02*
X84725000Y-90150000I0J237500D01*
G01*
X84725000Y-89650000D01*
G75*
G02*
X84962500Y-89412500I237500J0D01*
G01*
G37*
G36*
G01*
X84962500Y-87587500D02*
X85437500Y-87587500D01*
G75*
G02*
X85675000Y-87825000I0J-237500D01*
G01*
X85675000Y-88325000D01*
G75*
G02*
X85437500Y-88562500I-237500J0D01*
G01*
X84962500Y-88562500D01*
G75*
G02*
X84725000Y-88325000I0J237500D01*
G01*
X84725000Y-87825000D01*
G75*
G02*
X84962500Y-87587500I237500J0D01*
G01*
G37*
G36*
G01*
X104037500Y-112587500D02*
X103562500Y-112587500D01*
G75*
G02*
X103325000Y-112350000I0J237500D01*
G01*
X103325000Y-111850000D01*
G75*
G02*
X103562500Y-111612500I237500J0D01*
G01*
X104037500Y-111612500D01*
G75*
G02*
X104275000Y-111850000I0J-237500D01*
G01*
X104275000Y-112350000D01*
G75*
G02*
X104037500Y-112587500I-237500J0D01*
G01*
G37*
G36*
G01*
X104037500Y-114412500D02*
X103562500Y-114412500D01*
G75*
G02*
X103325000Y-114175000I0J237500D01*
G01*
X103325000Y-113675000D01*
G75*
G02*
X103562500Y-113437500I237500J0D01*
G01*
X104037500Y-113437500D01*
G75*
G02*
X104275000Y-113675000I0J-237500D01*
G01*
X104275000Y-114175000D01*
G75*
G02*
X104037500Y-114412500I-237500J0D01*
G01*
G37*
G36*
G01*
X91225000Y-83137500D02*
X91225000Y-82662500D01*
G75*
G02*
X91462500Y-82425000I237500J0D01*
G01*
X91962500Y-82425000D01*
G75*
G02*
X92200000Y-82662500I0J-237500D01*
G01*
X92200000Y-83137500D01*
G75*
G02*
X91962500Y-83375000I-237500J0D01*
G01*
X91462500Y-83375000D01*
G75*
G02*
X91225000Y-83137500I0J237500D01*
G01*
G37*
G36*
G01*
X89400000Y-83137500D02*
X89400000Y-82662500D01*
G75*
G02*
X89637500Y-82425000I237500J0D01*
G01*
X90137500Y-82425000D01*
G75*
G02*
X90375000Y-82662500I0J-237500D01*
G01*
X90375000Y-83137500D01*
G75*
G02*
X90137500Y-83375000I-237500J0D01*
G01*
X89637500Y-83375000D01*
G75*
G02*
X89400000Y-83137500I0J237500D01*
G01*
G37*
G36*
G01*
X94775000Y-82662500D02*
X94775000Y-83137500D01*
G75*
G02*
X94537500Y-83375000I-237500J0D01*
G01*
X94037500Y-83375000D01*
G75*
G02*
X93800000Y-83137500I0J237500D01*
G01*
X93800000Y-82662500D01*
G75*
G02*
X94037500Y-82425000I237500J0D01*
G01*
X94537500Y-82425000D01*
G75*
G02*
X94775000Y-82662500I0J-237500D01*
G01*
G37*
G36*
G01*
X96600000Y-82662500D02*
X96600000Y-83137500D01*
G75*
G02*
X96362500Y-83375000I-237500J0D01*
G01*
X95862500Y-83375000D01*
G75*
G02*
X95625000Y-83137500I0J237500D01*
G01*
X95625000Y-82662500D01*
G75*
G02*
X95862500Y-82425000I237500J0D01*
G01*
X96362500Y-82425000D01*
G75*
G02*
X96600000Y-82662500I0J-237500D01*
G01*
G37*
D14*
X214790000Y-138150000D03*
X228640000Y-135610000D03*
X197790000Y-134150000D03*
X211640000Y-131610000D03*
X180790000Y-134150000D03*
X194640000Y-131610000D03*
X163790000Y-137150000D03*
X177640000Y-134610000D03*
X118790000Y-131710000D03*
X132640000Y-129170000D03*
X206790000Y-112980000D03*
X220640000Y-110440000D03*
X186790000Y-115980000D03*
X200640000Y-113440000D03*
X169790000Y-112980000D03*
X183640000Y-110440000D03*
X152790000Y-108150000D03*
X166640000Y-105610000D03*
X135790000Y-107450000D03*
X149640000Y-104910000D03*
X118790000Y-115710000D03*
X132640000Y-113170000D03*
X101790000Y-120710000D03*
X115640000Y-118170000D03*
X84790000Y-122710000D03*
X98640000Y-120170000D03*
X206790000Y-96980000D03*
X220640000Y-94440000D03*
X186790000Y-99980000D03*
X200640000Y-97440000D03*
X183640000Y-94440000D03*
X169790000Y-96980000D03*
X152790000Y-92150000D03*
X166640000Y-89610000D03*
X135790000Y-91450000D03*
X149640000Y-88910000D03*
X118790000Y-99710000D03*
X132640000Y-97170000D03*
X101790000Y-100710000D03*
X115640000Y-98170000D03*
X186790000Y-83980000D03*
X200640000Y-81440000D03*
X169790000Y-80980000D03*
X183640000Y-78440000D03*
X152790000Y-76150000D03*
X166640000Y-73610000D03*
X135790000Y-75450000D03*
X149640000Y-72910000D03*
X118790000Y-83710000D03*
X132640000Y-81170000D03*
X101790000Y-84710000D03*
X115640000Y-82170000D03*
X186790000Y-67980000D03*
X200640000Y-65440000D03*
X169790000Y-64980000D03*
X183640000Y-62440000D03*
X152790000Y-60150000D03*
X166640000Y-57610000D03*
X135790000Y-59450000D03*
X149640000Y-56910000D03*
X118790000Y-67710000D03*
X132640000Y-65170000D03*
X101790000Y-68710000D03*
X115640000Y-66170000D03*
G36*
G01*
X85499999Y-78262500D02*
X86300001Y-78262500D01*
G75*
G02*
X86550000Y-78512499I0J-249999D01*
G01*
X86550000Y-79337501D01*
G75*
G02*
X86300001Y-79587500I-249999J0D01*
G01*
X85499999Y-79587500D01*
G75*
G02*
X85250000Y-79337501I0J249999D01*
G01*
X85250000Y-78512499D01*
G75*
G02*
X85499999Y-78262500I249999J0D01*
G01*
G37*
G36*
G01*
X85499999Y-76337500D02*
X86300001Y-76337500D01*
G75*
G02*
X86550000Y-76587499I0J-249999D01*
G01*
X86550000Y-77412501D01*
G75*
G02*
X86300001Y-77662500I-249999J0D01*
G01*
X85499999Y-77662500D01*
G75*
G02*
X85250000Y-77412501I0J249999D01*
G01*
X85250000Y-76587499D01*
G75*
G02*
X85499999Y-76337500I249999J0D01*
G01*
G37*
D15*
X220650000Y-144900000D03*
X223950000Y-144900000D03*
X212750000Y-119800000D03*
X216050000Y-119800000D03*
X212750000Y-103800000D03*
X216050000Y-103800000D03*
X203750000Y-141000000D03*
X207050000Y-141000000D03*
X192750000Y-122800000D03*
X196050000Y-122800000D03*
X192750000Y-106800000D03*
X196050000Y-106800000D03*
X192750000Y-90800000D03*
X196050000Y-90800000D03*
X192750000Y-74800000D03*
X196050000Y-74800000D03*
X186650000Y-140970000D03*
X189950000Y-140970000D03*
X175750000Y-119800000D03*
X179050000Y-119800000D03*
X175750000Y-103800000D03*
X179050000Y-103800000D03*
X175750000Y-87600000D03*
X179050000Y-87600000D03*
X175750000Y-71700000D03*
X179050000Y-71700000D03*
X169750000Y-143800000D03*
X173050000Y-143800000D03*
X158750000Y-114800000D03*
X162050000Y-114800000D03*
X158750000Y-98900000D03*
X162050000Y-98900000D03*
X158750000Y-82800000D03*
X162050000Y-82800000D03*
X158750000Y-66800000D03*
X162050000Y-66800000D03*
X141750000Y-114200000D03*
X145050000Y-114200000D03*
X141750000Y-98100000D03*
X145050000Y-98100000D03*
X141750000Y-82100000D03*
X145050000Y-82100000D03*
X141750000Y-66100000D03*
X145050000Y-66100000D03*
X124750000Y-138500000D03*
X128050000Y-138500000D03*
X124750000Y-122400000D03*
X128050000Y-122400000D03*
X124750000Y-106500000D03*
X128050000Y-106500000D03*
X124750000Y-90400000D03*
X128050000Y-90400000D03*
X124750000Y-74400000D03*
X128050000Y-74400000D03*
X107750000Y-127300000D03*
X111050000Y-127300000D03*
X107750000Y-107400000D03*
X111050000Y-107400000D03*
X107750000Y-91400000D03*
X111050000Y-91400000D03*
X107750000Y-75400000D03*
X111050000Y-75400000D03*
X90850000Y-129500000D03*
X94150000Y-129500000D03*
G36*
G01*
X96137500Y-102262500D02*
X96137500Y-102737500D01*
G75*
G02*
X95900000Y-102975000I-237500J0D01*
G01*
X95300000Y-102975000D01*
G75*
G02*
X95062500Y-102737500I0J237500D01*
G01*
X95062500Y-102262500D01*
G75*
G02*
X95300000Y-102025000I237500J0D01*
G01*
X95900000Y-102025000D01*
G75*
G02*
X96137500Y-102262500I0J-237500D01*
G01*
G37*
G36*
G01*
X97862500Y-102262500D02*
X97862500Y-102737500D01*
G75*
G02*
X97625000Y-102975000I-237500J0D01*
G01*
X97025000Y-102975000D01*
G75*
G02*
X96787500Y-102737500I0J237500D01*
G01*
X96787500Y-102262500D01*
G75*
G02*
X97025000Y-102025000I237500J0D01*
G01*
X97625000Y-102025000D01*
G75*
G02*
X97862500Y-102262500I0J-237500D01*
G01*
G37*
G36*
G01*
X84962500Y-98362500D02*
X85437500Y-98362500D01*
G75*
G02*
X85675000Y-98600000I0J-237500D01*
G01*
X85675000Y-99200000D01*
G75*
G02*
X85437500Y-99437500I-237500J0D01*
G01*
X84962500Y-99437500D01*
G75*
G02*
X84725000Y-99200000I0J237500D01*
G01*
X84725000Y-98600000D01*
G75*
G02*
X84962500Y-98362500I237500J0D01*
G01*
G37*
G36*
G01*
X84962500Y-96637500D02*
X85437500Y-96637500D01*
G75*
G02*
X85675000Y-96875000I0J-237500D01*
G01*
X85675000Y-97475000D01*
G75*
G02*
X85437500Y-97712500I-237500J0D01*
G01*
X84962500Y-97712500D01*
G75*
G02*
X84725000Y-97475000I0J237500D01*
G01*
X84725000Y-96875000D01*
G75*
G02*
X84962500Y-96637500I237500J0D01*
G01*
G37*
G36*
G01*
X103525000Y-93137500D02*
X103525000Y-92662500D01*
G75*
G02*
X103762500Y-92425000I237500J0D01*
G01*
X104362500Y-92425000D01*
G75*
G02*
X104600000Y-92662500I0J-237500D01*
G01*
X104600000Y-93137500D01*
G75*
G02*
X104362500Y-93375000I-237500J0D01*
G01*
X103762500Y-93375000D01*
G75*
G02*
X103525000Y-93137500I0J237500D01*
G01*
G37*
G36*
G01*
X101800000Y-93137500D02*
X101800000Y-92662500D01*
G75*
G02*
X102037500Y-92425000I237500J0D01*
G01*
X102637500Y-92425000D01*
G75*
G02*
X102875000Y-92662500I0J-237500D01*
G01*
X102875000Y-93137500D01*
G75*
G02*
X102637500Y-93375000I-237500J0D01*
G01*
X102037500Y-93375000D01*
G75*
G02*
X101800000Y-93137500I0J237500D01*
G01*
G37*
G36*
G01*
X98237500Y-106375000D02*
X97762500Y-106375000D01*
G75*
G02*
X97525000Y-106137500I0J237500D01*
G01*
X97525000Y-105537500D01*
G75*
G02*
X97762500Y-105300000I237500J0D01*
G01*
X98237500Y-105300000D01*
G75*
G02*
X98475000Y-105537500I0J-237500D01*
G01*
X98475000Y-106137500D01*
G75*
G02*
X98237500Y-106375000I-237500J0D01*
G01*
G37*
G36*
G01*
X98237500Y-108100000D02*
X97762500Y-108100000D01*
G75*
G02*
X97525000Y-107862500I0J237500D01*
G01*
X97525000Y-107262500D01*
G75*
G02*
X97762500Y-107025000I237500J0D01*
G01*
X98237500Y-107025000D01*
G75*
G02*
X98475000Y-107262500I0J-237500D01*
G01*
X98475000Y-107862500D01*
G75*
G02*
X98237500Y-108100000I-237500J0D01*
G01*
G37*
G36*
G01*
X89362500Y-106887500D02*
X89837500Y-106887500D01*
G75*
G02*
X90075000Y-107125000I0J-237500D01*
G01*
X90075000Y-107725000D01*
G75*
G02*
X89837500Y-107962500I-237500J0D01*
G01*
X89362500Y-107962500D01*
G75*
G02*
X89125000Y-107725000I0J237500D01*
G01*
X89125000Y-107125000D01*
G75*
G02*
X89362500Y-106887500I237500J0D01*
G01*
G37*
G36*
G01*
X89362500Y-105162500D02*
X89837500Y-105162500D01*
G75*
G02*
X90075000Y-105400000I0J-237500D01*
G01*
X90075000Y-106000000D01*
G75*
G02*
X89837500Y-106237500I-237500J0D01*
G01*
X89362500Y-106237500D01*
G75*
G02*
X89125000Y-106000000I0J237500D01*
G01*
X89125000Y-105400000D01*
G75*
G02*
X89362500Y-105162500I237500J0D01*
G01*
G37*
G36*
G01*
X97012500Y-85262500D02*
X97012500Y-85737500D01*
G75*
G02*
X96775000Y-85975000I-237500J0D01*
G01*
X96175000Y-85975000D01*
G75*
G02*
X95937500Y-85737500I0J237500D01*
G01*
X95937500Y-85262500D01*
G75*
G02*
X96175000Y-85025000I237500J0D01*
G01*
X96775000Y-85025000D01*
G75*
G02*
X97012500Y-85262500I0J-237500D01*
G01*
G37*
G36*
G01*
X98737500Y-85262500D02*
X98737500Y-85737500D01*
G75*
G02*
X98500000Y-85975000I-237500J0D01*
G01*
X97900000Y-85975000D01*
G75*
G02*
X97662500Y-85737500I0J237500D01*
G01*
X97662500Y-85262500D01*
G75*
G02*
X97900000Y-85025000I237500J0D01*
G01*
X98500000Y-85025000D01*
G75*
G02*
X98737500Y-85262500I0J-237500D01*
G01*
G37*
G36*
G01*
X90062500Y-85737500D02*
X90062500Y-85262500D01*
G75*
G02*
X90300000Y-85025000I237500J0D01*
G01*
X90900000Y-85025000D01*
G75*
G02*
X91137500Y-85262500I0J-237500D01*
G01*
X91137500Y-85737500D01*
G75*
G02*
X90900000Y-85975000I-237500J0D01*
G01*
X90300000Y-85975000D01*
G75*
G02*
X90062500Y-85737500I0J237500D01*
G01*
G37*
G36*
G01*
X88337500Y-85737500D02*
X88337500Y-85262500D01*
G75*
G02*
X88575000Y-85025000I237500J0D01*
G01*
X89175000Y-85025000D01*
G75*
G02*
X89412500Y-85262500I0J-237500D01*
G01*
X89412500Y-85737500D01*
G75*
G02*
X89175000Y-85975000I-237500J0D01*
G01*
X88575000Y-85975000D01*
G75*
G02*
X88337500Y-85737500I0J237500D01*
G01*
G37*
G36*
G01*
X103525000Y-94937500D02*
X103525000Y-94462500D01*
G75*
G02*
X103762500Y-94225000I237500J0D01*
G01*
X104362500Y-94225000D01*
G75*
G02*
X104600000Y-94462500I0J-237500D01*
G01*
X104600000Y-94937500D01*
G75*
G02*
X104362500Y-95175000I-237500J0D01*
G01*
X103762500Y-95175000D01*
G75*
G02*
X103525000Y-94937500I0J237500D01*
G01*
G37*
G36*
G01*
X101800000Y-94937500D02*
X101800000Y-94462500D01*
G75*
G02*
X102037500Y-94225000I237500J0D01*
G01*
X102637500Y-94225000D01*
G75*
G02*
X102875000Y-94462500I0J-237500D01*
G01*
X102875000Y-94937500D01*
G75*
G02*
X102637500Y-95175000I-237500J0D01*
G01*
X102037500Y-95175000D01*
G75*
G02*
X101800000Y-94937500I0J237500D01*
G01*
G37*
G36*
G01*
X83937500Y-77612500D02*
X83462500Y-77612500D01*
G75*
G02*
X83225000Y-77375000I0J237500D01*
G01*
X83225000Y-76775000D01*
G75*
G02*
X83462500Y-76537500I237500J0D01*
G01*
X83937500Y-76537500D01*
G75*
G02*
X84175000Y-76775000I0J-237500D01*
G01*
X84175000Y-77375000D01*
G75*
G02*
X83937500Y-77612500I-237500J0D01*
G01*
G37*
G36*
G01*
X83937500Y-79337500D02*
X83462500Y-79337500D01*
G75*
G02*
X83225000Y-79100000I0J237500D01*
G01*
X83225000Y-78500000D01*
G75*
G02*
X83462500Y-78262500I237500J0D01*
G01*
X83937500Y-78262500D01*
G75*
G02*
X84175000Y-78500000I0J-237500D01*
G01*
X84175000Y-79100000D01*
G75*
G02*
X83937500Y-79337500I-237500J0D01*
G01*
G37*
M02*
