G04 #@! TF.GenerationSoftware,KiCad,Pcbnew,(5.1.7)-1*
G04 #@! TF.CreationDate,2020-12-30T19:43:10-05:00*
G04 #@! TF.ProjectId,snowflake,736e6f77-666c-4616-9b65-2e6b69636164,rev?*
G04 #@! TF.SameCoordinates,Original*
G04 #@! TF.FileFunction,Paste,Top*
G04 #@! TF.FilePolarity,Positive*
%FSLAX46Y46*%
G04 Gerber Fmt 4.6, Leading zero omitted, Abs format (unit mm)*
G04 Created by KiCad (PCBNEW (5.1.7)-1) date 2020-12-30 19:43:10*
%MOMM*%
%LPD*%
G01*
G04 APERTURE LIST*
%ADD10R,0.355600X1.168400*%
%ADD11R,0.600000X1.000000*%
G04 APERTURE END LIST*
G36*
G01*
X224362500Y-89025000D02*
X224837500Y-89025000D01*
G75*
G02*
X225075000Y-89262500I0J-237500D01*
G01*
X225075000Y-89862500D01*
G75*
G02*
X224837500Y-90100000I-237500J0D01*
G01*
X224362500Y-90100000D01*
G75*
G02*
X224125000Y-89862500I0J237500D01*
G01*
X224125000Y-89262500D01*
G75*
G02*
X224362500Y-89025000I237500J0D01*
G01*
G37*
G36*
G01*
X224362500Y-87300000D02*
X224837500Y-87300000D01*
G75*
G02*
X225075000Y-87537500I0J-237500D01*
G01*
X225075000Y-88137500D01*
G75*
G02*
X224837500Y-88375000I-237500J0D01*
G01*
X224362500Y-88375000D01*
G75*
G02*
X224125000Y-88137500I0J237500D01*
G01*
X224125000Y-87537500D01*
G75*
G02*
X224362500Y-87300000I237500J0D01*
G01*
G37*
D10*
X208249999Y-84334800D03*
X208899998Y-86265200D03*
X207600000Y-86265200D03*
G36*
G01*
X223275000Y-85462500D02*
X223275000Y-85937500D01*
G75*
G02*
X223037500Y-86175000I-237500J0D01*
G01*
X222537500Y-86175000D01*
G75*
G02*
X222300000Y-85937500I0J237500D01*
G01*
X222300000Y-85462500D01*
G75*
G02*
X222537500Y-85225000I237500J0D01*
G01*
X223037500Y-85225000D01*
G75*
G02*
X223275000Y-85462500I0J-237500D01*
G01*
G37*
G36*
G01*
X225100000Y-85462500D02*
X225100000Y-85937500D01*
G75*
G02*
X224862500Y-86175000I-237500J0D01*
G01*
X224362500Y-86175000D01*
G75*
G02*
X224125000Y-85937500I0J237500D01*
G01*
X224125000Y-85462500D01*
G75*
G02*
X224362500Y-85225000I237500J0D01*
G01*
X224862500Y-85225000D01*
G75*
G02*
X225100000Y-85462500I0J-237500D01*
G01*
G37*
D11*
X228325000Y-122000000D03*
X229625000Y-122000000D03*
X228325000Y-120000000D03*
X229625000Y-120000000D03*
X228325000Y-113000000D03*
X229625000Y-113000000D03*
X228325000Y-111000000D03*
X229625000Y-111000000D03*
X228325000Y-104000000D03*
X229625000Y-104000000D03*
X228325000Y-102000000D03*
X229625000Y-102000000D03*
X228325000Y-95000000D03*
X229625000Y-95000000D03*
X228325000Y-93000000D03*
X229625000Y-93000000D03*
G36*
G01*
X229237500Y-124937500D02*
X229237500Y-124462500D01*
G75*
G02*
X229475000Y-124225000I237500J0D01*
G01*
X230075000Y-124225000D01*
G75*
G02*
X230312500Y-124462500I0J-237500D01*
G01*
X230312500Y-124937500D01*
G75*
G02*
X230075000Y-125175000I-237500J0D01*
G01*
X229475000Y-125175000D01*
G75*
G02*
X229237500Y-124937500I0J237500D01*
G01*
G37*
G36*
G01*
X227512500Y-124937500D02*
X227512500Y-124462500D01*
G75*
G02*
X227750000Y-124225000I237500J0D01*
G01*
X228350000Y-124225000D01*
G75*
G02*
X228587500Y-124462500I0J-237500D01*
G01*
X228587500Y-124937500D01*
G75*
G02*
X228350000Y-125175000I-237500J0D01*
G01*
X227750000Y-125175000D01*
G75*
G02*
X227512500Y-124937500I0J237500D01*
G01*
G37*
G36*
G01*
X229237500Y-115937500D02*
X229237500Y-115462500D01*
G75*
G02*
X229475000Y-115225000I237500J0D01*
G01*
X230075000Y-115225000D01*
G75*
G02*
X230312500Y-115462500I0J-237500D01*
G01*
X230312500Y-115937500D01*
G75*
G02*
X230075000Y-116175000I-237500J0D01*
G01*
X229475000Y-116175000D01*
G75*
G02*
X229237500Y-115937500I0J237500D01*
G01*
G37*
G36*
G01*
X227512500Y-115937500D02*
X227512500Y-115462500D01*
G75*
G02*
X227750000Y-115225000I237500J0D01*
G01*
X228350000Y-115225000D01*
G75*
G02*
X228587500Y-115462500I0J-237500D01*
G01*
X228587500Y-115937500D01*
G75*
G02*
X228350000Y-116175000I-237500J0D01*
G01*
X227750000Y-116175000D01*
G75*
G02*
X227512500Y-115937500I0J237500D01*
G01*
G37*
G36*
G01*
X229300000Y-106937500D02*
X229300000Y-106462500D01*
G75*
G02*
X229537500Y-106225000I237500J0D01*
G01*
X230137500Y-106225000D01*
G75*
G02*
X230375000Y-106462500I0J-237500D01*
G01*
X230375000Y-106937500D01*
G75*
G02*
X230137500Y-107175000I-237500J0D01*
G01*
X229537500Y-107175000D01*
G75*
G02*
X229300000Y-106937500I0J237500D01*
G01*
G37*
G36*
G01*
X227575000Y-106937500D02*
X227575000Y-106462500D01*
G75*
G02*
X227812500Y-106225000I237500J0D01*
G01*
X228412500Y-106225000D01*
G75*
G02*
X228650000Y-106462500I0J-237500D01*
G01*
X228650000Y-106937500D01*
G75*
G02*
X228412500Y-107175000I-237500J0D01*
G01*
X227812500Y-107175000D01*
G75*
G02*
X227575000Y-106937500I0J237500D01*
G01*
G37*
G36*
G01*
X229300000Y-97937500D02*
X229300000Y-97462500D01*
G75*
G02*
X229537500Y-97225000I237500J0D01*
G01*
X230137500Y-97225000D01*
G75*
G02*
X230375000Y-97462500I0J-237500D01*
G01*
X230375000Y-97937500D01*
G75*
G02*
X230137500Y-98175000I-237500J0D01*
G01*
X229537500Y-98175000D01*
G75*
G02*
X229300000Y-97937500I0J237500D01*
G01*
G37*
G36*
G01*
X227575000Y-97937500D02*
X227575000Y-97462500D01*
G75*
G02*
X227812500Y-97225000I237500J0D01*
G01*
X228412500Y-97225000D01*
G75*
G02*
X228650000Y-97462500I0J-237500D01*
G01*
X228650000Y-97937500D01*
G75*
G02*
X228412500Y-98175000I-237500J0D01*
G01*
X227812500Y-98175000D01*
G75*
G02*
X227575000Y-97937500I0J237500D01*
G01*
G37*
M02*
