M48
; DRILL file {KiCad 5.1.7-a382d34a8~88~ubuntu18.04.1} date Tue Dec 29 21:04:09 2020
; FORMAT={-:-/ absolute / inch / decimal}
; #@! TF.CreationDate,2020-12-29T21:04:09-05:00
; #@! TF.GenerationSoftware,Kicad,Pcbnew,5.1.7-a382d34a8~88~ubuntu18.04.1
; #@! TF.FileFunction,Plated,1,2,PTH
FMAT,2
INCH
T1C0.0157
T2C0.0394
%
G90
G05
T1
X3.2992Y-3.2953
X3.3661Y-3.6772
X3.4291Y-3.1535
X3.4921Y-2.8031
X3.5197Y-3.1496
X3.5354Y-4.0394
X3.6299Y-3.4055
X3.6378Y-3.6339
X3.6378Y-4.0512
X3.6614Y-3.2638
X3.6732Y-3.6024
X3.6929Y-3.8031
X3.7008Y-3.5709
X3.7165Y-3.8386
X3.732Y-3.5435
X3.752Y-5.0315
X3.7559Y-3.3661
X3.7559Y-3.6496
X3.7717Y-3.5433
X3.8504Y-3.9882
X3.8661Y-4.0906
X3.8819Y-4.0354
X3.8976Y-3.9252
X3.9016Y-3.1181
X3.9134Y-3.4921
X3.937Y-4.4606
X3.9685Y-4.626
X4.0Y-4.3898
X4.0472Y-3.5866
X4.2047Y-4.5
X4.2205Y-3.878
X4.3031Y-5.0699
X4.4016Y-4.311
X4.4409Y-3.7047
X4.5Y-3.1181
X4.5354Y-4.2717
X4.5354Y-4.5472
X4.5394Y-3.5236
X4.5512Y-2.7283
X4.5906Y-3.1142
X4.5906Y-3.7441
X4.6614Y-4.2717
X4.6693Y-4.1614
X4.7008Y-5.4764
X4.748Y-3.0984
X4.7795Y-4.4055
X4.8346Y-3.4921
X4.8504Y-4.752
X4.8583Y-3.0984
X4.9134Y-4.4055
X4.9606Y-3.0984
X5.063Y-3.0039
X5.1102Y-4.7992
X5.2126Y-5.4528
X5.2598Y-2.6811
X5.2598Y-3.0906
X5.2598Y-3.689
X5.2598Y-4.3425
X5.2598Y-4.9488
X5.4331Y-4.0748
X5.4646Y-2.7598
X5.4724Y-3.1693
X5.5512Y-4.0748
X5.6142Y-2.2795
X5.7638Y-2.9882
X5.7874Y-3.9803
X5.8425Y-2.5394
X5.9213Y-2.3425
X5.9213Y-2.7441
X5.9213Y-3.3819
X5.9213Y-3.9882
X6.0945Y-4.0591
X6.189Y-3.1772
X6.2047Y-4.0591
X6.3071Y-2.7835
X6.3071Y-4.0591
X6.4882Y-4.9803
X6.4882Y-5.122
X6.5906Y-2.4055
X6.5906Y-2.7913
X6.5906Y-3.4134
X6.5906Y-4.0512
X6.6693Y-2.8937
X6.7402Y-4.2559
X6.8425Y-4.2559
X6.8583Y-3.3583
X6.9528Y-2.4213
X6.9528Y-4.2559
X6.9921Y-5.0827
X7.0709Y-5.4921
X7.1339Y-2.8937
X7.2677Y-2.5709
X7.2677Y-2.9724
X7.2677Y-3.6024
X7.2677Y-4.2402
X7.4488Y-5.0591
X7.5197Y-3.4921
X7.5827Y-5.0433
X7.8622Y-3.5197
X7.8898Y-3.0748
X7.937Y-3.9646
X7.937Y-4.3504
X7.9409Y-2.7008
X8.126Y-3.3583
X8.252Y-5.0512
X8.4646Y-4.9606
X8.4646Y-5.0472
X8.7559Y-4.0591
X8.8543Y-3.5748
X8.8898Y-3.4134
X8.9567Y-3.6142
X8.9911Y-3.7913
X8.9911Y-4.1457
X8.9911Y-4.5
X8.9911Y-4.8543
X9.0226Y-3.9409
X9.0226Y-4.3031
X9.0384Y-4.6575
T2
X8.0504Y-3.4921
X8.1504Y-3.4921
X8.2504Y-3.4921
X8.3504Y-3.4921
X8.5126Y-3.4921
X8.6126Y-3.4921
X8.7126Y-3.4921
X3.511Y-3.0315
X3.611Y-3.0315
X3.711Y-3.0315
X3.811Y-3.0315
T0
M30
