G04 #@! TF.GenerationSoftware,KiCad,Pcbnew,(5.1.7)-1*
G04 #@! TF.CreationDate,2020-12-30T19:43:11-05:00*
G04 #@! TF.ProjectId,snowflake,736e6f77-666c-4616-9b65-2e6b69636164,rev?*
G04 #@! TF.SameCoordinates,Original*
G04 #@! TF.FileFunction,Soldermask,Top*
G04 #@! TF.FilePolarity,Negative*
%FSLAX46Y46*%
G04 Gerber Fmt 4.6, Leading zero omitted, Abs format (unit mm)*
G04 Created by KiCad (PCBNEW (5.1.7)-1) date 2020-12-30 19:43:11*
%MOMM*%
%LPD*%
G01*
G04 APERTURE LIST*
%ADD10R,0.355600X1.168400*%
%ADD11C,2.200000*%
%ADD12C,1.701800*%
%ADD13C,3.987800*%
%ADD14C,3.000000*%
%ADD15O,1.700000X1.700000*%
%ADD16R,1.700000X1.700000*%
%ADD17R,0.600000X1.000000*%
G04 APERTURE END LIST*
G36*
G01*
X224362500Y-89025000D02*
X224837500Y-89025000D01*
G75*
G02*
X225075000Y-89262500I0J-237500D01*
G01*
X225075000Y-89862500D01*
G75*
G02*
X224837500Y-90100000I-237500J0D01*
G01*
X224362500Y-90100000D01*
G75*
G02*
X224125000Y-89862500I0J237500D01*
G01*
X224125000Y-89262500D01*
G75*
G02*
X224362500Y-89025000I237500J0D01*
G01*
G37*
G36*
G01*
X224362500Y-87300000D02*
X224837500Y-87300000D01*
G75*
G02*
X225075000Y-87537500I0J-237500D01*
G01*
X225075000Y-88137500D01*
G75*
G02*
X224837500Y-88375000I-237500J0D01*
G01*
X224362500Y-88375000D01*
G75*
G02*
X224125000Y-88137500I0J237500D01*
G01*
X224125000Y-87537500D01*
G75*
G02*
X224362500Y-87300000I237500J0D01*
G01*
G37*
D10*
X208249999Y-84334800D03*
X208899998Y-86265200D03*
X207600000Y-86265200D03*
D11*
X170400000Y-127600000D03*
X218600000Y-128100000D03*
X86200000Y-112700000D03*
X123800000Y-56900000D03*
X224600000Y-82300000D03*
G36*
G01*
X223275000Y-85462500D02*
X223275000Y-85937500D01*
G75*
G02*
X223037500Y-86175000I-237500J0D01*
G01*
X222537500Y-86175000D01*
G75*
G02*
X222300000Y-85937500I0J237500D01*
G01*
X222300000Y-85462500D01*
G75*
G02*
X222537500Y-85225000I237500J0D01*
G01*
X223037500Y-85225000D01*
G75*
G02*
X223275000Y-85462500I0J-237500D01*
G01*
G37*
G36*
G01*
X225100000Y-85462500D02*
X225100000Y-85937500D01*
G75*
G02*
X224862500Y-86175000I-237500J0D01*
G01*
X224362500Y-86175000D01*
G75*
G02*
X224125000Y-85937500I0J237500D01*
G01*
X224125000Y-85462500D01*
G75*
G02*
X224362500Y-85225000I237500J0D01*
G01*
X224862500Y-85225000D01*
G75*
G02*
X225100000Y-85462500I0J-237500D01*
G01*
G37*
D12*
X217270000Y-140690000D03*
X227430000Y-140690000D03*
D13*
X222350000Y-140690000D03*
D14*
X218540000Y-138150000D03*
X224890000Y-135610000D03*
D12*
X200270000Y-136690000D03*
X210430000Y-136690000D03*
D13*
X205350000Y-136690000D03*
D14*
X201540000Y-134150000D03*
X207890000Y-131610000D03*
D12*
X183270000Y-136690000D03*
X193430000Y-136690000D03*
D13*
X188350000Y-136690000D03*
D14*
X184540000Y-134150000D03*
X190890000Y-131610000D03*
D12*
X166270000Y-139690000D03*
X176430000Y-139690000D03*
D13*
X171350000Y-139690000D03*
D14*
X167540000Y-137150000D03*
X173890000Y-134610000D03*
D12*
X121270000Y-134250000D03*
X131430000Y-134250000D03*
D13*
X126350000Y-134250000D03*
D14*
X122540000Y-131710000D03*
X128890000Y-129170000D03*
D12*
X209270000Y-115520000D03*
X219430000Y-115520000D03*
D13*
X214350000Y-115520000D03*
D14*
X210540000Y-112980000D03*
X216890000Y-110440000D03*
D12*
X189270000Y-118520000D03*
X199430000Y-118520000D03*
D13*
X194350000Y-118520000D03*
D14*
X190540000Y-115980000D03*
X196890000Y-113440000D03*
D12*
X172270000Y-115520000D03*
X182430000Y-115520000D03*
D13*
X177350000Y-115520000D03*
D14*
X173540000Y-112980000D03*
X179890000Y-110440000D03*
D12*
X155270000Y-110690000D03*
X165430000Y-110690000D03*
D13*
X160350000Y-110690000D03*
D14*
X156540000Y-108150000D03*
X162890000Y-105610000D03*
D12*
X138270000Y-109990000D03*
X148430000Y-109990000D03*
D13*
X143350000Y-109990000D03*
D14*
X139540000Y-107450000D03*
X145890000Y-104910000D03*
D12*
X121270000Y-118250000D03*
X131430000Y-118250000D03*
D13*
X126350000Y-118250000D03*
D14*
X122540000Y-115710000D03*
X128890000Y-113170000D03*
D12*
X104270000Y-123250000D03*
X114430000Y-123250000D03*
D13*
X109350000Y-123250000D03*
D14*
X105540000Y-120710000D03*
X111890000Y-118170000D03*
D12*
X87270000Y-125250000D03*
X97430000Y-125250000D03*
D13*
X92350000Y-125250000D03*
D14*
X88540000Y-122710000D03*
X94890000Y-120170000D03*
D12*
X209270000Y-99520000D03*
X219430000Y-99520000D03*
D13*
X214350000Y-99520000D03*
D14*
X210540000Y-96980000D03*
X216890000Y-94440000D03*
D12*
X189270000Y-102520000D03*
X199430000Y-102520000D03*
D13*
X194350000Y-102520000D03*
D14*
X190540000Y-99980000D03*
X196890000Y-97440000D03*
X179890000Y-94440000D03*
X173540000Y-96980000D03*
D13*
X177350000Y-99520000D03*
D12*
X182430000Y-99520000D03*
X172270000Y-99520000D03*
X155270000Y-94690000D03*
X165430000Y-94690000D03*
D13*
X160350000Y-94690000D03*
D14*
X156540000Y-92150000D03*
X162890000Y-89610000D03*
D12*
X138270000Y-93990000D03*
X148430000Y-93990000D03*
D13*
X143350000Y-93990000D03*
D14*
X139540000Y-91450000D03*
X145890000Y-88910000D03*
D12*
X121270000Y-102250000D03*
X131430000Y-102250000D03*
D13*
X126350000Y-102250000D03*
D14*
X122540000Y-99710000D03*
X128890000Y-97170000D03*
D12*
X104270000Y-103250000D03*
X114430000Y-103250000D03*
D13*
X109350000Y-103250000D03*
D14*
X105540000Y-100710000D03*
X111890000Y-98170000D03*
D12*
X189270000Y-86520000D03*
X199430000Y-86520000D03*
D13*
X194350000Y-86520000D03*
D14*
X190540000Y-83980000D03*
X196890000Y-81440000D03*
D12*
X172270000Y-83520000D03*
X182430000Y-83520000D03*
D13*
X177350000Y-83520000D03*
D14*
X173540000Y-80980000D03*
X179890000Y-78440000D03*
D12*
X155270000Y-78690000D03*
X165430000Y-78690000D03*
D13*
X160350000Y-78690000D03*
D14*
X156540000Y-76150000D03*
X162890000Y-73610000D03*
D12*
X138270000Y-77990000D03*
X148430000Y-77990000D03*
D13*
X143350000Y-77990000D03*
D14*
X139540000Y-75450000D03*
X145890000Y-72910000D03*
D12*
X121270000Y-86250000D03*
X131430000Y-86250000D03*
D13*
X126350000Y-86250000D03*
D14*
X122540000Y-83710000D03*
X128890000Y-81170000D03*
D12*
X104270000Y-87250000D03*
X114430000Y-87250000D03*
D13*
X109350000Y-87250000D03*
D14*
X105540000Y-84710000D03*
X111890000Y-82170000D03*
D12*
X189270000Y-70520000D03*
X199430000Y-70520000D03*
D13*
X194350000Y-70520000D03*
D14*
X190540000Y-67980000D03*
X196890000Y-65440000D03*
D12*
X172270000Y-67520000D03*
X182430000Y-67520000D03*
D13*
X177350000Y-67520000D03*
D14*
X173540000Y-64980000D03*
X179890000Y-62440000D03*
D12*
X155270000Y-62690000D03*
X165430000Y-62690000D03*
D13*
X160350000Y-62690000D03*
D14*
X156540000Y-60150000D03*
X162890000Y-57610000D03*
D12*
X138270000Y-61990000D03*
X148430000Y-61990000D03*
D13*
X143350000Y-61990000D03*
D14*
X139540000Y-59450000D03*
X145890000Y-56910000D03*
D12*
X121270000Y-70250000D03*
X131430000Y-70250000D03*
D13*
X126350000Y-70250000D03*
D14*
X122540000Y-67710000D03*
X128890000Y-65170000D03*
D12*
X104270000Y-71250000D03*
X114430000Y-71250000D03*
D13*
X109350000Y-71250000D03*
D14*
X105540000Y-68710000D03*
X111890000Y-66170000D03*
D15*
X204480000Y-88700000D03*
X207020000Y-88700000D03*
X209560000Y-88700000D03*
D16*
X212100000Y-88700000D03*
D15*
X216220000Y-88700000D03*
X218760000Y-88700000D03*
D16*
X221300000Y-88700000D03*
D15*
X89180000Y-77000000D03*
X91720000Y-77000000D03*
X94260000Y-77000000D03*
D16*
X96800000Y-77000000D03*
D17*
X228325000Y-122000000D03*
X229625000Y-122000000D03*
X228325000Y-120000000D03*
X229625000Y-120000000D03*
X228325000Y-113000000D03*
X229625000Y-113000000D03*
X228325000Y-111000000D03*
X229625000Y-111000000D03*
X228325000Y-104000000D03*
X229625000Y-104000000D03*
X228325000Y-102000000D03*
X229625000Y-102000000D03*
X228325000Y-95000000D03*
X229625000Y-95000000D03*
X228325000Y-93000000D03*
X229625000Y-93000000D03*
G36*
G01*
X229237500Y-124937500D02*
X229237500Y-124462500D01*
G75*
G02*
X229475000Y-124225000I237500J0D01*
G01*
X230075000Y-124225000D01*
G75*
G02*
X230312500Y-124462500I0J-237500D01*
G01*
X230312500Y-124937500D01*
G75*
G02*
X230075000Y-125175000I-237500J0D01*
G01*
X229475000Y-125175000D01*
G75*
G02*
X229237500Y-124937500I0J237500D01*
G01*
G37*
G36*
G01*
X227512500Y-124937500D02*
X227512500Y-124462500D01*
G75*
G02*
X227750000Y-124225000I237500J0D01*
G01*
X228350000Y-124225000D01*
G75*
G02*
X228587500Y-124462500I0J-237500D01*
G01*
X228587500Y-124937500D01*
G75*
G02*
X228350000Y-125175000I-237500J0D01*
G01*
X227750000Y-125175000D01*
G75*
G02*
X227512500Y-124937500I0J237500D01*
G01*
G37*
G36*
G01*
X229237500Y-115937500D02*
X229237500Y-115462500D01*
G75*
G02*
X229475000Y-115225000I237500J0D01*
G01*
X230075000Y-115225000D01*
G75*
G02*
X230312500Y-115462500I0J-237500D01*
G01*
X230312500Y-115937500D01*
G75*
G02*
X230075000Y-116175000I-237500J0D01*
G01*
X229475000Y-116175000D01*
G75*
G02*
X229237500Y-115937500I0J237500D01*
G01*
G37*
G36*
G01*
X227512500Y-115937500D02*
X227512500Y-115462500D01*
G75*
G02*
X227750000Y-115225000I237500J0D01*
G01*
X228350000Y-115225000D01*
G75*
G02*
X228587500Y-115462500I0J-237500D01*
G01*
X228587500Y-115937500D01*
G75*
G02*
X228350000Y-116175000I-237500J0D01*
G01*
X227750000Y-116175000D01*
G75*
G02*
X227512500Y-115937500I0J237500D01*
G01*
G37*
G36*
G01*
X229300000Y-106937500D02*
X229300000Y-106462500D01*
G75*
G02*
X229537500Y-106225000I237500J0D01*
G01*
X230137500Y-106225000D01*
G75*
G02*
X230375000Y-106462500I0J-237500D01*
G01*
X230375000Y-106937500D01*
G75*
G02*
X230137500Y-107175000I-237500J0D01*
G01*
X229537500Y-107175000D01*
G75*
G02*
X229300000Y-106937500I0J237500D01*
G01*
G37*
G36*
G01*
X227575000Y-106937500D02*
X227575000Y-106462500D01*
G75*
G02*
X227812500Y-106225000I237500J0D01*
G01*
X228412500Y-106225000D01*
G75*
G02*
X228650000Y-106462500I0J-237500D01*
G01*
X228650000Y-106937500D01*
G75*
G02*
X228412500Y-107175000I-237500J0D01*
G01*
X227812500Y-107175000D01*
G75*
G02*
X227575000Y-106937500I0J237500D01*
G01*
G37*
G36*
G01*
X229300000Y-97937500D02*
X229300000Y-97462500D01*
G75*
G02*
X229537500Y-97225000I237500J0D01*
G01*
X230137500Y-97225000D01*
G75*
G02*
X230375000Y-97462500I0J-237500D01*
G01*
X230375000Y-97937500D01*
G75*
G02*
X230137500Y-98175000I-237500J0D01*
G01*
X229537500Y-98175000D01*
G75*
G02*
X229300000Y-97937500I0J237500D01*
G01*
G37*
G36*
G01*
X227575000Y-97937500D02*
X227575000Y-97462500D01*
G75*
G02*
X227812500Y-97225000I237500J0D01*
G01*
X228412500Y-97225000D01*
G75*
G02*
X228650000Y-97462500I0J-237500D01*
G01*
X228650000Y-97937500D01*
G75*
G02*
X228412500Y-98175000I-237500J0D01*
G01*
X227812500Y-98175000D01*
G75*
G02*
X227575000Y-97937500I0J237500D01*
G01*
G37*
M02*
