G04 #@! TF.GenerationSoftware,KiCad,Pcbnew,(5.1.7)-1*
G04 #@! TF.CreationDate,2020-12-30T19:43:10-05:00*
G04 #@! TF.ProjectId,snowflake,736e6f77-666c-4616-9b65-2e6b69636164,rev?*
G04 #@! TF.SameCoordinates,Original*
G04 #@! TF.FileFunction,Legend,Top*
G04 #@! TF.FilePolarity,Positive*
%FSLAX46Y46*%
G04 Gerber Fmt 4.6, Leading zero omitted, Abs format (unit mm)*
G04 Created by KiCad (PCBNEW (5.1.7)-1) date 2020-12-30 19:43:10*
%MOMM*%
%LPD*%
G01*
G04 APERTURE LIST*
%ADD10C,0.150000*%
%ADD11C,0.120000*%
%ADD12C,0.152400*%
G04 APERTURE END LIST*
D10*
X97061904Y-78400000D02*
X96966666Y-78352380D01*
X96823809Y-78352380D01*
X96680952Y-78400000D01*
X96585714Y-78495238D01*
X96538095Y-78590476D01*
X96490476Y-78780952D01*
X96490476Y-78923809D01*
X96538095Y-79114285D01*
X96585714Y-79209523D01*
X96680952Y-79304761D01*
X96823809Y-79352380D01*
X96919047Y-79352380D01*
X97061904Y-79304761D01*
X97109523Y-79257142D01*
X97109523Y-78923809D01*
X96919047Y-78923809D01*
X93519047Y-79352380D02*
X93519047Y-78352380D01*
X93757142Y-78352380D01*
X93900000Y-78400000D01*
X93995238Y-78495238D01*
X94042857Y-78590476D01*
X94090476Y-78780952D01*
X94090476Y-78923809D01*
X94042857Y-79114285D01*
X93995238Y-79209523D01*
X93900000Y-79304761D01*
X93757142Y-79352380D01*
X93519047Y-79352380D01*
X94519047Y-78971428D02*
X95280952Y-78971428D01*
X94900000Y-79352380D02*
X94900000Y-78590476D01*
X90919047Y-79352380D02*
X90919047Y-78352380D01*
X91157142Y-78352380D01*
X91300000Y-78400000D01*
X91395238Y-78495238D01*
X91442857Y-78590476D01*
X91490476Y-78780952D01*
X91490476Y-78923809D01*
X91442857Y-79114285D01*
X91395238Y-79209523D01*
X91300000Y-79304761D01*
X91157142Y-79352380D01*
X90919047Y-79352380D01*
X91919047Y-78971428D02*
X92680952Y-78971428D01*
X88866666Y-78352380D02*
X89200000Y-79352380D01*
X89533333Y-78352380D01*
X221066666Y-90152380D02*
X221400000Y-91152380D01*
X221733333Y-90152380D01*
X218909523Y-91152380D02*
X218433333Y-91152380D01*
X218433333Y-90152380D01*
X216461904Y-90200000D02*
X216366666Y-90152380D01*
X216223809Y-90152380D01*
X216080952Y-90200000D01*
X215985714Y-90295238D01*
X215938095Y-90390476D01*
X215890476Y-90580952D01*
X215890476Y-90723809D01*
X215938095Y-90914285D01*
X215985714Y-91009523D01*
X216080952Y-91104761D01*
X216223809Y-91152380D01*
X216319047Y-91152380D01*
X216461904Y-91104761D01*
X216509523Y-91057142D01*
X216509523Y-90723809D01*
X216319047Y-90723809D01*
X211666666Y-90152380D02*
X212000000Y-91152380D01*
X212333333Y-90152380D01*
X209314285Y-91104761D02*
X209457142Y-91152380D01*
X209695238Y-91152380D01*
X209790476Y-91104761D01*
X209838095Y-91057142D01*
X209885714Y-90961904D01*
X209885714Y-90866666D01*
X209838095Y-90771428D01*
X209790476Y-90723809D01*
X209695238Y-90676190D01*
X209504761Y-90628571D01*
X209409523Y-90580952D01*
X209361904Y-90533333D01*
X209314285Y-90438095D01*
X209314285Y-90342857D01*
X209361904Y-90247619D01*
X209409523Y-90200000D01*
X209504761Y-90152380D01*
X209742857Y-90152380D01*
X209885714Y-90200000D01*
X207309523Y-91152380D02*
X206833333Y-91152380D01*
X206833333Y-90152380D01*
X204661904Y-90200000D02*
X204566666Y-90152380D01*
X204423809Y-90152380D01*
X204280952Y-90200000D01*
X204185714Y-90295238D01*
X204138095Y-90390476D01*
X204090476Y-90580952D01*
X204090476Y-90723809D01*
X204138095Y-90914285D01*
X204185714Y-91009523D01*
X204280952Y-91104761D01*
X204423809Y-91152380D01*
X204519047Y-91152380D01*
X204661904Y-91104761D01*
X204709523Y-91057142D01*
X204709523Y-90723809D01*
X204519047Y-90723809D01*
X107100000Y-112304761D02*
X107242857Y-112352380D01*
X107480952Y-112352380D01*
X107576190Y-112304761D01*
X107623809Y-112257142D01*
X107671428Y-112161904D01*
X107671428Y-112066666D01*
X107623809Y-111971428D01*
X107576190Y-111923809D01*
X107480952Y-111876190D01*
X107290476Y-111828571D01*
X107195238Y-111780952D01*
X107147619Y-111733333D01*
X107100000Y-111638095D01*
X107100000Y-111542857D01*
X107147619Y-111447619D01*
X107195238Y-111400000D01*
X107290476Y-111352380D01*
X107528571Y-111352380D01*
X107671428Y-111400000D01*
X108100000Y-111685714D02*
X108100000Y-112352380D01*
X108100000Y-111780952D02*
X108147619Y-111733333D01*
X108242857Y-111685714D01*
X108385714Y-111685714D01*
X108480952Y-111733333D01*
X108528571Y-111828571D01*
X108528571Y-112352380D01*
X109147619Y-112352380D02*
X109052380Y-112304761D01*
X109004761Y-112257142D01*
X108957142Y-112161904D01*
X108957142Y-111876190D01*
X109004761Y-111780952D01*
X109052380Y-111733333D01*
X109147619Y-111685714D01*
X109290476Y-111685714D01*
X109385714Y-111733333D01*
X109433333Y-111780952D01*
X109480952Y-111876190D01*
X109480952Y-112161904D01*
X109433333Y-112257142D01*
X109385714Y-112304761D01*
X109290476Y-112352380D01*
X109147619Y-112352380D01*
X109814285Y-111685714D02*
X110004761Y-112352380D01*
X110195238Y-111876190D01*
X110385714Y-112352380D01*
X110576190Y-111685714D01*
X110814285Y-111685714D02*
X111195238Y-111685714D01*
X110957142Y-112352380D02*
X110957142Y-111495238D01*
X111004761Y-111400000D01*
X111100000Y-111352380D01*
X111195238Y-111352380D01*
X111671428Y-112352380D02*
X111576190Y-112304761D01*
X111528571Y-112209523D01*
X111528571Y-111352380D01*
X112480952Y-112352380D02*
X112480952Y-111828571D01*
X112433333Y-111733333D01*
X112338095Y-111685714D01*
X112147619Y-111685714D01*
X112052380Y-111733333D01*
X112480952Y-112304761D02*
X112385714Y-112352380D01*
X112147619Y-112352380D01*
X112052380Y-112304761D01*
X112004761Y-112209523D01*
X112004761Y-112114285D01*
X112052380Y-112019047D01*
X112147619Y-111971428D01*
X112385714Y-111971428D01*
X112480952Y-111923809D01*
X112957142Y-112352380D02*
X112957142Y-111352380D01*
X113052380Y-111971428D02*
X113338095Y-112352380D01*
X113338095Y-111685714D02*
X112957142Y-112066666D01*
X114147619Y-112304761D02*
X114052380Y-112352380D01*
X113861904Y-112352380D01*
X113766666Y-112304761D01*
X113719047Y-112209523D01*
X113719047Y-111828571D01*
X113766666Y-111733333D01*
X113861904Y-111685714D01*
X114052380Y-111685714D01*
X114147619Y-111733333D01*
X114195238Y-111828571D01*
X114195238Y-111923809D01*
X113719047Y-112019047D01*
X115290476Y-111685714D02*
X115528571Y-112352380D01*
X115766666Y-111685714D01*
X116671428Y-112352380D02*
X116100000Y-112352380D01*
X116385714Y-112352380D02*
X116385714Y-111352380D01*
X116290476Y-111495238D01*
X116195238Y-111590476D01*
X116100000Y-111638095D01*
X117100000Y-112257142D02*
X117147619Y-112304761D01*
X117100000Y-112352380D01*
X117052380Y-112304761D01*
X117100000Y-112257142D01*
X117100000Y-112352380D01*
X117766666Y-111352380D02*
X117861904Y-111352380D01*
X117957142Y-111400000D01*
X118004761Y-111447619D01*
X118052380Y-111542857D01*
X118100000Y-111733333D01*
X118100000Y-111971428D01*
X118052380Y-112161904D01*
X118004761Y-112257142D01*
X117957142Y-112304761D01*
X117861904Y-112352380D01*
X117766666Y-112352380D01*
X117671428Y-112304761D01*
X117623809Y-112257142D01*
X117576190Y-112161904D01*
X117528571Y-111971428D01*
X117528571Y-111733333D01*
X117576190Y-111542857D01*
X117623809Y-111447619D01*
X117671428Y-111400000D01*
X117766666Y-111352380D01*
X222133333Y-128752380D02*
X221657142Y-128752380D01*
X221657142Y-127752380D01*
X222847619Y-128704761D02*
X222752380Y-128752380D01*
X222561904Y-128752380D01*
X222466666Y-128704761D01*
X222419047Y-128609523D01*
X222419047Y-128228571D01*
X222466666Y-128133333D01*
X222561904Y-128085714D01*
X222752380Y-128085714D01*
X222847619Y-128133333D01*
X222895238Y-128228571D01*
X222895238Y-128323809D01*
X222419047Y-128419047D01*
X223180952Y-128085714D02*
X223561904Y-128085714D01*
X223323809Y-128752380D02*
X223323809Y-127895238D01*
X223371428Y-127800000D01*
X223466666Y-127752380D01*
X223561904Y-127752380D01*
X223752380Y-128085714D02*
X224133333Y-128085714D01*
X223895238Y-127752380D02*
X223895238Y-128609523D01*
X223942857Y-128704761D01*
X224038095Y-128752380D01*
X224133333Y-128752380D01*
X225180952Y-128704761D02*
X225323809Y-128752380D01*
X225561904Y-128752380D01*
X225657142Y-128704761D01*
X225704761Y-128657142D01*
X225752380Y-128561904D01*
X225752380Y-128466666D01*
X225704761Y-128371428D01*
X225657142Y-128323809D01*
X225561904Y-128276190D01*
X225371428Y-128228571D01*
X225276190Y-128180952D01*
X225228571Y-128133333D01*
X225180952Y-128038095D01*
X225180952Y-127942857D01*
X225228571Y-127847619D01*
X225276190Y-127800000D01*
X225371428Y-127752380D01*
X225609523Y-127752380D01*
X225752380Y-127800000D01*
X226180952Y-128752380D02*
X226180952Y-128085714D01*
X226180952Y-127752380D02*
X226133333Y-127800000D01*
X226180952Y-127847619D01*
X226228571Y-127800000D01*
X226180952Y-127752380D01*
X226180952Y-127847619D01*
X227085714Y-128752380D02*
X227085714Y-127752380D01*
X227085714Y-128704761D02*
X226990476Y-128752380D01*
X226800000Y-128752380D01*
X226704761Y-128704761D01*
X226657142Y-128657142D01*
X226609523Y-128561904D01*
X226609523Y-128276190D01*
X226657142Y-128180952D01*
X226704761Y-128133333D01*
X226800000Y-128085714D01*
X226990476Y-128085714D01*
X227085714Y-128133333D01*
X227942857Y-128704761D02*
X227847619Y-128752380D01*
X227657142Y-128752380D01*
X227561904Y-128704761D01*
X227514285Y-128609523D01*
X227514285Y-128228571D01*
X227561904Y-128133333D01*
X227657142Y-128085714D01*
X227847619Y-128085714D01*
X227942857Y-128133333D01*
X227990476Y-128228571D01*
X227990476Y-128323809D01*
X227514285Y-128419047D01*
D11*
X225110000Y-88553733D02*
X225110000Y-88846267D01*
X224090000Y-88553733D02*
X224090000Y-88846267D01*
D12*
X208110540Y-86125500D02*
X208389458Y-86125500D01*
X209456499Y-86125500D02*
X209456499Y-84474500D01*
X209456499Y-84474500D02*
X208760539Y-84474500D01*
X207043499Y-84474500D02*
X207043499Y-86125500D01*
X207739459Y-84474500D02*
X207043499Y-84474500D01*
X206027499Y-86493800D02*
G75*
G03*
X206027499Y-86493800I-127000J0D01*
G01*
D11*
X223954724Y-85177500D02*
X223445276Y-85177500D01*
X223954724Y-86222500D02*
X223445276Y-86222500D01*
D10*
X229350000Y-133690000D02*
X229350000Y-134690000D01*
X228350000Y-147690000D02*
X229350000Y-147690000D01*
X229350000Y-133690000D02*
X228350000Y-133690000D01*
X229350000Y-146690000D02*
X229350000Y-147690000D01*
X215350000Y-147690000D02*
X215350000Y-146690000D01*
X216350000Y-133690000D02*
X215350000Y-133690000D01*
X215350000Y-147690000D02*
X216350000Y-147690000D01*
X215350000Y-134690000D02*
X215350000Y-133690000D01*
X212350000Y-129690000D02*
X212350000Y-130690000D01*
X211350000Y-143690000D02*
X212350000Y-143690000D01*
X212350000Y-129690000D02*
X211350000Y-129690000D01*
X212350000Y-142690000D02*
X212350000Y-143690000D01*
X198350000Y-143690000D02*
X198350000Y-142690000D01*
X199350000Y-129690000D02*
X198350000Y-129690000D01*
X198350000Y-143690000D02*
X199350000Y-143690000D01*
X198350000Y-130690000D02*
X198350000Y-129690000D01*
X195350000Y-129690000D02*
X195350000Y-130690000D01*
X194350000Y-143690000D02*
X195350000Y-143690000D01*
X195350000Y-129690000D02*
X194350000Y-129690000D01*
X195350000Y-142690000D02*
X195350000Y-143690000D01*
X181350000Y-143690000D02*
X181350000Y-142690000D01*
X182350000Y-129690000D02*
X181350000Y-129690000D01*
X181350000Y-143690000D02*
X182350000Y-143690000D01*
X181350000Y-130690000D02*
X181350000Y-129690000D01*
X178350000Y-132690000D02*
X178350000Y-133690000D01*
X177350000Y-146690000D02*
X178350000Y-146690000D01*
X178350000Y-132690000D02*
X177350000Y-132690000D01*
X178350000Y-145690000D02*
X178350000Y-146690000D01*
X164350000Y-146690000D02*
X164350000Y-145690000D01*
X165350000Y-132690000D02*
X164350000Y-132690000D01*
X164350000Y-146690000D02*
X165350000Y-146690000D01*
X164350000Y-133690000D02*
X164350000Y-132690000D01*
X133350000Y-127250000D02*
X133350000Y-128250000D01*
X132350000Y-141250000D02*
X133350000Y-141250000D01*
X133350000Y-127250000D02*
X132350000Y-127250000D01*
X133350000Y-140250000D02*
X133350000Y-141250000D01*
X119350000Y-141250000D02*
X119350000Y-140250000D01*
X120350000Y-127250000D02*
X119350000Y-127250000D01*
X119350000Y-141250000D02*
X120350000Y-141250000D01*
X119350000Y-128250000D02*
X119350000Y-127250000D01*
X221350000Y-108520000D02*
X221350000Y-109520000D01*
X220350000Y-122520000D02*
X221350000Y-122520000D01*
X221350000Y-108520000D02*
X220350000Y-108520000D01*
X221350000Y-121520000D02*
X221350000Y-122520000D01*
X207350000Y-122520000D02*
X207350000Y-121520000D01*
X208350000Y-108520000D02*
X207350000Y-108520000D01*
X207350000Y-122520000D02*
X208350000Y-122520000D01*
X207350000Y-109520000D02*
X207350000Y-108520000D01*
X201350000Y-111520000D02*
X201350000Y-112520000D01*
X200350000Y-125520000D02*
X201350000Y-125520000D01*
X201350000Y-111520000D02*
X200350000Y-111520000D01*
X201350000Y-124520000D02*
X201350000Y-125520000D01*
X187350000Y-125520000D02*
X187350000Y-124520000D01*
X188350000Y-111520000D02*
X187350000Y-111520000D01*
X187350000Y-125520000D02*
X188350000Y-125520000D01*
X187350000Y-112520000D02*
X187350000Y-111520000D01*
X184350000Y-108520000D02*
X184350000Y-109520000D01*
X183350000Y-122520000D02*
X184350000Y-122520000D01*
X184350000Y-108520000D02*
X183350000Y-108520000D01*
X184350000Y-121520000D02*
X184350000Y-122520000D01*
X170350000Y-122520000D02*
X170350000Y-121520000D01*
X171350000Y-108520000D02*
X170350000Y-108520000D01*
X170350000Y-122520000D02*
X171350000Y-122520000D01*
X170350000Y-109520000D02*
X170350000Y-108520000D01*
X167350000Y-103690000D02*
X167350000Y-104690000D01*
X166350000Y-117690000D02*
X167350000Y-117690000D01*
X167350000Y-103690000D02*
X166350000Y-103690000D01*
X167350000Y-116690000D02*
X167350000Y-117690000D01*
X153350000Y-117690000D02*
X153350000Y-116690000D01*
X154350000Y-103690000D02*
X153350000Y-103690000D01*
X153350000Y-117690000D02*
X154350000Y-117690000D01*
X153350000Y-104690000D02*
X153350000Y-103690000D01*
X150350000Y-102990000D02*
X150350000Y-103990000D01*
X149350000Y-116990000D02*
X150350000Y-116990000D01*
X150350000Y-102990000D02*
X149350000Y-102990000D01*
X150350000Y-115990000D02*
X150350000Y-116990000D01*
X136350000Y-116990000D02*
X136350000Y-115990000D01*
X137350000Y-102990000D02*
X136350000Y-102990000D01*
X136350000Y-116990000D02*
X137350000Y-116990000D01*
X136350000Y-103990000D02*
X136350000Y-102990000D01*
X133350000Y-111250000D02*
X133350000Y-112250000D01*
X132350000Y-125250000D02*
X133350000Y-125250000D01*
X133350000Y-111250000D02*
X132350000Y-111250000D01*
X133350000Y-124250000D02*
X133350000Y-125250000D01*
X119350000Y-125250000D02*
X119350000Y-124250000D01*
X120350000Y-111250000D02*
X119350000Y-111250000D01*
X119350000Y-125250000D02*
X120350000Y-125250000D01*
X119350000Y-112250000D02*
X119350000Y-111250000D01*
X116350000Y-116250000D02*
X116350000Y-117250000D01*
X115350000Y-130250000D02*
X116350000Y-130250000D01*
X116350000Y-116250000D02*
X115350000Y-116250000D01*
X116350000Y-129250000D02*
X116350000Y-130250000D01*
X102350000Y-130250000D02*
X102350000Y-129250000D01*
X103350000Y-116250000D02*
X102350000Y-116250000D01*
X102350000Y-130250000D02*
X103350000Y-130250000D01*
X102350000Y-117250000D02*
X102350000Y-116250000D01*
X99350000Y-118250000D02*
X99350000Y-119250000D01*
X98350000Y-132250000D02*
X99350000Y-132250000D01*
X99350000Y-118250000D02*
X98350000Y-118250000D01*
X99350000Y-131250000D02*
X99350000Y-132250000D01*
X85350000Y-132250000D02*
X85350000Y-131250000D01*
X86350000Y-118250000D02*
X85350000Y-118250000D01*
X85350000Y-132250000D02*
X86350000Y-132250000D01*
X85350000Y-119250000D02*
X85350000Y-118250000D01*
X221350000Y-92520000D02*
X221350000Y-93520000D01*
X220350000Y-106520000D02*
X221350000Y-106520000D01*
X221350000Y-92520000D02*
X220350000Y-92520000D01*
X221350000Y-105520000D02*
X221350000Y-106520000D01*
X207350000Y-106520000D02*
X207350000Y-105520000D01*
X208350000Y-92520000D02*
X207350000Y-92520000D01*
X207350000Y-106520000D02*
X208350000Y-106520000D01*
X207350000Y-93520000D02*
X207350000Y-92520000D01*
X201350000Y-95520000D02*
X201350000Y-96520000D01*
X200350000Y-109520000D02*
X201350000Y-109520000D01*
X201350000Y-95520000D02*
X200350000Y-95520000D01*
X201350000Y-108520000D02*
X201350000Y-109520000D01*
X187350000Y-109520000D02*
X187350000Y-108520000D01*
X188350000Y-95520000D02*
X187350000Y-95520000D01*
X187350000Y-109520000D02*
X188350000Y-109520000D01*
X187350000Y-96520000D02*
X187350000Y-95520000D01*
X170350000Y-93520000D02*
X170350000Y-92520000D01*
X170350000Y-106520000D02*
X171350000Y-106520000D01*
X171350000Y-92520000D02*
X170350000Y-92520000D01*
X170350000Y-106520000D02*
X170350000Y-105520000D01*
X184350000Y-105520000D02*
X184350000Y-106520000D01*
X184350000Y-92520000D02*
X183350000Y-92520000D01*
X183350000Y-106520000D02*
X184350000Y-106520000D01*
X184350000Y-92520000D02*
X184350000Y-93520000D01*
X167350000Y-87690000D02*
X167350000Y-88690000D01*
X166350000Y-101690000D02*
X167350000Y-101690000D01*
X167350000Y-87690000D02*
X166350000Y-87690000D01*
X167350000Y-100690000D02*
X167350000Y-101690000D01*
X153350000Y-101690000D02*
X153350000Y-100690000D01*
X154350000Y-87690000D02*
X153350000Y-87690000D01*
X153350000Y-101690000D02*
X154350000Y-101690000D01*
X153350000Y-88690000D02*
X153350000Y-87690000D01*
X150350000Y-86990000D02*
X150350000Y-87990000D01*
X149350000Y-100990000D02*
X150350000Y-100990000D01*
X150350000Y-86990000D02*
X149350000Y-86990000D01*
X150350000Y-99990000D02*
X150350000Y-100990000D01*
X136350000Y-100990000D02*
X136350000Y-99990000D01*
X137350000Y-86990000D02*
X136350000Y-86990000D01*
X136350000Y-100990000D02*
X137350000Y-100990000D01*
X136350000Y-87990000D02*
X136350000Y-86990000D01*
X133350000Y-95250000D02*
X133350000Y-96250000D01*
X132350000Y-109250000D02*
X133350000Y-109250000D01*
X133350000Y-95250000D02*
X132350000Y-95250000D01*
X133350000Y-108250000D02*
X133350000Y-109250000D01*
X119350000Y-109250000D02*
X119350000Y-108250000D01*
X120350000Y-95250000D02*
X119350000Y-95250000D01*
X119350000Y-109250000D02*
X120350000Y-109250000D01*
X119350000Y-96250000D02*
X119350000Y-95250000D01*
X116350000Y-96250000D02*
X116350000Y-97250000D01*
X115350000Y-110250000D02*
X116350000Y-110250000D01*
X116350000Y-96250000D02*
X115350000Y-96250000D01*
X116350000Y-109250000D02*
X116350000Y-110250000D01*
X102350000Y-110250000D02*
X102350000Y-109250000D01*
X103350000Y-96250000D02*
X102350000Y-96250000D01*
X102350000Y-110250000D02*
X103350000Y-110250000D01*
X102350000Y-97250000D02*
X102350000Y-96250000D01*
X201350000Y-79520000D02*
X201350000Y-80520000D01*
X200350000Y-93520000D02*
X201350000Y-93520000D01*
X201350000Y-79520000D02*
X200350000Y-79520000D01*
X201350000Y-92520000D02*
X201350000Y-93520000D01*
X187350000Y-93520000D02*
X187350000Y-92520000D01*
X188350000Y-79520000D02*
X187350000Y-79520000D01*
X187350000Y-93520000D02*
X188350000Y-93520000D01*
X187350000Y-80520000D02*
X187350000Y-79520000D01*
X184350000Y-76520000D02*
X184350000Y-77520000D01*
X183350000Y-90520000D02*
X184350000Y-90520000D01*
X184350000Y-76520000D02*
X183350000Y-76520000D01*
X184350000Y-89520000D02*
X184350000Y-90520000D01*
X170350000Y-90520000D02*
X170350000Y-89520000D01*
X171350000Y-76520000D02*
X170350000Y-76520000D01*
X170350000Y-90520000D02*
X171350000Y-90520000D01*
X170350000Y-77520000D02*
X170350000Y-76520000D01*
X167350000Y-71690000D02*
X167350000Y-72690000D01*
X166350000Y-85690000D02*
X167350000Y-85690000D01*
X167350000Y-71690000D02*
X166350000Y-71690000D01*
X167350000Y-84690000D02*
X167350000Y-85690000D01*
X153350000Y-85690000D02*
X153350000Y-84690000D01*
X154350000Y-71690000D02*
X153350000Y-71690000D01*
X153350000Y-85690000D02*
X154350000Y-85690000D01*
X153350000Y-72690000D02*
X153350000Y-71690000D01*
X150350000Y-70990000D02*
X150350000Y-71990000D01*
X149350000Y-84990000D02*
X150350000Y-84990000D01*
X150350000Y-70990000D02*
X149350000Y-70990000D01*
X150350000Y-83990000D02*
X150350000Y-84990000D01*
X136350000Y-84990000D02*
X136350000Y-83990000D01*
X137350000Y-70990000D02*
X136350000Y-70990000D01*
X136350000Y-84990000D02*
X137350000Y-84990000D01*
X136350000Y-71990000D02*
X136350000Y-70990000D01*
X133350000Y-79250000D02*
X133350000Y-80250000D01*
X132350000Y-93250000D02*
X133350000Y-93250000D01*
X133350000Y-79250000D02*
X132350000Y-79250000D01*
X133350000Y-92250000D02*
X133350000Y-93250000D01*
X119350000Y-93250000D02*
X119350000Y-92250000D01*
X120350000Y-79250000D02*
X119350000Y-79250000D01*
X119350000Y-93250000D02*
X120350000Y-93250000D01*
X119350000Y-80250000D02*
X119350000Y-79250000D01*
X116350000Y-80250000D02*
X116350000Y-81250000D01*
X115350000Y-94250000D02*
X116350000Y-94250000D01*
X116350000Y-80250000D02*
X115350000Y-80250000D01*
X116350000Y-93250000D02*
X116350000Y-94250000D01*
X102350000Y-94250000D02*
X102350000Y-93250000D01*
X103350000Y-80250000D02*
X102350000Y-80250000D01*
X102350000Y-94250000D02*
X103350000Y-94250000D01*
X102350000Y-81250000D02*
X102350000Y-80250000D01*
X201350000Y-63520000D02*
X201350000Y-64520000D01*
X200350000Y-77520000D02*
X201350000Y-77520000D01*
X201350000Y-63520000D02*
X200350000Y-63520000D01*
X201350000Y-76520000D02*
X201350000Y-77520000D01*
X187350000Y-77520000D02*
X187350000Y-76520000D01*
X188350000Y-63520000D02*
X187350000Y-63520000D01*
X187350000Y-77520000D02*
X188350000Y-77520000D01*
X187350000Y-64520000D02*
X187350000Y-63520000D01*
X184350000Y-60520000D02*
X184350000Y-61520000D01*
X183350000Y-74520000D02*
X184350000Y-74520000D01*
X184350000Y-60520000D02*
X183350000Y-60520000D01*
X184350000Y-73520000D02*
X184350000Y-74520000D01*
X170350000Y-74520000D02*
X170350000Y-73520000D01*
X171350000Y-60520000D02*
X170350000Y-60520000D01*
X170350000Y-74520000D02*
X171350000Y-74520000D01*
X170350000Y-61520000D02*
X170350000Y-60520000D01*
X167350000Y-55690000D02*
X167350000Y-56690000D01*
X166350000Y-69690000D02*
X167350000Y-69690000D01*
X167350000Y-55690000D02*
X166350000Y-55690000D01*
X167350000Y-68690000D02*
X167350000Y-69690000D01*
X153350000Y-69690000D02*
X153350000Y-68690000D01*
X154350000Y-55690000D02*
X153350000Y-55690000D01*
X153350000Y-69690000D02*
X154350000Y-69690000D01*
X153350000Y-56690000D02*
X153350000Y-55690000D01*
X150350000Y-54990000D02*
X150350000Y-55990000D01*
X149350000Y-68990000D02*
X150350000Y-68990000D01*
X150350000Y-54990000D02*
X149350000Y-54990000D01*
X150350000Y-67990000D02*
X150350000Y-68990000D01*
X136350000Y-68990000D02*
X136350000Y-67990000D01*
X137350000Y-54990000D02*
X136350000Y-54990000D01*
X136350000Y-68990000D02*
X137350000Y-68990000D01*
X136350000Y-55990000D02*
X136350000Y-54990000D01*
X133350000Y-63250000D02*
X133350000Y-64250000D01*
X132350000Y-77250000D02*
X133350000Y-77250000D01*
X133350000Y-63250000D02*
X132350000Y-63250000D01*
X133350000Y-76250000D02*
X133350000Y-77250000D01*
X119350000Y-77250000D02*
X119350000Y-76250000D01*
X120350000Y-63250000D02*
X119350000Y-63250000D01*
X119350000Y-77250000D02*
X120350000Y-77250000D01*
X119350000Y-64250000D02*
X119350000Y-63250000D01*
X116350000Y-64250000D02*
X116350000Y-65250000D01*
X115350000Y-78250000D02*
X116350000Y-78250000D01*
X116350000Y-64250000D02*
X115350000Y-64250000D01*
X116350000Y-77250000D02*
X116350000Y-78250000D01*
X102350000Y-78250000D02*
X102350000Y-77250000D01*
X103350000Y-64250000D02*
X102350000Y-64250000D01*
X102350000Y-78250000D02*
X103350000Y-78250000D01*
X102350000Y-65250000D02*
X102350000Y-64250000D01*
D11*
X230375000Y-122900000D02*
X229625000Y-122900000D01*
X230375000Y-122900000D02*
X230375000Y-119100000D01*
X227575000Y-122900000D02*
X227575000Y-119100000D01*
X230375000Y-113900000D02*
X229625000Y-113900000D01*
X230375000Y-113900000D02*
X230375000Y-110100000D01*
X227575000Y-113900000D02*
X227575000Y-110100000D01*
X230375000Y-104900000D02*
X229625000Y-104900000D01*
X230375000Y-104900000D02*
X230375000Y-101100000D01*
X227575000Y-104900000D02*
X227575000Y-101100000D01*
X230375000Y-95900000D02*
X229625000Y-95900000D01*
X230375000Y-95900000D02*
X230375000Y-92100000D01*
X227575000Y-95900000D02*
X227575000Y-92100000D01*
X228766233Y-125210000D02*
X229058767Y-125210000D01*
X228766233Y-124190000D02*
X229058767Y-124190000D01*
X228766233Y-116210000D02*
X229058767Y-116210000D01*
X228766233Y-115190000D02*
X229058767Y-115190000D01*
X228828733Y-107210000D02*
X229121267Y-107210000D01*
X228828733Y-106190000D02*
X229121267Y-106190000D01*
X228828733Y-98210000D02*
X229121267Y-98210000D01*
X228828733Y-97190000D02*
X229121267Y-97190000D01*
D10*
X91061904Y-73752380D02*
X91061904Y-74561904D01*
X91109523Y-74657142D01*
X91157142Y-74704761D01*
X91252380Y-74752380D01*
X91442857Y-74752380D01*
X91538095Y-74704761D01*
X91585714Y-74657142D01*
X91633333Y-74561904D01*
X91633333Y-73752380D01*
X92061904Y-74704761D02*
X92204761Y-74752380D01*
X92442857Y-74752380D01*
X92538095Y-74704761D01*
X92585714Y-74657142D01*
X92633333Y-74561904D01*
X92633333Y-74466666D01*
X92585714Y-74371428D01*
X92538095Y-74323809D01*
X92442857Y-74276190D01*
X92252380Y-74228571D01*
X92157142Y-74180952D01*
X92109523Y-74133333D01*
X92061904Y-74038095D01*
X92061904Y-73942857D01*
X92109523Y-73847619D01*
X92157142Y-73800000D01*
X92252380Y-73752380D01*
X92490476Y-73752380D01*
X92633333Y-73800000D01*
X93395238Y-74228571D02*
X93538095Y-74276190D01*
X93585714Y-74323809D01*
X93633333Y-74419047D01*
X93633333Y-74561904D01*
X93585714Y-74657142D01*
X93538095Y-74704761D01*
X93442857Y-74752380D01*
X93061904Y-74752380D01*
X93061904Y-73752380D01*
X93395238Y-73752380D01*
X93490476Y-73800000D01*
X93538095Y-73847619D01*
X93585714Y-73942857D01*
X93585714Y-74038095D01*
X93538095Y-74133333D01*
X93490476Y-74180952D01*
X93395238Y-74228571D01*
X93061904Y-74228571D01*
X94585714Y-74752380D02*
X94014285Y-74752380D01*
X94300000Y-74752380D02*
X94300000Y-73752380D01*
X94204761Y-73895238D01*
X94109523Y-73990476D01*
X94014285Y-74038095D01*
X213747619Y-83595238D02*
X213747619Y-83119047D01*
X214747619Y-83119047D01*
X214271428Y-83928571D02*
X214271428Y-84261904D01*
X213747619Y-84404761D02*
X213747619Y-83928571D01*
X214747619Y-83928571D01*
X214747619Y-84404761D01*
X213747619Y-84833333D02*
X214747619Y-84833333D01*
X214747619Y-85071428D01*
X214700000Y-85214285D01*
X214604761Y-85309523D01*
X214509523Y-85357142D01*
X214319047Y-85404761D01*
X214176190Y-85404761D01*
X213985714Y-85357142D01*
X213890476Y-85309523D01*
X213795238Y-85214285D01*
X213747619Y-85071428D01*
X213747619Y-84833333D01*
X213652380Y-85595238D02*
X213652380Y-86357142D01*
X214747619Y-86785714D02*
X214747619Y-86976190D01*
X214700000Y-87071428D01*
X214604761Y-87166666D01*
X214414285Y-87214285D01*
X214080952Y-87214285D01*
X213890476Y-87166666D01*
X213795238Y-87071428D01*
X213747619Y-86976190D01*
X213747619Y-86785714D01*
X213795238Y-86690476D01*
X213890476Y-86595238D01*
X214080952Y-86547619D01*
X214414285Y-86547619D01*
X214604761Y-86595238D01*
X214700000Y-86690476D01*
X214747619Y-86785714D01*
X213747619Y-87642857D02*
X214747619Y-87642857D01*
X214747619Y-88023809D01*
X214700000Y-88119047D01*
X214652380Y-88166666D01*
X214557142Y-88214285D01*
X214414285Y-88214285D01*
X214319047Y-88166666D01*
X214271428Y-88119047D01*
X214223809Y-88023809D01*
X214223809Y-87642857D01*
X214747619Y-88500000D02*
X214747619Y-89071428D01*
X213747619Y-88785714D02*
X214747619Y-88785714D01*
X213747619Y-89928571D02*
X213747619Y-89357142D01*
X213747619Y-89642857D02*
X214747619Y-89642857D01*
X214604761Y-89547619D01*
X214509523Y-89452380D01*
X214461904Y-89357142D01*
X202804761Y-88585714D02*
X202852380Y-88442857D01*
X202852380Y-88204761D01*
X202804761Y-88109523D01*
X202757142Y-88061904D01*
X202661904Y-88014285D01*
X202566666Y-88014285D01*
X202471428Y-88061904D01*
X202423809Y-88109523D01*
X202376190Y-88204761D01*
X202328571Y-88395238D01*
X202280952Y-88490476D01*
X202233333Y-88538095D01*
X202138095Y-88585714D01*
X202042857Y-88585714D01*
X201947619Y-88538095D01*
X201900000Y-88490476D01*
X201852380Y-88395238D01*
X201852380Y-88157142D01*
X201900000Y-88014285D01*
X202852380Y-87585714D02*
X201852380Y-87585714D01*
X201852380Y-87204761D01*
X201900000Y-87109523D01*
X201947619Y-87061904D01*
X202042857Y-87014285D01*
X202185714Y-87014285D01*
X202280952Y-87061904D01*
X202328571Y-87109523D01*
X202376190Y-87204761D01*
X202376190Y-87585714D01*
X202852380Y-86109523D02*
X202852380Y-86585714D01*
X201852380Y-86585714D01*
X202852380Y-85776190D02*
X201852380Y-85776190D01*
X201852380Y-85442857D02*
X201852380Y-84871428D01*
X202852380Y-85157142D02*
X201852380Y-85157142D01*
X202852380Y-84014285D02*
X202852380Y-84585714D01*
X202852380Y-84300000D02*
X201852380Y-84300000D01*
X201995238Y-84395238D01*
X202090476Y-84490476D01*
X202138095Y-84585714D01*
X226557142Y-89342857D02*
X226604761Y-89390476D01*
X226652380Y-89533333D01*
X226652380Y-89628571D01*
X226604761Y-89771428D01*
X226509523Y-89866666D01*
X226414285Y-89914285D01*
X226223809Y-89961904D01*
X226080952Y-89961904D01*
X225890476Y-89914285D01*
X225795238Y-89866666D01*
X225700000Y-89771428D01*
X225652380Y-89628571D01*
X225652380Y-89533333D01*
X225700000Y-89390476D01*
X225747619Y-89342857D01*
X226652380Y-88390476D02*
X226652380Y-88961904D01*
X226652380Y-88676190D02*
X225652380Y-88676190D01*
X225795238Y-88771428D01*
X225890476Y-88866666D01*
X225938095Y-88961904D01*
X225985714Y-87533333D02*
X226652380Y-87533333D01*
X225604761Y-87771428D02*
X226319047Y-88009523D01*
X226319047Y-87390476D01*
X209938095Y-84752380D02*
X209938095Y-85561904D01*
X209985714Y-85657142D01*
X210033333Y-85704761D01*
X210128571Y-85752380D01*
X210319047Y-85752380D01*
X210414285Y-85704761D01*
X210461904Y-85657142D01*
X210509523Y-85561904D01*
X210509523Y-84752380D01*
X210890476Y-84752380D02*
X211509523Y-84752380D01*
X211176190Y-85133333D01*
X211319047Y-85133333D01*
X211414285Y-85180952D01*
X211461904Y-85228571D01*
X211509523Y-85323809D01*
X211509523Y-85561904D01*
X211461904Y-85657142D01*
X211414285Y-85704761D01*
X211319047Y-85752380D01*
X211033333Y-85752380D01*
X210938095Y-85704761D01*
X210890476Y-85657142D01*
X208249999Y-84752380D02*
X208249999Y-84990476D01*
X208011903Y-84895238D02*
X208249999Y-84990476D01*
X208488094Y-84895238D01*
X208107141Y-85180952D02*
X208249999Y-84990476D01*
X208392856Y-85180952D01*
X169638095Y-124852380D02*
X169638095Y-123852380D01*
X169638095Y-124328571D02*
X170209523Y-124328571D01*
X170209523Y-124852380D02*
X170209523Y-123852380D01*
X171161904Y-123852380D02*
X170685714Y-123852380D01*
X170638095Y-124328571D01*
X170685714Y-124280952D01*
X170780952Y-124233333D01*
X171019047Y-124233333D01*
X171114285Y-124280952D01*
X171161904Y-124328571D01*
X171209523Y-124423809D01*
X171209523Y-124661904D01*
X171161904Y-124757142D01*
X171114285Y-124804761D01*
X171019047Y-124852380D01*
X170780952Y-124852380D01*
X170685714Y-124804761D01*
X170638095Y-124757142D01*
X217838095Y-125352380D02*
X217838095Y-124352380D01*
X217838095Y-124828571D02*
X218409523Y-124828571D01*
X218409523Y-125352380D02*
X218409523Y-124352380D01*
X219314285Y-124685714D02*
X219314285Y-125352380D01*
X219076190Y-124304761D02*
X218838095Y-125019047D01*
X219457142Y-125019047D01*
X85438095Y-109952380D02*
X85438095Y-108952380D01*
X85438095Y-109428571D02*
X86009523Y-109428571D01*
X86009523Y-109952380D02*
X86009523Y-108952380D01*
X86390476Y-108952380D02*
X87009523Y-108952380D01*
X86676190Y-109333333D01*
X86819047Y-109333333D01*
X86914285Y-109380952D01*
X86961904Y-109428571D01*
X87009523Y-109523809D01*
X87009523Y-109761904D01*
X86961904Y-109857142D01*
X86914285Y-109904761D01*
X86819047Y-109952380D01*
X86533333Y-109952380D01*
X86438095Y-109904761D01*
X86390476Y-109857142D01*
X123038095Y-54152380D02*
X123038095Y-53152380D01*
X123038095Y-53628571D02*
X123609523Y-53628571D01*
X123609523Y-54152380D02*
X123609523Y-53152380D01*
X124038095Y-53247619D02*
X124085714Y-53200000D01*
X124180952Y-53152380D01*
X124419047Y-53152380D01*
X124514285Y-53200000D01*
X124561904Y-53247619D01*
X124609523Y-53342857D01*
X124609523Y-53438095D01*
X124561904Y-53580952D01*
X123990476Y-54152380D01*
X124609523Y-54152380D01*
X223838095Y-79552380D02*
X223838095Y-78552380D01*
X223838095Y-79028571D02*
X224409523Y-79028571D01*
X224409523Y-79552380D02*
X224409523Y-78552380D01*
X225409523Y-79552380D02*
X224838095Y-79552380D01*
X225123809Y-79552380D02*
X225123809Y-78552380D01*
X225028571Y-78695238D01*
X224933333Y-78790476D01*
X224838095Y-78838095D01*
X226233333Y-86152380D02*
X225900000Y-85676190D01*
X225661904Y-86152380D02*
X225661904Y-85152380D01*
X226042857Y-85152380D01*
X226138095Y-85200000D01*
X226185714Y-85247619D01*
X226233333Y-85342857D01*
X226233333Y-85485714D01*
X226185714Y-85580952D01*
X226138095Y-85628571D01*
X226042857Y-85676190D01*
X225661904Y-85676190D01*
X227138095Y-85152380D02*
X226661904Y-85152380D01*
X226614285Y-85628571D01*
X226661904Y-85580952D01*
X226757142Y-85533333D01*
X226995238Y-85533333D01*
X227090476Y-85580952D01*
X227138095Y-85628571D01*
X227185714Y-85723809D01*
X227185714Y-85961904D01*
X227138095Y-86057142D01*
X227090476Y-86104761D01*
X226995238Y-86152380D01*
X226757142Y-86152380D01*
X226661904Y-86104761D01*
X226614285Y-86057142D01*
X227227380Y-122214285D02*
X226227380Y-122214285D01*
X226227380Y-121976190D01*
X226275000Y-121833333D01*
X226370238Y-121738095D01*
X226465476Y-121690476D01*
X226655952Y-121642857D01*
X226798809Y-121642857D01*
X226989285Y-121690476D01*
X227084523Y-121738095D01*
X227179761Y-121833333D01*
X227227380Y-121976190D01*
X227227380Y-122214285D01*
X226227380Y-121309523D02*
X226227380Y-120690476D01*
X226608333Y-121023809D01*
X226608333Y-120880952D01*
X226655952Y-120785714D01*
X226703571Y-120738095D01*
X226798809Y-120690476D01*
X227036904Y-120690476D01*
X227132142Y-120738095D01*
X227179761Y-120785714D01*
X227227380Y-120880952D01*
X227227380Y-121166666D01*
X227179761Y-121261904D01*
X227132142Y-121309523D01*
X226227380Y-119833333D02*
X226227380Y-120023809D01*
X226275000Y-120119047D01*
X226322619Y-120166666D01*
X226465476Y-120261904D01*
X226655952Y-120309523D01*
X227036904Y-120309523D01*
X227132142Y-120261904D01*
X227179761Y-120214285D01*
X227227380Y-120119047D01*
X227227380Y-119928571D01*
X227179761Y-119833333D01*
X227132142Y-119785714D01*
X227036904Y-119738095D01*
X226798809Y-119738095D01*
X226703571Y-119785714D01*
X226655952Y-119833333D01*
X226608333Y-119928571D01*
X226608333Y-120119047D01*
X226655952Y-120214285D01*
X226703571Y-120261904D01*
X226798809Y-120309523D01*
D11*
X228664285Y-122935714D02*
X228664285Y-123364285D01*
X228664285Y-123150000D02*
X227914285Y-123150000D01*
X228021428Y-123221428D01*
X228092857Y-123292857D01*
X228128571Y-123364285D01*
D10*
X227227380Y-113214285D02*
X226227380Y-113214285D01*
X226227380Y-112976190D01*
X226275000Y-112833333D01*
X226370238Y-112738095D01*
X226465476Y-112690476D01*
X226655952Y-112642857D01*
X226798809Y-112642857D01*
X226989285Y-112690476D01*
X227084523Y-112738095D01*
X227179761Y-112833333D01*
X227227380Y-112976190D01*
X227227380Y-113214285D01*
X226227380Y-112309523D02*
X226227380Y-111690476D01*
X226608333Y-112023809D01*
X226608333Y-111880952D01*
X226655952Y-111785714D01*
X226703571Y-111738095D01*
X226798809Y-111690476D01*
X227036904Y-111690476D01*
X227132142Y-111738095D01*
X227179761Y-111785714D01*
X227227380Y-111880952D01*
X227227380Y-112166666D01*
X227179761Y-112261904D01*
X227132142Y-112309523D01*
X226227380Y-110785714D02*
X226227380Y-111261904D01*
X226703571Y-111309523D01*
X226655952Y-111261904D01*
X226608333Y-111166666D01*
X226608333Y-110928571D01*
X226655952Y-110833333D01*
X226703571Y-110785714D01*
X226798809Y-110738095D01*
X227036904Y-110738095D01*
X227132142Y-110785714D01*
X227179761Y-110833333D01*
X227227380Y-110928571D01*
X227227380Y-111166666D01*
X227179761Y-111261904D01*
X227132142Y-111309523D01*
D11*
X228664285Y-113935714D02*
X228664285Y-114364285D01*
X228664285Y-114150000D02*
X227914285Y-114150000D01*
X228021428Y-114221428D01*
X228092857Y-114292857D01*
X228128571Y-114364285D01*
D10*
X227227380Y-104214285D02*
X226227380Y-104214285D01*
X226227380Y-103976190D01*
X226275000Y-103833333D01*
X226370238Y-103738095D01*
X226465476Y-103690476D01*
X226655952Y-103642857D01*
X226798809Y-103642857D01*
X226989285Y-103690476D01*
X227084523Y-103738095D01*
X227179761Y-103833333D01*
X227227380Y-103976190D01*
X227227380Y-104214285D01*
X226227380Y-103309523D02*
X226227380Y-102690476D01*
X226608333Y-103023809D01*
X226608333Y-102880952D01*
X226655952Y-102785714D01*
X226703571Y-102738095D01*
X226798809Y-102690476D01*
X227036904Y-102690476D01*
X227132142Y-102738095D01*
X227179761Y-102785714D01*
X227227380Y-102880952D01*
X227227380Y-103166666D01*
X227179761Y-103261904D01*
X227132142Y-103309523D01*
X226560714Y-101833333D02*
X227227380Y-101833333D01*
X226179761Y-102071428D02*
X226894047Y-102309523D01*
X226894047Y-101690476D01*
D11*
X228664285Y-104935714D02*
X228664285Y-105364285D01*
X228664285Y-105150000D02*
X227914285Y-105150000D01*
X228021428Y-105221428D01*
X228092857Y-105292857D01*
X228128571Y-105364285D01*
D10*
X227227380Y-95214285D02*
X226227380Y-95214285D01*
X226227380Y-94976190D01*
X226275000Y-94833333D01*
X226370238Y-94738095D01*
X226465476Y-94690476D01*
X226655952Y-94642857D01*
X226798809Y-94642857D01*
X226989285Y-94690476D01*
X227084523Y-94738095D01*
X227179761Y-94833333D01*
X227227380Y-94976190D01*
X227227380Y-95214285D01*
X226227380Y-94309523D02*
X226227380Y-93690476D01*
X226608333Y-94023809D01*
X226608333Y-93880952D01*
X226655952Y-93785714D01*
X226703571Y-93738095D01*
X226798809Y-93690476D01*
X227036904Y-93690476D01*
X227132142Y-93738095D01*
X227179761Y-93785714D01*
X227227380Y-93880952D01*
X227227380Y-94166666D01*
X227179761Y-94261904D01*
X227132142Y-94309523D01*
X226227380Y-93357142D02*
X226227380Y-92738095D01*
X226608333Y-93071428D01*
X226608333Y-92928571D01*
X226655952Y-92833333D01*
X226703571Y-92785714D01*
X226798809Y-92738095D01*
X227036904Y-92738095D01*
X227132142Y-92785714D01*
X227179761Y-92833333D01*
X227227380Y-92928571D01*
X227227380Y-93214285D01*
X227179761Y-93309523D01*
X227132142Y-93357142D01*
D11*
X228664285Y-95935714D02*
X228664285Y-96364285D01*
X228664285Y-96150000D02*
X227914285Y-96150000D01*
X228021428Y-96221428D01*
X228092857Y-96292857D01*
X228128571Y-96364285D01*
D10*
X225132142Y-125057142D02*
X225084523Y-125104761D01*
X224941666Y-125152380D01*
X224846428Y-125152380D01*
X224703571Y-125104761D01*
X224608333Y-125009523D01*
X224560714Y-124914285D01*
X224513095Y-124723809D01*
X224513095Y-124580952D01*
X224560714Y-124390476D01*
X224608333Y-124295238D01*
X224703571Y-124200000D01*
X224846428Y-124152380D01*
X224941666Y-124152380D01*
X225084523Y-124200000D01*
X225132142Y-124247619D01*
X226084523Y-125152380D02*
X225513095Y-125152380D01*
X225798809Y-125152380D02*
X225798809Y-124152380D01*
X225703571Y-124295238D01*
X225608333Y-124390476D01*
X225513095Y-124438095D01*
X226465476Y-124247619D02*
X226513095Y-124200000D01*
X226608333Y-124152380D01*
X226846428Y-124152380D01*
X226941666Y-124200000D01*
X226989285Y-124247619D01*
X227036904Y-124342857D01*
X227036904Y-124438095D01*
X226989285Y-124580952D01*
X226417857Y-125152380D01*
X227036904Y-125152380D01*
X225132142Y-116057142D02*
X225084523Y-116104761D01*
X224941666Y-116152380D01*
X224846428Y-116152380D01*
X224703571Y-116104761D01*
X224608333Y-116009523D01*
X224560714Y-115914285D01*
X224513095Y-115723809D01*
X224513095Y-115580952D01*
X224560714Y-115390476D01*
X224608333Y-115295238D01*
X224703571Y-115200000D01*
X224846428Y-115152380D01*
X224941666Y-115152380D01*
X225084523Y-115200000D01*
X225132142Y-115247619D01*
X226084523Y-116152380D02*
X225513095Y-116152380D01*
X225798809Y-116152380D02*
X225798809Y-115152380D01*
X225703571Y-115295238D01*
X225608333Y-115390476D01*
X225513095Y-115438095D01*
X226703571Y-115152380D02*
X226798809Y-115152380D01*
X226894047Y-115200000D01*
X226941666Y-115247619D01*
X226989285Y-115342857D01*
X227036904Y-115533333D01*
X227036904Y-115771428D01*
X226989285Y-115961904D01*
X226941666Y-116057142D01*
X226894047Y-116104761D01*
X226798809Y-116152380D01*
X226703571Y-116152380D01*
X226608333Y-116104761D01*
X226560714Y-116057142D01*
X226513095Y-115961904D01*
X226465476Y-115771428D01*
X226465476Y-115533333D01*
X226513095Y-115342857D01*
X226560714Y-115247619D01*
X226608333Y-115200000D01*
X226703571Y-115152380D01*
X226208333Y-107057142D02*
X226160714Y-107104761D01*
X226017857Y-107152380D01*
X225922619Y-107152380D01*
X225779761Y-107104761D01*
X225684523Y-107009523D01*
X225636904Y-106914285D01*
X225589285Y-106723809D01*
X225589285Y-106580952D01*
X225636904Y-106390476D01*
X225684523Y-106295238D01*
X225779761Y-106200000D01*
X225922619Y-106152380D01*
X226017857Y-106152380D01*
X226160714Y-106200000D01*
X226208333Y-106247619D01*
X227065476Y-106152380D02*
X226875000Y-106152380D01*
X226779761Y-106200000D01*
X226732142Y-106247619D01*
X226636904Y-106390476D01*
X226589285Y-106580952D01*
X226589285Y-106961904D01*
X226636904Y-107057142D01*
X226684523Y-107104761D01*
X226779761Y-107152380D01*
X226970238Y-107152380D01*
X227065476Y-107104761D01*
X227113095Y-107057142D01*
X227160714Y-106961904D01*
X227160714Y-106723809D01*
X227113095Y-106628571D01*
X227065476Y-106580952D01*
X226970238Y-106533333D01*
X226779761Y-106533333D01*
X226684523Y-106580952D01*
X226636904Y-106628571D01*
X226589285Y-106723809D01*
X226208333Y-98057142D02*
X226160714Y-98104761D01*
X226017857Y-98152380D01*
X225922619Y-98152380D01*
X225779761Y-98104761D01*
X225684523Y-98009523D01*
X225636904Y-97914285D01*
X225589285Y-97723809D01*
X225589285Y-97580952D01*
X225636904Y-97390476D01*
X225684523Y-97295238D01*
X225779761Y-97200000D01*
X225922619Y-97152380D01*
X226017857Y-97152380D01*
X226160714Y-97200000D01*
X226208333Y-97247619D01*
X227113095Y-97152380D02*
X226636904Y-97152380D01*
X226589285Y-97628571D01*
X226636904Y-97580952D01*
X226732142Y-97533333D01*
X226970238Y-97533333D01*
X227065476Y-97580952D01*
X227113095Y-97628571D01*
X227160714Y-97723809D01*
X227160714Y-97961904D01*
X227113095Y-98057142D01*
X227065476Y-98104761D01*
X226970238Y-98152380D01*
X226732142Y-98152380D01*
X226636904Y-98104761D01*
X226589285Y-98057142D01*
M02*
