M48
; DRILL file {KiCad 5.1.7-a382d34a8~88~ubuntu18.04.1} date Tue Dec 29 21:04:09 2020
; FORMAT={-:-/ absolute / inch / decimal}
; #@! TF.CreationDate,2020-12-29T21:04:09-05:00
; #@! TF.GenerationSoftware,Kicad,Pcbnew,5.1.7-a382d34a8~88~ubuntu18.04.1
; #@! TF.FileFunction,NonPlated,1,2,NPTH
FMAT,2
INCH
T1C0.0670
T2C0.0866
T3C0.1181
T4C0.1570
%
G90
G05
T1
X7.4516Y-4.0362
X7.8516Y-4.0362
X7.2154Y-5.3815
X7.6154Y-5.3815
X4.1051Y-2.8051
X4.5051Y-2.8051
X4.7744Y-4.6555
X5.1744Y-4.6555
X6.7823Y-3.9181
X7.1823Y-3.9181
X3.4358Y-4.9311
X3.8358Y-4.9311
X4.7744Y-2.7657
X5.1744Y-2.7657
X6.7823Y-2.6583
X7.1823Y-2.6583
X5.4437Y-2.4406
X5.8437Y-2.4406
X4.1051Y-3.435
X4.5051Y-3.435
X6.7823Y-4.548
X7.1823Y-4.548
X7.4516Y-2.7764
X7.8516Y-2.7764
X6.113Y-2.4681
X6.513Y-2.4681
X4.7744Y-3.3957
X5.1744Y-3.3957
X7.4516Y-3.4063
X7.8516Y-3.4063
X4.1051Y-4.065
X4.5051Y-4.065
X4.7744Y-4.0256
X5.1744Y-4.0256
X5.4437Y-3.7004
X5.8437Y-3.7004
X6.113Y-3.098
X6.513Y-3.098
X6.113Y-3.728
X6.513Y-3.728
X6.7823Y-3.2882
X7.1823Y-3.2882
X5.4437Y-3.0705
X5.8437Y-3.0705
X7.4516Y-4.6661
X7.8516Y-4.6661
X8.5539Y-5.539
X8.9539Y-5.539
X6.113Y-4.3579
X6.513Y-4.3579
X7.8846Y-5.3815
X8.2846Y-5.3815
X4.7744Y-5.2854
X5.1744Y-5.2854
X6.5461Y-5.4996
X6.9461Y-5.4996
X5.4437Y-4.3303
X5.8437Y-4.3303
X4.1051Y-4.8524
X4.5051Y-4.8524
X8.239Y-3.9181
X8.639Y-3.9181
X8.239Y-4.548
X8.639Y-4.548
T2
X8.8425Y-3.2402
X3.3937Y-4.437
X6.7087Y-5.0236
X4.874Y-2.2402
X8.6063Y-5.0433
T3
X7.5016Y-4.5661
X7.7516Y-4.4661
X8.6039Y-5.439
X8.8539Y-5.339
X6.163Y-4.2579
X6.413Y-4.1579
X7.9346Y-5.2815
X8.1846Y-5.1815
X4.8244Y-5.1854
X5.0744Y-5.0854
X6.5961Y-5.3996
X6.8461Y-5.2996
X5.4937Y-4.2303
X5.7437Y-4.1303
X4.1551Y-4.7524
X4.4051Y-4.6524
X8.289Y-3.8181
X8.539Y-3.7181
X8.289Y-4.448
X8.539Y-4.348
X7.5016Y-3.9362
X7.7516Y-3.8362
X7.2654Y-5.2815
X7.5154Y-5.1815
X4.1551Y-2.7051
X4.4051Y-2.6051
X4.8244Y-4.5555
X5.0744Y-4.4555
X6.8323Y-3.8181
X7.0823Y-3.7181
X3.4858Y-4.8311
X3.7358Y-4.7311
X4.8244Y-2.6657
X5.0744Y-2.5657
X6.8323Y-2.5583
X7.0823Y-2.4583
X5.4937Y-2.3406
X5.7437Y-2.2406
X4.1551Y-3.335
X4.4051Y-3.235
X6.8323Y-4.448
X7.0823Y-4.348
X7.5016Y-2.6764
X7.7516Y-2.5764
X6.163Y-2.3681
X6.413Y-2.2681
X4.8244Y-3.2957
X5.0744Y-3.1957
X7.5016Y-3.3063
X7.7516Y-3.2063
X4.1551Y-3.965
X4.4051Y-3.865
X4.8244Y-3.9256
X5.0744Y-3.8256
X5.4937Y-3.6004
X5.7437Y-3.5004
X6.163Y-2.998
X6.413Y-2.898
X6.163Y-3.628
X6.413Y-3.528
X6.8323Y-3.1882
X7.0823Y-3.0882
X5.4937Y-2.9705
X5.7437Y-2.8705
T4
X4.9744Y-4.6555
X6.9823Y-3.9181
X3.6358Y-4.9311
X4.9744Y-2.7657
X6.9823Y-2.6583
X5.6437Y-2.4406
X4.3051Y-3.435
X6.9823Y-4.548
X7.6516Y-2.7764
X6.313Y-2.4681
X4.9744Y-3.3957
X7.6516Y-3.4063
X4.3051Y-4.065
X4.9744Y-4.0256
X5.6437Y-3.7004
X6.313Y-3.098
X6.313Y-3.728
X6.9823Y-3.2882
X5.6437Y-3.0705
X7.6516Y-4.6661
X8.7539Y-5.539
X6.313Y-4.3579
X8.0846Y-5.3815
X4.9744Y-5.2854
X6.7461Y-5.4996
X5.6437Y-4.3303
X4.3051Y-4.8524
X8.439Y-3.9181
X8.439Y-4.548
X7.6516Y-4.0362
X7.4154Y-5.3815
X4.3051Y-2.8051
T0
M30
